<?xml version="1.0" encoding="UTF-8"?>
<svg width="16px" height="22px" viewBox="0 0 16 22" version="1.1" xmlns="http://www.w3.org/2000/svg" xmlns:xlink="http://www.w3.org/1999/xlink">
    <!-- Generator: Sketch 59.1 (86144) - https://sketch.com -->
    <title>location-footer</title>
    <desc>Created with Sketch.</desc>
    <g id="Page-1" stroke="none" stroke-width="1" fill="none" fill-rule="evenodd">
        <g id="1-Home" transform="translate(-437.000000, -5889.000000)" fill="#53565A">
            <g id="Footer" transform="translate(0.000000, 5713.000000)">
                <g id="Info" transform="translate(434.000000, 82.000000)">
                    <path d="M11,94 C15.4111808,94 19,97.6384323 19,102.111029 C19,103.481875 18.6552503,104.837904 18.0030524,106.03252 L17.9874781,106.059812 C17.8457711,106.317528 17.6859903,106.5731 17.5121734,106.820093 L11.7477588,116 L10.0899608,116 L4.38880477,106.677394 C4.26094167,106.487324 4.13846228,106.287117 4.024443,106.081451 L3.99579398,106.032325 C3.34436513,104.838684 3,103.482849 3,102.111029 C3,97.6384323 6.58881919,94 11,94 Z M11,95.9494387 C7.6490254,95.9494387 4.92275338,98.7133528 4.92275338,102.111029 C4.92275338,103.145791 5.18021006,104.168077 5.66724349,105.068718 L5.69204701,105.111021 C5.78433917,105.278477 5.88355325,105.440866 5.98699738,105.593507 L6.01141635,105.631521 L10.929435,113.67315 L15.9347466,105.70482 C16.0728002,105.510071 16.1991251,105.308889 16.3102603,105.107122 L16.3285264,105.074371 C16.8155599,104.181918 17.0772466,103.15242 17.0772466,102.111029 C17.0772466,98.7133528 14.3509746,95.9494387 11,95.9494387 Z M11.0001017,98 C13.2056721,98 15,99.7944857 15,102 C15,104.205718 13.2056721,106 11.0001017,106 C8.79432786,106 7,104.205718 7,102 C7,99.7944857 8.79432786,98 11.0001017,98 Z M11.0001017,100.034795 C9.91654585,100.034795 9.03484675,100.916472 9.03484675,102 C9.03484675,103.083732 9.91654585,103.965205 11.0001017,103.965205 C12.0836576,103.965205 12.9651532,103.083732 12.9651532,102 C12.9651532,100.916472 12.0836576,100.034795 11.0001017,100.034795 Z" id="location-footer"></path>
                </g>
            </g>
        </g>
    </g>
</svg>