<?xml version="1.0" encoding="UTF-8"?>
<svg width="38px" height="24px" viewBox="0 0 38 24" version="1.1" xmlns="http://www.w3.org/2000/svg" xmlns:xlink="http://www.w3.org/1999/xlink">
    <!-- Generator: Sketch 59.1 (86144) - https://sketch.com -->
    <title>visa</title>
    <desc>Created with Sketch.</desc>
    <defs>
        <path d="M18.7678643,14.0791038 L18.48,15.8869261 C19.1134618,16.1585012 19.8503624,16.3167861 20.624148,16.3167861 C20.6858905,16.3167861 20.7468311,16.3159826 20.8077718,16.3135722 L20.7989514,16.3135722 C20.8695143,16.3175896 20.951303,16.32 21.0346955,16.32 C21.9239476,16.32 22.7482498,16.0403901 23.4250116,15.5639285 L23.4113801,15.5727668 C24.0255975,15.1163921 24.4201079,14.3924597 24.4201079,13.5761275 C24.4201079,13.5721101 24.4201079,13.5680927 24.4201079,13.5640753 L24.4201079,13.5648788 C24.4201079,12.6810546 23.829946,11.946677 22.6664611,11.3794225 C22.3248728,11.2122994 22.0329992,11.0371415 21.7587664,10.8394862 L21.7772089,10.8523419 C21.6184426,10.7478899 21.5125983,10.5751424 21.5021742,10.3766837 L21.5021742,10.3750768 C21.5150039,10.1661729 21.6344796,9.98780106 21.8060756,9.89299083 L21.809283,9.89138387 C22.0354048,9.75961371 22.3064302,9.68167648 22.5967001,9.68167648 C22.6303778,9.68167648 22.6640555,9.68247996 22.6977332,9.68489039 L22.6929221,9.68489039 L22.7570702,9.68489039 C22.7755127,9.68489039 22.7971627,9.68408691 22.8188126,9.68408691 C23.3352043,9.68408691 23.8251349,9.79577016 24.2669545,9.99583583 L24.2445027,9.98699759 L24.4321357,10.0874322 L24.72,8.3430845 C24.178751,8.12855625 23.5509021,8.00401738 22.8941866,8.00401738 C22.881357,8.00401738 22.8677255,8.00401738 22.8548959,8.00401738 L22.8573015,8.00401738 C22.805983,8.00160695 22.7458443,8 22.6857055,8 C21.8068774,8 20.9921974,8.27880637 20.3258597,8.75285756 L20.3386893,8.74401931 C19.7356978,9.17468276 19.3468003,9.87210043 19.3468003,10.6611144 L19.3468003,10.6651318 C19.3387818,11.51521 19.9497918,12.2495876 21.1637934,12.8505881 C21.4845335,12.9911965 21.7611719,13.1631405 22.0089437,13.369634 L22.0033308,13.3648131 C22.1436546,13.4837277 22.2342637,13.6580821 22.2414803,13.8533269 L22.2414803,13.8549338 L22.2414803,13.8565408 C22.2414803,14.1128498 22.0891288,14.3330024 21.8694217,14.43183 L21.8654125,14.433437 C21.6248574,14.5603863 21.3393986,14.6343061 21.0362992,14.6343061 C21.0242714,14.6343061 21.0114418,14.6343061 20.999414,14.6343061 L21.0010177,14.6343061 C20.983377,14.6343061 20.9617271,14.6343061 20.940879,14.6343061 C20.2536931,14.6343061 19.6025906,14.4816456 19.0188435,14.2084635 L19.0469082,14.2205157 L18.7718736,14.0823177 L18.7678643,14.0791038 Z M27.2727781,15.0764767 L29.8694211,15.0764767 C29.9111972,15.2660449 29.9929216,15.6805527 30.1145944,16.32 L32,16.32 L30.3597676,8.00414508 L28.7931655,8.00414508 C28.7657499,8.00165803 28.7336346,8 28.700736,8 C28.2605208,8 27.883753,8.28849741 27.730226,8.69637306 L27.727876,8.7038342 L24.72,16.32 L26.8505789,16.32 L27.2782612,15.0773057 L27.2727781,15.0764767 Z M16.5624461,8 L15.36,16.32 L17.2782934,16.32 L18.48,8 L16.5624461,8 Z M8.30857336,9.70781568 L9.97675479,16.32 L12.1382752,16.32 L15.36,8.00912827 L13.1889923,8.00912827 L11.1855934,13.6885697 L10.9752918,12.5342589 L10.2605828,8.70951526 C10.1886376,8.30372232 9.85421066,8 9.45179154,8 C9.41067996,8 9.36956838,8.00331937 9.33003801,8.00912827 L9.33478165,8.00829842 L6.02450883,8.00829842 L6,8.17675643 C8.54891798,8.85639737 10.2234243,10.3227289 10.9776637,12.5334291 C10.733366,11.8761939 10.3768021,11.3160503 9.92931835,10.853828 L9.92852775,10.8529982 C9.4802534,10.3700299 8.94184982,9.98249352 8.34177887,9.71777379 L8.31015457,9.70532615 L8.30857336,9.70781568 Z M29.92,13.2 L27.84,13.2 C27.9805926,12.8796589 28.3118519,12.1037463 28.8337778,10.8722622 L28.8780741,10.755044 C28.9185185,10.6685851 28.9685926,10.5555236 29.0321481,10.417522 C29.0957037,10.2795204 29.1380741,10.1664588 29.166963,10.08 L29.348,10.7941167 L29.919037,13.1966747 L29.92,13.2 Z" id="path-1"></path>
    </defs>
    <g id="Page-1" stroke="none" stroke-width="1" fill="none" fill-rule="evenodd">
        <g id="1-Home" transform="translate(-1508.000000, -6062.000000)">
            <g id="Footer" transform="translate(0.000000, 5713.000000)">
                <g id="Opciones-de-Pago" transform="translate(1508.000000, 349.000000)">
                    <g id="visa">
                        <path d="M35.4666667,24 L2.53333333,24 C1.13472222,24 0,22.925 0,21.6 L0,2.4 C0,1.075 1.13472222,0 2.53333333,0 L35.4666667,0 C36.8652778,0 38,1.075 38,2.4 L38,21.6 C38,22.925 36.8652778,24 35.4666667,24 Z" id="Path" fill="#FFFFFF" fill-rule="nonzero"></path>
                        <mask id="mask-2" fill="white">
                            <use xlink:href="#path-1"></use>
                        </mask>
                        <use id="Shape" fill="#0C1F84" fill-rule="nonzero" xlink:href="#path-1"></use>
                    </g>
                </g>
            </g>
        </g>
    </g>
</svg>