<?xml version="1.0" encoding="UTF-8"?>
<svg width="46px" height="46px" viewBox="0 0 46 46" version="1.1" xmlns="http://www.w3.org/2000/svg" xmlns:xlink="http://www.w3.org/1999/xlink">
    <!-- Generator: Sketch 59.1 (86144) - https://sketch.com -->
    <title>youtube</title>
    <desc>Created with Sketch.</desc>
    <g id="Page-1" stroke="none" stroke-width="1" fill="none" fill-rule="evenodd">
        <g id="1-Home" transform="translate(-429.000000, -6051.000000)">
            <g id="Footer" transform="translate(0.000000, 5713.000000)">
                <g id="Follow-us" transform="translate(228.000000, 338.000000)">
                    <g id="youtube" transform="translate(201.000000, 0.000000)">
                        <path d="M40.9659443,9.28749673 C40.1593888,7.34605674 38.6142365,5.80453886 36.6708403,5.00245734 L26.0077511,0.599958324 C24.0643549,-0.202402855 21.8821244,-0.199885863 19.9404063,0.606949969 L9.28766459,5.03377991 C7.34622612,5.84061574 5.80470944,7.38576929 5.00234888,9.32916693 L0.599853297,19.9922645 C-0.202507256,21.9356622 -0.199710601,24.1181741 0.606844937,26.0596141 L5.03395109,36.712364 C5.8407863,38.653804 7.38565897,40.1953219 9.3290551,40.9976831 L19.9921444,45.3999024 C21.9355405,46.2022636 24.1180507,46.2000263 26.0594892,45.3931905 L36.7122309,40.9660809 C38.653949,40.159245 40.1954657,38.6140915 40.9978262,36.6709735 L45.4000421,26.0075962 C46.2024027,24.0644783 46.1998857,21.8819663 45.3930505,19.9405264 L40.9659443,9.28749673 Z" id="btn" fill="#FFFFFF"></path>
                        <path d="M22.4999678,14.0000429 L26.7655826,14.0469178 L28.1744335,14.099001 C30.3706088,14.1944868 31.8072375,14.3333753 32.484319,14.5156667 C33.0468177,14.6719161 33.5311913,14.9531654 33.9374405,15.3594147 C34.3436898,15.7656639 34.6249391,16.2500376 34.7811885,16.8125362 C34.9999382,17.6562842 35.1561876,18.9375309 35.2499374,20.656277 L35.2968123,23.0000215 L35.2499374,25.3437659 L35.2059324,26.0660217 C35.1102694,27.4550489 34.9686883,28.511169 34.7811885,29.2343816 C34.6249391,29.7656301 34.3436898,30.234379 33.9374405,30.6406282 C33.5311913,31.0468775 33.0468177,31.3281268 32.484319,31.4843762 C31.6718212,31.7031259 29.7655755,31.8593753 26.7655826,31.9531251 L22.4999678,32 L18.234353,31.9531251 L17.1606251,31.9150393 C14.7748885,31.8193364 13.2265522,31.6757822 12.5156166,31.4843762 C11.953118,31.3281268 11.4687444,31.0468775 11.0624951,30.6406282 C10.6562458,30.234379 10.3749965,29.7656301 10.2187471,29.2343816 C9.99999738,28.3906336 9.84374799,27.0937615 9.74999821,25.3437659 L9.70312332,23.0000215 C9.70312332,22.3125229 9.71874805,21.5312752 9.74999821,20.656277 L9.7940032,19.9464572 C9.88966619,18.580389 10.0312473,17.5357488 10.2187471,16.8125362 C10.3749965,16.2500376 10.6562458,15.7656639 11.0624951,15.3594147 C11.4687444,14.9531654 11.953118,14.6719161 12.5156166,14.5156667 C13.3281144,14.296917 15.2343601,14.1406676 18.234353,14.0469178 L22.4999678,14.0000429 Z M19.8749741,19.2031555 L19.8749741,26.8437623 L26.5780831,23.0000215 L19.8749741,19.2031555 Z" id="" fill="#53565A" fill-rule="nonzero"></path>
                    </g>
                </g>
            </g>
        </g>
    </g>
</svg>