<?xml version="1.0" encoding="UTF-8"?>
<svg width="60px" height="61px" viewBox="0 0 60 61" version="1.1" xmlns="http://www.w3.org/2000/svg" xmlns:xlink="http://www.w3.org/1999/xlink">
    <!-- Generator: Sketch 59.1 (86144) - https://sketch.com -->
    <title>phone-contact-icon</title>
    <desc>Created with Sketch.</desc>
    <g id="Page-1" stroke="none" stroke-width="1" fill="none" fill-rule="evenodd">
        <g id="4-Contactenos" transform="translate(-273.000000, -486.000000)" fill="#FFFFFF">
            <g id="Contact-Info" transform="translate(273.000000, 486.000000)">
                <g id="Telephone">
                    <path d="M43.3158076,44.4065015 C38.9409048,44.2690244 34.7931002,43.2762313 30.9328663,41.1923227 C22.4162496,36.5959775 17.4488033,29.4763191 15.9248092,19.9434164 C15.7486124,18.8383793 15.7555732,17.7054987 15.6559459,16.5878451 C15.5911228,15.8604348 15.9161081,15.6494336 16.6113244,15.6655306 C18.2780162,15.7046855 19.9468832,15.7064257 21.613575,15.6655306 C22.3301089,15.6476934 22.6276858,15.8104036 22.6524839,16.6126431 C22.7116513,18.5321013 22.9539763,20.4385078 23.5887201,22.26965 C23.7623066,22.7682219 23.6531081,23.1532446 23.3233371,23.5648057 C22.3718741,24.7516329 21.4778382,25.9845759 20.5289855,27.1735784 C20.0199723,27.8109325 19.9333966,28.3930347 20.3184193,29.1578596 C22.6790222,33.8464363 26.2068749,37.3521013 30.8571669,39.7583848 C31.5480326,40.1159992 32.1305699,40.1081682 32.7561775,39.6100314 C33.945615,38.6616137 35.1833436,37.7745387 36.3753915,36.8296014 C36.8069651,36.4880841 37.185027,36.3532173 37.7519023,36.5302843 C39.6269849,37.116302 41.5599298,37.4090933 43.5250686,37.4208398 C44.1324039,37.4247553 44.3712486,37.6357565 44.3473206,38.2496176 C44.3133864,39.1545299 44.3390546,40.0620525 44.3390546,40.9682699 C44.3390546,41.7657239 44.2898935,42.5666582 44.3525412,43.3597616 C44.4160591,44.1702672 44.1371895,44.4326047 43.3158076,44.4065015 M59.6042285,25.2284521 C56.8398955,7.71143877 39.2902532,-3.61519152 22.1399903,1.05554797 C9.99980911,4.3619582 1.30917087,14.6131351 0.150187071,27.1879352 C-0.776912954,37.2433378 2.59475537,45.7743112 10.0833395,52.4641362 C19.574042,60.9424681 32.6347974,62.4255671 43.9827453,56.5575591 C47.9469572,54.5071497 51.2002908,51.6414491 53.32988,47.610239 C54.9782996,44.4895968 53.8924048,41.3576432 50.6207989,40.0577019 C49.7737488,39.7205351 48.8853686,39.453847 47.9891574,39.4551522 C47.0842452,39.4560223 46.9602548,39.0805707 46.9654754,38.2987787 C46.978092,36.0647765 45.9126448,34.9475579 43.6777725,34.8609822 C41.8553314,34.7900684 40.0759606,34.5316463 38.3431406,33.9669463 C37.1423917,33.5753977 36.0738991,33.7824834 35.0858915,34.5725414 C34.1244222,35.3412818 33.123363,36.0612961 32.1536277,36.8195952 C31.8142856,37.0854132 31.551078,37.1837354 31.1090631,36.9340144 C27.7143369,35.012816 25.0496313,32.3885704 23.1736786,28.9551245 C22.9139514,28.4809156 22.9879105,28.1911697 23.2854875,27.8122377 C24.0455268,26.8438075 24.7446585,25.8266513 25.5260154,24.8756233 C26.2586463,23.9846328 26.4666021,23.0075015 26.1542334,21.9307429 C25.5964942,20.0060642 25.3459031,18.0413604 25.2271334,16.0462029 C25.1214152,14.2620465 24.0237741,13.1913787 22.2452734,13.0961018 C21.2333378,13.0421551 20.2161816,13.0865306 19.2016358,13.0865306 L19.2016358,13.0782646 C18.1866548,13.0782646 17.1699337,13.0391098 16.1575631,13.0869657 C14.2642082,13.1770219 13.1526453,14.338616 13.1382885,16.2110883 C13.1217564,18.280205 13.3088297,20.3401856 13.7299619,22.3614464 C16.6813681,36.5424658 29.1230417,46.7901622 43.5624832,46.9633137 C45.6864167,46.9889819 46.9150092,45.8417446 46.9820075,43.7708876 C47.0459604,41.7792105 47.0459604,41.7787755 49.0372025,42.2925742 C49.1424855,42.3195476 49.2442881,42.3591375 49.347831,42.3900263 C51.3334173,42.9816997 51.9855633,44.3956251 51.0963129,46.2411241 C50.2222895,48.0552992 49.0554747,49.6689144 47.5253899,50.979732 C40.8834208,56.6693679 33.1403301,58.5022503 24.6968026,56.8742784 C10.200369,54.0786215 0.65006409,40.4971065 3.03502999,25.9345447 C4.88183412,14.661426 11.4776875,7.00882659 22.4475735,3.82858202 C33.2899887,0.685752093 42.7976583,3.66456667 50.4667898,11.928417 C55.0200647,16.8345207 57.214477,22.8169479 57.391979,29.5206946 C57.423738,30.716658 57.8605322,31.3083314 58.6888749,31.3083314 C59.5729046,31.3083314 60.0384124,30.6579257 59.9975173,29.4406447 C59.9496614,28.0288945 59.8248009,26.6258455 59.6042285,25.2284521" id="phone-contact-icon"></path>
                </g>
            </g>
        </g>
    </g>
</svg>