<?xml version="1.0" encoding="UTF-8"?>
<svg width="84px" height="64px" viewBox="0 0 84 64" version="1.1" xmlns="http://www.w3.org/2000/svg" xmlns:xlink="http://www.w3.org/1999/xlink">
    <!-- Generator: Sketch 59.1 (86144) - https://sketch.com -->
    <title>alta-calidad-icon</title>
    <desc>Created with Sketch.</desc>
    <g id="Page-1" stroke="none" stroke-width="1" fill="none" fill-rule="evenodd">
        <g id="1-Home" transform="translate(-760.000000, -5516.000000)" fill="#E9711C" fill-rule="nonzero">
            <g id="Services" transform="translate(228.000000, 5483.000000)">
                <g id="Alta-Calidad" transform="translate(500.000000, 0.000000)">
                    <path d="M115.5,43.07 C115.55,39.91 113.95,37.98 110.88,37.51 C110.78,37.49 110.74,37.48 110.74,37.48 C110.73,37.47 110.72,37.43 110.7,37.32 C110.24,34.89 108.61,33.55 106.12,33.55 L102.11,33.55 C97.74,33.54 93.37,33.54 89,33.56 L88.29,33.56 C86.67,33.56 84.97,33.56 83.27,33.94 C79.43,34.81 76.46,36.54 74.2,39.23 C74.11,39.34 74.04,39.41 74,39.45 C73.96,39.41 73.89,39.34 73.79,39.22 C70.77,35.68 66.75,33.74 62.15,33.6 C57.17,33.46 52.11,33.5 47.22,33.53 C45.33,33.54 43.43,33.55 41.54,33.56 C39.48,33.56 37.59,35.17 37.32,37.15 C37.27,37.46 37.27,37.46 36.86,37.54 C34.04,38.07 32.49,39.88 32.4999519,42.64 C32.53,53.52 32.52,64.41 32.52,75.29 L32.52,85.97 C32.52,89.28 34.49,91.26 37.78,91.26 L44.19,91.26 C48.63,91.26 53.06,91.26 57.5,91.27 L57.85,91.27 C59.48,91.27 61.02,91.27 62.59,91.6 C65.49,92.21 67.86,93.3 69.82,94.93 C71.08,95.98 72.53,96.5 73.98,96.5 C75.44,96.5 76.9,95.97 78.18,94.91 C81.01,92.56 84.32,91.34 88.01,91.29 C93.11,91.22 98.3,91.23 103.31,91.25 C105.65,91.26 108,91.26 110.34,91.26 C113.45,91.26 115.46,89.26 115.46,86.18 L115.46,64.4 C115.46,62.34 115.45,60.28 115.45,58.22 C115.44,53.25 115.43,48.12 115.5,43.07 Z M37.29,51.68 C37.3,61.65 37.31,71.97 37.24,82.11 C37.23,83.39 37.71,84.58 38.59,85.46 C39.5,86.37 40.74,86.89 42.01,86.89 C42.01,86.89 42.02,86.89 42.02,86.89 C48.85,86.87 55.52,86.86 62.18,86.9 C65.28,86.92 67.79,87.86 69.64,89.7 C70.66,90.71 72.24,91.33 73.93,91.27 C75.69,91.25 77.36,90.6 78.4,89.53 C80.04,87.84 82.39,86.96 85.38,86.92 C89.73,86.86 94.15,86.87 98.43,86.88 C100.94,86.88 103.46,86.89 105.98,86.88 C108.07,86.87 109.63,85.89 110.48,84.05 C110.73,83.51 110.72,82.97 110.71,82.49 L110.71,82.24 L110.71,72.21 C110.71,61.94 110.71,51.67 110.74,41.4 C110.74,41.22 110.7,41.02 110.66,40.81 C110.54,40.2 110.58,40.19 110.8,40.13 C111.09,40.06 111.49,40.16 111.88,40.41 C112.32,40.7 112.67,41.13 112.73,41.49 C112.81,41.92 112.81,42.39 112.81,42.81 C112.81,48.97 112.81,55.13 112.81,61.29 L112.81,64.37 C112.81,66.31 112.81,68.24 112.8,70.18 C112.79,75.38 112.78,80.76 112.840375,86.05 C112.85,87.01 112.66,87.67 112.26,88.08 C111.84,88.51 111.14,88.71 110.06,88.72 C105.82,88.76 101.57,88.75 97.33,88.74 C95.47,88.74 93.61,88.74 91.75,88.74 L90.95,88.74 C88.56,88.73 86.12,88.73 83.73,89.35 C80.99,90.06 78.51,91.31 76.36,93.07 C74.96,94.22 73.03,94.29 71.79,93.25 C68.2,90.22 63.94,88.75 58.78,88.75 C58.77,88.75 58.76,88.75 58.75,88.75 L49.82,88.75 C45.97,88.75 42.11,88.75 38.26,88.76 C37.62,88.79 37.02,88.68 36.49,88.5 C35.61,88.21 35.21,87.72 35.18,86.92 C35.17,86.67 35.16,86.42 35.16,86.17 L35.16,42.5 C35.16,40.94 35.69,40.3 37.13,40.14 C37.19,40.13 37.24,40.14 37.26,40.13 C37.26,40.15 37.26,40.17 37.26,40.2 C37.26,40.42 37.26,40.65 37.26,40.87 L37.26,41.06 C37.28,44.6 37.29,48.14 37.29,51.68 Z M39.89,38.24 C39.89,36.68 40.51,36.05 42.04,36.04 L44.03,36.03 C49.7,35.99 55.55,35.95 61.31,36.08 C65.27,36.17 68.64,37.56 71.3,40.23 C72.28,41.21 72.72,42.25 72.71,43.62 C72.66,52.93 72.66,62.4 72.67,71.56 L72.67,79.78 L72.67,80.01 C72.66,80.53 72.65,81.18 73.07,81.6 C73.31,81.84 73.65,81.95 74.05,81.95 C75.36,81.92 75.35,80.61 75.34,79.98 L75.34,79.82 C75.34,76.53 75.34,73.25 75.35,69.96 C75.36,61.56 75.38,52.87 75.27,44.32 C75.24,42.07 76.08,40.52 78.17,38.97 C80.68,37.11 83.74,36.16 87.53,36.05 C87.97,36.04 88.4,36.04 88.84,36.05 C89.49,36.06 90.15,36.07 90.82,36.02 C91.2,35.99 91.29,36.06 91.29,36.07 C91.3,36.08 91.38,36.17 91.37,36.63 C91.34,40.37 91.35,44.11 91.35,47.85 L91.35,51.12 L91.34,51.36 C91.32,51.86 91.29,52.7 92.19,53.09 C93.05,53.46 93.61,52.91 93.95,52.58 C94.03,52.51 94.1,52.43 94.18,52.37 C94.46,52.15 94.71,51.88 94.94,51.62 C95.38,51.15 95.79,50.7 96.24,50.67 C96.59,50.65 96.96,50.98 97.45,51.54 C97.69,51.82 97.95,52.1 98.24,52.33 C98.3,52.38 98.36,52.43 98.42,52.48 C98.56,52.6 98.71,52.74 98.9,52.84 C98.95,52.87 98.99,52.9 99.04,52.93 C99.3,53.1 99.77,53.41 100.38,53.06 C101.03,52.69 101.12,52.13 101.11,51.63 C101.1,49.43 101.1,47.22 101.1,45.02 L101.11,41.02 C101.12,39.51 101.12,38 101.09,36.49 C101.08,36.15 101.15,36.07 101.15,36.07 C101.15,36.07 101.23,36.01 101.56,36.04 C102.26,36.1 102.95,36.07 103.63,36.05 C104.73,36.01 105.76,35.97 106.77,36.27 C107.91,36.6 108.12,36.9 108.12,38.18 L108.11,45.99 C108.1,51.84 108.09,57.7 108.08,63.55 C108.08,67.23 108.08,70.91 108.08,74.59 L108.08,81.95 C108.08,83.89 107.68,84.29 105.72,84.29 C103.41,84.3 101.1,84.29 98.78,84.29 C95.17,84.29 91.56,84.28 87.95,84.3 C85.12,84.32 82.11,84.53 79.29,85.92 C78.05,86.53 77.08,87.2 76.31,87.96 C75.04,89.23 72.98,89.3 71.7,88.13 C69.79,86.38 67.57,85.24 65.1,84.74 C63.54,84.43 61.86,84.28 59.98,84.28 C59.96,84.28 59.94,84.28 59.92,84.28 C55.87,84.28 51.82,84.28 47.77,84.28 L42.47,84.28 C42.27,84.28 42.07,84.28 41.87,84.27 C40.33,84.17 39.91,83.71 39.91,82.16 L39.91,59.78 L39.89,59.78 L39.89,52.95 L39.89,38.24 Z M98.61,41.06 L98.61,44.16 C98.61,45.81 98.61,47.47 98.61,49.12 C98.61,49.14 98.61,49.15 98.61,49.17 C98.59,49.16 98.58,49.15 98.57,49.14 C98.36,49 98.16,48.8 97.95,48.58 C97.5,48.12 96.99,47.6 96.24,47.6 C96.23,47.6 96.22,47.6 96.22,47.6 C95.49,47.61 95.02,48.12 94.6,48.58 C94.4,48.8 94.2,49.01 94,49.14 C94,49.14 93.99,49.14 93.99,49.15 L93.99,44.24 C93.99,41.64 93.99,39.03 93.98,36.43 C93.98,36.21 94.02,36.1 94.05,36.07 C94.06,36.06 94.16,36 94.46,36.01 C95.76,36.06 96.95,36.06 98.09,36.01 C98.42,36 98.53,36.06 98.55,36.09 C98.58,36.12 98.65,36.22 98.64,36.59 C98.6,38.09 98.61,39.57 98.61,41.06 Z" id="alta-calidad-icon"></path>
                </g>
            </g>
        </g>
    </g>
</svg>