<?xml version="1.0" encoding="UTF-8"?>
<svg width="19px" height="20px" viewBox="0 0 19 20" version="1.1" xmlns="http://www.w3.org/2000/svg" xmlns:xlink="http://www.w3.org/1999/xlink">
    <!-- Generator: Sketch 59.1 (86144) - https://sketch.com -->
    <title>llamanos-icon</title>
    <desc>Created with Sketch.</desc>
    <g id="Page-1" stroke="none" stroke-width="1" fill="none" fill-rule="evenodd">
        <g id="1-Home" transform="translate(-1490.000000, -6.000000)" fill="#53565A">
            <g id="Header">
                <g id="Top">
                    <g id="Phone" transform="translate(1490.000000, 5.000000)">
                        <path d="M14.2019525,13.9761115 C16.0103912,15.0719812 17.3241557,16.5690155 17.9595352,18.614536 C18.1458926,19.2139673 18.2376377,19.8310418 18.257707,20.4580407 C18.2669697,20.7451855 18.0446641,20.9820469 17.7625918,20.9990285 C17.48074,21.0160102 17.2357186,20.8084809 17.2021963,20.5235415 C17.1973444,20.4820797 17.1938158,20.4401769 17.1913898,20.3984946 C17.0692099,18.3459167 16.1098553,16.7430226 14.524825,15.4907891 C14.1505664,15.1952638 13.7242601,14.9656803 13.3217722,14.7058826 C13.2908964,14.6858134 13.2591385,14.6672879 13.2178973,14.6423667 C13.2558304,14.6136964 13.2822953,14.5938477 13.3087603,14.5737784 C13.5603979,14.3827896 13.8124766,14.1929036 14.0623499,13.9999299 C14.1075609,13.9648639 14.1413037,13.9392811 14.2019525,13.9761115 Z M13.3452158,4.51879342 C14.4666683,5.84998069 14.8841529,7.39266706 14.5703227,9.10428806 C14.2573746,10.8134831 13.2914037,12.0771847 11.7987802,12.9575856 L12.6607046,13.2538461 C12.8055022,13.3036149 12.9516231,13.3538248 13.1001944,13.4048434 C13.0549834,13.4460846 13.0362374,13.4690209 13.0126395,13.4835766 C12.6926341,13.6822843 12.3741724,13.8829769 12.0495356,14.0735246 C11.9963852,14.1048414 11.9090508,14.1101344 11.848402,14.091609 C10.8484677,13.7870414 9.82581775,13.6472182 8.78221633,13.693973 C6.65796256,13.7890263 4.76836473,14.486819 3.1954642,15.9461407 C2.12385404,16.9405614 1.41900405,18.1519948 1.15567774,19.6013922 C1.10363,19.8885369 1.08664832,20.182739 1.06216823,20.4747357 C1.03592382,20.7874633 0.810751153,21.0073429 0.511917696,20.9987418 C0.217715606,20.9905818 -0.00613381077,20.748648 0.000128211629,20.4387875 C0.00357000629,20.286614 0.0130532821,20.13422 0.0284911729,19.9827081 C0.197866889,18.3222527 0.873384882,16.887411 1.98844168,15.6585549 C3.1789236,14.3458931 4.65258055,13.488649 6.34986637,13.0041198 C6.3858146,12.9937544 6.42154229,12.9831684 6.46609163,12.9701565 C4.57230352,11.8074627 3.55318218,10.1461252 3.59949585,7.91182127 C3.63169488,6.36295974 4.26597165,5.05845797 5.4037442,4.00890194 C7.69252179,1.89743956 11.3310121,2.12746413 13.3452158,4.51879342 Z M15.1733708,4.21479929 C15.7481014,5.05660542 16.1245654,5.98199671 16.2985725,6.98744448 C16.314672,7.08161561 16.3470916,7.1376331 16.4428065,7.17710999 C16.6794473,7.27392762 16.8384576,7.46381368 16.9467434,7.68633985 C17.2907878,8.39295416 17.29167,9.10486147 16.9306439,9.80508009 C16.7742801,10.1083244 16.5409474,10.3295273 16.1735256,10.3608442 C16.1450758,10.3632701 16.1086864,10.4164206 16.0972183,10.4528099 C15.9395313,10.9516743 15.7357511,11.43069 15.4724248,11.8830202 C14.5706314,13.433205 13.2800238,14.5233406 11.5968526,15.1443849 C11.5154728,15.1743785 11.4691592,15.2151786 11.4349753,15.2978816 C11.3205143,15.5753226 10.9996268,15.6917684 10.7274788,15.5647366 C10.4656963,15.4429978 10.3536613,15.1333578 10.4756206,14.8693699 C10.6015497,14.5967808 10.9202319,14.4792323 11.1875279,14.6172912 C11.2695693,14.6598557 11.3348495,14.6649281 11.4210812,14.6333907 C12.4622566,14.2498694 13.3600803,13.6537463 14.108818,12.8344353 C14.9700317,11.8929445 15.5339558,10.7961927 15.7650831,9.54285649 C16.1044962,7.70243936 15.7531739,5.99015673 14.6826664,4.45430714 C13.5276916,2.79760092 11.9287672,1.81464836 9.92073873,1.5868292 C7.64806066,1.32901642 5.70398913,2.06408056 4.14432107,3.7368863 C2.95317753,5.01426149 2.38241665,6.55408083 2.36786093,8.29922411 C2.3671993,8.86314821 2.43733144,9.41692741 2.58156544,9.96078225 C2.60339903,10.0434852 2.5839914,10.0939892 2.52290146,10.1486834 C2.20708632,10.4322995 1.80746549,10.4382542 1.49142981,10.1526532 C1.22633917,9.91314533 1.09048573,9.60107939 1.0192509,9.2587993 C0.903466715,8.70391739 0.94867768,8.16667879 1.22369268,7.66274193 C1.36836777,7.39721021 1.56663439,7.18901922 1.87847979,7.11690222 C1.90759124,7.11006544 1.93846702,7.05448903 1.94508326,7.0174381 C2.05336904,6.42285876 2.2165696,5.84393785 2.47658779,5.29809814 C3.5265849,3.09422896 5.22938426,1.67703059 7.62203679,1.16559532 C10.5671453,0.536170459 13.4793931,1.73282754 15.1733708,4.21479929 Z M9.10663258,3.62625548 C6.6506847,3.63067361 4.64706701,5.64355403 4.65059102,8.10281003 C4.65434488,10.5618455 6.65465444,12.5700945 9.10222176,12.5711979 C11.5976465,12.5725205 13.6092037,10.5724315 13.6039211,8.09553217 C13.5981766,5.61598637 11.5919125,3.62185196 9.10663258,3.62625548 Z" id="llamanos-icon"></path>
                    </g>
                </g>
            </g>
        </g>
    </g>
</svg>