<?xml version="1.0" encoding="UTF-8"?>
<svg width="35px" height="24px" viewBox="0 0 35 24" version="1.1" xmlns="http://www.w3.org/2000/svg" xmlns:xlink="http://www.w3.org/1999/xlink">
    <!-- Generator: Sketch 59.1 (86144) - https://sketch.com -->
    <title>envio-gratis-top-icon</title>
    <desc>Created with Sketch.</desc>
    <g id="Page-1" stroke="none" stroke-width="1" fill="none" fill-rule="evenodd">
        <g id="1-Home" transform="translate(-755.000000, -5.000000)" fill="#53565A">
            <g id="Header">
                <g id="Top">
                    <path d="M762.476528,5.00022222 C765.67017,5.00022222 768.395702,7.28389491 768.955683,10.4246011 L768.986307,10.60397 L779.407205,10.60397 C780.352173,10.60397 781.227143,11.0725166 781.7565,11.8556151 L787.150692,19.8874057 L787.246939,19.9005303 C788.817511,20.1109607 790.003096,21.4627899 790.003096,23.0508611 C790.003096,24.5995587 788.896258,25.9159516 787.37381,26.1784428 L787.225065,26.2051293 L787.198816,26.3534368 C786.936325,27.8890098 785.619494,29.0002222 784.062047,29.0002222 C782.592097,29.0002222 781.319015,28.0031935 780.973401,26.5682421 L780.934028,26.4019977 L769.222549,26.4019977 L769.183176,26.5638672 C768.837562,27.9940063 767.56448,28.9958474 766.09453,28.9958474 C764.620205,28.9958474 763.351498,27.9983811 763.005885,26.5638672 L762.966511,26.4019977 L761.111574,26.4019977 C760.79221,26.4019977 760.529719,26.1438814 760.529719,25.8240797 L760.516594,22.7835577 C760.516594,22.6308754 760.573467,22.4821304 760.687213,22.3727591 C760.796585,22.2633878 760.940955,22.2017024 761.098449,22.1973275 C761.422188,22.1973275 761.680305,22.4598186 761.684679,22.7791828 L761.697804,25.2422244 L762.970886,25.2422244 L763.01026,25.0759801 C763.355873,23.6454035 764.62458,22.6439999 766.098905,22.6439999 C767.568855,22.6439999 768.841937,23.6410287 769.18755,25.0720427 L769.226924,25.2382871 L780.934028,25.2382871 L780.973401,25.0720427 C781.319015,23.6410287 782.592097,22.6391876 784.062047,22.6391876 C785.4445,22.6391876 786.660709,23.5233451 787.08507,24.8397381 L787.146318,25.032669 L787.343186,24.9801708 C788.218156,24.7439288 788.830635,23.9472683 788.830635,23.0372991 C788.830635,21.9304616 787.929416,21.0253047 786.818204,21.0253047 L779.840315,21.0253047 C779.520951,21.0253047 779.25846,20.7671884 779.25846,20.4473868 L779.219086,14.4582145 C779.219086,14.3011573 779.275959,14.1567872 779.389705,14.0430411 C779.499076,13.9336698 779.647821,13.8719844 779.805316,13.8719844 L781.717126,13.8719844 L780.789658,12.4943435 C780.479043,12.0349841 779.962811,11.7589309 779.407205,11.7589309 L769.056305,11.7589309 L769.04318,11.9693613 C768.837562,15.4381814 765.954535,18.1597767 762.476528,18.1597767 C758.849775,18.1597767 755.89675,15.2067517 755.89675,11.5799995 C755.89675,7.95324725 758.849775,5.00022222 762.476528,5.00022222 Z M766.09453,23.8120854 C764.983318,23.8120854 764.082098,24.7128674 764.082098,25.8240797 C764.082098,26.9352921 764.983318,27.8365116 766.09453,27.8365116 C767.201368,27.8365116 768.106962,26.9352921 768.106962,25.8240797 C768.106962,24.7172422 767.205743,23.8120854 766.09453,23.8120854 Z M784.062047,23.8120854 C782.950835,23.8120854 782.049615,24.7128674 782.049615,25.8240797 C782.049615,26.9352921 782.950835,27.8365116 784.062047,27.8365116 C785.173259,27.8365116 786.074479,26.9352921 786.074479,25.8240797 C786.074479,24.7172422 785.168884,23.8120854 784.062047,23.8120854 Z M761.676105,19.8221767 C761.995469,19.8221767 762.25796,20.0802929 762.262335,20.404032 C762.262335,20.7273335 762.004219,20.9858873 761.68048,20.9902621 L757.703739,21.0033867 C757.384375,21.0033867 757.121884,20.744833 757.121884,20.4215314 C757.121884,20.0977924 757.38,19.8396761 757.703739,19.8348638 L761.676105,19.8221767 Z M782.49585,15.049257 L780.387171,15.049257 L780.42217,19.8699063 L785.73324,19.8699063 L782.49585,15.049257 Z M757.830566,17.6781055 C758.14993,17.6781055 758.412422,17.9362218 758.416796,18.2560235 C758.416796,18.5797625 758.15868,18.8378788 757.834941,18.8418161 L755.581892,18.8505658 C755.262528,18.8505658 755.000037,18.5924496 755.000037,18.2735229 C755.000037,17.9493463 755.258153,17.6916676 755.581892,17.6872927 L757.830566,17.6781055 Z M762.476528,6.16349534 C760.958454,6.16349534 759.497254,6.81534827 758.469163,7.95324725 C758.333543,8.10199221 758.206672,8.25467455 758.092926,8.4126067 C757.419199,9.34445015 757.064836,10.4381631 757.064836,11.5799995 C757.064836,12.7213983 757.419199,13.8107364 758.097301,14.7425799 C758.211047,14.8956997 758.333543,15.0531944 758.469163,15.2019394 C759.497254,16.3398383 760.958454,16.9912538 762.476528,16.9912538 C763.994601,16.9912538 765.455802,16.3398383 766.483892,15.2019394 C766.619512,15.0531944 766.742008,14.9005121 766.855754,14.7425799 C767.529482,13.8107364 767.883845,12.7170235 767.883845,11.5799995 C767.883845,10.4421005 767.529482,9.34445015 766.85138,8.41654407 C766.737633,8.2590494 766.610763,8.10592958 766.479517,7.9576221 C765.455802,6.81534827 763.994601,6.16349534 762.476528,6.16349534 Z M764.235218,9.87354474 C764.414587,9.69417581 764.707702,9.69417581 764.882696,9.87791959 C765.062065,10.0572885 765.062065,10.3504036 764.882696,10.5297725 L764.882696,10.5297725 L761.693429,13.7190396 C761.605932,13.8109114 761.487811,13.85466 761.36969,13.85466 C761.251569,13.85466 761.137823,13.8109114 761.045951,13.7190396 L761.045951,13.7190396 L759.676622,12.3497109 C759.497254,12.170342 759.497254,11.8772269 759.676622,11.697858 C759.855991,11.5184891 760.149106,11.5184891 760.328475,11.697858 L760.328475,11.697858 L761.36969,12.7390727 Z" id="envio-gratis-top-icon"></path>
                </g>
            </g>
        </g>
    </g>
</svg>