<svg width="96" height="82" xmlns="http://www.w3.org/2000/svg" xmlns:xlink="http://www.w3.org/1999/xlink"><defs><path id="a" d="M.112.08H93.43v79.875H.11z"/><path id="c" d="M0 .096h79.071v58.531H0z"/><path id="e" d="M0 81.92h95.78V.13H0z"/></defs><g fill="none" fill-rule="evenodd"><g transform="translate(2.35 .051)"><mask id="b" fill="#fff"><use xlink:href="#a"/></mask><path d="m85.976 37.15-.555.665-.555.665-.555.665-.033.035-.032.034-.033.035-.033.035-.032.034-.033.035-.032.035-.033.035-.033.034-.032.035-.033.035-.033.034-.032.035-.033.035-.033.034-.032.035-.027.027-.026.026-.027.027-.026.026-.027.027-.026.026-.027.027-.026.026-.027.027-.026.026-.027.027-.026.026-.027.027-.027.026-.026.027-.027.026-.026.027-.027.026-.026.027-.027.026-.026.027-.027.027-.026.026-.027.027-.026.026-.027.027-.026.026-.027.027-.026.026-.027.027-.026.026-.027.027-.026.026-.027.027-.026.026-.027.027-.027.026-.026.027-.027.026-.026.027-.027.026-.026.027-.027.026-.026.027-.027.027-.026.026-.027.027-.026.026-.027.027-.026.026-.027.027-.026.026-.027.027-.027.026-.026.027-.027.026-.026.027-.027.026-.026.027-.027.026-.026.027-.027.026-.026.027-.027.026-.026.025-.026.024-.026.025-.026.024-.027.025-.026.024-.026.025-.026.024-.026.024-.026.025-.026.024-.027.025-.026.024-.026.024-.026.025-.026.024-.026.025-.027.024-.026.025-.026.024-.026.024-.026.025-.027.024-.026.025-.026.024-.026.025-.026.024-.026.025-.026.024-.027.024-.026.025-.026.024-.026.025-.026.024-.027.024-.026.025-.026.024-.026.025-.026.024-.026.025-.026.024-.027.025-.026.024-.026.024-.026.025-.026.024-.027.025-.026.024-.026.025-.026.024-.026.024-.026.025-.026.024-.027.025-.026.024-.026.025-.026.024-.026.024-.026.025-.027.024-.026.025-.026.024-.026.025-.026.024-.026.024-.027.025-.026.024-.026.025-.026.024-.026.025-.026.024-.027.025-.026.024-.026.024-.026.025-.026.024-.026.025-.027.024-.026.024-.026.025-.026.024-.026.025-.027.024-.026.025-.026.024-.026.025-.026.024-.026.024-.026.025-.027.024-.026.025-.026.024-.026.025-.026.024-.026.024-.027.025-.026.024-.026.025-.026.024-.026.025-.026.024-.026.024-.027.025-.026.024-.026.025-.026.024-.026.025-.027.024-.026.025-.026.024-.026.024-.026.025-.026.024-.027.025-.026.024-.026.024-.026.025-.026.024-.026.025-.027.024-.026.025-.026.024-.026.025-.026.024-.026.024-.027.025-.026.024-.026.025V44.55l-.001.021v.026l-.001.032-.001.038-.001.043-.001.049-.001.054-.002.059-.001.064-.002.07c0 .023 0 .048-.002.074l-.001.079-.002.084-.002.09-.002.093-.003.099-.002.103-.002.107-.003.112a28.234 28.234 0 0 0-.008.362l-.003.129-.003.133-.003.136-.003.141-.003.145a30.6 30.6 0 0 1-.01.456l-.004.159a345.066 345.066 0 0 0-.007.328l-.004.169a64.577 64.577 0 0 0-.011.526l-.004.181-.004.184-.004.187-.005.19-.004.193a84.46 84.46 0 0 0-.008.392l-.005.2-.004.203-.004.204-.005.207-.004.209-.005.21-.004.214-.005.214-.004.217a58.285 58.285 0 0 0-.01.438l-.005.222-.004.223a65.737 65.737 0 0 1-.01.45l-.004.228a2184.738 2184.738 0 0 0-.015.688l-.005.231-.004.233-.005.233a134.286 134.286 0 0 0-.015.703l-.004.236-.005.236-.005.237-.005.236-.004.237-.005.237-.005.237a72.515 72.515 0 0 0-.014.711l-.005.237-.004.236-.005.236-.004.235-.005.235-.004.234-.005.233-.004.233-.005.231-.004.231a125.05 125.05 0 0 1-.013.686l-.004.226-.004.225-.004.223-.004.222-.004.22a63.96 63.96 0 0 0-.004.22l-.003.216-.004.216-.004.213-.003.211a1100.907 1100.907 0 0 1-.01.622l-.004.203a94.916 94.916 0 0 1-.01.594l-.002.193-.003.19-.003.188-.003.185-.002.182-.003.18a742.183 742.183 0 0 1-.005.348l-.002.17-.002.167a35.943 35.943 0 0 0-.004.323l-.002.156-.001.153a51.866 51.866 0 0 1-.007.576l-.002.136a366.588 366.588 0 0 1-.005.264c0 .043-.002.086-.003.128l-.003.125-.004.122-.004.12a158.449 158.449 0 0 1-.008.231l-.005.112-.005.109-.006.107-.005.104-.006.102-.006.099-.007.097-.007.095-.007.092-.007.09-.008.088-.008.085-.008.083-.009.082-.008.079-.01.077a8.366 8.366 0 0 1-.019.147l-.01.071-.01.07-.01.067c-.005.021-.008.043-.012.065l-.011.063-.012.062-.011.06a3.241 3.241 0 0 1-.025.114l-.013.054a1.852 1.852 0 0 1-.013.053l-.013.051a2.272 2.272 0 0 1-.027.098l-.015.047-.014.045a2.855 2.855 0 0 1-.03.086l-.015.041-.016.04-.016.038a1.989 1.989 0 0 1-.05.108l-.017.033a1.49 1.49 0 0 1-.072.122l-.018.029a1.095 1.095 0 0 1-.098.126l-.02.022-.021.022a3.203 3.203 0 0 0-.021.021l-.022.02a.766.766 0 0 1-.065.058l-.023.018a1.5 1.5 0 0 1-.046.034l-.023.016-.024.016-.024.016-.025.015-.024.015a1.55 1.55 0 0 1-.025.014l-.026.014-.025.014-.026.014-.026.014-.027.013-.027.013-.027.014-.027.013-.028.013-.028.013-.028.014-.029.013-.029.014-.029.013a1.971 1.971 0 0 0-.09.043l-.03.014-.03.015-.031.016-.032.015-.031.017a2.53 2.53 0 0 0-.032.016l-.033.017a1.996 1.996 0 0 0-.098.055l-.034.02-.034.02a1.404 1.404 0 0 0-.034.02l-.034.022a3.81 3.81 0 0 0-.035.023l-.035.023-.035.024a1.95 1.95 0 0 0-.072.05l-.036.027-.036.028a1.747 1.747 0 0 0-.074.058l-.038.03-.038.032-.038.033a40.06 40.06 0 0 0-.077.07l-.039.036a2.653 2.653 0 0 0-.04.038l-.039.04a6.866 6.866 0 0 0-.125.054l-.04.018-.04.018-.04.018-.038.018-.038.018-.037.018-.037.018a3.038 3.038 0 0 1-.036.017l-.035.018-.035.018-.034.017-.034.018-.034.017-.032.017-.033.018-.031.017-.032.017-.03.017-.03.017-.03.017-.03.017a2.92 2.92 0 0 0-.03.016l-.028.017a2.012 2.012 0 0 1-.084.05l-.027.016-.027.016-.027.017-.026.016-.026.016-.026.016-.025.016-.025.016-.025.016-.025.015-.024.016a2.52 2.52 0 0 1-.024.016l-.024.015-.024.016-.024.015-.023.015-.023.015a2.313 2.313 0 0 1-.047.03l-.023.015-.022.015-.023.015-.023.015-.023.014a.827.827 0 0 1-.022.015l-.023.014-.022.015-.023.014-.022.014-.022.014-.023.014-.023.014-.022.014-.023.014-.023.013-.022.014a.966.966 0 0 1-.023.013l-.023.014a1.312 1.312 0 0 1-.023.013l-.024.014-.023.013-.024.013-.024.013-.024.012-.024.013-.024.013-.025.012-.025.013-.025.012-.025.013a1.555 1.555 0 0 1-.026.012l-.025.012-.027.012-.026.012-.027.012-.027.011-.028.012-.028.012-.028.011-.028.011-.03.012-.029.01-.03.012-.03.01-.03.012-.032.01-.032.011-.032.01-.033.01-.033.011-.034.01c-.01.004-.022.007-.034.01l-.035.01-.035.01a2.386 2.386 0 0 1-.036.01l-.037.01-.037.01a1.593 1.593 0 0 1-.076.018l-.039.01-.04.009-.04.009-.04.009-.042.009-.043.008-.043.009-.044.009-.044.008-.046.008-.045.008-.047.009-.048.007-.048.008a4.367 4.367 0 0 1-.1.015l-.05.008-.052.007-.053.008-.053.007a3.826 3.826 0 0 1-.054.007l-.055.007-.054.007a65.583 65.583 0 0 0-.111.013l-.056.006-.056.007-.056.006-.057.006-.058.006-.057.006-.058.006-.058.006-.059.006-.06.006-.059.005-.06.006-.06.005-.06.005-.06.006-.062.005-.062.005a4.584 4.584 0 0 1-.187.015l-.063.005-.064.004-.064.005-.064.005-.065.004a9.562 9.562 0 0 1-.065.005l-.065.004-.066.005-.067.004-.067.004a5.976 5.976 0 0 1-.067.005l-.067.004-.068.004-.069.004-.069.004-.069.004-.07.004-.07.004a12.06 12.06 0 0 1-.07.004l-.071.004-.071.004-.072.004-.072.004-.073.004-.073.004-.074.004-.074.003-.074.004a13.062 13.062 0 0 1-.15.008l-.076.003-.076.004a14.34 14.34 0 0 1-.154.008l-.077.003a7.432 7.432 0 0 1-.157.008l-.079.003-.079.004-.08.004-.08.004-.08.004c-.028 0-.055.002-.082.003l-.082.004-.082.004a18.275 18.275 0 0 1-.165.008l-.084.003-.084.004-.085.004-.085.004-.085.004-.086.004-.087.005c-.029 0-.058.002-.087.004l-.087.004-.088.004-.089.004-.089.004-.09.005-.09.004-.09.004-.09.005-.092.004-.092.005-.093.005-.093.004-.093.005-.094.005-.095.005-.095.005a23.476 23.476 0 0 0-.192.01l-.097.005-.097.005-.098.005-.098.006-.099.005-.1.006a13.59 13.59 0 0 0-.1.006l-.1.005-.1.006-.102.006-.102.006-.103.006-.103.006-.104.006-.104.007a30.146 30.146 0 0 0-.21.013l-.107.006-.106.007-.107.007-.108.007-.108.007-.109.008-.11.007-.11.007-.11.008-.111.008-.112.007-.112.008-.113.009-.146.038-.147.038-.146.038-.145.037-.145.038a79.346 79.346 0 0 1-.289.075l-.143.037-.143.037-.143.037-.143.036-.142.037-.141.036-.141.036-.14.036-.14.036-.14.036-.14.036-.139.035-.138.035-.138.035-.138.035-.137.035-.136.035a69.805 69.805 0 0 1-.408.103l-.135.034-.134.034-.134.034-.134.033-.133.034-.133.033-.132.033-.132.033-.13.033-.132.033-.13.032a93.555 93.555 0 0 1-.26.065l-.129.032-.129.032-.128.032-.128.031-.127.032-.127.031-.126.031-.126.031-.126.031-.125.03-.125.031-.124.03-.123.03-.124.03-.123.03-.122.03-.122.03a53.853 53.853 0 0 1-.242.059l-.12.029-.12.029-.12.029-.12.028-.118.029-.119.028-.118.028c-.039.01-.078.02-.117.028l-.117.028a25.423 25.423 0 0 0-.232.055l-.116.028-.115.027-.114.027-.114.027-.114.027-.113.026-.113.027-.112.026-.112.026-.112.026-.11.026-.11.026-.11.025-.11.025-.11.025-.108.026-.108.024-.108.025-.107.024-.106.025-.107.024-.105.024-.106.024-.105.024-.104.023-.104.024-.103.023-.103.023-.103.023-.102.023-.101.022-.101.023-.1.022-.1.022-.1.022-.1.022-.098.022-.098.02-.098.022-.098.021a12.793 12.793 0 0 1-.193.042l-.095.02-.096.021-.095.02-.094.02c-.031.008-.063.014-.094.02-.031.008-.062.014-.093.02l-.093.02-.093.02-.092.02-.091.019a14.222 14.222 0 0 1-.272.056l-.09.019-.088.018-.09.018-.087.018-.088.018a11.437 11.437 0 0 1-.174.035l-.086.018-.086.017-.085.017-.085.017-.084.017-.083.016a13.42 13.42 0 0 0-.249.05l-.082.015-.08.016-.082.015-.08.016-.08.015-.08.015-.078.015-.078.015-.078.014-.078.015-.077.014a24.614 24.614 0 0 1-.152.028l-.075.014-.075.013-.074.014a8.04 8.04 0 0 1-.074.013l-.074.013-.073.013-.072.013a11.76 11.76 0 0 0-.072.013l-.071.012-.071.012-.07.012-.07.012-.07.012a6.306 6.306 0 0 1-.205.034l-.068.011-.067.011-.066.01a5.742 5.742 0 0 1-.066.011l-.065.01a6.614 6.614 0 0 1-.065.01l-.065.011-.064.01-.063.01-.063.01-.062.009-.062.009-.061.009-.061.009-.06.009-.06.008-.06.008-.058.009-.059.008-.058.008-.057.007-.057.008-.056.007-.056.007-.055.007-.055.007-.054.007-.054.006-.053.007a7.212 7.212 0 0 0-.052.006l-.053.006-.051.006-.051.005a3.738 3.738 0 0 1-.05.006l-.051.005a3.364 3.364 0 0 1-.05.005l-.049.005-.048.005-.048.005-.048.004-.047.004-.046.004-.046.004-.046.004-.045.004c-.015 0-.03.002-.044.003l-.044.003a2.509 2.509 0 0 1-.086.006l-.042.003-.042.002-.041.003-.041.002-.04.002-.04.002a3.79 3.79 0 0 0-.04.002l-.038.001-.038.002h-.037l-.038.002h-.036c-.012 0-.024 0-.036.002H39.502l-.032-.001-.032-.001-.031-.001a31.13 31.13 0 0 1-.177-.01l-.027-.002-.027-.002-.027-.002-.025-.003-.026-.003-.025-.003-.024-.003-.024-.004-.023-.003-.024-.004-.025-.004-.026-.005-.028-.004-.03-.005-.03-.006-.033-.005-.033-.006-.035-.006-.037-.006-.037-.007a2.404 2.404 0 0 0-.04-.007l-.04-.007-.041-.007a2.897 2.897 0 0 0-.043-.008l-.045-.008a10.27 10.27 0 0 0-.045-.008l-.047-.009-.048-.008-.05-.01-.05-.008-.052-.01-.054-.01a5.11 5.11 0 0 0-.11-.02l-.056-.01a3.703 3.703 0 0 1-.059-.01l-.059-.012-.06-.01-.062-.012-.062-.012a19.698 19.698 0 0 0-.064-.011c-.022-.004-.043-.009-.065-.012l-.066-.013-.068-.012a9.124 9.124 0 0 0-.068-.013l-.07-.013-.07-.013-.072-.013-.072-.014-.074-.014-.074-.014-.076-.014-.077-.014-.078-.015-.079-.015-.08-.015-.08-.015-.082-.015-.083-.016-.083-.016-.085-.016-.086-.016-.086-.016a14.975 14.975 0 0 0-.265-.05l-.09-.017-.091-.017-.092-.018-.093-.017-.093-.018-.094-.018-.096-.018a17.99 17.99 0 0 0-.192-.036l-.098-.019-.098-.018-.1-.02a71.3 71.3 0 0 0-.506-.096 20.907 20.907 0 0 0-.104-.02l-.104-.02c-.035-.006-.07-.012-.105-.02l-.106-.02-.106-.02-.107-.02-.108-.02a20.073 20.073 0 0 0-.108-.021l-.109-.02-.11-.022-.11-.02-.11-.022-.111-.021-.112-.021a88.879 88.879 0 0 0-.683-.131 44.578 44.578 0 0 1-.116-.022l-.116-.022-.117-.023-.117-.022-.117-.022-.119-.023a15.86 15.86 0 0 0-.118-.023l-.119-.023-.12-.022-.12-.023-.12-.023a17.9 17.9 0 0 0-.12-.023l-.121-.024-.122-.023-.121-.023-.122-.024-.123-.023-.123-.024-.123-.023a50.736 50.736 0 0 1-.123-.024l-.124-.023-.124-.024-.125-.024-.124-.024-.125-.024-.125-.024-.126-.024-.125-.024-.126-.024-.126-.024a36.148 36.148 0 0 0-.127-.025l-.126-.024-.127-.024-.127-.025-.127-.024-.127-.024-.127-.025-.128-.024-.127-.025-.128-.024-.128-.025-.128-.024-.128-.025-.128-.024-.128-.025-.128-.024a37.233 37.233 0 0 0-.129-.025l-.128-.025-.128-.024-.129-.025-.128-.025-.128-.024-.129-.025-.128-.025-.128-.024-.128-.025-.129-.024-.128-.025a37.047 37.047 0 0 1-.128-.024l-.128-.025-.128-.024-.127-.025-.128-.024-.128-.025-.127-.024-.127-.025-.128-.024-.126-.025-.127-.024-.127-.024-.126-.024-.126-.024-.126-.025-.126-.024-.126-.024-.125-.024-.125-.024-.125-.023-.124-.024-.124-.024-.124-.024-.124-.024-.123-.023-.123-.024-.122-.023-.123-.024a49.468 49.468 0 0 0-.243-.046l-.121-.023-.121-.023-.12-.023-.12-.023-.12-.023-.12-.023-.118-.023-.118-.022-.118-.023-.117-.022-.117-.022-.116-.023-.116-.022-.116-.022-.115-.022-.114-.022-.114-.021a34.525 34.525 0 0 0-.113-.022l-.113-.021-.112-.022-.111-.02-.111-.022-.11-.021-.11-.02-.11-.022a22.962 22.962 0 0 1-.108-.02l-.108-.02a19.143 19.143 0 0 0-.107-.021l-.107-.02-.105-.02-.106-.02a76.965 76.965 0 0 1-.311-.06l-.102-.02-.102-.018-.101-.02-.1-.019a42.944 42.944 0 0 0-.1-.018l-.098-.02c-.033-.005-.066-.012-.098-.018a66.904 66.904 0 0 1-.29-.054l-.094-.018-.094-.018a61.361 61.361 0 0 1-.093-.017l-.092-.018-.091-.017-.09-.017-.09-.017-.089-.017-.087-.016-.087-.016-.086-.017-.085-.016-.084-.015-.083-.016-.082-.015-.082-.015-.08-.015-.079-.015-.078-.015-.077-.014-.077-.014-.075-.014-.074-.014-.073-.014a37.745 37.745 0 0 1-.072-.013l-.07-.013a7.217 7.217 0 0 0-.07-.013l-.07-.013-.067-.012a26.61 26.61 0 0 0-.067-.013l-.066-.012-.066-.012-.065-.012-.066-.012-.066-.011-.066-.012-.065-.012-.066-.012a11.52 11.52 0 0 1-.066-.011l-.065-.011-.066-.012-.065-.011a13.737 13.737 0 0 0-.065-.011l-.066-.011-.065-.011-.065-.012-.065-.01-.065-.011-.065-.011-.065-.01-.065-.012-.065-.01-.065-.01a11.135 11.135 0 0 0-.065-.011l-.064-.01-.065-.011a5.11 5.11 0 0 1-.064-.01l-.065-.01-.064-.01-.065-.01-.064-.01-.064-.01-.064-.01-.064-.01a10.815 10.815 0 0 0-.064-.01l-.064-.01a10.755 10.755 0 0 0-.064-.01l-.064-.01-.063-.009-.064-.01-.064-.008a72.163 72.163 0 0 0-.063-.01l-.064-.01-.063-.008-.063-.01a9.187 9.187 0 0 1-.063-.009l-.063-.009-.063-.009a9.132 9.132 0 0 1-.063-.009l-.063-.009-.063-.009-.063-.008-.062-.01-.063-.008-.062-.008-.062-.01-.063-.008a11.74 11.74 0 0 1-.124-.017l-.062-.008-.062-.009-.062-.008-.061-.008-.062-.008-.061-.008-.062-.009-.061-.008-.061-.008-.062-.008-.06-.008-.062-.008-.06-.007-.061-.008-.06-.008a8.52 8.52 0 0 1-.061-.008l-.06-.008-.061-.007-.06-.008-.06-.008-.06-.007-.06-.008a9.373 9.373 0 0 1-.12-.014l-.06-.008-.06-.007-.059-.007-.059-.008-.06-.007-.058-.007-.06-.007-.058-.008-.059-.007-.058-.007-.059-.007-.058-.007-.058-.007-.059-.007-.058-.007-.058-.007-.057-.007a7.75 7.75 0 0 1-.058-.007l-.058-.006-.057-.007-.057-.007-.058-.007-.057-.006-.057-.007-.056-.007-.057-.006a8.322 8.322 0 0 0-.113-.014l-.056-.006-.057-.007a8.172 8.172 0 0 1-.056-.006l-.055-.007-.056-.006-.056-.007a8.023 8.023 0 0 0-.055-.006l-.056-.007-.055-.006a3.973 3.973 0 0 0-.055-.007l-.055-.006-.055-.006-.055-.007-.054-.006-.055-.006a4.076 4.076 0 0 0-.162-.02l-.054-.006-.054-.006-.053-.006-.054-.006-.053-.006-.053-.007-.053-.006-.053-.006-.053-.006a6.459 6.459 0 0 1-.105-.013l-.052-.006-.052-.006-.052-.006-.052-.006-.051-.006-.052-.006-.051-.006-.052-.007a6.797 6.797 0 0 0-.05-.006l-.051-.006-.051-.006-.05-.006-.051-.006-.05-.006-.05-.006-.05-.006-.05-.007-.05-.006-.05-.006-.048-.006-.05-.006a6.264 6.264 0 0 1-.097-.012l-.049-.006-.048-.006-.048-.006-.048-.007-.048-.006-.048-.006-.048-.006-.047-.006-.047-.006-.047-.006a6.62 6.62 0 0 0-.047-.007l-.047-.006-.047-.006a2.64 2.64 0 0 1-.092-.013l-.046-.006-.046-.006-.045-.006-.046-.006-.045-.007-.045-.006a2.477 2.477 0 0 1-.09-.012l-.044-.007-.045-.006-.044-.007a2.535 2.535 0 0 1-.088-.012l-.043-.007-.044-.006a4.293 4.293 0 0 1-.129-.02l-.042-.006-.043-.006-.042-.007-.042-.007-.042-.006a4.592 4.592 0 0 1-.042-.007l-.041-.007-.042-.006-.04-.007-.041-.006-.041-.007a3.733 3.733 0 0 1-.04-.007l-.041-.007-.04-.007a4.226 4.226 0 0 0-.04-.006l-.04-.007-.039-.007-.04-.007-.038-.007-.04-.007a1.836 1.836 0 0 1-.076-.014l-.039-.007-.038-.007-.037-.007-.038-.008-.037-.007-.037-.007-.037-.007-.037-.008-.037-.007-.036-.007-.036-.008-.036-.007a2.432 2.432 0 0 1-.071-.015l-.035-.008-.035-.007-.035-.008-.035-.008-.034-.008a2.606 2.606 0 0 1-.034-.007l-.034-.008-.034-.008a3.12 3.12 0 0 1-.033-.008l-.033-.008-.033-.008-.033-.007-.033-.009a2.346 2.346 0 0 1-.032-.008L.5 73.202l-.032-.008-.031-.008-.032-.009-.03-.008a5.094 5.094 0 0 1-.032-.008l-.03-.009a2.068 2.068 0 0 1-.03-.008l-.031-.009-.03-.008-.004-.067-.003-.067-.003-.066-.004-.067-.003-.067-.004-.066-.003-.067-.004-.067-.003-.066-.004-.067-.003-.067-.003-.067-.004-.066-.003-.067-.004-.067-.003-.066-.004-.067-.003-.067-.004-.066-.003-.067-.003-.067-.004-.066-.003-.067-.004-.067-.003-.067-.004-.066-.003-.067-.003-.067-.004-.066-.003-.067-.004-.067-.003-.066.02-.068.02-.068.019-.068.02-.068.02-.068.02-.068.02-.068.019-.068.02-.068.02-.068.02-.068.019-.068.02-.068.02-.068.02-.068.019-.068.02-.068.02-.068.02-.068.019-.068.02-.067.02-.069.02-.067.019-.068.02-.068.02-.068.02-.068.02-.068.019-.068.02-.068.02-.068.02-.068V23.118s.008-.088.031-.22c.024-.133.062-.313.12-.497.057-.185.135-.375.239-.53.103-.156.232-.276.393-.32a13.58 13.58 0 0 1 1.743-.356 17.893 17.893 0 0 1 1.566-.147c.47-.024.877-.028 1.185-.026.309.001.52.008.598.006.079-.002.24-.003.438-.004a140.428 140.428 0 0 1 1.52.004s-.002-.184-.001-.469c0-.285.005-.67.02-1.075.013-.404.036-.826.075-1.184.038-.358.092-.651.168-.797.192-.372.43-.647.687-.851.256-.204.53-.337.79-.423a3.07 3.07 0 0 1 .71-.141c.203-.017.362-.01.448-.007.28.012 2.15.275 4.795.664 2.646.388 6.068.902 9.456 1.414 3.387.512 6.74 1.022 9.244 1.405l4.164.637 4.635-.74 4.635-.74 4.635-.74 4.635-.74.015-.018.046-.055.073-.09a41.217 41.217 0 0 1 .55-.652l.196-.226c.068-.079.294-.323.6-.652a262.62 262.62 0 0 1 2.218-2.344c.33-.344.592-.612.709-.722a35.67 35.67 0 0 1 .705-.646 27.866 27.866 0 0 1 .71-.608 19.105 19.105 0 0 1 .703-.55 13.8 13.8 0 0 1 .686-.478c.112-.072 1.65-.732 3.901-1.682 2.25-.95 5.214-2.191 8.176-3.426 2.962-1.235 5.924-2.463 8.172-3.389C87.382.777 88.916.154 89.023.131c.462-.084.84-.062 1.154.038.313.1.562.278.766.502.204.224.363.496.497.786.134.289.243.595.346.89.857 2.438 1.145 4.882 1.094 7.176-.05 2.294-.439 4.439-.934 6.279a30.644 30.644 0 0 1-1.578 4.45c-.479 1.075-.925 1.811-.925 1.811s1.194-.06 2.338.026c5.714.431-5.25 14.396-5.25 14.396l-.555.665z" fill="#FEFEFE" mask="url(#b)"/></g><g transform="translate(0 23.293)"><mask id="d" fill="#fff"><use xlink:href="#c"/></mask><path d="M48.446 54.646c.101 0 5.458-2.919 7.102-3.331 2.775-.701 22.346-2.457 23.204-2.487.296-.01.31.122.3.343-.012.235.002.472.004.707.101.78-.327 1.332-.795 1.87-.163.154-12.286 1.284-13.277 1.363-.67.053-4.694.588-5.658.653-.274.018-2.522.437-3.353.656-.389.1-1.612.584-1.86.659-.16.037-6.037 3.525-6.824 3.548-3.395 0-7.442-.31-10.837-.31C21.436 53 3.436 52.194 2.078 52.1.253 51.956.001 50.874 0 50.875V2.477C.054 1.291 3.384.017 3.892.1c.221.264.144.58.144.878.003 14.67-.032 29.375.01 44.009 0 .244.904 2.786 1.923 3.438.282.433 17.882.883 31.266 5.845 3.134.522 6.864.508 11.211.376z" fill="#53565A" mask="url(#d)"/></g><path d="M14.804 18.583c-.03.363-.034 2.923-.05 3.34-.016.393-.098.623-.543.72-.536.122-6.143.366-6.893.447-.01.629 0 42.586 0 44.904.185.086 7.254.492 10.01 1.083 6.307.89 20.729 3.547 21.795 5.027 2.503.155 6.24.288 8.607.076 1.369-2.993 27.517-5.82 29.83-5.767-.01-.565-.082-16.13.003-23.058-.414.278-7.179 4.437-8.482 5.094-.293.303-.807.356-.8.983.035 2.908.04 9.33-.022 9.629-6.1.442-25.618 5.713-25.707 5.709-3.031-1.241-21.524-6.202-24.158-5.972-.185.002-.109-24.884-.108-36.82 0-.24-.016-.48.025-.718a.413.413 0 0 1 .147-.185c.256-.225.57-.178.867-.175 1.341.013 21.066 3.371 22.965 4.33.05-.012.54 9.12.563 9.142.467-.158.932-.32 1.4-.471.223-.072-.305-8.465.36-8.76 1.387-.856 6.506-3.068 11.158-2.655.184-.176 3.354-3.928 3.246-4.158-.097-.208-13.512 2.064-16.124 2.962" fill="#007398"/><path d="M85.743 33.235c-4.601 4.077-11.65 7.037-11.94 7.214-.249.12-.601.164-.184.512.457.38.925.75 2.953 1.467-1.571 1.705-6.337 3.005-8.567 3.139-.688.041-1.386.056-2.015.402-4.913 1.633-8.735 4.865-12.335 8.422-.242.24-.557.407-.725.72-.136.031-.203-.01-.167-.16.244-1.123 23.935-31.829 25.67-34.076l.098-.128c-5.651.768-23.45 21.552-23.559 21.937-.061.154-.134.294-.333.29-.344.041-.31-.24-.344-.43.124-2.693 3.699-21.002 6.932-21.292-.916 2.604.421 5.397.51 4.551.983-9.396 5.643-12.87 14.26-16.68 4.355-1.926 16.065-6.751 16.065-6.751s1.236 7.175.625 10.136c-1.03 4.997-5.37 12.042-5.37 12.042s.722.048 1.658.024c2.154-.054 3.295-.408 3.295-.408s-2.043 5.096-6.527 9.07z" fill="#006282"/><path d="M81.099 44.55c-.11-.29.694-1.984-.623-2.719-.073-.04 6.584-3.577 8.412-5.32.245.754-7.544 7.897-7.789 8.04" fill="#323345"/><path d="m75.608 40.084-.006-.146" fill="#84BEA9"/><path d="M79.144 38.9a86.24 86.24 0 0 0-.162-.07" fill="#7EBAA5"/><path d="m54.302 51.924.437-.877" fill="#84BDA9"/><path d="M28.53 66.706c-6.528-.795-15.246-1.1-17.414-.882-.284-1.012-.122-39.608-.034-39.906.11-.251 2.255-.56 2.926-.475.06 1.476.044 38.135.094 38.39.98.137 10.478 1.338 14.428 2.873" fill="#FDFEFE"/><path d="m84.87 42-.219.178" fill="#21232E"/><path d="M32.914 51.047H21.93v-.312c.273.013.515-.015.724-.082.209-.067.37-.162.483-.285a1.18 1.18 0 0 0 .277-.54c.057-.227.085-.505.085-.836V42.37a2.81 2.81 0 0 0-.085-.743c-.056-.202-.149-.352-.277-.45a1.196 1.196 0 0 0-.483-.23 2.858 2.858 0 0 0-.724-.082v-.33h5.915v.312c-.29.012-.536.052-.737.12a1.015 1.015 0 0 0-.47.302 1.329 1.329 0 0 0-.254.514 2.819 2.819 0 0 0-.085.734v7.008c0 .22.028.401.085.542.056.14.14.241.253.302.097.05.225.09.387.12.16.03.345.052.555.064l2.076-.018c.37.012.692 0 .966-.037a1.96 1.96 0 0 0 .652-.184c.177-.085.341-.22.494-.403a3.12 3.12 0 0 0 .423-.697.658.658 0 0 0 .048-.092l.048-.11.049-.11c.016-.037.032-.08.048-.129l.41-.018h.966l-.845 2.293zM51.5 41.722a1.694 1.694 0 0 0-.565.12c-.16.067-.29.162-.392.284-.089.122-.16.269-.21.44-.05.171-.076.361-.076.569v.055l.019.055v.128l.554 6.459c.025.33.067.605.124.826.058.22.13.397.22.532.077.122.201.22.373.293.172.074.385.123.64.147v.294h-4.702v-.312c.203-.025.379-.067.525-.129a.98.98 0 0 0 .354-.238.939.939 0 0 0 .2-.376c.045-.153.068-.334.068-.542v-.147l-.02-.055v-.073l-.42-5.376-3.135 7.248h-1.052l-3.078-7.266-.477 5.064V49.887l-.02.073v.074c0 .22.03.419.086.596.058.177.144.333.259.468.114.122.264.23.449.321.184.092.398.162.64.211v.294h-4.167v-.312c.28-.025.51-.086.688-.184a.87.87 0 0 0 .382-.385c.077-.159.144-.349.2-.569.058-.22.1-.477.125-.77l.67-7.248-.096-.055-.077-.092a2.928 2.928 0 0 0-.88-.495 1.761 1.761 0 0 0-.381-.074v-.33H41.864l3.116 7.376 3.174-7.376H51.499v.312z" fill="#007398"/><path fill="#1F352B" d="M21.022 32.038h18.019"/><mask id="f" fill="#fff"><use xlink:href="#e"/></mask><path d="M63 58v1H47v-1h16zm-24 0v1H23v-1h16zm24-2v1H47v-1h16zm-24 0v1H23v-1h16zm24-2v1H47v-1h16zm-24 0v1H23v-1h16zm16-18v1h-7v-1h7zm-16 0v1H23v-1h16zm16-2v1h-7v-1h7zm-16 0v1H23v-1h16zm17-2v1h-8v-1h8zm-17 0v1H23v-1h16z" fill="#E3E1D5" mask="url(#f)"/></g></svg>