<?xml version="1.0" encoding="UTF-8"?>
<svg width="16px" height="20px" viewBox="0 0 16 20" version="1.1" xmlns="http://www.w3.org/2000/svg" xmlns:xlink="http://www.w3.org/1999/xlink">
    <!-- Generator: Sketch 59.1 (86144) - https://sketch.com -->
    <title>mi-cuenta-icon</title>
    <desc>Created with Sketch.</desc>
    <g id="Page-1" stroke="none" stroke-width="1" fill="none" fill-rule="evenodd">
        <g id="1-Home" transform="translate(-1794.000000, -6.000000)" fill="#53565A">
            <g id="Header">
                <g id="Top">
                    <path d="M1801.94125,19.75627 C1805.34215,19.74497 1807.94425,21.30507 1809.75795,24.17747 C1810.09575,24.71237 1809.93355,25.06697 1809.31805,25.23057 C1808.98005,25.18967 1808.83135,24.93297 1808.66585,24.67987 C1807.06225,22.22817 1804.79835,20.91587 1801.86715,20.94817 C1799.03835,20.97937 1796.85185,22.28107 1795.29305,24.63947 L1795.17944,24.815369 C1795.04589,25.0183268 1794.89751,25.2009922 1794.61525,25.23327 C1793.99655,25.06457 1793.83535,24.71457 1794.17315,24.17867 C1795.97435,21.32157 1798.56365,19.76747 1801.94125,19.75627 Z M1800.17464,6 L1802.26884,6.0023 L1802.26884,6.0023 C1803.17074,6.0815 1803.91844,6.4609 1804.47824,7.176 C1804.62344,7.3614 1804.79844,7.4391 1805.01044,7.4958 C1806.32734,7.848 1807.12364,8.8844 1807.13004,10.257 C1807.13534,11.3999 1807.13814,12.5429 1807.12974,13.6856 C1807.11064,16.2719 1805.02314,18.5124 1802.43844,18.7301 C1799.78104,18.9538 1797.34524,17.1038 1796.89754,14.5161 C1796.84974,14.2401 1796.82494,13.9592 1796.80694,13.6794 C1796.78204,13.2919 1796.95794,13.0137 1797.35174,12.989 C1797.77604,12.9623 1797.97904,13.2408 1797.99314,13.6451 C1798.02794,14.6441 1798.36634,15.5221 1799.03964,16.2586 C1800.14124,17.4634 1801.80404,17.8734 1803.29934,17.3256 C1804.79344,16.7782 1805.84664,15.3176 1805.92054,13.6698 C1805.94134,13.207 1805.92124,12.7424 1805.93054,12.2788 C1805.93914,11.8415 1805.72694,11.602 1805.30554,11.5243 C1805.12764,11.4916 1804.94344,11.465 1804.77874,11.3958 C1804.41024,11.2409 1804.32764,10.9079 1804.56574,10.5919 C1804.63504,10.5 1804.72674,10.4255 1804.80364,10.3389 C1805.05674,10.0538 1805.12184,9.7398 1804.83604,9.4558 C1804.55144,9.1729 1804.23444,9.2291 1803.95704,9.4941 C1803.11634,10.2975 1802.10374,10.7558 1800.97374,10.9531 C1799.46714,11.2163 1797.94224,11.1839 1796.42134,11.169 C1795.97464,11.1646 1795.80814,10.8697 1795.80814,10.4341 C1795.80814,8.2273 1797.69294,6.2 1799.92744,6.0175 C1800.00974,6.0107 1800.09224,6.0058 1800.17464,6 Z" id="mi-cuenta-icon"></path>
                </g>
            </g>
        </g>
    </g>
</svg>