<?xml version="1.0" encoding="UTF-8"?>
<svg width="73px" height="76px" viewBox="0 0 73 76" version="1.1" xmlns="http://www.w3.org/2000/svg" xmlns:xlink="http://www.w3.org/1999/xlink">
    <!-- Generator: Sketch 59.1 (86144) - https://sketch.com -->
    <title>soporte-icon</title>
    <desc>Created with Sketch.</desc>
    <g id="Page-1" stroke="none" stroke-width="1" fill="none" fill-rule="evenodd">
        <g id="1-Home" transform="translate(-1264.000000, -5510.000000)" fill="#E9711C" fill-rule="nonzero">
            <g id="Services" transform="translate(228.000000, 5483.000000)">
                <g id="Soporte-24/7" transform="translate(1000.000000, 0.000000)">
                    <path d="M65.56,77.25 C68.64,77 71.48,76.91 74.23,76.97 C81.63,77.14 87.99,78.14 93.66,80.03 C98.2,81.55 101.99,83.49 105.23,85.98 C107.12,87.44 108.1,89.34 108.13,91.64 C108.16,93.61 108.16,95.62 108.13,97.58 C108.13,98.86 108.12,100.14 108.13,101.43 C108.13,101.63 108.11,101.89 107.92,102.06 C107.74,102.23 107.48,102.22 107.3,102.2 C107.14,102.18 106.94,102.2 106.75,102.22 C106.6,102.23 106.45,102.25 106.3,102.25 C106.03,102.25 105.77,102.2 105.57,102 C105.26,101.68 105.31,101.19 105.36,100.75 C105.38,100.59 105.4,100.44 105.4,100.3 C105.39,97.6 105.39,94.9 105.4,92.2 C105.41,90.38 104.68,88.96 103.16,87.86 C99.04,84.87 94.11,82.74 88.08,81.33 L88.08,81.33 L91.16,86.72 C91.62,87.52 92.09,88.32 92.54,89.13 C93.11,90.15 93.13,91.29 92.61,92.19 C92.08,93.09 91.07,93.64 89.9,93.64 C85.88,93.66 81.86,93.65 77.84,93.64 C77.47,93.63 77.35,93.71 77.18,93.97 C76.33,95.26 75.45,96.54 74.58,97.82 L74.58,97.82 L73.8,98.96 C73.31,99.69 72.81,99.84 72.48,99.84 L72.48,99.84 L72.406895,99.837551 C72.08,99.8156633 71.625,99.6385714 71.17,98.97 L71.17,98.97 L70.32,97.72 C69.46,96.46 68.6,95.2 67.76,93.93 C67.62,93.71 67.48,93.64 67.2,93.64 L67.2,93.64 L63.18,93.6537037 C60.5,93.6588889 57.82,93.6566667 55.14,93.65 C54.17,93.65 53.31,93.31 52.74,92.7 C52.2,92.12 51.93,91.33 51.99,90.46 C52.02,89.92 52.25,89.46 52.46,89.09 C53.73,86.88 55,84.66 56.27,82.44 L56.27,82.44 L56.88,81.38 L56.88,81.38 L56.9,81.34 C56.62,81.38 56.35,81.46 56.08,81.53 L56.08,81.53 L55.73,81.62 C50.11,83.05 45.5,85.14 41.61,88.02 C40.24,89.03 39.58,90.34 39.58,92.01 L39.58,92.01 L39.58,94.33 C39.58,96.65 39.58,98.97 39.59,101.29 C39.59,101.56 39.56,101.86 39.35,102.05 C39.14,102.24 38.85,102.22 38.65,102.2 C38.5,102.18 38.3,102.2 38.1,102.2 C37.73,102.24 37.31,102.29 37.02,102.02 C36.67,101.69 36.73,101.2 36.78,100.76 C36.8,100.62 36.82,100.47 36.82,100.33 C36.81,98.43 36.81,96.53 36.81,94.63 L36.81,94.63 L36.81,92.12 C36.81,89.45 37.91,87.3 40.08,85.71 C44.15,82.75 48.86,80.58 54.5,79.09 C57.95,78.18 61.57,77.58 65.56,77.25 Z M83.08,80.41 C75.97,79.47 69.04,79.47 61.91,80.41 L61.91,80.41 L72.5,96 Z M59.68,82.04 L58.19,84.62 L58.19,84.62 L54.88,90.41 C54.74,90.65 54.74,90.78 54.76,90.82 C54.78,90.85 54.87,90.9 55.08,90.9 L55.08,90.9 L63.19,90.9 L65.7,90.91 L59.68,82.04 Z M85.32,82.03 L79.3,90.9 L89.84,90.9 C90.19,90.9 90.25,90.82 90.25,90.82 C90.25,90.82 90.29,90.72 90.1,90.39 C88.51,87.6 86.91,84.81 85.32,82.03 L85.32,82.03 Z M68.41,28.25 C75.98,26.7 82.49,28.77 87.74,34.38 C90.48,37.33 92.15,40.93 92.7,45.1 L92.7,45.1 L92.72,45.25 C92.76,45.56 92.81,45.88 92.81,46.2 C92.82,46.43 92.85,46.46 93.11,46.46 L93.11,46.46 L93.47,46.46 C94.51,46.45 95.6,46.44 96.66,46.73 C100.2,47.71 102.49,51.01 102.22,54.76 C101.98,58.13 99.19,61.15 95.86,61.63 C95.03,61.75 94.15,61.78 92.99,61.74 C92.8,61.74 92.77,61.75 92.71,61.97 C91.75,65.75 88.87,68 84.99,68 L84.99,68 L73.03672,68.0004 C72.8572,68.0004 72.67,67.994 72.47,67.93 C71.79,67.72 71.4,67.17 71.46,66.48 C71.52,65.8 72.04,65.3 72.73,65.24 C72.86,65.23 73,65.23 73.13,65.23 L73.13,65.23 L84.98,65.23 C88.07,65.23 90.15,63.14 90.15,60.03 L90.15,60.03 L90.15,57.48 C90.15,54.85 90.14,52.22 90.16,49.59 C90.16,49.36 90.13,49.31 90.12,49.3 C90.11,49.28 90.04,49.26 89.82,49.26 C87,49.34 83.99,49.29 81.05,48.47 C77.89,47.59 75.19,46.03 73.04,43.86 C72.9,43.71 72.85,43.71 72.84,43.71 C72.82,43.71 72.77,43.73 72.61,43.89 C69.88,46.59 66.43,48.3 62.35,48.96 C60.02,49.34 57.66,49.32 55.87,49.27 C55.63,49.27 55.57,49.3 55.56,49.31 C55.55,49.32 55.52,49.38 55.52,49.6 C55.53,50.33 55.53,51.05 55.52,51.78 C55.51,52.91 55.5,54.07 55.57,55.21 C55.84,59.79 57.72,63.72 61.14,66.91 C63.77,69.36 66.98,70.85 70.69,71.35 C71.25,71.42 71.84,71.45 72.41,71.47 L72.41,71.47 L72.69,71.48 C73.59,71.51 74.21,72.09 74.21,72.87 C74.21,73.23 74.07,73.57 73.81,73.82 C73.53,74.09 73.14,74.24 72.7,74.24 L72.7,74.24 L72.66,74.24 C67.15,74.12 62.4,72.1 58.54,68.24 C56.44,66.14 54.86,63.59 53.83,60.65 C53.35,62.09 52.88,63.21 52.35,64.25 C51.06,66.75 49.61,68.51 47.77,69.79 C47.55,69.94 47.51,70.05 47.51,70.08 C47.51,70.12 47.59,70.22 47.85,70.33 C50.13,71.28 52.55,71.53 55.03,71.1 C55.2,71.07 55.35,71.04 55.5,71.03 C56.34,70.95 56.95,71.39 57.09,72.17 C57.22,72.89 56.73,73.56 55.95,73.73 C53.91,74.18 51.8,74.19 49.67,73.76 C48.55,73.53 47.5,73.2 46.55,72.77 C45.53,72.31 44.86,71.39 44.76,70.32 C44.67,69.26 45.15,68.26 46.05,67.63 C48.13,66.18 49.6,64.08 50.82,60.81 C51.89,57.94 52.5,54.72 52.69,50.96 C52.73,50.24 52.74,49.52 52.75,48.8 C52.77,47.22 52.8,45.59 53.1,43.98 C54.54,36.27 60.84,29.8 68.41,28.25 Z M93.25,49.21 L93.18,49.21 C93.01,49.21 92.96,49.24 92.95,49.25 C92.94,49.26 92.91,49.31 92.91,49.54 C92.93,50.63 92.92,51.73 92.92,52.82 L92.92,52.82 L92.91,55.04 C92.91,55.8 92.91,56.55 92.92,57.29 C92.92,57.5 92.89,57.73 92.87,57.95 C92.83,58.35 92.78,58.8 92.95,58.93 C93.2,59.12 93.75,59.07 94.22,59.02 C94.39,59 94.55,58.99 94.71,58.98 C97.14,58.86 99.13,57.14 99.43,54.89 C99.77,52.41 98.42,50.23 96.09,49.47 C95.38,49.24 94.66,49.23 93.89,49.22 C93.68,49.22 93.46,49.22 93.25,49.21 L93.25,49.21 Z M66.05,51.75 C66.65,51.76 67.21,52 67.62,52.42 C68.04,52.85 68.26,53.43 68.25,54.05 C68.23,55.33 67.28,56.25 66,56.25 L66,56.25 L65.96,56.25 C65.35,56.24 64.78,56 64.37,55.57 C63.95,55.15 63.73,54.57 63.74,53.96 C63.75,53.36 63.99,52.81 64.42,52.39 C64.85,51.98 65.41,51.75 66.01,51.75 L66.01,51.75 Z M78.98,51.76 C79.57,51.76 80.13,51.99 80.56,52.42 C81,52.85 81.24,53.41 81.24,54 C81.24,54.6 81.01,55.16 80.59,55.59 C80.17,56.01 79.6,56.25 79,56.25 C77.74,56.25 76.75,55.27 76.74,54.03 C76.73,52.78 77.74,51.77 78.97,51.76 L78.97,51.76 Z M88.91,41.44 C86.01,33.99 77.92,29.38 70.08,30.71 C65.24,31.54 61.34,34.02 58.51,38.09 C56.86,40.46 55.87,43.22 55.56,46.3 L55.56,46.3 L55.55,46.38 C55.55,46.42 55.54,46.48 55.54,46.51 L55.54,46.51 L55.5775,46.515 L55.5775,46.515 L55.63,46.52 L55.89,46.52 C57.86,46.55 59.88,46.57 61.85,46.25 C65.93,45.59 69.12,43.84 71.61,40.92 C72.01,40.45 72.4,40.22 72.82,40.22 L72.82,40.22 L72.94873,40.22751 C73.3342,40.2726 73.714,40.521 74.11,40.98 C75.52,42.63 77.22,43.93 79.15,44.84 C81.68,46.02 84.46,46.56 87.95,46.51 L87.95,46.51 L88.51,46.51 C88.95,46.51 89.39,46.5 89.83,46.52 C90.02,46.53 90.06,46.5 90.07,46.5 C90.06,46.5 90.09,46.45 90.07,46.26 C89.91,44.62 89.52,43 88.91,41.44 Z" id="soporte-icon"></path>
                </g>
            </g>
        </g>
    </g>
</svg>