<?xml version="1.0" encoding="utf-8"?>
<!-- Generator: Adobe Illustrator 26.2.1, SVG Export Plug-In . SVG Version: 6.00 Build 0)  -->
<!DOCTYPE svg PUBLIC "-//W3C//DTD SVG 1.1//EN" "http://www.w3.org/Graphics/SVG/1.1/DTD/svg11.dtd" [
	<!ENTITY ns_extend "http://ns.adobe.com/Extensibility/1.0/">
	<!ENTITY ns_ai "http://ns.adobe.com/AdobeIllustrator/10.0/">
	<!ENTITY ns_graphs "http://ns.adobe.com/Graphs/1.0/">
	<!ENTITY ns_vars "http://ns.adobe.com/Variables/1.0/">
	<!ENTITY ns_imrep "http://ns.adobe.com/ImageReplacement/1.0/">
	<!ENTITY ns_sfw "http://ns.adobe.com/SaveForWeb/1.0/">
	<!ENTITY ns_custom "http://ns.adobe.com/GenericCustomNamespace/1.0/">
	<!ENTITY ns_adobe_xpath "http://ns.adobe.com/XPath/1.0/">
]>
<svg version="1.1" id="Capa_1" xmlns:x="&ns_extend;" xmlns:i="&ns_ai;" xmlns:graph="&ns_graphs;"
	 xmlns="http://www.w3.org/2000/svg" xmlns:xlink="http://www.w3.org/1999/xlink" x="0px" y="0px" viewBox="0 0 200 140"
	 style="enable-background:new 0 0 200 140;" xml:space="preserve">
<style type="text/css">
	.st0{fill:#333740;}
</style>
<metadata>
	<sfw  xmlns="&ns_sfw;">
		<slices></slices>
		<sliceSourceBounds  bottomLeftOrigin="true" height="45" width="166.8" x="17" y="48"></sliceSourceBounds>
	</sfw>
</metadata>
<desc>Created with Sketch.</desc>
<g id="Page-1">
	<g id="_x31_-Home" transform="translate(-978.000000, -837.000000)">
		<g id="Logos-Editoriales" transform="translate(0.000000, 807.000000)">
			<g id="Thieme" transform="translate(978.000000, 30.000000)">
				<path id="Shape" class="st0" d="M45.8,70.5c-0.7,1-1.9,1.3-2.9,1.2c-0.7-0.1-1.7-0.6-2.3,0.1c0.5,1.3,2,0.6,2.7,1.7
					c0.4,0.6,0.8,1.8,0.5,2.9l-0.1,0.1c-1-0.7-2.5-0.7-2.9-1.9c-0.3-1.1-0.3-2.1-1.8-2.8c-0.7,1.4,1.3,2.4,0.5,4
					c-0.4,0.9-1,1.5-1.3,1.8l-0.1,0c-0.5-0.8-1.3-1.7-1.1-2.7c0.3-1.4,1.9-3.4,0.1-4.6c-1.4,3-2.4,7.4-1.3,10.9
					c0.3,0.9,1.4,1.2,2.1,1.5c0.8,0.3,1.9,0.4,2.6,0.9c0,0.4-0.3,0.4-0.4,0.7c0.3,0.6,1.2,0.9,1.2,1.5l-0.4,0.2
					c-1.6-0.7-3.5-1.7-4.9-1.7c-0.6,0-0.3,0.8-1.2,0.7c-0.8-0.1-1.6,0.7-1.7,1c-0.1,0.3,0.7,1.1-0.3,1.3c-0.9,0.1-1.5-0.6-2.4-0.6
					c-0.1,0.5,0,1.1-0.5,1.2c-0.6,0.2-1-0.4-1.4-0.9c-1.2-1.8,1.3-2.4,2-3.6c0.8-1.6,0.9-3.3,1-4.9c0.2-3.7-0.9-5.6-2.3-8.4
					c-0.6,0.8-1.1,2.4-0.8,3.1c0.4,0.7,1,1.9,0.6,2.9c-0.1,0.5-0.6,1.1-1.3,1.8l-0.2,0c-0.6-1.1-1.4-2.3-0.7-3.7
					c0.5-1.1,0.6-1.8,0.6-2.7c-1.7,1.3-1.4,2-1.8,2.9c-0.4,1.2-2,1.1-3,1.6l-0.1-0.1c0-0.8,0.1-1.8,0.6-2.5c0.7-0.9,1.8-0.8,2.4-1.6
					c-1.1-0.7-2.4,0.3-3.6-0.6c-0.3-0.2-1-0.9-1.3-1.1l0-0.1c0.9-0.4,2.3-0.8,3.4-0.2c0.9,0.5,1.4,1.6,2.5,1.1
					c0.4-0.2,1.6-1.4,1.9-2.5c-0.8-0.6-2.1-1.2-2.7-1c-2.1,0.6-3.1-1-4.6-2.1l0-0.1c0.5-0.1,2.6-0.7,3.6-0.2c1.1,0.5,1.3,2,2.9,1.9
					c-0.7-1.5-1.6-3.1-3.1-3.6c-1.3-0.4-3-1.8-2.8-4l0.1,0c1.2,0.9,3.3,0.6,3.4,2.6c0,0.6,0.7,0.8,0.7,0.8c0.2-1.2,0.1-2.4-0.9-3
					c-0.7-0.5-1.2-1.1-1.3-2c-0.1-0.6,0-2,0.7-2.9h0.1c0.5,1,1.4,2,1.6,2.9c0.1,0.7-0.5,1.3,0.2,1.9c0.2-0.9,1.1-3.3,1-3.8
					c-0.1-0.4-0.1-1.3,0.4-1.9c0.7-1,1.6-1.1,2.8-1.6l0.1,0.1c0.1,0.9-0.2,2.1-0.7,2.8c-0.6,0.8-1.1,0.8-1.6,1.4
					c-0.3,0.4-0.9,2.4-0.8,3.5c1.3-0.9,0.9-2.8,2.7-3.4c0.5-0.2,1.1-0.3,1.3-0.4l0.1,0.1c0.1,0.8,0,1.7-0.5,2.4
					c-1,1.4-3.9,1.3-3.7,3.4c0.2,1.4,1.4,3,2.3,4.5c0.2-0.2,0.3-0.6,0.4-0.9c0.1-0.6-0.7-1.1-0.4-2.1c0.2-0.7,0.8-1.4,1-1.9l0.1,0
					c0.5,0.4,0.9,0.9,1.1,1.4c0.8,2.2-2.3,3.5-1,5.8c0.4,0.8,1.1,2.1,1.7,3.1c0.2,0.4,0.5,0.2,0.7,0c0.2-0.3,1.4-1.8,1.7-3.5
					c0.1-0.9,0-1.9-0.7-2.6c-0.4-0.5-0.8-1.1-0.7-1.8c0.2-0.9,0.9-1.6,1.4-2.5l0.1,0c0.6,0.6,1.1,1.7,1,2.4c-0.1,1.3-1,2.2-0.4,3.2
					c1.1-1.7,2.4-4.1,1.9-6.2c-0.3-1.1-2.2-0.2-3.3-1.5c-0.7-0.8-1-1.8-0.9-2.7l0.1-0.1c1.3,0.6,3.5,0.5,3.4,2.6
					c0,0.2,0.2,0.3,0.5,0.3c0.1-0.9-0.3-1.9-0.5-2.4c-0.2-0.4-1.3-1-1.8-1.7c-0.5-0.8-0.4-2.1-0.1-3.1l0.1,0c0.8,0.4,2,0.9,2.4,2
					c0.3,0.8,0,1.8,0.3,2.4c0.3,0.7,0.6,1.6,1,2.2c0.9-0.7-0.1-1.8,0.5-2.8c0.6-0.8,1.4-1.5,2.3-1.8l0.1,0.1
					c-0.1,1.1,0.4,2.4-0.4,3.4c-0.7,0.8-2.1,1.5-2.2,2.4c0,0.7,0.3,1.8,0.3,1.8c1-0.4,1.1-1.3,1.7-2.2c0.9-1.4,2.6-1.4,3.1-1.1
					l0,0.1c-0.9,0.9-0.6,2.6-2,3c-0.9,0.2-1.6,0.6-2,1.1c-1,1.1-1.1,2.7-1.9,3.9c0.4,0.1,0.7,0,0.9-0.3c0.4-0.6,1.1-1.4,1.8-1.8
					c1-0.5,2.5-0.2,2.9-0.1l0,0.1c-0.8,0.7-1.1,2.1-2.4,2.4c-1.4,0.2-3.2,0.3-4.1,1.6c-0.1,1,1.1,1.8,2,2.1c1.5,0.6,1.9-1.3,3.8-1.2
					c0.8,0,1.5,0.4,2.1,0.9L45.8,70.5z M33.4,90.7c8.4,0,15.2-9.5,15.2-21.2c0-2.9-0.4-5.7-1.2-8.3c-0.8-2.5-1.9-4.8-3.3-6.8
					c-2.9-4-6.6-6.1-10.7-6.1c-8.4,0-15.2,9.5-15.2,21.2C18.2,81.2,25,90.7,33.4,90.7 M45,53.7c3.1,4.2,4.7,9.8,4.7,15.8
					S48.1,81.1,45,85.3c-1.5,2.1-3.3,3.7-5.2,4.9c-2,1.2-4.2,1.8-6.5,1.8s-4.4-0.6-6.5-1.8c-1.9-1.1-3.7-2.8-5.2-4.9
					c-3.1-4.2-4.7-9.8-4.7-15.8c0-6,1.7-11.6,4.7-15.8c1.5-2.1,3.3-3.7,5.2-4.9c2-1.2,4.2-1.8,6.5-1.8s4.4,0.6,6.5,1.8
					C41.8,49.9,43.5,51.6,45,53.7 M76.7,63.4v-5.2h-21v5.2h0.9l1.6-2.1c0.4-0.5,0.8-0.8,1.3-1c0.5-0.2,1.3-0.3,2.4-0.3h2.4v21.2
					c0,1.3-0.1,2.1-0.2,2.4c-0.2,0.4-0.5,0.8-1,1l-1.3,0.6v0.8h9v-0.8l-1.3-0.6c-0.5-0.2-0.9-0.6-1-1c-0.1-0.4-0.2-1.2-0.2-2.4V60.1
					h2.4c1.1,0,2,0.1,2.5,0.3c0.4,0.1,0.7,0.4,1.1,0.9l1.6,2.1H76.7L76.7,63.4z M98.1,86.1v-0.8l-1-0.5c-0.5-0.3-0.8-0.6-0.9-1
					c-0.1-0.4-0.2-1.2-0.2-2.3v-7.9c0-2.4-0.1-4-0.4-5c-0.3-1-0.9-1.9-1.8-2.4c-1-0.7-2.3-1-3.8-1c-2.2,0-4.3,0.9-6.1,2.8V56.1
					l-5.8,1.6v0.8l0.9,0.4c0.5,0.2,0.8,0.5,0.9,0.9c0.1,0.3,0.2,1.1,0.2,2.1v19.5c0,1.2-0.1,1.9-0.2,2.3c-0.1,0.4-0.4,0.8-0.9,1
					l-1,0.5v0.8h7.8v-0.8L85,84.8c-0.5-0.3-0.8-0.6-0.9-1c-0.1-0.4-0.2-1.2-0.2-2.3V68.7c1.3-0.5,2.6-0.8,4-0.8c2.7,0,4.1,1,4.4,3.1
					c0.1,0.7,0.1,1.9,0.1,3.6v6.9c0,1.2-0.1,1.9-0.2,2.3c-0.1,0.4-0.4,0.8-0.9,1l-0.9,0.5v0.8L98.1,86.1L98.1,86.1z M109,86.1v-0.8
					l-0.9-0.5c-0.5-0.3-0.8-0.6-0.9-1c-0.1-0.4-0.2-1.2-0.2-2.3V65.1l-5.8,1.6v0.8l0.9,0.4c0.5,0.2,0.8,0.5,0.9,0.9
					c0.1,0.3,0.2,1.1,0.2,2.2v10.5c0,1.2-0.1,1.9-0.2,2.3c-0.1,0.4-0.4,0.8-0.9,1l-1,0.5v0.8L109,86.1L109,86.1z M105.1,56.6
					c-0.7,0-1.2,0.2-1.6,0.6c-0.4,0.4-0.6,0.9-0.6,1.6c0,0.7,0.2,1.2,0.6,1.6c0.4,0.4,0.9,0.6,1.6,0.6c0.8,0,1.4-0.3,1.8-0.8
					c0.3-0.4,0.4-0.8,0.4-1.4c0-0.7-0.2-1.2-0.6-1.6C106.2,56.8,105.7,56.6,105.1,56.6 M120.9,67.3c-3,0-4.6,2-4.8,6.1l9-0.9
					c0-1.5-0.3-2.7-0.7-3.4C123.7,67.9,122.5,67.3,120.9,67.3 M116.1,75v0.4c0,3.1,0.6,5.3,1.7,6.5c1.1,1.3,3,1.9,5.7,1.9
					c1.7,0,3.3-0.3,5-0.9v0.8c-0.8,0.8-1.6,1.4-2.5,1.8c-1.3,0.6-2.8,0.9-4.5,0.9c-3,0-5.3-0.9-6.8-2.6c-1.5-1.7-2.3-4.3-2.3-7.6
					c0-3.4,0.8-6.2,2.4-8.1c1.6-2,3.9-3,6.7-3c2.6,0,4.6,0.8,5.8,2.3c1.2,1.5,1.8,3.9,1.8,7.1v0.4L116.1,75L116.1,75z M164.8,86.1
					v-0.8l-0.9-0.5c-0.5-0.3-0.8-0.6-0.9-1c-0.1-0.4-0.2-1.2-0.2-2.3v-7.9c0-2.2-0.1-3.7-0.4-4.6c-0.7-2.6-2.7-3.9-5.9-3.9
					c-2.4,0-4.7,0.9-6.8,2.7c-0.3-0.5-0.6-0.9-0.9-1.2c-1-1-2.4-1.5-4.3-1.5c-1.5,0-2.9,0.4-4.2,1.1c-0.6,0.3-1.3,0.9-2.1,1.6v-2.8
					l-5.6,1.6v0.8l0.9,0.4c0.5,0.2,0.8,0.5,0.9,0.9c0.1,0.3,0.2,1.1,0.2,2.2v10.5c0,1.2-0.1,1.9-0.2,2.3c-0.1,0.4-0.4,0.8-0.9,1
					l-1,0.5v0.8h7.8v-0.8l-0.9-0.5c-0.5-0.3-0.8-0.6-0.9-1c-0.1-0.4-0.2-1.2-0.2-2.3V68.6c1.1-0.5,2.4-0.7,4-0.7
					c2.7,0,4.1,1,4.4,3.1c0.1,0.7,0.1,1.9,0.1,3.6v6.9c0,1.2-0.1,1.9-0.2,2.3c-0.1,0.4-0.4,0.8-0.9,1l-0.9,0.5v0.8h7.8v-0.8l-1-0.5
					c-0.5-0.3-0.8-0.6-0.9-1c-0.1-0.4-0.2-1.2-0.2-2.3v-7.9c0-2.4-0.2-4.1-0.5-5.1c1.4-0.4,2.8-0.6,4.2-0.6c2.5,0,4,0.8,4.5,2.4
					c0.1,0.3,0.2,0.6,0.2,0.8c0.1,0.5,0.1,1.6,0.1,3.6v6.9c0,1.2-0.1,1.9-0.2,2.3c-0.1,0.4-0.4,0.8-0.9,1l-0.9,0.5v0.8L164.8,86.1
					L164.8,86.1z M175.7,67.3c-3,0-4.6,2-4.8,6.1l9-0.9c0-1.5-0.3-2.7-0.7-3.4C178.5,67.9,177.3,67.3,175.7,67.3 M170.8,75v0.4
					c0,3.1,0.6,5.3,1.7,6.5c1.1,1.3,3,1.9,5.7,1.9c1.7,0,3.3-0.3,5-0.9v0.8c-0.8,0.8-1.6,1.4-2.5,1.8c-1.3,0.6-2.8,0.9-4.5,0.9
					c-3,0-5.3-0.9-6.8-2.6c-1.5-1.7-2.3-4.3-2.3-7.6c0-3.4,0.8-6.2,2.4-8.1c1.6-2,3.9-3,6.7-3c2.6,0,4.6,0.8,5.8,2.3
					c1.2,1.5,1.8,3.9,1.8,7.1v0.4L170.8,75L170.8,75z"/>
			</g>
		</g>
	</g>
</g>
</svg>
