<?xml version="1.0" encoding="utf-8"?>
<!-- Generator: Adobe Illustrator 26.5.0, SVG Export Plug-In . SVG Version: 6.00 Build 0)  -->
<svg version="1.1" id="Capa_1" xmlns="http://www.w3.org/2000/svg" xmlns:xlink="http://www.w3.org/1999/xlink" x="0px" y="0px"
	 width="55px" height="35px" viewBox="0 0 55 35" style="enable-background:new 0 0 55 35;" xml:space="preserve">
<style type="text/css">
	.st0{fill-rule:evenodd;clip-rule:evenodd;fill:#FF0106;}
	.st1{fill-rule:evenodd;clip-rule:evenodd;fill:#FFFFFF;}
</style>
<path id="Path" class="st0" d="M51.3,35H3.7c-2,0-3.7-1.6-3.7-3.5v-28C0,1.6,1.6,0,3.7,0h47.7c2,0,3.7,1.6,3.7,3.5v28
	C55,33.4,53.4,35,51.3,35z"/>
<g>
	<path class="st1" d="M3.8,17.5c-0.3-0.5-0.3-1.1-0.3-1.5c0-1.6,1.4-2.9,2.9-2.9H11l-1.8,1.8H6.3C5.2,14.8,3.8,16,3.8,17.5L3.8,17.5
		z M5.6,16.2c0.1-0.4,0.5-0.9,0.8-1.1c-0.7,0-1.4,0.3-2,1.1H5.6L5.6,16.2z M6.5,15.3c-0.3,0.2-0.5,0.6-0.7,0.9h1.4
		C7,15.9,6.8,15.5,6.5,15.3L6.5,15.3z M4.3,16.4c-0.2,0.3-0.3,0.7-0.3,1h1.3c0-0.3,0.1-0.7,0.2-1H4.3L4.3,16.4z M5.7,16.4
		c-0.1,0.3-0.2,0.7-0.2,1h2c0-0.3-0.1-0.7-0.2-1H5.7L5.7,16.4z M8.6,16.2c-0.5-0.8-1.3-1.1-2-1.1c0.3,0.3,0.7,0.7,0.8,1.1H8.6
		L8.6,16.2z M7.5,16.4c0.1,0.3,0.2,0.7,0.2,1H9c0-0.3-0.1-0.7-0.3-1H7.5L7.5,16.4z M4.4,18.8C5,19.7,5.8,20,6.4,20
		c-0.3-0.3-0.7-0.8-0.8-1.1H4.4L4.4,18.8z M6.5,19.8c0.3-0.2,0.5-0.6,0.7-0.9H5.8C6,19.1,6.2,19.5,6.5,19.8L6.5,19.8z M5.5,18.6
		c-0.1-0.3-0.2-0.7-0.2-1H4c0,0.3,0.1,0.7,0.3,1H5.5L5.5,18.6z M7.3,18.6c0.1-0.3,0.2-0.7,0.2-1h-2c0,0.3,0.1,0.7,0.2,1H7.3
		L7.3,18.6z M7.4,18.8c-0.1,0.4-0.5,0.9-0.8,1.1c0.7,0,1.4-0.3,2-1.1H7.4L7.4,18.8z M8.7,18.6C8.9,18.3,9,18,9,17.6H7.7
		c0,0.3-0.1,0.7-0.2,1H8.7L8.7,18.6z M9.2,17.5c0,1.5-1.4,2.7-2.5,2.7H3.8L2,22h4.6c1.5,0,2.9-1.3,2.9-2.9C9.5,18.6,9.5,18,9.2,17.5
		L9.2,17.5L9.2,17.5z"/>
	<path class="st1" d="M22.7,20c-1.2,0-2.1-0.7-2.1-1.8c0-1.1,0.9-1.9,2.1-1.9c1.2,0,2.1,0.7,2.1,1.9C24.7,19.2,23.9,20,22.7,20
		L22.7,20z M43.2,16.3v3.5H42l0-0.4h0c-0.1,0.1-0.4,0.4-1.2,0.4c-0.9,0-1.6-0.7-1.6-1.9c0-1,0.7-1.8,1.7-1.8c0.7,0,1,0.3,1.1,0.4h0
		l0-0.3H43.2L43.2,16.3z M34,16.3v3.5h-1.2l0-0.4h0c-0.1,0.1-0.4,0.4-1.2,0.4c-0.9,0-1.6-0.7-1.6-1.9c0-1,0.7-1.9,1.7-1.9
		c0.7,0,1,0.3,1.1,0.4h0l0-0.3H34L34,16.3z M28.1,16.3h1.2v3.5h-1.2V16.3L28.1,16.3z M34.7,19.9v-5H36v1.7h0
		c0.1-0.1,0.5-0.3,1.1-0.3c1,0,1.7,0.8,1.7,1.8c0,1.3-0.8,1.9-1.7,1.9c-0.7,0-1-0.3-1.1-0.4h0l0,0.3H34.7L34.7,19.9z M22.7,19.1
		c0.5,0,0.8-0.4,0.8-1c0-0.5-0.3-1-0.8-1c-0.5,0-0.8,0.4-0.8,1C21.9,18.6,22.2,19.1,22.7,19.1L22.7,19.1z M27.5,18.9
		c-0.1,0-0.2,0.1-0.3,0.1c-0.2,0-0.5-0.1-0.5-0.5v-1.2h0.8v-0.9h-0.8v-1.1h-1.2v1.1h-0.5v0.9h0.5v1.4c0,0.8,0.4,1.3,1.3,1.3
		c0.3,0,0.5,0,0.7-0.1L27.5,18.9L27.5,18.9z M13.5,19.7c0.3,0.1,0.9,0.2,1.4,0.2c1.1,0,2.1-0.4,2.1-1.5c0-1.6-2.2-1.4-2.2-2
		c0-0.3,0.3-0.4,0.7-0.4c0.5,0,1,0.2,1.2,0.3l0.1-1.1C16.5,15.1,16,15,15.5,15c-1,0-2.1,0.4-2.1,1.4c0,1.6,2.2,1.2,2.2,2
		c0,0.3-0.3,0.4-0.7,0.4c-0.5,0-1.1-0.3-1.3-0.4L13.5,19.7L13.5,19.7z M40.5,18.1c0,0.6,0.3,1,0.8,1c0.4,0,0.8-0.4,0.8-0.9
		c0-0.5-0.3-0.9-0.8-0.9C40.8,17.2,40.5,17.6,40.5,18.1L40.5,18.1z M31.2,18.1c0,0.6,0.3,1,0.8,1c0.4,0,0.8-0.4,0.8-0.9
		c0-0.5-0.3-0.9-0.8-0.9C31.5,17.2,31.2,17.6,31.2,18.1L31.2,18.1z M20.3,16.4c-0.1,0-0.4-0.1-0.9-0.1c-1.1,0-1.9,0.7-1.9,1.9
		c0,1.1,0.7,1.9,1.9,1.9c0.5,0,0.8-0.1,0.9-0.2l-0.1-1c-0.1,0-0.3,0.2-0.6,0.2c-0.5,0-0.9-0.4-0.9-0.8c0-0.5,0.4-0.9,0.9-0.9
		c0.3,0,0.5,0.1,0.6,0.2L20.3,16.4L20.3,16.4z M48.4,19.9h1.2v-1.6h0l1.1,1.6h1.4L50.8,18l1.3-1.7h-1.4l-1.1,1.5h0v-2.9h-1.2V19.9
		L48.4,19.9z M44,19.9h1.2V18c0-0.4,0.3-0.7,0.6-0.7c0.4,0,0.7,0.3,0.7,0.7v1.8h1.2v-2.1c0-0.8-0.5-1.5-1.5-1.5
		c-0.6,0-1,0.3-1.1,0.5h0l0-0.4H44V19.9L44,19.9z M28.8,14.5c-0.4,0-0.7,0.3-0.7,0.7c0,0.4,0.3,0.7,0.7,0.7c0.4,0,0.7-0.3,0.7-0.7
		C29.4,14.9,29.1,14.5,28.8,14.5L28.8,14.5z M37.4,18.1c0-0.5-0.3-0.9-0.7-0.9c-0.4,0-0.7,0.4-0.7,0.9c0,0.5,0.3,0.9,0.7,0.9
		C37.1,19,37.4,18.6,37.4,18.1L37.4,18.1z"/>
</g>
</svg>
