<?xml version="1.0" encoding="UTF-8"?>
<svg width="30px" height="21px" viewBox="0 0 30 21" version="1.1" xmlns="http://www.w3.org/2000/svg" xmlns:xlink="http://www.w3.org/1999/xlink">
    <!-- Generator: Sketch 59.1 (86144) - https://sketch.com -->
    <title>entrega-standard</title>
    <desc>Created with Sketch.</desc>
    <g id="Page-1" stroke="none" stroke-width="1" fill="none" fill-rule="evenodd">
        <g id="16-Checkout---Entrega" transform="translate(-378.000000, -817.000000)" fill="#E9711C">
            <g id="Llegada" transform="translate(357.000000, 714.000000)">
                <path d="M27.3296296,103 C30.0333333,103 32.3407407,104.933333 32.8148148,107.592593 L32.8407407,107.744444 L41.662963,107.744444 C42.462963,107.744444 43.2037037,108.140741 43.6518519,108.803704 L48.2185185,115.603704 L48.3,115.614815 C49.6296296,115.792593 50.6333333,116.937037 50.6333333,118.281481 C50.6333333,119.592593 49.6962963,120.707407 48.4074074,120.92963 L48.2814815,120.951852 L48.2592593,121.077778 C48.037037,122.377778 46.9222222,123.318519 45.6037037,123.318519 C44.3592593,123.318519 43.2814815,122.474074 42.9888889,121.259259 L42.9555556,121.118519 L33.0407407,121.118519 L33.0074074,121.255556 C32.7148148,122.466667 31.637037,123.314815 30.3925926,123.314815 C29.1444444,123.314815 28.0703704,122.47037 27.7777778,121.255556 L27.7444444,121.118519 L26.1740741,121.118519 C25.9037037,121.118519 25.6814815,120.9 25.6814815,120.62963 L25.6703704,118.055556 C25.6703704,117.925926 25.7185185,117.8 25.8148148,117.707407 C25.9074074,117.614815 26.0296296,117.562963 26.162963,117.559259 C26.437037,117.559259 26.6555556,117.781481 26.6592593,118.051852 L26.6703704,120.137037 L27.7481481,120.137037 L27.7814815,119.996296 C28.0740741,118.785185 29.1481481,117.937037 30.3962963,117.937037 C31.6407407,117.937037 32.7185185,118.781481 33.0111111,119.992593 L33.0444444,120.133333 L42.9555556,120.133333 L42.9888889,119.992593 C43.2814815,118.781481 44.3592593,117.933333 45.6037037,117.933333 C46.7740741,117.933333 47.8037037,118.681481 48.162963,119.796296 L48.2148148,119.959259 L48.3814815,119.914815 C49.1222222,119.714815 49.6407407,119.040741 49.6407407,118.27037 C49.6407407,117.333333 48.8777778,116.566667 47.937037,116.566667 L42.0296296,116.566667 C41.7592593,116.566667 41.537037,116.348148 41.537037,116.077778 L41.5037037,111.007407 C41.5037037,110.874074 41.5518519,110.751852 41.6481481,110.655556 C41.7407407,110.562963 41.8666667,110.511111 42,110.511111 L43.6185185,110.511111 L42.8333333,109.344444 C42.5703704,108.955556 42.1333333,108.722222 41.662963,108.722222 L32.9,108.722222 L32.8888889,108.9 C32.7148148,111.837037 30.2740741,114.140741 27.3296296,114.140741 C24.2592593,114.140741 21.7592593,111.640741 21.7592593,108.57037 C21.7592593,105.5 24.2592593,103 27.3296296,103 Z M30.3925926,118.925926 C29.4518519,118.925926 28.6888889,119.688889 28.6888889,120.62963 C28.6888889,121.57037 29.4518519,122.333333 30.3925926,122.333333 C31.3296296,122.333333 32.0962963,121.57037 32.0962963,120.62963 C32.0962963,119.692593 31.3333333,118.925926 30.3925926,118.925926 Z M45.6037037,118.925926 C44.662963,118.925926 43.9,119.688889 43.9,120.62963 C43.9,121.57037 44.662963,122.333333 45.6037037,122.333333 C46.5444444,122.333333 47.3074074,121.57037 47.3074074,120.62963 C47.3074074,119.692593 46.5407407,118.925926 45.6037037,118.925926 Z M26.6518519,115.548148 C26.9222222,115.548148 27.1444444,115.766667 27.1481481,116.040741 C27.1481481,116.314815 26.9296296,116.533333 26.6555556,116.537037 L23.2888889,116.548148 C23.0185185,116.548148 22.7962963,116.32963 22.7962963,116.055556 C22.7962963,115.781481 23.0148148,115.562963 23.2888889,115.559259 L26.6518519,115.548148 Z M44.2777778,111.507407 L42.4925926,111.507407 L42.5222222,115.588889 L47.0185185,115.588889 L44.2777778,111.507407 Z M23.3962963,113.733333 C23.6666667,113.733333 23.8888889,113.951852 23.8925926,114.222222 C23.8925926,114.496296 23.6740741,114.714815 23.4,114.718519 L21.4925926,114.725926 C21.2222222,114.725926 21,114.507407 21,114.237037 C21,113.962963 21.2185185,113.744444 21.4925926,113.740741 L23.3962963,113.733333 Z M27.3296296,103.985185 C26.0444444,103.985185 24.8074074,104.537037 23.937037,105.5 C23.8222222,105.625926 23.7148148,105.755556 23.6185185,105.888889 C23.0481481,106.677778 22.7481481,107.603704 22.7481481,108.57037 C22.7481481,109.537037 23.0481481,110.459259 23.6222222,111.248148 C23.7185185,111.377778 23.8222222,111.511111 23.937037,111.637037 C24.8074074,112.6 26.0444444,113.151852 27.3296296,113.151852 C28.6148148,113.151852 29.8518519,112.6 30.7222222,111.637037 C30.837037,111.511111 30.9407407,111.381481 31.037037,111.248148 C31.6074074,110.459259 31.9074074,109.533333 31.9074074,108.57037 C31.9074074,107.607407 31.6074074,106.677778 31.0333333,105.892593 C30.937037,105.759259 30.8296296,105.62963 30.7185185,105.503704 C29.8518519,104.537037 28.6148148,103.985185 27.3296296,103.985185 Z M28.8185185,107.125926 C28.9703704,106.974074 29.2185185,106.974074 29.3666667,107.12963 C29.5185185,107.281481 29.5185185,107.52963 29.3666667,107.681481 L29.3666667,107.681481 L26.6666667,110.381481 C26.5925926,110.459259 26.4925926,110.496296 26.3925926,110.496296 C26.2925926,110.496296 26.1962963,110.459259 26.1185185,110.381481 L26.1185185,110.381481 L24.9592593,109.222222 C24.8074074,109.07037 24.8074074,108.822222 24.9592593,108.67037 C25.1111111,108.518519 25.3592593,108.518519 25.5111111,108.67037 L25.5111111,108.67037 L26.3925926,109.551852 Z" id="entrega-standard"></path>
            </g>
        </g>
    </g>
</svg>