<?xml version="1.0" encoding="UTF-8"?>
<svg width="46px" height="46px" viewBox="0 0 46 46" version="1.1" xmlns="http://www.w3.org/2000/svg" xmlns:xlink="http://www.w3.org/1999/xlink">
    <!-- Generator: Sketch 59.1 (86144) - https://sketch.com -->
    <title>linkedin</title>
    <desc>Created with Sketch.</desc>
    <g id="Page-1" stroke="none" stroke-width="1" fill="none" fill-rule="evenodd">
        <g id="1-Home" transform="translate(-496.000000, -6051.000000)">
            <g id="Footer" transform="translate(0.000000, 5713.000000)">
                <g id="Follow-us" transform="translate(228.000000, 338.000000)">
                    <g id="linkedin" transform="translate(268.000000, 0.000000)">
                        <path d="M40.9659443,9.28749673 C40.1593888,7.34605674 38.6142365,5.80453886 36.6708403,5.00245734 L26.0077511,0.599958324 C24.0643549,-0.202402855 21.8821244,-0.199885863 19.9404063,0.606949969 L9.28766459,5.03377991 C7.34622612,5.84061574 5.80470944,7.38576929 5.00234888,9.32916693 L0.599853297,19.9922645 C-0.202507256,21.9356622 -0.199710601,24.1181741 0.606844937,26.0596141 L5.03395109,36.712364 C5.8407863,38.653804 7.38565897,40.1953219 9.3290551,40.9976831 L19.9921444,45.3999024 C21.9355405,46.2022636 24.1180507,46.2000263 26.0594892,45.3931905 L36.7122309,40.9660809 C38.653949,40.159245 40.1954657,38.6140915 40.9978262,36.6709735 L45.4000421,26.0075962 C46.2024027,24.0644783 46.1998857,21.8819663 45.3930505,19.9405264 L40.9659443,9.28749673 Z" id="btn" fill="#FFFFFF"></path>
                        <path d="M18.7946429,30 L18.7946429,18.6540179 L15.265625,18.6540179 L15.265625,30 L18.7946429,30 Z M17.0491071,17.0982143 C17.605655,17.0982143 18.0863093,16.8958335 18.4910714,16.4910714 C18.8958335,16.0863093 19.0982143,15.605655 19.0982143,15.0491071 C19.0982143,14.4925593 18.8958335,14.011905 18.4910714,13.6071429 C18.0863093,13.2023808 17.605655,13 17.0491071,13 C16.4925593,13 16.011905,13.2023808 15.6071429,13.6071429 C15.2023808,14.011905 15,14.4925593 15,15.0491071 C15,15.605655 15.2023808,16.0863093 15.6071429,16.4910714 C16.011905,16.8958335 16.4925593,17.0982143 17.0491071,17.0982143 Z M32,30 L28.4709821,30 L28.4709821,24.4598214 C28.4709821,23.5491071 28.3950893,22.8913692 28.2433036,22.4866071 C27.96503,21.8035714 27.4211308,21.4620536 26.6116071,21.4620536 C25.8020835,21.4620536 25.2328871,21.765625 24.9040179,22.3727679 C24.6510415,22.828125 24.5245536,23.4985121 24.5245536,24.3839286 L24.5245536,30 L21.0334821,30 L21.0334821,18.6540179 L24.4107143,18.6540179 L24.4107143,20.2098214 L24.4486607,20.2098214 C24.670015,19.7671133 25.0075799,19.3921947 25.461356,19.0850656 L25.6629464,18.9575893 C26.2700893,18.5528272 26.9784228,18.3504464 27.7879464,18.3504464 C29.4322915,18.3504464 30.5833335,18.8690478 31.2410714,19.90625 C31.7470236,20.7410714 32,22.03125 32,23.7767857 L32,30 Z" id="" fill="#53565A" fill-rule="nonzero"></path>
                    </g>
                </g>
            </g>
        </g>
    </g>
</svg>