<?xml version="1.0" encoding="UTF-8"?>
<svg width="46px" height="46px" viewBox="0 0 46 46" version="1.1" xmlns="http://www.w3.org/2000/svg" xmlns:xlink="http://www.w3.org/1999/xlink">
    <!-- Generator: Sketch 59.1 (86144) - https://sketch.com -->
    <title>messenger</title>
    <desc>Created with Sketch.</desc>
    <g id="Page-1" stroke="none" stroke-width="1" fill="none" fill-rule="evenodd">
        <g id="1-Home" transform="translate(-563.000000, -6051.000000)">
            <g id="Footer" transform="translate(0.000000, 5713.000000)">
                <g id="Follow-us" transform="translate(228.000000, 338.000000)">
                    <g id="messenger" transform="translate(335.000000, 0.000000)">
                        <path d="M40.9659443,9.28749673 C40.1593888,7.34605674 38.6142365,5.80453886 36.6708403,5.00245734 L26.0077511,0.599958324 C24.0643549,-0.202402855 21.8821244,-0.199885863 19.9404063,0.606949969 L9.28766459,5.03377991 C7.34622612,5.84061574 5.80470944,7.38576929 5.00234888,9.32916693 L0.599853297,19.9922645 C-0.202507256,21.9356622 -0.199710601,24.1181741 0.606844937,26.0596141 L5.03395109,36.712364 C5.8407863,38.653804 7.38565897,40.1953219 9.3290551,40.9976831 L19.9921444,45.3999024 C21.9355405,46.2022636 24.1180507,46.2000263 26.0594892,45.3931905 L36.7122309,40.9660809 C38.653949,40.159245 40.1954657,38.6140915 40.9978262,36.6709735 L45.4000421,26.0075962 C46.2024027,24.0644783 46.1998857,21.8819663 45.3930505,19.9405264 L40.9659443,9.28749673 Z" id="btn" fill="#FFFFFF"></path>
                        <path d="M22.9913059,12 C24.9748544,12 26.8096368,12.4628277 28.495653,13.3884839 C30.1816692,14.3141401 31.5205644,15.5621222 32.5123386,17.1324317 C33.5041129,18.7027412 34,20.4135517 34,22.2648634 C34,24.5128848 33.2892287,26.5294926 31.8676854,28.3146863 C30.5453195,30.0337619 28.7931852,31.2569496 26.6112819,31.9842509 C24.3963192,32.7115523 22.1317685,32.761141 19.8176284,32.1330171 L16.098475,34.215743 L16.098475,30.2982347 C14.1479859,28.8105734 12.891738,26.9923204 12.3297328,24.8434764 C11.8007863,22.8599279 11.9082288,20.8681144 12.6520595,18.8680366 C13.3958902,16.8679588 14.6604023,15.2397956 16.4455959,13.9835485 C18.329967,12.6611826 20.5118703,12 22.9913059,12 Z M30.1816692,19.4383068 L24.6773221,22.4632182 L21.8507656,19.4878955 L15.8505314,25.8848394 L21.3052897,22.8103392 L24.1318463,25.7856619 L30.1816692,19.4383068 Z" id="" fill="#53565A" fill-rule="nonzero"></path>
                    </g>
                </g>
            </g>
        </g>
    </g>
</svg>