<?xml version="1.0" encoding="UTF-8"?>
<svg width="46px" height="46px" viewBox="0 0 46 46" version="1.1" xmlns="http://www.w3.org/2000/svg" xmlns:xlink="http://www.w3.org/1999/xlink">
    <!-- Generator: Sketch 59.1 (86144) - https://sketch.com -->
    <title>twitter</title>
    <desc>Created with Sketch.</desc>
    <g id="Page-1" stroke="none" stroke-width="1" fill="none" fill-rule="evenodd">
        <g id="1-Home" transform="translate(-295.000000, -6051.000000)">
            <g id="Footer" transform="translate(0.000000, 5713.000000)">
                <g id="Follow-us" transform="translate(228.000000, 338.000000)">
                    <g id="twitter" transform="translate(67.000000, 0.000000)">
                        <path d="M40.9659443,9.28749673 C40.1593888,7.34605674 38.6142365,5.80453886 36.6708403,5.00245734 L26.0077511,0.599958324 C24.0643549,-0.202402855 21.8821244,-0.199885863 19.9404063,0.606949969 L9.28766459,5.03377991 C7.34622612,5.84061574 5.80470944,7.38576929 5.00234888,9.32916693 L0.599853297,19.9922645 C-0.202507256,21.9356622 -0.199710601,24.1181741 0.606844937,26.0596141 L5.03395109,36.712364 C5.8407863,38.653804 7.38565897,40.1953219 9.3290551,40.9976831 L19.9921444,45.3999024 C21.9355405,46.2022636 24.1180507,46.2000263 26.0594892,45.3931905 L36.7122309,40.9660809 C38.653949,40.159245 40.1954657,38.6140915 40.9978262,36.6709735 L45.4000421,26.0075962 C46.2024027,24.0644783 46.1998857,21.8819663 45.3930505,19.9405264 L40.9659443,9.28749673 Z" id="btn" fill="#FFFFFF"></path>
                        <path d="M30.9296875,19.0625 C30.9557294,19.1666669 30.96875,19.3359375 30.96875,19.5703125 C30.96875,21.4453125 30.5130206,23.2552081 29.6015625,25 C28.6640625,26.8489581 27.3489581,28.3203125 25.65625,29.4140625 C23.8072919,30.6380206 21.6848956,31.25 19.2890625,31.25 C16.9973956,31.25 14.9010419,30.6380206 13,29.4140625 C13.2864581,29.4401044 13.6119794,29.453125 13.9765625,29.453125 C15.8776044,29.453125 17.5833331,28.8671875 19.09375,27.6953125 C18.1822919,27.6953125 17.3815106,27.4283856 16.6914062,26.8945312 C16.0013019,26.3606769 15.5260419,25.6901044 15.265625,24.8828125 C15.5260419,24.9088544 15.7734375,24.921875 16.0078125,24.921875 C16.3723956,24.921875 16.7369794,24.8828125 17.1015625,24.8046875 C16.1640625,24.5963544 15.3828125,24.1145831 14.7578125,23.359375 C14.1328125,22.6041669 13.8203125,21.7447919 13.8203125,20.78125 L13.8203125,20.703125 C14.3932294,21.0416669 15.0052081,21.2239581 15.65625,21.25 C15.109375,20.859375 14.6666669,20.3645831 14.328125,19.765625 C13.9895831,19.1666669 13.8203125,18.5091144 13.8203125,17.7929688 C13.8203125,17.0768231 14.015625,16.3932294 14.40625,15.7421875 C15.421875,17.0182294 16.6653644,18.0338544 18.1367188,18.7890625 C19.6080731,19.5442706 21.1770831,19.9609375 22.84375,20.0390625 C22.7916669,19.7265625 22.765625,19.4140625 22.765625,19.1015625 C22.765625,18.3723956 22.9479169,17.6888019 23.3125,17.0507812 C23.6770831,16.4127606 24.171875,15.9114581 24.796875,15.546875 C25.421875,15.1822919 26.0989581,15 26.828125,15 C27.4270831,15 27.9804688,15.1171875 28.4882812,15.3515625 C28.9960938,15.5859375 29.4453125,15.8984375 29.8359375,16.2890625 C30.7734375,16.1067706 31.6458331,15.78125 32.453125,15.3125 C32.140625,16.2760419 31.5416669,17.03125 30.65625,17.578125 C31.4375,17.4739581 32.21875,17.2526044 33,16.9140625 C32.4270831,17.7473956 31.7369794,18.4635419 30.9296875,19.0625 Z" id="" fill="#53565A" fill-rule="nonzero"></path>
                    </g>
                </g>
            </g>
        </g>
    </g>
</svg>