<?xml version="1.0" encoding="UTF-8"?>
<svg width="60px" height="28px" viewBox="0 0 60 28" version="1.1" xmlns="http://www.w3.org/2000/svg" xmlns:xlink="http://www.w3.org/1999/xlink">
    <!-- Generator: Sketch 59.1 (86144) - https://sketch.com -->
    <title>email-contact-icon</title>
    <desc>Created with Sketch.</desc>
    <g id="Page-1" stroke="none" stroke-width="1" fill="none" fill-rule="evenodd">
        <g id="4-Contactenos" transform="translate(-273.000000, -611.000000)" fill="#FFFFFF">
            <g id="Contact-Info" transform="translate(273.000000, 486.000000)">
                <g id="Email" transform="translate(0.000000, 125.000000)">
                    <path d="M55.6861411,0.000232033929 C58.9612748,-0.0292871215 60.8873803,2.76222478 59.593252,5.81105365 C57.1441309,11.5809885 54.9259246,17.4485697 52.600433,23.2708899 C51.3704243,26.3519881 49.3952861,27.6909583 46.1046464,27.694311 C40.8334203,27.6997591 35.5626133,27.6959873 30.2918064,27.6959873 C24.9505935,27.6959873 19.6077042,27.6042081 14.269844,27.729933 C10.9754324,27.8070443 9.06650935,24.9623089 10.3543514,21.9268907 C12.7888046,16.1892252 14.9956957,10.3547516 17.3052622,4.56344354 C18.5734073,1.38344169 20.5535746,0.0386043255 23.9552713,0.0373470765 C34.5320882,0.0348325784 45.1097433,0.0968568634 55.6861411,0.000232033929 Z M2.55521669,22.680821 L2.55521669,22.6946507 C3.0086645,22.6946507 3.47133214,22.6347219 3.91220746,22.7084805 C4.56807237,22.817442 4.98380271,23.2507739 4.97793555,23.9338792 C4.9716493,24.6157272 4.55256629,25.0809094 3.89334873,25.1379046 C2.99315843,25.2150159 2.07913839,25.2087297 1.1764336,25.1504771 C0.46315432,25.104378 0.00467751099,24.6438058 0.0109637561,23.9141823 C0.0172500012,23.185816 0.482013055,22.7654758 1.1961305,22.6896217 C1.64454931,22.6422653 2.10176887,22.680821 2.55521669,22.680821 Z M39.7945659,2.55001163 L23.8743883,2.55268328 C21.6197217,2.55352145 20.4944838,3.31792885 19.6487743,5.43387895 C17.334598,11.2235107 15.0279651,17.0164951 12.7238467,22.8107367 C12.0453514,24.5168236 12.4832931,25.1798129 14.2773875,25.1806511 C19.5842356,25.1831656 24.8906646,25.1814893 30.1975127,25.1814893 C35.5043608,25.1814893 40.811628,25.185261 46.118057,25.1793939 C48.314052,25.1764603 49.460244,24.4036712 50.2778749,22.3560317 C52.6167772,16.5006039 54.9464596,10.6414044 57.2702749,4.77969037 C57.8783643,3.24500841 57.3897135,2.55310236 55.7150579,2.55268328 C45.1013616,2.54933062 34.4876654,2.54891153 23.8743883,2.55268328 Z M29.9635806,16.4002335 C29.9874683,17.0133519 29.6341813,17.3888503 29.1199665,17.5967155 C25.0204965,19.250417 20.9172548,20.8932224 16.8106604,22.5301606 C16.0303279,22.8411202 15.3933217,22.5842224 15.0999636,21.8223294 C14.789004,21.0155947 15.2596342,20.4712058 15.9729135,20.1736569 C17.5784205,19.5031241 19.201529,18.8744996 20.8162558,18.2249209 C23.2058671,17.2639636 25.5887731,16.2862429 27.9850897,15.342468 C29.0663238,14.9162606 29.9501699,15.4137121 29.9635806,16.4002335 Z M41.0537322,15.5934987 C43.011688,17.1612883 44.9679675,18.7307541 46.9229897,20.3014772 C47.4237939,20.704216 47.7163139,21.1970576 47.4539679,21.8508271 C47.2553226,22.3445069 46.8643181,22.6118818 46.3278919,22.6525329 C45.9150951,22.6625909 45.5982684,22.450954 45.2961095,22.2074667 C43.3691658,20.6572787 41.4434794,19.1054143 39.5156976,17.5556454 C38.8656999,17.0330489 38.538396,16.3981381 39.1221787,15.6731245 C39.6871026,14.9711605 40.3886475,15.0612633 41.0537322,15.5934987 Z M6.11574591,12.6258043 C6.87009532,12.644244 7.36042244,13.0805094 7.36126298,13.8784434 C7.36251785,14.6797301 6.86632357,15.0841452 6.11113599,15.1227009 C5.28009439,15.1646092 4.44486196,15.1319207 3.61130586,15.1327589 C2.84731754,15.133597 2.08291014,15.1470077 1.31892182,15.1298253 C0.54403734,15.1118047 0.0398804835,14.6948171 0.0143164201,13.9291525 C-0.0137621413,13.1006254 0.513025197,12.639215 1.32353173,12.6232898 C2.92023798,12.5918586 4.51903965,12.5859914 6.11574591,12.6258043 Z M24.9697036,5.70158917 C26.8970664,7.42192491 28.8202383,9.14687057 30.7513728,10.8630155 C33.0026867,12.8624605 35.5067077,13.1788682 38.1917725,11.7812263 C42.1177421,9.73735852 46.0340728,7.67547013 49.9554325,5.62363973 C50.2638776,5.46229277 50.5698082,5.28376341 50.8966929,5.17354458 C51.5466906,4.95394509 52.0751543,5.16390567 52.4037154,5.76109896 C52.7444299,6.37966548 52.54327,6.91231998 52.0248644,7.33014573 C51.8107129,7.50280793 51.5513006,7.62308475 51.3048797,7.7525814 C47.3244294,9.84212927 43.3414645,11.9283245 39.3614332,14.0182914 C38.0098905,14.728218 36.5766266,15.1062309 35.0486499,15.1208988 C32.8405016,15.0597127 30.8871557,14.3531388 29.2309396,12.8624605 C27.2067687,11.0415448 25.1758925,9.2273345 23.1391491,7.42108675 C22.679415,7.01331898 22.4518529,6.54520326 22.6152953,5.93879015 C22.734734,5.49665758 23.0540752,5.22844446 23.4848925,5.11613021 C24.1118407,4.95394509 24.5464298,5.32399538 24.9697036,5.70158917 Z M10.8791272,2.55419198 C11.8853455,2.56257364 12.4800243,3.04661451 12.4775177,3.81227916 C12.4741571,4.57752473 11.8811546,5.05863202 10.8703264,5.06198469 C7.79844799,5.0716236 4.72615048,5.05863202 1.65385296,5.06952818 C0.785512968,5.07288085 0.111627494,4.81682113 0.00727582563,3.85460655 C-0.0777980246,3.06924499 0.589801204,2.56131639 1.6626537,2.5537729 C3.19859292,2.54245765 4.73495122,2.55083931 6.27089044,2.55083931 C7.80724874,2.55083931 9.34318795,2.54161949 10.8791272,2.55419198 Z" id="email-contact-icon"></path>
                </g>
            </g>
        </g>
    </g>
</svg>