<?xml version="1.0" encoding="UTF-8"?>
<svg width="22px" height="22px" viewBox="0 0 22 22" version="1.1" xmlns="http://www.w3.org/2000/svg" xmlns:xlink="http://www.w3.org/1999/xlink">
    <!-- Generator: Sketch 59.1 (86144) - https://sketch.com -->
    <title>grid-icon</title>
    <desc>Created with Sketch.</desc>
    <g id="Page-1" stroke="none" stroke-width="1" fill="none" fill-rule="evenodd">
        <g id="7-Tienda" transform="translate(-1612.000000, -456.000000)" fill="#E9711C">
            <g id="Filtros" transform="translate(0.000000, 427.000000)">
                <g id="Ordenar" transform="translate(1612.000000, 29.000000)">
                    <path d="M9,13 L9,22 L0,21.9868068 L0,13 L9,13 Z M22,13 L21.9867045,21.9868068 L13,22 L13,13 L22,13 Z M6,16 L3,16 L3,19 L6,19 L6,16 Z M19,16 L16,16 L16,19 L19,19 L19,16 Z M9,0 L9,9 L0,9 L0,0.000102272727 L9,0 Z M21.9867045,0.000102272727 L22,9 L13,9 L13,0 L21.9867045,0.000102272727 Z M6,3 L3,3 L3,6 L6,6 L6,3 Z M19,3 L16,3 L16,6 L19,6 L19,3 Z" id="grid-icon"></path>
                </g>
            </g>
        </g>
    </g>
</svg>