<?xml version="1.0" encoding="utf-8"?>
<!-- Generator: Adobe Illustrator 26.2.1, SVG Export Plug-In . SVG Version: 6.00 Build 0)  -->
<!DOCTYPE svg PUBLIC "-//W3C//DTD SVG 1.1//EN" "http://www.w3.org/Graphics/SVG/1.1/DTD/svg11.dtd" [
	<!ENTITY ns_extend "http://ns.adobe.com/Extensibility/1.0/">
	<!ENTITY ns_ai "http://ns.adobe.com/AdobeIllustrator/10.0/">
	<!ENTITY ns_graphs "http://ns.adobe.com/Graphs/1.0/">
	<!ENTITY ns_vars "http://ns.adobe.com/Variables/1.0/">
	<!ENTITY ns_imrep "http://ns.adobe.com/ImageReplacement/1.0/">
	<!ENTITY ns_sfw "http://ns.adobe.com/SaveForWeb/1.0/">
	<!ENTITY ns_custom "http://ns.adobe.com/GenericCustomNamespace/1.0/">
	<!ENTITY ns_adobe_xpath "http://ns.adobe.com/XPath/1.0/">
]>
<svg version="1.1" id="Capa_1" xmlns:x="&ns_extend;" xmlns:i="&ns_ai;" xmlns:graph="&ns_graphs;"
	 xmlns="http://www.w3.org/2000/svg" xmlns:xlink="http://www.w3.org/1999/xlink" x="0px" y="0px" viewBox="0 0 200 140"
	 style="enable-background:new 0 0 200 140;" xml:space="preserve">
<style type="text/css">
	.st0{fill:#333740;}
</style>
<metadata>
	<sfw  xmlns="&ns_sfw;">
		<slices></slices>
		<sliceSourceBounds  bottomLeftOrigin="true" height="62.1" width="175" x="13" y="38.9"></sliceSourceBounds>
	</sfw>
</metadata>
<desc>Created with Sketch.</desc>
<g id="Page-1">
	<g id="_x31_-Home" transform="translate(-228.000000, -837.000000)">
		<g id="Logos-Editoriales" transform="translate(0.000000, 807.000000)">
			<g id="Elsevier" transform="translate(228.000000, 30.000000)">
				<path id="path2" class="st0" d="M32.3,68.1c0.7-0.4,1.2-0.9,1.2-1.4c0.1-0.5-0.3-0.5-0.4-0.4c-0.4,0.3-1,0.8-1.5,1.2
					c-0.2,0-0.5,0.1-0.7,0.1c-0.1,0-0.1-0.1-0.1-0.2c0.5-0.3,1-0.6,1.3-1c0.2-0.2,0.1-0.5-0.3-0.5c-0.5-0.1-1,0.1-1.4,0.5
					c-0.7,0.6-1.1,2-1.2,2.9c-0.2,0.1-0.2,0.1-0.3,0.2c-0.3-1-0.1-2,0.4-2.9c0.1-0.2,0-0.5-0.2-0.5c-0.2-0.1-0.2,0-0.3,0.1
					c-0.3,1-1,1.5-1.9,2.1c-0.1,0.1-0.9,0.5-1.1,0.6c-0.7-0.2-1.5-1.5-2.1-2.5c-0.1-0.2-0.3-0.3-0.6-0.2c-1.4,0.2-2.5,0.1-3.2-1.1
					c-0.3-0.5-0.5-0.5-0.9-0.1c-0.5,0.5-1,0.9-1.4,1.3c-0.2,0.2-0.4,0.1-0.5-0.2c-0.3-1-0.5-2-0.5-3c0-0.4,0.1-1.1,0.1-1.5
					c-0.3-0.2-0.6-0.5-0.9-0.6c-1.2-0.6-2.6-1.9-2.6-2.3c0-0.1,0.1-0.3,0.4-0.5c1.7-0.8,3.1-0.1,3.6-0.2c0.4,0,0.6-0.4,0.5-1
					c-0.2-1.2,0.2-2.3,1.1-3.1c0.6-0.6,0.5-1.3,0.4-2.1c-0.1-0.4-0.2-0.5-0.5-0.4c-1,0.2-0.9,0.2-1.1,1.1c-0.1,0.5-0.3,1.1-0.6,1.5
					c-0.4,0.6-0.9,1.1-1.3,1.7c-0.2,0.2-0.3,0.2-0.6,0.1c-1.3-0.8-1.9-2.5-1.2-4c0.2-0.4,0.4-0.9,0.6-1.1l0.1,0.1c0,0.1,0,0.2,0,0.2
					l-0.3,0.9c-0.3,1-0.3,2,0.4,2.9c0.2,0.3,0.4,0.4,0.5,0.2c0.4-0.4,0.9-0.9,1.3-1.3c0.5-0.5,0.6-1.2,0.5-1.9
					c0-0.3-0.1-0.5-0.1-0.8c-0.1-0.4-0.2-0.4-0.4-0.1c-0.4,0.4-0.6,0.8-0.8,1.6c0,0.1-0.1,0.2-0.2,0.3c-0.1-0.1-0.1-0.3-0.1-0.4
					c0.1-0.7,0.3-1.4,0.7-1.8c0.3-0.3,0.2-0.5-0.1-0.6c-1-0.3-1.9-0.6-2.7-1.5c-0.1-0.1-0.2-0.3-0.2-0.5c0-0.2,0.1-0.4,0.3-0.5
					c0.9-0.6,1.8-1.3,2.7-1.5c0.3-0.1,0.5-0.1,0.7-0.1c-0.4-1.3-0.8-2.8-1.1-4.2c0-0.3,0.2-1.1,0.3-1.3c0.2,0,0.4,0,0.8,0.1
					c0.4,0.1,0.8,0.4,1.2,0.7c0.4,0.2,0.5,0.2,0.7-0.1c0.4-0.6,0.9-1.2,1.5-1.5c0.2-0.1,0.3-0.2,0.5-0.2c0.2,0,0.3,0.1,0.6,0.4
					c0.3,0.6,0.6,1.2,1,1.8c0.3,0.6,0.7,0.7,1.3,0.2c0.6-0.4,1.2-0.8,1.7-1.3c0.5-0.4,0.7-0.4,1.2,0c0.5,0.4,1.1,1,1.3,1.6
					c0.1,0.1,1.3-0.5,1.3-0.8c0.1-0.5,0.2-0.9,0.4-1.3c0.2-0.5,0.6-0.7,0.9-0.7c0.3,0,0.9,0.3,1.3,0.6l0.9,0.5
					c0.5,0.3,0.5,0.3,0.8-0.2c0.3-0.5,0.6-0.6,1.3-0.6c1.3,0,2.5,0.3,3.4,1.4c0.2,0.2,0.3,0.2,0.5,0c0.4-0.4,0.7-0.5,1.4-0.5h1.2
					c0.3,0,0.5,0,0.7-0.3c0.3-0.5,0.7-1,1.3-1c0.9,0,2,1.2,2.6,2.3l-0.3,0.2c-0.6-0.6-1.4-1.1-2.2-1.4c-0.5-0.2-0.8,0-0.7,0.5
					c0.1,0.6,0.2,1.3,0.4,1.9c0.2,0.6,0.7,1.1,1.3,1.4l0,0.2c-0.1,0-0.2-0.1-0.3-0.1c-0.4-0.1-0.8-0.1-1.1,0c-0.7,0.2-1.4,0.5-2,0.8
					c-0.3,0.2-0.3,0.2-0.1,0.5c0.3,0.3,0.7,0.7,1.1,1c1.2,0.9,2.3,0.7,3.6,0.2l0.6-0.2c0.5-0.1,1.1,0.1,1.6,0.5l1.3,1.2
					c0.4,0.4,0.5,0.7,0.2,1.2c-0.4,0.8-0.9,1.7-1.3,2.5c-0.1,0.1-0.2,0.2-0.3,0.3c-0.2-0.1-0.3-0.4-0.1-0.7c0.6-0.7,0.9-1.7,1-2.4
					c0.1-0.7-0.2-1-0.9-0.8l-0.5,0.2c-0.2,0.1-0.3,0-0.3-0.2c-0.1-0.2-0.2-0.3-0.3-0.5c-0.1-0.4-0.3-0.5-0.7-0.2
					c-0.5,0.3-0.9,0.7-1.2,1.2c-0.5,0.9-0.6,1.8-0.5,2.8c0,0.1,0.1,0.2,0.2,0.3c0.1-0.1,0.2-0.1,0.2-0.2c0.2-0.4,0.3-0.8,0.3-1.3
					c0-0.2,0.1-0.7,0.2-0.9c0.1-0.1,0.2-0.1,0.3,0c0.3,0.1,0.4,0.2,0.4,0.4c-0.5,0.7-0.9,1.7-1.2,2.6c-0.1,0.1-0.3,0.3-0.4,0.3
					c-0.2,0-0.4-0.2-0.4-0.3c-0.2-0.6-0.6-1.1-0.8-1.7c-0.4-2-0.5-2.1-0.6-2.2c-0.8-1.3-1.7-2.4-2.9-3.3c-0.1-0.1-0.1-0.2-0.2-0.3
					c0.1-0.1,0.2-0.1,0.3-0.2c0.4-0.2,0.8-0.3,1.1-0.4c0.5-0.2,0.8-0.5,1-0.9c0.1-0.2,0.3-0.5,0.5-0.8c0.2-0.4,0.2-0.5-0.1-0.9
					c-0.5-0.5-1.2-0.8-1.9-0.6c-0.7,0.2-1.2,0.7-1.4,1.4c-0.1,0.2-0.1,0.5-0.1,0.8c0,0.4,0.1,0.5,0.4,0.3c0.5-0.4,1.1-0.8,1.7-1.2
					c-0.3,0.6-0.6,1.1-1.2,1.4c-0.3,0.2-0.7,0.4-1.1,0.6c-0.3,0.2-0.4,0.1-0.5-0.2c-0.1-0.4-0.1-0.8-0.1-1.2
					c0.1-1.1-0.6-2.2-1.7-2.6l-0.9-0.4c-0.3,0.2-0.4,0.5-0.3,0.8c0.1,1,0.2,1.8,0.4,2.7c0.2,0.4,0.6,0.5,1,0.6
					c0.2-0.1,0.4-0.5,0.1-1L35.8,42c-0.1-0.1-0.1-0.2-0.1-0.4c0-0.1,0-0.1,0-0.2c0.1,0,0.1,0,0.2,0.1c0.6,0.7,1.1,1.4,1.4,2.3
					c0.1,0.4,0,0.5-0.3,0.5c-0.8,0.1-1.6,0.1-2.4,0.3c-1.3,0.3-1.7,0.7-2.1,1.6c-0.2,0.4-0.3,0.6-0.3,0.8c0.4,0,0.9,0,1.7-0.1
					c0.6-0.1,1.2-0.3,1.7-0.6c0.3-0.4,0.6-0.8,1.1-1.2c0.1-0.1,0.5-0.1,0.6-0.1c1.4,0.7,2.6,1.8,3.3,3.2c0.1,0.1,0.2,0.3,0.3,0.4
					c0.1,0.2,0.1,0.2-0.1,0.2c-0.3-0.1-0.6-0.2-0.9-0.3c-0.1-0.1-0.2-0.2-0.2-0.3l-0.3-0.7c-0.1-0.3-0.2-0.3-0.5-0.2
					c-0.2,0.1-0.3,0.1-0.6,0.2c-0.2,0.1-0.3,0.1-0.4-0.1c-0.1-0.4-0.2-0.7-0.2-1c-0.1-0.4-0.3-0.5-0.7-0.3c-0.7,0.4-1.2,0.9-1.6,1.7
					c-0.3,0.7-0.5,1.2-0.2,3c0.1,0.4,0.3,0.8,0.7,0.9l3.1,1c0.2,0,0.2,0.2,0.1,0.3c-0.4,0.3-0.8,0.5-1.2,0.7
					c-0.2,0.1-0.3,0.1-0.4-0.1c-0.3-0.5-0.7-1-1.3-1.2c-0.2-0.1-0.3-0.1-0.4,0.2c-0.1,0.3-0.3,0.8-0.4,1.2c-0.1,0.2-0.2,0.2-0.3,0.1
					c-0.9-0.7-1.8-0.8-2.9-0.6c-0.5,0.1-0.8,0.2-0.7,0.8c0.3,1.5,1.6,2.2,2.7,2.7c0.2-0.1,0.3-0.2,0.4-0.3c0.2-0.2,0.1-0.5-0.1-0.7
					c-0.4-0.4-1.3-0.8-1.8-1.2c-0.1-0.2,0.4-0.5,0.7-0.3c0.8,0.4,1.4,1,2.1,1.7c0.3,0.3,0.5,0.3,0.6-0.2c0.1-0.4,0.2-0.9,0.3-1.3
					c0.1-0.2,0.2-0.1,0.2,0c0.1,0.3,0.2,0.7,0.2,1.1c0,0.4-0.1,0.7-0.2,1.1c-0.1,0.4-0.3,0.5-0.6,0.5c-1.4-0.1-2.4,0.5-3.2,0.5
					c-0.2,0-0.6-0.1-0.8-0.2c-0.3-0.2,0.1-0.3,0.2-0.3c0.3,0,0.9,0,1.2-0.2c-0.1-0.1-0.2-0.2-0.4-0.4c-0.8-0.6-1.6,0-2.3,0.4
					c-0.4,0.2-0.4,0.2-0.2,0.7c0.2,0.6,0.7,0.8,1.3,0.8c0.3,0,0.7,0.1,1,0c0.2,0,0.3-0.1,0.5-0.1c0.4-0.2,0.8-0.4,1.2-0.6
					c0.5-0.1,0.5,0.2,0.3,0.4l-1,0.6c-0.1,0.1-0.2,0.1-0.3,0.2c-0.1,0.1-0.3,0.3-0.3,0.4c0.1,0.1,0.2,0.3,0.4,0.3
					c0.5,0.1,1,0.2,1.4,0.3c0.7,0.1,1-0.1,1.3-0.8c0.1-0.4,0.2-0.8,0.4-1.2c0.1-0.2,0.3-0.3,0.4,0c0.5,0.9,1,1.9,1.6,2.8
					c0.1,0.2,0,0.3-0.2,0.3c-1.2-0.1-2.3-0.2-3.5-0.4c-0.4-0.1-0.8-0.3-1.2-0.5c-0.6-0.3-1.2-0.5-1.9-0.5c-0.6,0-0.9,0.4-0.7,0.9
					c0.3,0.8,0.6,1.6,0.9,2.4c0.2,0.5,0.8,0.8,1.3,0.8c0.3,0,0.2-0.2,0.1-0.3l-1-2.1c-0.1-0.4,0-0.4,0.2-0.1
					c0.5,0.8,1.1,1.6,1.6,2.4c0.3,0.5-0.1,0.7-0.4,0.7c-1.2-0.1-2.3-0.5-3.5-1c-0.1-0.1-0.3-0.3-0.2-0.4c0.2-0.2,0.5,0,0.7,0
					c0.3,0.1,0.4-0.1,0.3-0.3c-0.1-0.2-0.3-0.4-0.6-0.5c-0.5-0.3-1.1-0.5-1.7-0.6c-0.3-0.1-0.6,0.1-0.5,0.4c0.1,0.4,0.3,0.8,0.5,1.2
					c0.1,0.1,0.1,0.3,0,0.4c-0.2,0-0.5,0.1-1.4-0.3c-0.9-0.4-0.9-0.6-0.9-1.7c0-0.2,0-0.7,0.1-0.9c0.1-0.3,0.1-0.4,0.4-0.3
					c0.9,0.2,1.9,0.4,2.8,0.9c0.3,0.1,0.5,0.4,0.8,0.5c0.2,0.1,0.3,0,0.3-0.2c0-0.3-0.2-0.6-0.5-0.7c-1-0.4-2-0.9-2.9-1.3
					c-0.2-0.1-0.3-0.2-0.2-0.5c0.4-0.7,0.6-1.4,0.4-2.2c0-0.1,0.1-0.1,0.1-0.2c0.2,0.1,0.4,0.3,0.4,0.5c0.1,0.7,0.5,1.2,1,1.7
					c0.9,1,0.9,1,2.2,0.7c0.2,0,0.3-0.1,0.4-0.2c-0.1-0.1-0.2-0.3-0.4-0.3c-0.2-0.1-0.5-0.2-0.8-0.3c-0.9-0.3-1.1-0.9-0.8-1.9
					c0.3-0.8,0.6-1.7,0.8-2.5c0.1-0.4,0.1-0.8,0.1-1.2c0-0.2,0.2-0.2,0.3-0.3l1.9-0.1c0.5,0,1-0.6,1.2-0.9l0.6-1
					c-0.4-0.3-0.9-0.4-1.3-0.2c0.1-0.5,0.3-0.9,0.3-1.4c0-0.3-0.1-0.6-0.2-0.9c-0.1-0.3-0.3-0.3-0.6-0.2c-0.5,0.4-0.8,0.8-1,1.5
					c-0.1,0.6-0.4,1.8-0.3,2c0.3-0.2,0.7-0.5,0.9-0.6c0.1,0,0.3,0,0.4,0.1c-0.4,0.4-0.9,0.7-1.4,1c-0.3,0.2-0.5-0.1-0.4-0.4
					c0.4-1.6,0.2-1.7,0-2.4c-0.2-1-0.6-1.9-1.2-2.7c-0.2-0.2-0.4-0.1-0.8,0.3c-0.6,0.7-0.7,1.3-1,2.5l-0.1,0.2L28,49.9l-0.2-0.2
					c0.2-0.5,0.3-0.9,0.3-1.3c0-0.5-0.2-0.9-0.6-1.2c-0.4,0.3-0.8,0.7-1,0.8c-0.3,0.4-0.3,1,0,1.4c0.5,0.8,0.4,1.6,0.2,2.6l-0.1,0
					c-0.1-0.6-0.2-1.2-0.3-1.8c-0.1-0.4-0.3-0.7-0.5-1c-0.2-0.3-0.4-1-0.2-1.2c0.2-0.4,1-0.6,1.3-1c0.3-0.5,0.2-0.7,0.5-1.1
					c0.2-0.3,0.7-0.8,1.1-0.7c1.1,0.5,2.2,0.7,3.4,0.5c0.5-0.1,0.6-0.1,0.8-0.6c0.1-0.4,0.2-0.1,0.6-0.3c0.7-0.2,1.1-0.9,1.1-1.7
					c0-0.4,0-0.9,0-1.3c0-0.4-0.2-0.8-0.3-1.1c-0.1-0.2-0.2-0.2-0.3,0c-0.3,0.4-0.8,1.2-1.1,1.6c-0.2,0.2-0.3,0.5-0.4,0.8
					c-0.1,0.2-0.2,0.2-0.3,0.1c-0.2-0.2-0.4-0.4-0.6-0.5c-0.4-0.2-0.4-1-0.3-1.6c0.2,0.1,0.3,0.3,0.4,0.5c0.1,0.3,0.2,0.7,0.5,0.8
					c0.3,0.2,0.7-0.5,0.6-1c0-0.1,0-0.2-0.1-0.4c-0.4-0.7-1.3-1.2-1.8-1.2c-0.6,0-1,0.8-0.8,1.5c0.1,0.2,0.1,0.3,0.2,0.5
					c-1.5,0.8-1.9,1.3-2.4,2c-0.1,0.1-0.1,0.3-0.1,0.4c0.3,0.5,0.2,0.7-0.4,1c-0.2,0.1-0.6,0.3-0.9,0.4c0,0-0.1,0-0.2-0.1
					c0-0.1,0-0.1,0.1-0.1c0.3-0.8,0.8-1.6,1.1-2.4c0.3-0.9-0.4-1.7-1.1-2c-0.5-0.2-0.8-0.1-1.2,0.4c-0.8,0.9-0.9,2.5,0.1,3.9
					c0.2,0.2,0.1,0.3-0.2,0.4c-0.6,0.1-1.2,0.1-1.9,0.2c-0.8,0-1.5,0.4-1.9,1c-0.1,0.2-0.3,0.3-0.5,0.1c-0.5-0.3-0.9-0.2-1.4,0.1
					c-0.8,0.4-1.8,0.8-2.4,0.8c-0.1,0-0.2-0.1-0.3-0.1c0.1-0.1,0.1-0.2,0.3-0.2c0.5-0.1,0.9-0.2,1.4-0.4c0.1-0.1,0.1-0.3,0.2-0.4
					c-0.1-0.1-0.3-0.3-0.4-0.3c-0.4-0.1-0.9-0.1-1.3,0c-1.1,0.1-2,0.6-2.7,1.3c-0.3,0.3-0.3,0.7,0,1c0.8,0.6,1.7,1.2,2.9,0.9
					c0.8-0.2,1.3-0.8,1.8-1.4c0.4-0.5,1-1,1.4-0.4c0.7,0.8,0.9,1.7,2.1,1.6c0.5-0.1,0.6-0.2,0.8-0.6l0.1-0.5c0-0.3-0.1-0.5-0.5-0.4
					c-0.2,0.1-0.4,0.2-0.6,0.2c-0.1,0-0.2,0-0.4-0.1c0-0.1,0-0.3,0.1-0.4c0.2-0.1,0.5-0.3,0.7-0.4c0.9-0.2,1.7-0.4,2.6-0.6
					c0.1,0,0.2,0,0.3,0l-0.1,0.2c-0.3,0.7-0.8,1-1.3,1.1c-0.1,0.1-0.2,0.2-0.3,0.6c-0.4,1.2-0.2,2.4,0.6,3.3c0.3,0.3,0.6,0.6,1,0.8
					c0.6,0.4,0.8,1,1,1.6c0.1,0.4,0.3,0.8,0.5,1.2c-0.5,0.4-0.9,0.8-1.2,1.3c-0.1,0.1-0.2,0.1-0.3-0.1L25,55.8
					c-0.3-0.8-0.8-1.2-1.7-1.3c-0.3,0-0.6-0.1-0.9-0.1c-0.3,0-0.6,0.1-0.7,0.5c-0.5,1.4,0,2.7,1.3,3.5c-1.1,0.3-2,0.7-2.6,1.5
					c0.1,0.2,0.4,0.5,0.8,0.7c1.1,0.4,2.2,0.4,3.2,0.1c0.6-0.2,0.6-0.1,0.7,0.4l0.3,1.3c0.1,0.3-0.1,0.5-0.4,0.4
					c-1.6-0.5-3.6-1.3-5-2.2c-0.6-0.3-1.2-0.5-1.9-0.5c-0.2,0.1-0.4,0.3-0.6,0.2c-0.6-0.2-1.2-0.4-1.8-0.6c-0.3-0.2-0.3-0.2,0.1-0.3
					c0.5,0,1.6,0.2,2.1,0.2c0.5-0.2,0.5-0.2,0.2-0.5c-1.2-1-2.6-0.7-3.9-0.5c-0.5,0.1-0.5,0.3-0.2,0.7c1.7,2,3,2,5.2,1.7
					c1.4,0.9,2.8,1.7,4.4,2.2l0,0.2c-1.2,0.1-2.2,0.3-3.3,0.5c-0.5,0.1-0.6,0.4-0.3,0.9c0.4,0.7,1.1,1,1.9,1.2
					c0.6,0.2,1.1,0.1,1.7-0.1c0.6-0.3,1.1-0.8,1.7-1.2c0.3-0.2,1,0,1.3,0.1c0.5,0.2,1.1,0.4,1.6,0.5c2.2,0.3,4.6,0.5,6.6,0.3
					c-0.2,0.5-0.4,0.9-0.6,1.4c-0.1,0.3,0,0.4,0.3,0.3c0.4,0,0.9-0.3,1-0.6c0-0.3,0-0.6,0.1-1c0-0.2,0.1-0.4,0.2-0.5
					c0.1,0,0.6,0.1,0.5,0.2c-0.2,0.5-0.3,0.9-0.5,1.4c0.2,0,0.4,0.1,0.6,0.1c0.8,0,1-0.1,0.9-1c0-0.2-0.1-0.5-0.1-0.7
					c-0.1-0.6,0-1.1,0.6-1.3c0.5-0.3,1.1-0.2,1.6-0.1c1.7,0.3,3.2,1,4.5,2.1c0.7,0.5,0.1,1.3,0.1,2.3c0,0.6-0.1,1.3-0.1,1.6
					c0,0.5,0.2,0.8,0.4,0.9c0.6,0.4,1.2,0.9,1.8,1.3c0.6,0.4,0.9,0.7,1.7,0.9c0.2,0.1,0.4,0.1,0.5,0c0-0.3,0-0.5,0-0.8
					C48,72,47.5,71.9,47,71.7c-0.1,0-0.2-0.2-0.3-0.3c0.1-0.1,0.3-0.2,0.4-0.2L48,71c0.1,0,0.2-0.1,0.2-0.2
					c-0.1-0.1-0.1-0.2-0.2-0.2c-0.4-0.1-0.9-0.2-1.2-0.3c-0.1,0-0.2-0.1-0.3-0.2c0.1-0.1,0.3-0.2,0.5-0.2l1-0.1
					c0.1,0,0.2-0.1,0.2-0.2c0-0.1-0.1-0.2-0.2-0.2c-0.2-0.1-1.2-0.5-1.3-0.6c-0.1-0.1-0.1-0.2-0.1-0.4c0.1-0.1,0.3-0.1,0.5-0.1
					l0.8,0c0.1,0,0.2-0.1,0.3-0.2c-0.1-0.1-0.1-0.2-0.2-0.2c-0.4-0.2-0.5-0.4-1-0.6c-0.2-0.1-0.3-0.2-0.3-0.5c0.1,0,0.3-0.1,0.5,0
					c0.3,0.1,0.4,0.2,0.8,0.2c0.1,0,0.2,0,0.3,0c0-0.1,0-0.2-0.1-0.2c-0.1-0.1-0.3-0.2-0.4-0.3c-0.2-0.1-0.6-0.5-0.8-0.7
					c-0.1-0.1,0-0.2-0.1-0.3l0.2,0c0.3,0.1,0.7,0.2,1,0.2c0.4,0.1,0.4,0,0.2-0.3c-0.3-0.2-0.5-0.4-0.8-0.7c-0.1-0.1-0.1-0.2,0-0.4
					c0.4,0,0.8,0.2,1.2,0.2c0-0.1,0.1-0.1,0.1-0.2c-0.1-0.2-0.2-0.5-0.3-0.7c-0.1-0.3,0-0.4,0.2-0.3c0.3,0.1,0.7,0.4,1,0.4
					c0.1,0,0.3,0,0.4-0.1c-0.1-0.3-0.3-0.5-0.5-0.8c0-0.1,0-0.2,0.1-0.3c0.5,0.1,1,0.5,1.4,0.6c0.2,0.1,0.3,0,0.4-0.1
					c0-0.1-0.3-0.5-0.3-0.6c0-0.1,0-0.1,0.1-0.2l0.8,0.3c0.6,0.2,1,0.2,1,0.1c0.1,0,0-0.3-0.2-0.7c0.5,0,0.5,0.2,1.4,0.4
					c0.3,0.1,4.8-0.5,6.6-1.1c0.7-0.2,1.6-0.6,2.2-0.9l0.2,0.1c0.5,1.3,1.6,1.7,2.7,1.9c0.3,0,0.7,0.1,1,0.1c0.3,0,0.4-0.1,0.3-0.4
					c-0.3-1.1-0.8-2.1-1.7-2.8l-0.7-0.4c-0.3-0.3-0.3-0.7,0.1-1c0.6-0.4,1.3-0.8,1.9-1.1c0.8-0.5,1.1-1.4,1.1-2.3
					c0-0.2-0.1-0.5-0.3-0.6c-0.2,0.1-0.3,0.2-0.4,0.3c-0.2,0.5-0.5,0.9-0.7,1.3c-0.2,0.1-0.3,0.1-0.5,0.2c0-0.1-0.1-0.3-0.1-0.4
					c0.2-0.7,0.9-1.3,1.3-1.8c0.2-0.3-0.1-0.4-0.2-0.4c-0.5,0.1-1,0.3-1.4,0.7c-0.9,1.1-1.6,2.5-1.9,3.9c-0.1,0.4-0.2,0.5-0.3,0.8
					c-0.2,0.5-0.1,0.7,0.3,1c0.7,0.4,1.5,0.8,2.1,1.3c0.2,0.3,0.1,0.4-0.1,0.4c-0.7,0-1.3-0.3-1.8-0.8c-0.2-0.3-0.4-0.4-0.7-0.5
					c-0.6,0.2-1.5,0.4-2.2,0.5c-0.4,0.1-0.7,0.2-0.9,0.6c-0.1,0.3-0.4,0.4-0.7,0.2c-0.5-0.1-1-0.3-1.4-0.4c-0.8-0.1-1.6-0.1-2.4,0.2
					c-0.3,0.1-0.4,0-0.3-0.3c0.1-0.4,0.2-0.8,0.3-1.2c0-0.2,0-0.4-0.1-0.5c-0.2,0.1-0.4,0.1-0.5,0.2c-0.2,0.4-0.4,0.8-0.7,1.2
					c-0.2,0.3-0.2,0.3-0.5,0.2c-0.5-0.2-0.9-0.5-1.3-0.8c-0.3-0.5-0.7-1-0.8-1.4c-0.1-0.1,0.1-0.2,0.3-0.2c0.3,0.3,0.8,0.7,1.1,1
					c0.2,0.2,0.3,0.5,0.4,0.8c0,0.1,0.4,0.1,0.4-0.1c0.1-0.1,0.1-0.3,0.2-0.5c0.1-0.5,0-1.1-0.4-1.6c-0.5-0.5-0.9-0.7-1.6-1.2
					c-0.9-0.6-1-0.6-1.4,0c-0.3,0.5-0.4,1.1-0.4,1.7c0.2,1.5,0.6,2.1,2.4,3c0,0.1-0.1,0.2-0.1,0.2c-0.1,0.1-0.2,0.2-0.4,0.2
					c-0.6,0-1.5,0-2.2-0.1c-0.2,0-0.3-0.1-0.3-0.2c-0.6-2.2-0.3-4.5,0.8-6.5c0.1-0.2,0.2-0.4,0.4-0.5c0.4-0.2,1-0.4,1.3-0.6
					c0.2-0.1,0.3,0,0.4,0.2c0.2,0.6,0.2,1,0.3,1.5c0,0.3,0,0.6,0.2,0.7c0.3,0.1,0.5-0.1,0.7-0.4c0.5-0.9,0.7-1.9,0.3-2.9
					c0-0.1,0.1-0.3,0.2-0.4c1.2-0.5,2.4-1,3.6-1.5c0.7,0,1.6,0,2.8,0.2c0.2,0,0.6,0.4,1.1,0.6c-0.6,0.3-1.4,0.9-2,1.4
					c-0.2,0.2-0.3,0.4-0.2,0.8c0.5,0,0.7-0.2,1.1-0.3c0.5-0.2,0.9-0.2,1.3-0.2c0.1,0,0.2,0,0.3,0.1c0,0.1-0.1,0.3-0.2,0.4
					c-0.2,0.1-0.4,0.1-0.6,0.2c-0.2,0.1-0.3,0.3-0.2,0.5c0.1,0.1,0.3,0.3,0.5,0.3c0.6,0,1.1-0.1,1.7-0.3c0.3-0.2,1.3-1.5,0.7-1.7
					c-0.3-0.1-1-0.1-1.3-0.3c0.1-0.2,0.2-0.3,0.3-0.4c0.3,0.1,0.7,0.1,1.2,0.2c0.8,0.1,1.6,0.1,2.4-0.1c0.3-0.1,0.4-0.2,0.3-0.4
					c-0.4-0.9-1.2-1.6-2.2-1.9c-0.4-0.1-1,0-1.4,0l-3.8,0c-0.1,0-0.2-0.1-0.3-0.1c0.1-0.1,0.1-0.1,0.2-0.2c0.3-0.2,0.8-0.4,1.1-0.7
					c0.5-0.4,0.9-0.9,1-1.6c0-0.1,0-0.2,0-0.4c-0.3-1.3-1.1-2.3-2.6-2.4l-0.7-0.1c-0.3,0-0.4,0.1-0.4,0.4c0,0.5,0,0.7,0,1.2
					c0,0.2,0.1,0.3,0.4,0.4c0.7,0.1,1.4,0.3,2,0.6c0.4,0.2,0.5,0.4,0,0.8l-1.1,0.8c-0.2,0.1-0.3,0-0.3-0.2c0-0.3,0-0.6-0.1-0.9
					c0-0.1-0.1-0.2-0.2-0.3c-0.3,0.1-0.5,0.2-0.6,0.5c-0.1,0.4-0.2,0.7-0.3,1.1c-0.1,0.5-0.4,0.8-0.8,1c-0.2,0.1-0.4,0-0.4-0.2
					c0-0.2,0.1-0.5,0.2-0.7c0.3-0.8,0.5-1.6,0.5-2.4c-0.1-0.5-0.1-1.1-0.1-1.7c0-0.2,0.1-0.5,0.3-0.5c0.6-0.2,1.3-0.5,1.9-0.7
					c0.2-0.1,0.4,0,0.6,0.2l1.4,1.6c0.3,0.4,0.5,0.4,0.8-0.1c0.3-0.4,0.6-0.8,1-1c0.2-0.1,0.2-0.4,0-0.5c-0.5-0.2-1-0.3-1.6-0.5
					c-0.1,0-0.2,0-0.4-0.1c-0.1,0-0.2-0.1-0.2-0.2s0.1-0.2,0.2-0.2c1-0.4,1.8-0.7,2.7-1c0.2-0.1,0.3-0.3,0.3-0.5
					c0-0.3-0.1-0.6-0.2-0.9c-0.1-0.3-0.2-0.5-0.5-0.5c-1.2-0.1-1.9,0.2-2.7,1.1c-0.2,0.2-0.2,0.4-0.2,0.7c0.1,0,0.3,0,0.4,0
					c0.6-0.2,1-0.3,1.3-0.5c0.2-0.2,0.4-0.5,0.5-0.5c0.1,0,0.2,0.3,0.2,0.4c-0.1,0.1-0.2,0.3-1.2,0.7c-1.7,0.8-3.4,1.4-5.2,1.8
					c-0.2,0-0.2-0.1-0.2-0.2c0.3-0.6,0.7-1.2,1.1-1.8c0.3-0.2,0.5-0.1,0.3,0.2c-0.1,0.2-0.2,0.5-0.4,0.7c0,0.2,0.1,0.3,0.2,0.3
					c0.8-0.2,1.4-0.9,1.5-1.8c0-0.3-0.1-0.4-0.5-0.4c-0.5,0-1,0.1-1.4,0.2c-0.8,0.2-1.3,0.8-1.6,1.6c-0.1,0.4-0.2,0.7-0.3,1.1
					c-0.1,0.4-0.4,0.5-0.8,0.7c-0.6,0.4-0.9,0.3-1.4,0.4c-0.4,0.1-0.8,0.2-1.3,0.3c0-0.1,0-0.3,0-0.4c0.3-0.5,0.5-0.9,0.8-1.3
					c0.4-0.6,0.3-1-0.3-1.2c-1.1-0.4-2.3,0.1-2.9,1c-0.3,0.6-0.6,1.3-0.9,1.9c-0.2,0.4,0,0.6,0.4,0.7c0.6,0.1,1.3-0.1,1.9-0.3
					c0,0.2-0.1,0.9-0.1,1l-0.3,0.8c-0.2,0.4-0.5,0.5-0.9,0.3c-0.6-0.3-1.3-0.7-1.9-1c-0.7-0.4-1.4-0.7-2.2-0.7c-0.1,0-0.2,0-0.2,0
					c-0.3-0.1-0.3-0.1-0.1-0.3c0.2-0.2,0.2-0.4,0.1-0.7l-0.8-1.5c-0.2-0.3-0.3-0.6-0.4-0.9c0.2,0,1,0.2,1,0.4c0.1,0.8,0.3,1.4,0.8,2
					c0.3,0.3,0.6,0.1,0.7-0.2c0.1-0.4-0.5-1.2,0.2-2.8c0.3-0.7,1.4-2,2-2c0.3,0,0.7,0.2,0.9,0.7c0.1,0.2,0.2,0.8,0.3,1.1
					c0.1,0.2,0.2,0.4,0.5,0.3c0.6-0.1,1.5-0.5,2.3-0.6c0.5-0.1,0.8,1.1,1,1.5c0.3,0.6,0.5,1.2,0.9,0.5c0.7-1,1-2,1.7-2.4
					c0.9-0.5,2-0.7,3-0.5c0.3,0,0.4,0.2,0.3,0.5c-0.1,0.2-0.1,0.4-0.1,0.6c-0.1,0.2,0.1,0.3,0.4,0.1c0.3-0.2,0.6-0.5,0.8-0.8
					c0.6-0.7,1.2-1,2.5-1c0.6,0,1,0.1,1.5,0.3c0.4,0.1,0.5,0.2,0.3,0.6l-0.3,1.2c-0.1,0.5,0,0.6,0.4,0.9c0.4,0.2,0.7,0.4,1,0.7
					c0.2,0,0.4-0.1,0.5-0.2c0.5-1,1.3-1.9,2.2-2.5c0.4-0.2,0.5-0.2,0.6,0.2c0.3,0.8,0.5,1.5,0.6,2.3c0.4-0.5,0.9-1,1.3-1.4
					c1.3-1.2,2.6-1.2,4.3-0.8c0.4,0.1,0.1,0.5-0.2,0.9l-0.3,0.5c-0.1,0.2-0.2,0.2-0.3,0c-0.2-0.2-0.4-0.7-0.6-0.9
					c-0.4-0.4-1.1-0.2-1.6,0.1c-1,0.6-1.8,1.4-2.3,2.4c-0.6,0.9-1.3,1.7-2,2.4c-0.3,0.1-0.3,0.1-0.2-0.2c0.9-1.3,1.4-2.9,1.4-4.5
					c-0.3-0.1-0.6,0-0.8,0.2c-1.2,0.7-1.8,3.1-2,4.7c0,0.3,0,0.6-0.3,0.8c-0.5,0.3-0.7,0.4-1.2,0.6c-0.1,0-0.2,0-0.3,0
					c0.2-1.1,0.1-1.8-0.5-2.8c-0.1-0.2-0.2-0.3-0.5-0.2c-0.1,0.1-0.2,0.2-0.5,0.4c-0.9,0.9-1.5,2.2-1.4,3.5c0,0.2,0.2,0.2,0.4,0.1
					c0.2-0.2,0.3-0.3,0.5-0.5c0.3-0.5,0.5-1,0.8-1.5c0.1-0.1,0.2-0.2,0.3-0.2c0.1,0.1,0.1,0.2,0,0.4l-0.2,1c-0.2,0.5-0.5,1-1,1.3
					C63,48.8,63,49,63.2,49.1c1,0.1,1.6-0.1,2.5-0.5c0.9-0.5,1.6-0.9,2-0.8c0.3,0,1.7,0.4,1.8,0.5c-0.1,0.1-0.2,0.2-0.3,0.3
					C69,48.6,68.3,49,68,49.3c-0.5,0.4-0.6,0.6-0.5,1.4c0.1,0.4,0.1,0.7,0.2,1c0,0.1,0.1,0.3,0.2,0.3c0.1,0,0.2-0.1,0.3-0.2
					c0.4-0.5,0.8-1,1.2-1.5c0.1-0.1,0.2-0.1,0.2-0.1c0,0.1,0,0.2,0,0.2c-0.1,0.6-0.4,1-0.7,1.5l-0.2,0.3c-0.3,0.4-0.3,0.5,0,1
					c0.3,0.5,0.4,1.1,0.3,1.7c-0.1,0.4-0.2,1-0.3,1.7c-0.8,0.4-1.5,0.8-2.1,1.3c-0.4,0.4-0.5,0.7-0.5,0.7c0.2,0.2,0.4,0.3,0.7,0.4
					c0.5,0.2,1.5,0,1.7-0.6c0.1-0.1,0.1-0.4,0.1-0.6c0.2,0,0.3,0,0.4,0.2c0.2,0.6,0.3,1,0.7,1.4c-0.1,0.2-0.1,0.3-0.3,0.5
					c-0.2,0.4-0.4,0.7-0.7,0.6c-0.1,0-0.2-0.1-0.4-0.1c-0.2,0-0.5,0-0.4,0.4c0.1,0.5,0.1,0.8,0,1.4c-0.1,0.3-0.2,0.7-0.5,0.6
					c-0.8-0.1-1.2-0.6-2-0.6c-0.6,0-1-0.1-1.4-0.2c-0.4-0.2-0.7-0.4-0.8-0.5c-3,0.5-6.3,1.1-8.9,1.7c-0.3,0.1-0.3,0.2-0.3,0.5
					c-0.1,0.7-0.4,1.3-0.5,2c0,0.1,0.1,0.2,0.2,0.3c0.1-0.1,0.2-0.1,0.2-0.2c0.2-0.2,0.3-0.5,0.4-0.7c0.3-0.3,1.1,0,1.3,0.5
					c0.1,0.3-0.3,0.4-0.2,0.7c0,0.3,0.4,0.5,0.4,0.8c0,0.3-0.1,0.5-0.2,0.7c1.1,0.7,1.4,1.3,1.4,2.3c0,0.3,0,0.4,0.2,0.6
					c0.2,0.2,0.4,0.4,0.5,0.5c0.5,0.6,1,1.6,1.4,1.7c0.2,0.1,0.6,0.1,1,0.1l0.1,0.2c-0.1,0.3-0.4,0.6-0.7,0.7
					c-0.8,0.3-1.2-1-1.7-1.7c-0.2-0.3-0.4-0.6-0.7-0.9c-0.3,0.4-1,2-0.9,2.7c0.2,1,0.8,2,1.2,2.8c0.3,0.5,0.8,0.6,1.3,0.8
					c0.4,0.2,0.8,0.2,1.2,0.1c0.2-0.1,0.3-0.1,0.4-0.2l0-1.1c0.1-1.7,0.4-3.4,0.5-4.8c0-0.4,0.3-1,0.8-1.4c0.5-0.4,0.7-0.8,0.7-1.5
					c0-0.2,0-0.4,0.1-0.6c0.2-0.3-0.2-0.3-0.5-0.4c-0.3-0.1-0.4-0.2-0.3-0.5c0.3-0.6,0.8-1,1.2-1.6c0.2-0.4,0.3-0.7,0.4-0.9
					c-0.1-0.5-0.1-1.2,0.4-1.2c1.5-0.2,2.1-0.1,3.1,0.7c0.1,0.1,0.1,0.2,0.1,0.4c0,0.1,0.3,0.2,0.8,0.7c0.4,0.4,0.8,1.4,0.1,3
					c0.3,0.2,0.3,0.5,0.3,0.9c0,0.3,0.1,0.4,0.3,0.5c0.3,0.1,0.5,0.3,0.8,1.1c0.3,0.7,1,2.6,1.5,7.2c-0.1,1.5-0.3,2.5-0.6,3.7
					c0.3,2.2,0.7,5,0.9,8.7c0.2,3.5,0.3,5.4,0.3,6.8c0.6,0.1,0.8,0.2,0.9-0.4l0.1-0.5c0.1-0.4,0.5-0.2,0.5,0l0.4,1.1
					c0.1,0.3,0.2,0.5,0.3,0.8c0.4,0.6,0.6,0.1,0.6-0.4c0.1-0.4,0.1-0.7,0.1-1c0.1-0.4,0.3-0.4,0.4-0.2l0.5,1.3
					c0.2,0.5,0.4,0.6,0.5,0.3c0.1-0.4,0.1-1,0.1-1.6c-0.1-0.3-0.2-0.6-0.3-0.9c0-0.4,0.3-0.3,0.3-0.2c0.7,0.8,1.3,1.7,1.9,2.6
					c0.3,0.2,0.6-0.2,0.5-0.3c0-0.1-0.2-0.3-0.2-0.6c0.1-0.5,0.5-0.2,0.6-0.1c0.4,0.4,0.7,0.9,0.9,1.3c0.1,0.1,0.2,0.2,0.3,0.2
					c0.1-0.1,0.1-0.3,0.1-0.4c0-0.1-0.2-0.5-0.2-0.6c0.2-0.3,0.5,0.1,0.6,0.2c0.1,0.1,0.2,0.3,0.4,0.6c0.2,0.3,0.6,0.6,1.4,0.7
					c0,0.1,0.1,0.2,0.1,0.2c-0.1,0.1-0.3,0.2-0.8,0.2c-0.8,0.2-1.9,0.2-3,0.1c-0.8-0.1-1.5,0.1-2.2,0.5c-0.5,0.3-1,0.2-1.5,0.2
					c-1.1-0.1-2.1-0.1-3.2-0.1c-2.3-0.1-3.4,0.4-6,0.5c-0.8,0-2.6-0.4-2.6-1c0-0.4,0.2-0.7,0.2-0.9c0-0.2-0.1-0.3-0.3-0.4
					c-1.8-0.3-3.6,0.1-5.3,0.4c-1.4,0.2-2.1,0-2.9-0.6c-0.4-0.3-0.8-0.7-1-1.1c-0.8-1-1.8-2-2.8-2.7c-1.2-1-2.7-2.7-3.7-3.9
					c-0.2-0.2-0.6-1.5-0.7-1.8c-0.2-0.5-0.2-1.1-0.2-1.6c0.1-0.1,0.3-0.3,0.5-0.3c0.8,0,1.8-0.4,1.8-0.7c0.1-0.2-0.1-0.3-0.2-0.3
					c-0.4,0.1-1,0.1-1.4,0c-0.2,0-0.5-0.1-0.6-0.3c0.1-0.2,0.2-0.3,0.4-0.4c0.7-0.1,1.3-0.3,1.9-0.7c0-0.1,0-0.2-0.1-0.2
					c-0.5,0-0.9,0-1.5-0.2c-0.2-0.1-0.4-0.2-0.6-0.3c0.2-0.2,0.2-0.3,0.4-0.4c0.7-0.2,1.2-0.5,1.6-1l0-0.3c-0.5,0-1.2-0.1-1.8-0.2
					c-0.3-0.1-0.3-0.2,0-0.5c0.4-0.1,1.2-0.2,1.6-0.3c0.3-0.2,0.3-0.4-0.1-0.5c-0.5,0-1-0.1-1.6-0.2c-0.3-0.3-0.3-0.3,0.1-0.5L48,80
					c0.5-0.2,0.4-0.5,0-0.7c-0.4-0.1-0.7-0.1-1.1-0.2c-0.5-0.3-0.5-0.3-0.1-0.5l0.9-0.2c0.2-0.1,0.5-0.2,0.5-0.3c0-0.1,0-0.1,0-0.2
					c-0.4-0.1-1.1,0-1.4-0.1c-0.1,0-0.2-0.2-0.3-0.3l0.3-0.2c0.4-0.1,0.9-0.3,1.2-0.5c0.1-0.1,0.1-0.2,0.1-0.3
					c-0.1-0.1-0.2-0.1-0.2-0.1c-0.4-0.1-0.7-0.2-1.1-0.4c-0.2-0.3-0.2-0.4,0.1-0.5l0.6-0.2c-0.1-0.2-0.2-0.4-0.3-0.6
					c-0.1-0.1-0.1-0.2-0.2-0.2c-0.3-0.2-0.9-0.4-1.3-0.7c-0.7-0.4-1.5-0.9-2-1.4c-0.8-0.7-1.3-1.5-1.5-2.5c-0.1-0.6-0.1-1.2,0-1.8
					c0.1-0.5,0.3-0.9,0.6-1.4c0.1-0.2,0.2-0.3,0.1-0.4c-0.3-0.5-0.7-0.8-1.1-1.2c-0.2-0.2-0.5-0.3-0.7-0.4c-1.4-0.2-2.3-0.5-2.9-0.5
					c-0.2,0.2-0.4,0.5-0.5,0.8c0.1,0.5,0.3,1.2,0.4,1.8c0.5,0.1,1.2,0.2,1.8,0.6c0.5,0.3,0.6,0.5,0.8,1.2c0.4,1.4,0.6,3.3,0.9,5.3
					c0.3,1.9-0.7,3.4-2.6,3.5c-1,0.1-1.9-0.2-2.1-0.8c-0.3-1-0.6-1.8-0.9-2.8c-1.3,0.3-2.7,0.8-4.2,1.5c-1.3,0.6-2.3,1.2-3.6,1.7
					c-2.5,1-5.3,1.7-7.8,1.7c-1.3,0-2.8-0.3-3.8-0.7c-0.9-0.4-1.2-0.7-1.4-1.9c-0.2-1-0.2-2-0.1-3c0.1-1,0.3-1.6,0.9-3.4
					c0.3-0.8,0.7-1.2,1.3-1.5c1-0.5,2.1-0.7,3.3-0.7c0.4,0,0.9,0.1,1.3,0.2c0.7,0.3,0.8,0.8,0.8,1.6c0,0.4,0,0.8,0,1.3
					c0,0.3,0,0.5,0,0.6c0.9,0.1,2.8,0.1,3.7-0.1c0.7-0.2,1-0.3,2.4-0.9C29.6,69.8,30.8,68.9,32.3,68.1L32.3,68.1z M60.8,84.2
					c0.1,0.2,0.3,1.1,0.3,1.4c0,0.7-0.1,1.4-0.1,2.6c-0.1,1.5,0,3-0.2,4.5c-0.1,0.7-0.3,1.8-0.2,2.8c0,0.4,0.1,0.5,0.3,0.5
					c0.7,0.2,1.2,0.2,1.6,0.2c1.1,0,1.8-0.5,1.7-1.1c-0.4-1.4-0.5-2.7-0.5-4.1l0.3,0c0.4,1.7,0.8,2.5,0.9,3.4c0.1,0.8,0,2.1,0.2,2.9
					c1.8,0.2,4,0,4.7-0.1c0.2-1.5,0.1-3.1-0.5-3.6c-0.3-0.2-1.1-0.9-1.4-1.1c-0.8-0.6-1.4-1.4-2-2.2c-0.8-1.3-1-1.7-1.7-2.9
					c-0.6-1.1-1.1-2.1-1.5-2.8c-0.3-0.4-0.5-0.7-0.6-0.8c-0.6-0.2-1-0.2-1.7-0.3c-0.8-0.1-1.3-0.2-1.7-0.7c-0.4-0.4-0.5-0.7-0.3-1.2
					c0.1-0.3,0-0.5-0.2-0.7c-0.2-0.3-0.2-0.6,0.1-0.8c0.7-0.7,1.3-1,2.2-1.3L60.1,78c-0.3,0.1-0.8,0.2-1.5,0.2c-1,0-1.9-0.4-2.2-1.7
					c-0.1-0.5-0.7-1.8-0.9-2.4c-0.1-0.4,0-0.8,0.2-1.3c-0.3-0.4-0.6-0.8-0.8-1.2c-0.5-0.2-1.2-0.5-1.6-1c-0.2-0.2-0.3-0.2-0.4-0.1
					c-0.1,0.1-0.2,0.3-0.4,0.4c-0.2,0.2-0.6,0.2-1,0c-0.3-0.1-0.5-0.5-0.5-0.9c0-0.5,0.3-0.9,0.1-1.1c-0.4-0.4-0.7-0.8-0.3-1.2
					c0.1-0.1,0.4-0.1,0.6-0.2c0.5-0.3,0.7-0.8,0.6-1.3c-0.1-0.4-0.3-0.6-0.7-0.6c-0.6,0-0.8-0.3-0.8-0.7c0-0.5,0.4-0.7,0.8-0.6
					c0.2,0,0.4,0.1,0.5,0.2c0,0.2,0.1,0.4,0.3,0.4c0.6-0.1,1.2-0.7,1.2-1.4c0-0.2-0.1-0.3-0.6-0.2c-0.8,0.1-1.7,0.4-2.7,0.7
					c-0.5,0.2-0.6,0.6-0.3,1.1c0.1,0.1,0.2,0.2,0.2,0.4c0.1,0.2,0.1,0.3-0.1,0.4l-0.2,0.2c-0.3,0.2-0.3,0.5-0.1,0.8
					c0.1,0.1,0.1,0.2,0.2,0.3c0.2,0.2,0.2,0.4,0,0.6c-0.2,0.3-0.3,0.6-0.2,1c0.1,0.3,0.3,1.8,0.3,2.1c0,0.8,0.1,1.6,0.1,2.4
					c0,0.5,0.2,1,0.8,1.6c0.6,0.6,1,1.2,1.8,2c0.9,0.9,1.4,1.9,1.5,3.2c0,0.6,0.3,0.8,0.9,1.1c1.2,0.3,1.6,1,1.8,2
					c0.2,1.7-0.6,3.2-2,3.1c-0.8-0.1-1.1-0.5-1.1-0.9c0-0.4,0.2-0.8,0.6-1c0.1,0,0.3,0,0.3,0c0,0.1,0,0.2,0,0.3
					c0,0.1-0.1,0.2-0.2,0.4c0,0.1,0,0.4,0.1,0.6c0.2,0.2,0.4,0.3,0.7,0.2c0.3-0.1,0.6-0.4,0.7-0.7c0.7-1.2,0.3-2.7-1-3
					c-0.4-0.1-1-0.2-1.4,0.1c-0.8,0.5-1.5,0.8-2.2,1.4c-0.1,0.1-0.2,0.2-0.2,0.4c0,2.7,0.2,5.5,0.6,8.2c0,0.6,0.4,1.3,0.6,1.4
					c0.5-0.4,0.6-0.7,1-1.4c0.2-0.1,0.3-0.1,0.3,0.1c0,0.6-0.1,1.2-0.1,1.7c0,0.2,0.2,0.3,0.3,0.4c0.3-0.3,0.3-0.7,0.4-1
					c0.3-0.3,0.4,0,0.4,0.1c0,0.4,0,0.8,0,1c0,0.2,0.2,0.2,0.3,0.2c0.3-0.7,0.8-1.3,1.3-1.7c0.3-0.2,0.5,0,0.3,0.3
					c-0.3,0.6-0.6,1.3-0.8,2c0.1,0,0.2,0,0.3,0c0.1,0,0.2-0.1,0.2-0.2c0.2-0.6,0.4-0.7,0.6-0.2c0.1,0.4,0.3,0.7,0.5,0.8
					c0.3-0.1,0.4-0.5,0.5-0.8c0.4,0,0.4,0.4,0.6,0.7c0.1,0.1,1.2,0.1,1.4,0.1l0-0.6c0-1.3,0-2.3,0.1-3.6c0.1-1.3,0.2-2.7,0.3-3.9
					c0.1-1,0.2-2.4,0.2-3.6L60.8,84.2z M78.7,59.6c-0.3-0.1-1.5-0.1-1.8-0.1c-0.3,0-1,0-1,0.4c0,0.1,0.1,0.3,0.3,0.4
					c0.9,0.6,3.3,0.7,4.3,0.5c0-0.2,0-0.5-0.1-0.7c-0.2-0.7-1.1-1.4-2-1.7c-0.9-0.2-1.8-0.2-2.7-0.1l-0.2-0.4
					c0.3-1.3,0.2-2.5,0.1-3.5c-0.1-0.5-0.2-0.8-0.5-1.2C75,53,74.9,53,74.6,53.1c-0.1,0.1-0.3,0.3-0.5,0.6c-0.8,1-0.8,1.7-0.6,3.2
					c0.1,0.1,0.2,0.1,0.5,0.1c0.3,0,0.4-0.1,0.4-0.5c0-0.5,0.1-1,0.2-1.5c0.1,0,0.3,0.2,0.3,0.3c0.1,0.8-0.2,1.6-0.4,2.3
					c0.1,0.1,0.6,0.3,0.5,0.6c-0.1,0.2-1,0.4-1.6,0.5c-0.3-0.5-0.9-1-1.5-1.2c-0.3-0.1-0.8-0.3-0.5-0.5l0.5-0.2
					c0.8-0.4,0.6-0.8,0.5-1.7c0-0.3-0.2-0.4-0.4-0.4c-0.4,0-0.7,0.1-1,0.2c-0.6,0.4-1.1,1-1.6,1.5c-0.1,0.1-0.3,0.1-0.4,0.1
					c0.2-0.8,0.5-1.6,0.8-2.3c0.1-0.2,0.2-0.5,0.5-0.4c1.3,0.3,2.6,0.1,3.5-0.9c0.4-0.4,0.4-0.6-0.1-1C73,51.5,72,51.3,71,51.5
					c-0.4,0.2-0.7,0.4-0.7,0.8c0,0.2,1.2-0.1,1.6-0.1c0.1,0,0.2,0.1,0.3,0.2c-0.8,0.3-1.6,0.5-2.4,0.7c-0.2,0.1-0.3,0-0.4-0.2
					c-0.1-0.4,0.1-0.8,0.4-1.1c0.6-0.5,1-1,1.1-1.8c0.1-0.4-0.3-1-0.4-1.4c0-0.1,0-0.2,0-0.2c0.5,0.1,1.1,0.4,1.5,0.7
					c0.2,1.3,1.1,2.3,2.4,2.6c0.4,0.1,0.8,0.3,1.3,0.4c0.4,0.1,0.7,0,0.7-0.4l0-0.6c0.3-0.2,0.8-0.3,0.9-0.3
					c0.7,0.1,1.4,0.4,2.1,0.7c0.5,0.2,0.2,0.4-0.1,0.4c-0.5-0.1-1-0.2-1.5-0.4c-0.3-0.1-0.6,0.1-0.6,0.4c0.2,0.4,1.2,0.8,1.6,1
					c0.5,0.2,2.5,0.4,2.5-0.1c0-0.5-0.1-1.1-0.2-1.6c-0.1-0.4-0.5-0.7-0.9-0.8c-0.9-0.2-1.8-0.3-2.7-0.3c-0.2,0-0.6,0.1-1,0.3
					l-0.1-0.6c-0.2-0.8-0.6-1-1.2-1.2c0-0.2,0-0.4,0-0.7c0.5-0.3,1.2-0.8,1.4-1.2c-0.2-0.2-0.6-0.3-0.8-0.4
					c-0.8-0.3-0.9-0.6-1.4-0.8c-0.4-0.2-0.8-0.3-1.3-0.3c-0.4,0-1,0.1-1.1,0.2c-0.1,0.1,0,0.3,0.2,0.4c0.3,0.3,1.1,0.5,1.5,0.7
					c0.2,0.1,0.1,0.2,0,0.2c-0.5,0-1-0.2-1.4-0.4c-0.3-0.1-0.3-0.3-0.6-0.3c-0.3-0.1-0.4,0-0.7,0.4c-0.2,0.3,0,0.5,0.3,0.6
					c0.9,0.5,1.5,0.8,2.6,0.9c0.1,0.1,0.1,0.3,0.2,0.6c-1.1-0.1-1.4-0.2-2.1-0.4c-1.1-0.6-1.9-1-2.9-1.4c-0.2-0.1-0.3-0.2-0.1-0.3
					c1.1-0.7,2.1-1.4,3.2-2c0.2-0.1,0.4-0.1,0.6,0c0.5,0.1,0.7,0.3,1.2,0.4c0.3,0.1,0.6,0.2,0.7-0.1c0.2-0.8,0.4-1.4,0.6-1.7
					c0.5-0.7,1.2-1.1,2-1.7c0.3-1.1,1.4-2.3,1.8-2.3c1.1,0,2.1,2,2.4,2.7c0.1,0.5-0.7,1-0.1,1c0.5,0,1,0.1,1,0.5
					c0,0.8-0.2,1.5-0.6,2.1c-0.4,0.5-0.8,1.2-1.4,1.5l0,0.2c0.9,0.7,1.9,1.2,1.9,2.3c0,0.6-0.2,1-0.5,1.2c-0.2,0.2-0.5,0.4-0.4,0.8
					c0,0.7,0.1,1.1,0,1.9c0,0.5-1.5,0.6-1.7,0.8c0.2,1.2,0.1,2.5-0.4,3.7l0.3,0.5c1.5,1,1.7,2,1.9,2.8c-0.4,0.4-1.1,0.7-1.3,0.7
					c-1,0-3.1-0.7-3.5-0.8c-0.2,0.3-0.1,0.6,0.1,1.2c0.2,0.5,0.5,0.9,0.5,1.4c0,0.2,0,0.6-0.7,0.7c-1.1,0.1-2.3-0.2-3.2-0.9
					c-0.2-0.1-0.3-0.2-0.5-0.3c-0.3-0.2-0.7-0.1-0.8,0.3l-0.2,0.7c-0.1,0.4-0.3,0.4-0.9,0.3c-1.5-0.3-2.2-2-2.2-3.4
					c0.1-0.3,0.3-0.2,0.3,0c0.1,0.7,0.4,1.4,0.6,2c0.3,0.5,0.6,0.8,1.2,0.9c0.1,0,0.3-0.2,0.4-0.5c0.3-0.7,0.6-1.1,0.5-2
					c0-0.3-0.1-0.7-0.3-0.9c-0.1-0.1-0.2-0.2-0.4-0.4c0.1-0.1,0.2-0.3,0.3-0.2c0.7,0.2,1.2,0.2,1.6,0c0.3-0.1,0.4-0.3,0.6-0.5
					c0.6-0.1,1.5-0.4,2.3-0.5c1.1,0,2,0.1,2.8,0.5L78.7,59.6z M37.9,86c0.6,0,1.3,0.3,1.3,0.9L39,87.2c-0.1,0-0.1,0-0.1,0
					c-0.2-0.5-0.6-0.7-1.1-0.6c-0.5,0.1-1,0.4-1.3,0.7c-0.2,0.2,0.2,0.4,0.5,0.5l0.6,0.4c0,0.3-0.8,2.6-0.4,2.7
					c1,0.2,2.4-1.2,2.5-3.2c0-0.7,0.4-1.1,1.2-1.3c0.9-0.4,1.4-0.8,1.2-1.8c-0.1-0.5,0.2-0.4,0.5-0.8l0.3-0.3
					c0.1,0.1,0.2,0.5,0.1,0.6c-0.2,0.8-0.1,1.5,0.3,2.2l0.8,2c0.2,0.2,0.3,0,0.5,0.2c0.7,1.3,1.4,3.3,2.4,4.2
					c0.8,0.7,1.7,1.9,2.5,2.6c0.5,0.4,0.8,1.4,1.3,1.6c0.4,0.1,0.4,0.4,0.3,0.7c-0.1,0.5,0.1,0.5,0.3,0.5c0.3,0,0.5-0.1,0.8-0.1
					c0.6,0.1,0.5,0.5,0,0.6c-0.3,0-0.6,0-0.9,0c-0.1,0-0.2,0.1-0.3,0.1c0,0.1,0.1,0.2,0.2,0.3c0.5,0.3,0.9,0.3,1.3,0.4
					c0.1,0,0.2,0.1,0.3,0.1c0,0.1-0.1,0.3-0.2,0.3c-0.2,0-0.3,0-0.5,0c-0.4-0.1-0.8-0.3-1.3-0.5c-0.1-0.1-0.2-0.2-0.4-0.3
					c-0.1-0.1-0.2-0.1-0.3-0.1c0,0.1-0.1,0.3,0,0.4c0.1,0.2,0.3,0.5,0.2,0.6c0,0.1-0.3,0.2-0.4,0.2c-0.3-0.2-0.6-0.6-1-0.8
					c-0.4-0.3-0.8-0.3-1.2,0c-0.4,0.3-0.8,0.5-1.2,0.8c-0.5,0.3-1,0.8-1.6,0.8c-0.3,0-1.1-0.5-1.5-0.6c-0.7-0.2-0.9-0.2-1.6-0.4
					c-0.6-0.1-1.1,0.1-1.7,0.3c-0.7,0.2-1.6,0.3-2.4,0.5c-0.5,0.1-1,0-1.4,0c-0.7,0-1.4-0.1-2.1-0.1c-0.5,0-1,0.1-1.4,0.2
					c-0.2,0.1-0.4,0.1-0.6,0.1c-0.3,0-0.6-0.1-0.9-0.3s-0.7-0.3-1-0.2c-0.3,0.1-1,0.2-1.3-0.1c-0.3-0.3-1.1-1-1.6-0.9
					c-1.4,0.2-2.1,1.1-3.5,0.7c-1-0.2-1.6-0.5-2.6-0.2c-0.2,0.1-0.9-0.1-1.1,0c-0.3,0.1-0.5,0-0.4-0.4l0-0.2
					c0.1-0.4-0.3-0.7-0.7-0.5c-0.4,0.1-0.6,0.5-1,0.7c-0.7,0.3-1.3,0.2-2-0.1c-0.5-0.2-1-0.1-1.5,0.1c-0.3,0.2-0.8,0.9-1.2,0.9
					c-0.1,0-0.3-0.2-0.3-0.4v-0.4c0.2-0.3,0.5-0.5,0.8-0.7c0.8-0.4,1.8-0.5,2.7-0.4c0.4,0.1,0.9,0.1,1.3-0.1c0.3-0.1,0.7-0.2,1-0.3
					c0.5-0.3,1-0.5,1.6-0.3c0.4-0.2,0.7-0.4,0.9-0.7c0.1-0.5-0.1-1.1,0.1-1.6c0.1-0.5,0.3-1.1,0.5-1.5c0.1-0.2,0.3-0.2,0.4-0.2
					c0.4,0.6,1,1.2,0.7,1.8c-0.2,0.4,0.8,0.7,0.6,1.1c-0.2,0.3-0.1,0.5,0.2,0.5l0.2,0c0.3,0,0.3-0.2,0.3-0.5c0-2-0.6-3.3-1.3-4.9
					c-0.3-0.6-0.2-1.2,0-1.8l0.4-1.2c0.2-0.6,0.7-1.1,1.2-1.3c0.1,0,0.3,0.1,0.3,0.2c0.9,1.2,1.2,2.7,0.8,4.2
					c-0.1,0.4-0.2,0.9-0.3,1.4c0,0.1,0,0.2,0,0.4c0.1-0.1,0.2-0.1,0.3-0.2c0.4-0.7,0.9-1.3,1.2-2c0.3-0.7,0.9-1,1.6-1.1
					c0.8-0.2,1-0.1,0.8,0.7c-0.1,0.4-0.2,0.9-0.4,1.3c-0.2,0.7-0.6,1.2-1.3,1.6c-0.4,0.2-0.8,0.6-1.2,0.8c-0.1,0.2-0.2,0.2,0,0.4
					c0.1,0.2,0.3,0.1,0.5,0c0.7-0.5,1.4-0.9,2.1-1.3c0.3-0.1,0.3,0,0.3,0.3c0,0.4-0.1,0.8-0.4,1c-0.4,0.1-0.9,0.2-1.3,0.4
					c-0.2,0.1-0.4,0.3-0.6,0.5c-0.2,0.4-0.2,0.6-0.4,1c0,0.1,0,0.2,0,0.4c0.1-0.1,0.2-0.1,0.3-0.1c0.5-0.3,0.7-0.7,1.2-1.1
					c0.3-0.3,0.4-0.2,0.6,0.2c0.1,0.1,0.2,0.3,0.3,0.4c0.1-0.1,0.3-0.2,0.4-0.3c0.4-0.6,0.7-1.9,1.2-2.7c0.1,0,0.2,0.1,0.3,0.1
					c0.1,0.3,0,1.2,0,1.4c0,0.6,0.2,0.7,0.7,0.4c0.4-0.2,0.8-0.4,1.2-0.6c0.4-0.2,0.8-0.1,0.5,0.3c-0.1,0.2-0.3,0.4-0.5,0.6
					c-0.1,0.1-0.1,0.3-0.1,0.5c0.1,0,0.3,0,0.4,0c0.3-0.1,0.6-0.2,0.9-0.4c0.4-0.2,0.8-0.1,1.3,0c0.4,0.2,0.9,0.3,1.3,0.4
					c0.3,0.1,0.7-0.1,1-0.2c0.6-0.3,1.2-0.5,1.9-0.7c0.9-0.3,1.7-0.7,2.4-1.4c0.2-0.2,0.4-0.2,0.6-0.4c0.1-0.1,0.3-0.7,0.3-0.9
					c0.1-0.5-0.1-1.6,0-2.1c0.1-0.1,0.2-0.4,0.2-0.5l0.2,0.1c0.1,0.2,0.1,0.5,0.1,0.6c0,0.9-0.1,2.8-0.1,3.6c0,0.2-0.3,0.5-0.5,0.6
					c-1.5,0.5-3,1.1-4.5,1.6c-0.7,0.2-1.4,0.1-2.1,0.1c-0.6,0-1.1-0.1-1.7-0.1c-0.4,0-1.1,0.4-1.5,0.5c-1.2,0.2-2.3,0.1-3.5,0.3
					c-1.1,0.2-2.2,0.5-3.3,0.8c-0.3,0.1-0.4,0.2-0.7,0.3c-0.1,0.1-0.1,0.2-0.1,0.3c0.1,0.1,0.2,0.1,0.3,0.1c0.3,0,0.5,0.1,0.8,0
					c0.7-0.1,1.3-0.2,2-0.2c0.1,0,0.3,0.1,0.5,0.2c0.3,0.2,0.7,0.3,1,0.2c0.4-0.1,0.8,0,1.1,0.3c0.6,0.5,0.8,0.5,1.5,0.1
					c0.5-0.3,1.2-0.3,1.8-0.3c1.4,0.1,2.6,0.3,3.9,0.5c1,0.2,1.9-0.2,2.5-1c0.3-0.4,0.7-0.9,1-1.3c0.2-0.3,0.5-0.5,0.8-0.5
					c0.8,0,1.6-0.2,2.3-0.1c0.4,0,0.6,0.4,0.6,0.7c0,0.2-0.1,0.4-0.4,0.4c-0.6,0-1.2-0.1-1.7-0.1c-0.6-0.1-1.1,0.1-1.4,0.6
					c-0.2,0.2-0.1,0.4,0.1,0.4c0.1,0,0.3,0.1,0.4,0.1c0.3,0,0.5,0.2,0.5,0.5c0.1,0.2,0.4,0.4,1,0.4c0.8,0.1,1.2,0.1,1.9-0.2
					c0.3-0.1,0.5-0.4,0.7-0.7c0.5-0.7,0.8-0.8,1.6-0.7c0.6,0.1,1-0.5,1.5-0.5c0.9,0.1-0.1-1.8-0.7-2.4c-0.8-0.6-1.5-1.8-2.2-2.7
					c-0.5-0.7-1.2-0.9-1.6-1.7c-0.9-1.5-1.6-3.2-2.6-4.4c-0.4-0.4-1.2-0.1-1.6,0.1c-0.2,0.1-0.3,0.2-0.5,0.3c1.2,1,1.2,2.4,0.8,3.4
					C41.2,91,41,91,40.7,90.9c-0.3-0.1-0.6-0.2-0.9-0.4c-0.2-0.1-0.4-0.1-0.6,0.1c-0.9,0.5-2,1.3-2.1,1.1c-0.3-0.4-0.9-1.4-0.9-2
					c0-0.5,0.2-0.8,0.3-1.1c-0.4-0.2-0.8-0.5-1.2-0.7l0-0.4C36.1,86.7,37.1,86,37.9,86L37.9,86z M15.6,75.5c0.1,0.7,0.4,1.3,1.1,1.6
					c1,0.4,2.3,0.7,3.4,0.7c1.3,0,2.7-0.1,4.2-0.4c2.4-0.5,4.7-1.3,6.9-2.4c1.3-0.7,2.7-1.2,4.2-1.6c1.5-0.4,3.1-0.5,4.6-0.1
					c0.7,0.2,0.8,0.2,0.7-0.3c-0.1-0.3-0.1-0.7-0.2-1c-0.2-1.2-0.1-2.2-0.5-3.2c-0.1-0.3-0.4-0.5-0.6-0.6c-0.3-0.2-0.7-0.3-1.1-0.3
					c-0.8-0.1-1.6-0.1-2.3,0c-1.2,0.2-2.4,0.5-3.5,1.1c-1.2,0.6-2.4,1.3-3.3,1.8c-1.4,0.9-3.1,1.4-4.8,1.4c-1.1,0-1.9,0-3-0.2
					c-1.6-0.1-3.1-0.5-4.5-1.2c-0.3-0.2-0.5-0.1-0.6,0.2C15.6,72.4,15.4,73.9,15.6,75.5L15.6,75.5z M68.6,88.1
					c-0.4,0.1-1.2,0.2-1.7,0.2c-0.2,0-0.3,0-0.5-0.1c0.1-0.1,0.1-0.2,0.2-0.2c0.6-0.3,1.2-0.6,1.6-0.9c0.2-0.2,0.2-0.4,0.1-0.5
					c-0.8,0.4-1.6,0.5-2.4,0.7c-0.1,0-0.1-0.1-0.1-0.1c0.7-0.5,1.5-0.9,2-1.3c0.3-0.3,0.1-0.3,0-0.4c-0.7,0.2-1.4,0.5-2.1,0.7
					c-0.1,0-0.2,0-0.3,0c0-0.1,0.1-0.2,0.3-0.3c0.7-0.4,1.4-0.8,2-1.3l0-0.2l-0.2,0c-0.6,0.1-1.8,0.3-2.5,0.4
					c-0.3,0-0.3-0.2-0.2-0.2c0.5-0.2,1-0.5,1.3-1c0.1-0.2,0.1-0.3,0.1-0.4c-0.6,0.3-1.4,0.3-1.8,0.4c-0.1-0.1,0-0.2,0.1-0.3
					c0.5-0.2,0.6-0.4,0.9-0.5c0.2-0.1,0.6-0.4,0.6-0.5c0-0.1,0-0.2,0-0.2c-0.5,0.2-1,0.3-1.6,0.4c-0.1,0-0.2,0-0.3-0.1
					c0.1-0.1,0.1-0.2,0.1-0.2c0.7-0.4,1.1-0.5,1.7-0.9c0.2-0.1,0.3-0.3,0.3-0.5l-0.1-0.1c-0.6,0.2-1.2,0.4-1.8,0.6
					c-0.1,0-0.2-0.1-0.3-0.2c0.1-0.1,0.1-0.2,0.2-0.2c1.2-0.4,2.4-1.1,3.4-2c0.3-0.2,0.5-0.5,0.6-0.7l-0.1-0.1
					c-1.2,0.8-2.4,1.6-3.7,2.1c-0.3,0-0.2-0.2-0.1-0.3c0.1-0.1,0.5-0.5,0.8-0.9c1.1-0.4,2.2-1,3.1-1.8c0.1-0.1,0.1-0.3,0.1-0.4
					c-0.6,0.3-1.5,0.8-2.4,1.1l-0.2-0.1c0-0.1,0.1-0.3,0.2-0.4c0.5-0.4,1.3-0.9,2-1.6c0-0.1,0.1-0.2,0-0.3c-0.5,0.3-1.1,0.5-1.6,0.7
					c-0.2-0.1,0-0.4,0.1-0.5c0.8-0.6,1.1-1,1.5-1.6c0.1-0.1,0.1-0.2,0-0.4c-0.4,0.3-1,0.5-1.5,0.7l-0.1,0c0-0.2,0-0.1,0.1-0.2
					c0.5-0.5,1-0.9,1.3-1.5c0-0.1,0-0.2,0-0.3c-0.5,0.2-0.8,0.3-1.3,0.4c-0.1,0-0.1,0-0.2,0c0-0.2,0-0.2,0.1-0.3
					c0.3-0.3,0.7-0.7,1-1.2c0.1-0.1,0.1-0.2,0-0.3c-0.2,0.1-0.7,0.1-0.9,0.1c-0.1,0-0.2-0.1-0.3-0.2l0.8-0.6
					c0.1-0.1,0.1-0.1,0.1-0.2c-0.1-0.1-0.2-0.1-0.3-0.1c-0.3,0.1-0.7,0.1-1,0.2C65,70,65,70.1,64.9,70.3c-0.2,0.9-0.5,1.8-0.9,2.6
					c-0.1,0.2-0.2,0.5-0.5,0.6c-0.3,0.2-0.3,0.4-0.3,0.7c-0.1,0.7-0.2,0.6-0.5,1.2c-0.2,0.4-0.4,0.9-0.7,1.2h-0.2l-0.1-0.9
					c-0.1-0.6-0.2-0.5-0.3-1.1c-0.1-0.5,0.1-1.1,0.1-1.6c0.1-0.5,0.1-1.5,0.1-2c-0.1,0-0.1-0.1-0.2-0.2c-0.1,0.1-0.1,0.1-0.2,0.2
					c-0.1,0.4-0.3,1.1-0.3,1.5c-0.1,1,0.1,1.9,0,2.9c-0.2,1-0.2,2.1-0.1,3.1c0.3,0,0.3-0.1,0.8-0.2c0.6-0.2,1-0.3,1.6-0.9
					c0.4-0.4,0.3-1.1,0.5-1.7c0.2-0.7,0.5-1,0.8-1.1c0.1,0,0.2,0,0.2,0c-0.2,0.4-0.3,0.6-0.4,1.1c-0.1,0.4-0.3,1,0.1,1.1l0.3,0.1
					c0,0.1,0,0.2,0,0.2c-0.4,0.4-0.7,0.8-2.4,1.3c-0.2,0.1-0.6,0.6-0.7,0.8c0,0.3,0,0.6,0,1.1c0.2,1.8,1,3.4,2,5.1
					c0.8,1.4,1.4,2.4,2.3,3.4c0.4,0.4,0.9,0.7,1.6,0.4c0.4-0.2,0.8-0.5,1-0.6C68.6,88.4,68.6,88.3,68.6,88.1L68.6,88.1z M44.8,62.7
					c0.1,0.7-0.1,0.9-1,0.7c-0.9-0.3-1.4-0.2-2-0.9c-0.3-0.4-0.8-0.4-1.2,0c-0.2,0.2-0.3,0.4-0.6,0.5C40,62.8,40,62.7,40,62.6
					c0.1-0.4,0.3-0.7,0.7-0.9c0.3-0.1,0.6-0.2,0.9-0.3c0.8-0.3,1.2-0.8,1.2-1.8c0-0.5,0.2-1.1,0.2-1.7c0-0.4-0.1-0.5-0.5-0.4
					c-0.7,0.3-1.3,0.5-2,0.8c-0.2,0.1-0.4,0.2-0.5,0.5c-0.2,0.4-0.3,0.7-0.5,1.1c-0.2,0.2-0.3,0.1-0.3,0c-0.3-0.5-0.7-1.1-1-1.5
					c-0.3-0.4-0.3-0.5,0-0.7l1.1-1c0.5-0.5,0.8-1.2,0.8-2v-1c0-0.5,0.1-0.6,0.5-0.5c0.3,0,0.6,0.1,0.9,0.3c0.5,0.2,1,0.5,1.5,0.8
					c0.3,0.2,0.5,0.4,0.5,0.7c0,0.4-0.2,0.7-0.6,0.5c-0.5-0.2-1.1-0.4-1.7-0.6c-0.3-0.1-0.6,0.1-0.6,0.4c-0.1,0.7,0.4,0.7,0.4,0.9
					c-0.1,0.5-0.9,0.6-1,1c-0.1,0.4-0.1,0.7,0.3,0.6c0.9-0.2,1.9-0.8,2.6-1.1c0.6-0.3,0.9-0.2,1,0.5C44.2,59.1,44.5,60.8,44.8,62.7
					L44.8,62.7z M59.5,56.2c0.2,0.1,0.4,0.2,0.5,0.3c0.3,0.8,1.1,1.7,2,2.2c0.3,0.2,0.6,0.2,0.8,0.2c0.1-0.4,0.2-1,0.2-1.6
					c0-0.5-0.2-1.1-0.6-1.6c-0.4-0.4-0.9-0.8-1.4-1.1c-0.2-0.1-0.5-0.1-0.7,0.1c0,0.1,0,0.3,0.1,0.4c0.2,0.4,0.8,0.8,1,1.1
					c0.1,0.4,0.1,0.4-0.2,0.2c-0.7-0.4-1.2-0.9-1.7-1.5c-0.3-0.3-0.5-0.3-0.6,0c-0.5,0.8-0.8,1.7-0.9,2.6c-0.2,1.1,0.4,2.3,1.4,2.8
					c0.4,0.2,0.8,0.1,1-0.3c0.2-0.4,0.4-0.8,0.5-1.3c0.1-0.2,0.1-0.3-0.1-0.5c-0.2-0.3-0.5-0.5-0.7-0.8c-0.1-0.1-0.2-0.2-0.3-0.3
					c-0.1,0.1-0.1,0.2-0.1,0.3c0,0.4,0.1,0.8,0.1,1.1c0,0.1,0,0.2-0.1,0.3c-0.2-0.1-0.3-0.3-0.4-0.5C59,57.6,59,56.8,59.5,56.2z
					 M18.2,43.1l0.7,0.8c0.3,0.5,0.4,1,0.6,1.5c0.1,0.4,0.3,0.4,0.6,0.2c0.2-0.2,0.4-0.5,0.4-0.8c0-0.3-0.1-0.5-0.2-0.8
					c-0.2-0.9-0.1-1.7,0.7-2.3c0.3-0.2,0.5-0.5,0.4-0.8c-0.1-0.5-0.2-0.9-0.4-1.3c-0.1-0.2-0.3-0.2-0.5-0.1c-0.9,0.5-2,1.9-1.2,3
					c0,0.1,0,0.3-0.1,0.4c-0.8-0.8-2.2-2.3-2.7-2.3c-0.1,0.2-0.2,0.7-0.1,1.6c0.1,0.9,0.3,1.8,1,3c0.2,0.3,0.3,0.4,0.6,0.6
					c0.2,0.1,0.5,0.3,0.7,0.3c0.1-0.2,0.1-0.5,0.1-0.7c-0.2-0.8-0.4-1.4-0.7-2.2L18.2,43.1z M78.5,46.5c0.6-0.1,1.2-0.3,1.4-0.4
					c1-0.4,1.7-1.1,1.9-2.2c0.1-0.3-0.1-0.5-0.4-0.5l-0.7-0.2c-0.7-0.2-0.8,0.1-1,0.7c-0.2,0.5-0.4,1-0.9,1.4
					c-0.2,0.1-0.7-0.3-0.8-0.4c1-0.6,1.7-1.6,2.1-2.7c0.1-0.2,0-0.4-0.2-0.5c-0.3-0.1-0.7-0.1-1-0.1c-1.6,0.3-3,1.3-3.7,2.8
					c-0.1,0.1,0,0.4,0.1,0.4c0.1,0.1,0.5,0,0.7,0c0.1,0,0.1-0.1,0.2-0.2c0.4-0.7,1.1-1.2,1.9-1.6c0.2-0.1,0.3,0,0.2,0.2
					c-0.2,0.2-1.6,1.2-1.6,1.4c-0.2,0.4,0.1,0.5,0.3,0.5l0.4-0.1C77.4,45.8,77.9,46.3,78.5,46.5L78.5,46.5z M56.4,46.4
					c0,0.4-0.2,0.6-0.5,0.4c-0.7-0.3-1.1-1-1.8-1.3c-0.3-0.1-0.4,0.2-0.5,0.4c-0.1,0.8-0.2,1.5-0.2,1.7c0,1.1,0.6,1.6,1.1,2.2
					c0.2,0.1,0.2,0.2,0,0.3l-2.3,1.3c-0.2,0.1-0.5,0.2-0.7,0c-0.2-0.2-0.3-0.5-0.2-0.7c0.3-1.2,0.5-2.4,0.8-3.5
					c0.5-1.8,1.3-2.4,2.6-2.6c0.5-0.1,0.8-0.1,1.2-0.1c0.4,0,0.5,0.1,0.6,0.4C56.4,45.4,56.4,45.6,56.4,46.4L56.4,46.4z M58.1,54.4
					c0-0.9-0.7-1.1-1-1.9c-0.3-0.7-0.5-0.7-1.1-0.2c-0.7,0.6-1.1,1.2-1.3,2.1c-0.2,0.8-0.2,1.7,0,2.5c0.1,0.2,0.2,0.5,0.5,0.5
					c0.2-0.1,0.3-0.3,0.3-0.5c0-0.7,0.1-1.5,0.4-2c0.2-0.2,0.2-0.3,0.3-0.3c0.1,0.2,0.1,0.4,0.1,0.4c-0.1,0.5-0.2,1.1-0.3,1.7
					c-0.1,0.4-0.1,0.6,0.1,0.9c0.2,0.3,0.4,0.4,0.5,0.1C57.4,56.7,58.1,55.1,58.1,54.4z M20.9,56.8c0-0.7-0.2-1.5-0.5-2.2
					s-0.7-1.1-1-1.1c-0.3,0-0.9,0.7-1.1,1.3c-0.5,1.5-0.2,2.7,0.6,4.1c0.1,0.2,0.3,0.5,0.7,0.2c0.3-0.3,0.5-0.5,0.7-0.8
					C20.7,57.9,20.9,57.4,20.9,56.8z M53,80.1c-0.2-1.2-1.1-2.4-2.6-3.5c-0.3-0.1-0.3,0.1-0.3,0.4c0.2,1.7,0.3,3.5,0.6,5
					c0.1,0.3,0.2,0.4,0.5,0.3c0.5-0.2,0.9-0.4,1.3-0.7C52.9,81.2,53.1,81,53,80.1z M67.1,66c-0.2-0.6-0.6-0.8-1.2-0.9
					c-0.6-0.1-1.1-0.2-1.7-0.2c-0.3,0.1-0.6,0.3-0.8,0.8c0,0.1,0.1,0.2,0.1,0.2C63.6,66,64,66,64,66.1c0.1,0.1,0.3,0.3,0.3,0.5
					c-0.1,0.2-0.3,0.4-0.5,0.4c-0.3,0.1-0.3,0.4-0.3,0.7c0.1,0.4,0.2,0.7,0.5,1c0.2-0.1,0.3-0.2,0.5-0.4c0.2-0.2,0.3-0.4,0.2-0.7
					c-0.1-0.8,0.4-1.3,0.9-1.9l0.1,0.1c-0.1,0.4-0.3,0.8-0.4,1.2c-0.1,0.9-0.4,1.7-1.3,2.3c0.3,0.4,1,0.1,1.2-0.1
					c0.4-0.4,0.7-0.8,0.8-1.3l0.1-0.5c0,0,0.1,0,0.1,0c0.2,0.3-0.1,1,0.1,1.5c0.2-0.1,0.3-0.2,0.4-0.4C67.2,67.9,67.4,66.7,67.1,66
					L67.1,66z M78.3,47.4c-0.2,0-0.8,0-1,0.1c-0.1,0-0.2,0.4-0.1,0.4c0.2,0.1,0.3,0.2,0.4,0.3c0.6,0.1,0.8,0.1,1.4,0.2
					c0.1,0,0.2,0.1,0.3,0.2c-0.1,0.1-0.1,0.1-0.2,0.2c-1.2,0.1-1.6,0.1-2.4-0.4c-0.2-0.1-0.3,0.1-0.2,0.3c0.1,0.4,0.5,0.7,1.1,1
					c0.5,0.2,1,0.5,1.5,0.5c0.8,0,1.3-0.1,1.9-0.2c0.3-0.1,0.7-0.2,0.7-0.4c0.1-0.2,0-0.5-0.2-0.8l-0.5-0.5
					c-0.7-0.8-1.2-1.2-2.2-1.1C78.7,47.1,78.5,47.4,78.3,47.4z M79.1,55.5c0-0.4-0.1-0.8-0.2-1.2c-0.2-0.8-0.9-1.4-1.8-1.5
					c-0.4,0-0.7,0.1-0.5,0.5c0.1,0.1,0.4,0.6,0.6,0.9c0.2,0.4,0.4,0.8,0.4,1.2c0,0.2,0,0.3-0.1,0.5c-0.3-0.1-0.4-0.5-0.5-0.6
					c-0.1-0.4-0.1-0.6-0.3-0.8c-0.1-0.2-0.2-0.2-0.3-0.2c-0.2,0-0.2,0.1-0.2,0.3c-0.2,1.4,0.6,2.8,1.9,3.5c0.3,0.1,0.4,0,0.5-0.3
					C78.9,57,79,56.2,79.1,55.5L79.1,55.5z M20.2,50.8C20,51.5,20,51.9,20,52.2c0,0.5,0.2,0.8,0.7,1c1.3,0.5,2.6,0.8,4,0.6
					c0.1,0,0.2-0.1,0.2-0.1c0-0.3-0.2-0.3-0.4-0.4c-0.6-0.2-2.1-0.6-2.3-0.8c-0.2-0.2-0.1-0.4,0.2-0.5c0.2,0,0.4,0,0.7,0.1
					c0.4,0.2,0.7,0.4,1.1,0.6c0.1,0.1,0.3,0.2,0.4,0c0.1-0.2,0.2-0.3,0-0.5l-0.9-0.7C22.7,51,21.6,50.7,20.2,50.8L20.2,50.8z
					 M47.4,60.8c-0.1,0.1-0.2,0.3-0.3,0.4c-0.1-0.1-0.3-0.2-0.3-0.4c-0.6-1.6-1.1-3.2-1.4-4.8c0-0.3,0.1-0.4,0.3-0.4
					c0.7,0.1,1.3,0.4,1.9,0.7c0.1,0.1,0.2,0.3,0.2,0.4C47.9,58.1,47.7,59.6,47.4,60.8L47.4,60.8z M18.1,63.5L18.1,63.5
					c0-0.9,0.4-2,0.2-2.3c-0.3,0-0.6,0-0.8,0.1c-0.3,0.1-0.4,0.4-0.5,0.9c-0.1,1.1,0.1,2.2,0.3,3.1c0.1,0.4,0.2,0.4,0.5,0.1
					c0.7-0.6,1.3-1.4,1.8-2c0.3-0.5,0.4-0.9,0.3-1.4c-0.1-0.4-0.4-0.5-0.6-0.5c-0.3,0-0.4,0.2-0.5,0.5C18.6,62.6,18.4,63,18.1,63.5
					L18.1,63.5z M73.2,61.1c0.5,0,1,0.1,1.1,0.2c0.6,0.2,0.9,0.5,1,0.8c0.1,0.2,0.1,0.3,0.1,0.4c-0.4,0.1-0.8,0-1.1-0.2
					c-0.6-0.5-1.4-0.8-1.9-0.5c0,0.4,0.4,0.8,0.7,1.1c1,0.8,1.9,0.9,3,0.7c0.2-0.1,0.2-0.3,0.2-0.5c0-0.7,0-1.4-0.6-2
					c-0.7-0.7-1.7-0.7-2.4-0.4c-0.1,0.1-0.3,0.1-0.4,0.2C72.9,60.8,73,61,73.2,61.1L73.2,61.1z M48.4,42c0.2-0.1,0.1,0.1,0.1,0.2
					c-0.1,0.6-0.5,1.1-0.9,1.5c-0.2,0.2-0.3,0.5-0.1,0.7c0.3,0.3,0.7,0,0.9-0.2c0.5-0.5,0.8-1.2,1-1.9c0.3-0.8,0.3-1.8-0.1-2.5
					c-0.2-0.3-0.5-0.3-0.8-0.1c-0.9,0.7-1.4,1.8-1.4,2.9c0,0.2,0,0.4,0.1,0.5C47.7,43,48,42.4,48.4,42L48.4,42z M62.9,71.1
					c0.1-0.1,0.2,0,0.2,0c0,0.7,0.2,1.4,0.2,1.7c0.1,0,0.2-0.1,0.2-0.2l0.2-0.9c0.4-1.2,0.1-2.2-0.4-3.4c-0.1-0.2-0.2-0.2-0.5-0.1
					c-0.2,0.1-0.3,0.2-0.2,0.4c0.1,0.2,0.1,0.3,0,0.5c-0.2,0.3-0.3,0.7-0.5,1.1c-0.1,0.2-0.1,0.4-0.1,0.7L62,75.4
					c0.1,0.2,0.2,0.2,0.3,0.1c0.1-0.2,0.2-0.5,0.2-0.7c0.1-0.7,0.3-0.7,0.3-1.4C62.9,72.6,62.9,71.9,62.9,71.1L62.9,71.1z
					 M22.5,43.6c0-0.1,0-0.2,0-0.3l0.7,0.1c0.3,0.1,0.5,0,0.7-0.2c0.2-0.5,0.1-1-0.5-1.1c-0.8-0.2-1.7,0.1-2.4,0.3
					c-0.5,0.2-0.6,0.7-0.2,1c0.5,0.5,1,1,1.6,1.5c0.5,0.4,1,0.5,1.5,0.4c0.2-0.1,0.4-0.2,0.4-0.4c0-0.2-0.1-0.3-0.2-0.4
					c-0.1-0.1-0.3-0.2-0.4-0.2L22.5,43.6z M21.7,76c-0.1,0.2-0.2,0.4-0.5,0.4c-0.4,0-0.7-0.1-1.1-0.2c-0.4-0.1-0.5-0.2-0.5-0.4
					c-0.1-0.7-0.1-1.7,0.1-2.4c0.1-0.1,0.5-0.4,0.6-0.5c0.5,0.1,0.9,0.1,1.3,0.2c0.1,0.1,0.4,0.5,0.5,0.6c0.1,0.2,0.1,0.5,0.1,0.7
					C22,75.2,21.8,75.7,21.7,76z M61.6,97.8c1,0.4,1.7,0.5,2,0.4c0.3-0.1,0.5-0.4,0.4-0.7c0-0.3-0.1-0.5-0.5-0.6
					c-0.7-0.2-1.5-0.3-2.2-0.5c-0.4-0.1-0.7-0.1-1.1,0.2c-0.5,0.4-1.1,0.6-1.7,0.8c-0.2,0-0.3,0.1-0.4,0.2c-0.2,0.2-0.1,0.4,0.2,0.6
					C59.4,98.2,60.5,98,61.6,97.8z M65.5,100.1c0.6,0,1-0.1,1.4-0.4c0.5-0.4,1.1-0.7,1.7-0.8c0.3-0.1,0.5-0.3,0.5-0.5
					c0-0.3-0.2-0.3-0.4-0.4c-0.6-0.2-1.3-0.2-1.8-0.3c-0.2,0-0.5,0-0.6,0.1c-1.2,1.3-1.5,1-2,1.6c-0.2,0.2-0.2,0.5,0.3,0.6
					C64.9,100,65.3,100.1,65.5,100.1z M45.1,53.1c0-0.3,0.5-0.8,0.8-0.7c0.1,0,0.1,0.1,0.2,0.1l0.1,0.7c0,0.2,0.1,0.5,0.2,0.5
					c0.6,0.1,1.3-0.4,1.7-0.9c0.4-0.6,0.6-1.2,0.9-1.9c0.3-0.7,0.7-0.3,0.6,0.2c-0.4,1.2-0.9,2.4-1.3,3.6c-0.1,0.4-0.2,0.5-0.6,0.3
					l-2-0.7C45.4,54,45.1,53.6,45.1,53.1z M60.2,82.8c0.3,0.2,0.3,0.1,0.7-0.1c0.2-0.2,0.3-0.4,0.4-0.7l-0.1-2.6
					c0-0.1-0.1-0.2-0.2-0.2c-0.3,0-0.8-0.1-1.1,0.1c-0.5,0.3-1,0.7-1.5,1.1c-0.2,0.2,0,0.4,0.3,0.4c0.2-0.1,0.5-0.2,0.8-0.4l0.5-0.2
					c0,0.1,0,0.2-0.1,0.2c-0.4,0.5-0.8,1.1-1.3,1.4c-0.2,0-0.1,0.4,0.1,0.4c0.2,0,0.5-0.2,0.7-0.3c0.3-0.3,0.5-0.5,0.9-0.8
					c0.1,0.2,0.2,0.3,0,0.5l-1,0.9c-0.1,0.1,0,0.3,0.1,0.3c0.2,0,0.5-0.1,0.7-0.3c0.2-0.2,0.4-0.4,0.7-0.6c0,0,0.1,0.2,0.1,0.2
					C60.6,82.2,60.4,82.5,60.2,82.8z M29.6,52.5c-0.1,1.5-0.5,2.9-1.2,3.6c-0.5-1-0.9-2.2-1.2-3.2c0.3-0.4,0.6-0.9,0.8-1.3
					c0.1-0.2,0.2-0.2,0.4-0.1C28.9,51.8,29.2,52.2,29.6,52.5z M31.4,73.3c-0.1,0.4-0.3,0.7-0.7,0.8c-0.2,0.1-0.7,0.3-1.1,0.3
					c-0.2,0-0.4-0.1-0.4-0.2c-0.1-0.7-0.3-1.3-0.4-2c0-0.2,0.1-0.4,0.2-0.5c0.4-0.4,1-0.5,1.5-0.5c0.1,0,0.5,0.2,0.6,0.3
					C31.3,72,31.3,72.6,31.4,73.3z M26.2,65.5c-0.8,0.1-1.4,0.8-1.3,1.1c0,0.6,0.1,1.2,0.5,1.7c0.2,0.3,0.3,0.4,0.7,0.2
					c1-0.5,1.8-1.4,2.3-2.4c0.1-0.3-0.2-0.4-0.4-0.5c-0.4-0.2-0.8-0.2-1-0.1s-0.3,0.3-0.3,0.5c-0.2,0.9-0.3,0.9-0.5,1.2
					C25.8,66.6,25.9,66,26.2,65.5z M31.3,98.5c0.1-0.1,0.1-0.2,0.2-0.2c0.1,0,0.5,0,0.5,0c0.7,0.2,1.3-0.3,1.9-0.4
					c0.1,0,0.3,0,0.5,0c0.4,0,0.8,0,1.3-0.1c0.2-0.1,0.4,0,0.7,0.1c0.7,0.3,1.4,0.5,2.1,0.1c0.4-0.2,0.7-0.5,1.1-0.7
					c0.7-0.2,0.7,0.2,0.7,0.4c-0.1,0.2-0.2,0.3-0.3,0.4c-2.3,0.8-4.2,0.8-6.8,0.5C32.6,98.7,31.9,98.7,31.3,98.5z M17.1,74.4
					c-0.1,0.3,0.1,0.8,0.3,1l0.1,0.1l-0.1,0.2c-0.4,0-0.8-0.1-1.2-0.2c-0.2-0.1,0.3-0.3,0.3-0.6c0.1-0.6,0.2-1.6,0.2-2.3
					c0-0.1-0.3-0.2-0.3-0.4c0-0.1,0.1-0.2,0.1-0.2c0.8,0.2,1,0.2,1.1,0.6c0.2,0.4,0.3,1,0.6,1.4c0.1,0,0.1-0.1,0.2-0.1
					c0-0.4,0-1,0-1.2c0-0.2,0.1-0.3,0.3-0.3c0.2,0,0.6,0,0.8,0.1c0,0,0,0.1,0,0.1c0,0.1-0.1,0.2-0.2,0.2C19.2,73,19.2,73,19,74.1
					l-0.2,1.3c0,0.1-0.1,0.3-0.1,0.4c-0.1,0-0.3,0-0.3-0.1c-0.3-0.7-0.6-1.4-1-2l-0.1,0C17.2,73.9,17.2,74.2,17.1,74.4L17.1,74.4z
					 M43.4,80.4c0-0.2,0-0.5,0-0.7c-0.1-0.4-0.3-0.8-0.3-1.2c0.2-0.6,0.3-1.3,0.2-1.9c-0.1-0.8-0.1-1.6,0.1-2.4
					c0.2,0.1,0.4,0.2,0.4,0.4c0.1,0.2,0.1,0.5,0.1,0.7c0.1,0.7,0,1.3,0,2c-0.1,1.3-0.2,2.5-0.2,3.8c0,0.2,0.1,0.4,0.1,0.6
					c0.2,0.4,0.1,0.8-0.2,1.3l-0.2-0.1c-0.1-0.5-0.5-1.3-0.7-1.9c0-0.1,0-0.2,0.1-0.2C43.2,80.7,43.4,80.5,43.4,80.4L43.4,80.4z
					 M55.8,70.8c-0.5-0.1-1.1-0.5-1-1.4c-0.3,0.4-0.6,0.7-0.9,0.8c0,0.3,0.7,0.7,1.2,0.9c0.3,0.4,0.5,0.5,0.8,1
					c0.2-0.5,0.5-1,0.6-1.3c0-0.7-0.1-1.4-0.4-2c-0.4-0.4-1-0.8-1.6-1.2c-0.3,0.3,0.1,1,0.8,1.4c-0.2,0.5-0.1,1.2,0.6,1.6L55.8,70.8
					z M20.1,69.5c0.4,0,0.8-0.1,1.2-0.1c0.3-0.1,0.6-0.1,0.6-0.5c0-0.3-0.3-0.5-0.6-0.6c-1.3-0.3-2.6-0.2-3.8,0.4
					c-0.3,0.2-0.6,0.4-0.8,0.5c-0.3,0.3-0.2,0.5,0,0.7c0.2,0.2,0.6,0.4,1,0.5c0.1-0.3,0.1-0.7,0.2-1c0.4-0.7,1.6-0.8,2.4-0.8
					c0.2,0,0.2,0.3,0,0.3c-0.2,0.2-0.7,0.1-0.8,0.3C19.6,69.4,19.8,69.5,20.1,69.5L20.1,69.5z M22.6,76.5c0-0.1,0.2-0.3,0.2-0.4
					c0-0.2,0-0.5,0-0.7c0-0.5-0.1-1.4-0.1-1.9l0.3-0.2c0.1,0,0.2,0,0.3,0.1c0.2,0.2,0.8,0.8,1,1.1c0,0,0.1-0.1,0.1-0.1v-0.4
					c0-0.3-0.1-0.5-0.1-0.7c-0.1-0.3-0.3-0.5-0.1-0.6l1-0.1C25.1,72.9,25,73,25,73.3c-0.1,0.4-0.1,0.8-0.1,1.1
					c0.1,0.6,0.2,1.2,0.2,1.6c0,0-0.1,0.1-0.1,0.1c-0.1,0-0.2-0.1-0.3-0.2c-0.5-0.5-0.8-0.9-1.4-1.5c-0.1,0.1-0.1,0.2-0.1,0.3
					c0.1,0.4,0.3,0.8,0.5,1.1c0.2,0.2,0.2,0.3-0.2,0.4C23.3,76.4,22.9,76.5,22.6,76.5L22.6,76.5z M40.1,76.6
					c0.6-0.4,0.8-1.5,0.6-2.1c0-0.1-0.1-0.3-0.2-0.4c-0.2-0.2-0.4-0.1-0.5,0.2c-0.1,0.4-0.2,0.9-0.2,1.3c-0.4-0.1-0.8-0.1-1.3,0
					c-0.4,0.1-1.3,0.3-1.3,0.8C37.3,77.3,39.2,77.1,40.1,76.6z M43.5,70.8c0,0.2,0.1,0.5,0.2,0.7c0.9,0.9,2,1.8,2.8,2
					c0.7,0.2,1.2,0.6,1.6,1.1l0.4,0.5c0.3,0.4,0.7,0.6,1.2,0.7c0.1,0,0.2,0,0.3,0c-0.1-0.3-0.1-0.3-0.3-0.5
					c-1.8-1.6-3.6-2.8-5.5-4.1C44,71,43.7,70.8,43.5,70.8z M25,91.2L25,91.2c-0.2-0.8-0.4-1.5-0.6-2.2c-0.1-0.3-0.4-0.1-0.4,0
					c-0.2,0.5-0.4,1.1-0.5,1.7c-0.1,0.2-0.1,0.3,0,0.5c0.3,0.8,0.5,1.6,0.9,2.4c0.1,0.1,0.2,0.2,0.3,0.2c0.1-0.1,0.2-0.2,0.2-0.3
					L25,91.2z M28.1,72.4c0.1,0.1,0.1,0.3,0.1,0.5c0,0.1,0,0.2,0,0.3c0,0-0.1,0-0.2,0c-0.4-0.2-0.8-0.4-1.1-0.2
					c-0.1,0.1-0.1,0.3,0.1,0.4l1,0.4c0.5,0.2,0.6,0.4,0.5,1c-0.1,0.5-0.5,0.8-0.9,0.9c-0.2,0.1-0.4,0.1-0.7,0.1c0,0.2,0,0.4-0.1,0.4
					c-0.1,0.1-0.1,0-0.2,0.1c-0.2-0.4-0.3-0.9-0.3-1.3c0-0.1,0-0.1,0.1-0.2c0.2,0.1,0.3,0.3,0.5,0.5c0.3,0.1,0.8,0.2,0.8,0.1
					C28,75.1,28,75,28,74.9c0-0.1-0.2-0.2-0.3-0.3c-0.4-0.2-0.6-0.3-1-0.4c-0.3-0.1-0.4-0.5-0.4-0.8c0-0.3,0.2-0.7,0.7-0.8
					c0.2-0.1,0.4-0.1,0.6-0.2c0.1-0.1,0.1-0.5,0.1-0.5c0.1,0,0.2,0,0.3,0L28.1,72.4z M20.7,49.7c-0.7,0-1.2-0.2-1.9-0.1
					c-0.5,0-1,0.3-1.5,0.5c-0.3,0.1-0.2,0.3,0,0.4c0.3,0.1,0.4,0.2,0.7,0.2c1.5-0.1,3.1-0.3,4.6-0.4c0.1-0.1,0.2-0.2,0.2-0.4
					c-0.6-0.4-1.3-0.3-2-0.5L20.7,49.7z M37.7,72c-0.1,0-0.2,0.1-0.3,0.3c-0.1,0.1-0.2,0.2-0.3,0.2l-0.2-0.1l0.3-0.8
					c0.1-0.3,0.2-0.3,0.5-0.1l0.3,0.2c0.2,0.2,0.5,0.3,0.8,0.2c0.2-0.1,0.1-0.5-0.1-0.6c-0.4-0.2-0.7-0.3-1.1-0.6
					c-0.3-0.2-0.4-0.4-0.4-0.8c0-0.3,0.2-0.7,0.6-0.7c0.1,0,0.3,0,0.5,0c0.2,0,0.4,0,0.6-0.2c0.1-0.2,0.2-0.2,0.3-0.1
					c0.1,0.4,0,0.9-0.1,1.2c-0.1,0-0.1,0-0.2-0.1c-0.2-0.4-0.5-0.5-0.8-0.5c-0.2,0-0.3,0.2-0.2,0.4c0.3,0.3,0.8,0.5,1.2,0.7
					c0.5,0.3,0.5,0.7,0.4,1c-0.1,0.4-0.4,0.7-0.8,0.7C38.3,72.2,38,72.2,37.7,72z M36.6,70.9c0.1,0.9-0.7,1.3-1.2,1.3
					c-0.5,0-0.8-0.1-0.9-0.6c-0.1-0.3-0.2-1.2-0.2-1.5c-0.1-0.1-0.3-0.2-0.5-0.2c-0.1,0-0.1-0.1-0.2-0.2c0.2-0.1,0.5-0.2,0.7-0.2
					c0.5-0.1,0.5-0.1,0.6,0.4c0.1,0.5,0.2,1.1,0.3,1.7c0.2,0.5,0.8,0.4,0.8,0c0-0.4,0-0.9,0-1.4c-0.1-0.1-0.2-0.3-0.4-0.5
					c-0.2-0.2-0.2-0.3,0.1-0.4c0.7-0.3,0.7-0.4,0.8,0.5C36.4,69.9,36.6,70.4,36.6,70.9z M37.2,75.6l1.7-0.4c0.4-0.1,0.7-0.6,0.7-1
					c-0.1-0.3-0.2-0.5-0.6-0.6c-0.7-0.1-1.5,0-2.1,0.3C36.8,74.5,37,75.1,37.2,75.6L37.2,75.6z M21.9,69.6c-0.2,0-0.5,0.1-0.7,0.1
					c-0.4,0.1-0.6,0.1-1,0.1c-0.2,0-0.6-0.2-0.8-0.2c-0.2,0-0.5,0.2-0.6,0.6c-0.1,0.4,0.2,0.6,0.6,0.7c0.8,0.2,1.6,0.3,2.3,0.3
					c0.3,0,0.3,0,0.3-0.3C21.9,70.5,21.9,70.1,21.9,69.6z M41,52.4c-0.3-0.1-0.7-0.2-1-0.3c-0.1,0-0.2-0.3-0.2-0.5
					c0-0.4-0.1-0.8,0-1.3c0-0.2,0.2-0.3,0.4-0.3c0.3,0.1,0.6,0.1,0.9,0.2c0.4,0.2,1,1.3,0.8,1.7C41.7,52.3,41.4,52.4,41,52.4
					L41,52.4z M34.1,72.1c-0.1,0.1-0.2,0.2-0.3,0.3c-0.4,0.3-1.1,0.4-1.6,0.7c-0.2,0.2-0.1-0.4-0.1-0.6l-0.2-1.3
					c-0.1-0.3-0.2-0.5-0.4-0.7c-0.1-0.2,0.3-0.2,0.5-0.3l0.8-0.2c0.3-0.1,0.3,0.1,0.3,0.2c-0.4,0.3-0.3,0.4-0.3,0.8
					c0.1,0.4,0.1,0.8,0.1,1.1c0.1,0.1,0.1,0.3,0.2,0.5c0.2-0.1,0.5-0.2,0.5-0.3l0.1-0.8c0.3-0.4,0.3-0.2,0.4,0
					C33.9,71.6,34,71.8,34.1,72.1z M35.3,63.6c-0.2-0.5-0.3-1.1-0.5-1.6c0-0.2,0.1-0.3,0.3-0.3c0.7,0.2,1.4,0.3,2.1,0.5
					c0.2,0.1,0.2,0.2,0.1,0.4c-0.5,0.5-1,0.9-1.6,1.2C35.4,63.9,35.4,63.8,35.3,63.6z M66.2,44.5c-0.1-0.7-0.4-1.4-0.8-2
					c-0.3-0.4-0.7-0.4-1.1-0.1c-0.1,0.1-0.2,0.2-0.3,0.4c-0.3,0.5-0.3,0.6,0.2,0.9c0.8,0.2,1.3,0.7,1.9,1.3L66.2,44.5z M28.3,91.2
					c-0.4,0.2-0.8,0.6-1.1,1c-0.2,0.4-0.5,0.9-0.7,1.3c-0.1,0.2-0.2,0.7-0.3,1l0.1,0.1c0.4-0.2,0.7-0.5,1-0.8
					c0.6-0.6,0.8-1.2,1.1-2.4l0.1-0.1L28.3,91.2z M80.8,41.8c-0.3-0.7-0.9-1.6-1.2-1.9c-0.3-0.4-0.5-0.4-0.8-0.1
					c-0.1,0.1-0.2,0.2-0.3,0.4c-0.3,0.4-0.6,1,0,1.1c0.5,0.1,1.2,0,1.5,0.2c0.3,0.2,0.6,0.4,0.7,0.5L80.8,41.8z M20.4,74.1
					c-0.1,0.9-0.1,0.9-0.1,1.5c0,0.3,0.2,0.3,0.5,0.4c0.3,0,0.3-0.2,0.4-0.6l0.2-1.2c0.1-0.4,0.1-0.6-0.2-0.7
					C20.7,73.4,20.4,73.7,20.4,74.1z M25,57.8c-0.4-0.1-0.8-0.2-1.1-0.4c-0.6-0.3-1.2-1-1.1-1.6c0.1-0.3,0.2-0.4,0.4-0.2
					c0.5,0.3,0.8,0.8,1.2,1.2C24.7,57.1,24.9,57.4,25,57.8L25,57.8z M29.5,72.1c0,0.2,0.2,1,0.3,1.4c0,0.2,0.1,0.4,0.4,0.4
					c0.4-0.1,0.5-0.2,0.5-0.6c-0.1-0.4-0.1-0.7-0.2-1.1c-0.1-0.4-0.2-0.6-0.5-0.5C29.5,71.6,29.4,71.7,29.5,72.1z M47.2,49.4
					c-0.2,0.5-0.5,0.9-0.8,1.3c-0.2,0.3-0.6,0.5-0.9,0.8c-0.3,0.1-0.3,0.1-0.2-0.2c0.5-0.8,0.9-1.4,1.4-2
					C47.1,49.1,47.2,49.2,47.2,49.4L47.2,49.4z M71.1,61.9c0,0.3-0.1,0.5-0.1,0.8l-0.1,0c-0.4-0.9-1.3-2.4-1.2-2.6
					c0-0.1,0.2-0.2,0.3-0.1l0.4,0.2C70.7,60.7,70.9,61.3,71.1,61.9z M73.7,42c0.1,0,0.2,0.1,0.3,0.1c0.2,0.1,0.2,0.3,0,0.4
					c-0.6,0.3-1.5,0.8-2.1,1c-0.1,0.1-0.2,0.1-0.2-0.1C71.8,43,73.2,42,73.7,42z M53.3,68.1c-0.4,0-0.7,0.3-0.7,0.6
					c0,0.4,0.5,0.7,0.8,0.7c0.3,0,0.6-0.2,0.6-0.6C54.1,68.4,53.8,68.1,53.3,68.1z M21.9,98.5c-0.1,0-0.2,0.3-0.4,0.3
					c-0.5,0-0.6,0.1-0.6,0.3c0,0.3,0.1,0.4,0.4,0.4c0.7-0.2,0.9-0.2,1.8-0.1l0.3-0.4c-0.1-0.1-0.2-0.2-0.3-0.2
					C22.7,98.5,22.3,98.5,21.9,98.5z M63.9,63.8c-0.2,0.1-0.3,0.2-0.2,0.4l0.1,0.3c0.3-0.1,0.6-0.1,0.9-0.1c0.4,0.1,1,0.3,1.4,0.3
					c0.1,0,0.2-0.1,0.3-0.2c0,0-0.1-0.1-0.1-0.2C65.7,63.9,64.8,63.9,63.9,63.8L63.9,63.8z M37.6,51.7l-1-0.4c-0.1,0-0.1-0.2,0-0.3
					c0.2-0.3,0.4-0.6,0.7-0.9c0.1-0.1,0.2-0.1,0.3,0.1l0.5,1.2C38.1,51.6,38,51.7,37.6,51.7z M24.8,63.8c0.2-0.1,0.3,0.1,0.3,0.3
					c0,0.1-0.1,0.2-0.2,0.3c-0.7,0.2-1.4,0.2-2.2,0.1c-0.2,0-0.4-0.1-0.4-0.1c0.1-0.1,0.2-0.2,0.3-0.2L24.8,63.8z M31.6,44.5
					c-0.1,0-0.2,0.1-0.2,0.1c-0.6-0.4-1.5-0.8-2.1-1.2c-0.1-0.2-0.1-0.3,0.1-0.2c0.5,0.2,1.3,0.4,1.7,0.6
					C31.5,43.8,31.6,44.1,31.6,44.5z M41.4,58.5c0.1,0.1,0.1,0.2-0.1,0.5c-0.3,0.5-0.4,1-0.6,1.7c-0.1,0.1-0.1,0.3-0.2,0.4
					c-0.1,0.1-0.2,0.1-0.3,0.1c0-0.1-0.1-0.2-0.1-0.3l0.6-2.1C40.9,58.7,41.1,58.6,41.4,58.5z M64.7,51.4c-0.9-0.2-1.7-0.5-2.5-0.9
					c-0.3-0.2-0.2-0.2,0.1-0.2l2.4,0.6C65.1,51.3,65,51.3,64.7,51.4L64.7,51.4z M54.9,66.5c-0.1-0.2-0.2-0.4-0.3-0.4
					c-0.1-0.1-0.3,0-0.5,0.1c-0.1,0.1-0.3,0.2-0.4,0.3c-0.2,0.2-0.1,0.5,0.2,0.7c0.2,0.2,0.5,0.2,0.7-0.1
					C54.8,66.9,54.9,66.8,54.9,66.5z M39.2,54.9c-0.1,0.2-0.1,0.4-0.2,0.5c-0.3,0.4-0.7,0.8-1,1.1c-0.3,0.2-0.3-0.1-0.3-0.2
					c0.3-0.6,0.8-1.1,1.2-1.6c0.1-0.1,0.2-0.1,0.2-0.1C39.1,54.6,39.2,54.7,39.2,54.9L39.2,54.9z M25.7,51.5
					c-0.1,0.1-1.3-1.9-1.5-2.3c0-0.1,0.2-0.2,0.3-0.3c0.1,0.1,0.2,0.1,0.2,0.2C25.2,50,25.9,51.4,25.7,51.5L25.7,51.5z M25.2,59.5
					l-0.5-0.2c-0.4,0.1-0.7,0.3-1.2,0.3c-0.5,0-0.7-0.1-0.8-0.2c0.1-0.1,0.3-0.3,0.7-0.4c0.2,0,1.2-0.1,2-0.1L25.2,59.5z M73.8,49.4
					l1.4,1c0.1,0.1,0.1,0.3,0.2,0.4l-0.3,0c-0.6-0.3-1.2-0.5-1.6-1.1C73.1,49.2,73.6,49.2,73.8,49.4z M38.7,51.1l-0.2,0.2
					c-0.1-0.1-0.1-0.1-0.2-0.2c-0.1-0.2-0.1-0.5-0.1-0.8c-0.1-0.6,0-0.9,0.3-1.3c0.1-0.2,0.3-0.1,0.3,0.1
					C38.8,49.9,38.8,50.3,38.7,51.1z M29.8,48.9c0.1,0.1,0.3,1.5,0.5,2.2c0,0.2,0,0.4,0,0.5c-0.1,0.2-0.1,0.2-0.3,0.1
					c-0.2-0.8-0.3-1.5-0.5-2.3C29.6,49.3,29.6,49,29.8,48.9z M70.3,57.6c0.6,0.3,1.2,0.9,1.5,1.2c0.1,0.1,0,0.3,0,0.4
					c-0.1,0-0.2-0.1-0.3-0.1c-0.5-0.3-0.9-0.6-1.4-1c-0.1-0.1-0.1-0.4-0.1-0.5C70.1,57.7,70.2,57.6,70.3,57.6z M44.2,45.2
					c0.1,0.1,0.1,0.1,0.2,0.2c-0.1,0.1-0.1,0.2-0.2,0.2c-0.4,0.2-1.3,0.2-1.7-0.1c-0.1-0.1-0.1-0.2-0.2-0.2l0.3-0.2
					C43.1,45,43.7,45.1,44.2,45.2L44.2,45.2z M54.9,47.5c0.4,0.6,0.5,1.2,0.7,1.8c0,0,0,0.1,0,0.1c-0.1-0.1-0.1-0.1-0.2-0.1
					c-0.5-0.4-0.8-1-1-1.6c-0.1-0.1,0-0.3,0.2-0.4C54.8,47.4,54.9,47.5,54.9,47.5z M47.5,88.7c0.5-0.3,0.6-0.5,1-0.7
					c0.2-0.1,0.1-0.1,0.1-0.3c-0.1-0.2-0.2-0.2-0.4-0.1c-0.4,0.2-0.6,0.3-1.1,0.4c-0.2,0.1-0.3,0.2-0.1,0.3L47.5,88.7z M33.6,46
					c0.5-0.4,1.2-0.6,1.7-0.8c0.1,0,0.2,0,0.3,0.1l-0.2,0.2c-0.5,0.3-1,0.6-1.4,0.9c-0.1,0-0.3-0.1-0.5-0.1
					C33.5,46.2,33.5,46.1,33.6,46z M19.3,57.8c-0.1-0.7-0.3-1.4-0.2-2c0-0.1,0.1-0.2,0.2-0.4c0.1,0.1,0.2,0.2,0.2,0.3
					c0.1,0.7-0.1,1.4-0.1,2.1L19.3,57.8z M50.3,43.3c0.4-0.3,1.1-0.7,1.6-1c-0.4,0.7-1,1.3-1.6,1.8C50.3,43.9,50.2,43.5,50.3,43.3z
					 M42.7,68.4c0,0.3,0.1,0.5,0.3,0.8c0.1-0.1,0.2-0.3,0.2-0.4c0.1-0.5,0.1-1,0.1-1.6c0.1-0.2-0.2-0.3-0.3-0.1
					C42.9,67.6,42.7,68,42.7,68.4z M68.9,89.3L66.7,90C67.2,90.6,68.7,90.1,68.9,89.3z M36.4,48.8c0,0.6-0.1,1.3-0.4,1.9
					c0,0.1-0.1,0.1-0.2,0.2c0-0.1-0.1-0.2-0.1-0.3c0.1-0.6,0.3-1.3,0.4-1.9c0,0,0.1-0.1,0.2-0.1L36.4,48.8z M67.3,91.4
					c0.5,0,0.9,0,1.3-0.1c0.3-0.2,0.3-0.6,0.4-0.9l-0.1,0l-0.5,0.5C68,90.9,67.7,91,67.3,91c-0.1,0.1-0.1,0.1-0.2,0.2
					C67.2,91.3,67.3,91.4,67.3,91.4L67.3,91.4z M62.9,67.5c0.2-0.4,0.3-0.7,0.4-1c0-0.1-0.1-0.2-0.2-0.4c-0.1,0-0.2,0.1-0.3,0.1
					c-0.3,0.3-0.5,0.7-0.7,1.1C62.2,67.4,62.4,67.4,62.9,67.5L62.9,67.5z M26,58.1l0.5-1.2c0.1,0,0.2,0,0.2,0c0.1,0.4,0,0.9,0,1.2
					c-0.1,0.3-0.2,0.5-0.5,0.7C26,58.5,26,58.3,26,58.1z M52.9,66.9c-0.3,0-0.6,0.2-0.6,0.5c0,0.2,0.3,0.5,0.5,0.5
					c0.3,0,0.5-0.2,0.5-0.5C53.4,67.1,53.2,66.9,52.9,66.9z M52.6,69.9c0-0.3-0.2-0.5-0.5-0.5c-0.3,0-0.5,0.2-0.5,0.4
					c0,0.3,0.3,0.6,0.6,0.5C52.5,70.3,52.6,70.2,52.6,69.9z M51.4,66.9c0,0.3-0.2,0.4-0.4,0.4c-0.3,0-0.6-0.2-0.6-0.5
					c0-0.2,0.2-0.5,0.5-0.5C51.1,66.3,51.4,66.5,51.4,66.9z M51.6,68.1c-0.3,0-0.5,0.2-0.5,0.4s0.3,0.5,0.5,0.5
					c0.2,0,0.4-0.2,0.4-0.5C52.1,68.3,51.9,68.1,51.6,68.1z M48.5,89.6c-0.4,0-0.7,0.2-0.7,0.4c0,0.2,0.3,0.5,0.5,0.5
					c0.2,0,0.4-0.2,0.4-0.6C48.7,89.6,48.7,89.6,48.5,89.6z M25.7,44.1c-0.2-0.7-0.1-1.4,0.1-2.1C26.1,42.6,26.2,43.6,25.7,44.1z
					 M52.6,65.1c-0.2,0.1-0.3,0.3-0.3,0.4c0,0.1,0.2,0.3,0.3,0.4c0.1-0.1,0.3-0.2,0.3-0.4C52.9,65.5,52.7,65.3,52.6,65.1L52.6,65.1z
					"/>
				<path id="path4" class="st0" d="M178.1,71.5V77h1.5c2.1,0,3.1-1.1,3.1-2.8c0-1.3-0.7-2.7-3.5-2.7H178.1z M184,84.1
					c-1.5-2-3-4-4.4-6.1h-1.5v5.1l2.3,0.2v0.9c-1.1,0-1.8-0.1-2.7-0.1h-1.6c-0.9,0-1.8,0-2.8,0.1v-0.9l2.4-0.2V71.5l-2.5-0.2v-0.9
					c1.3,0.1,2.3,0.1,3,0.1h3.4c3,0,5.6,1,5.6,3.7c0,1.8-1.4,2.9-3.2,3.4c1.3,2,2.7,3.9,4.4,5.6l1.5,0.2v0.9L184,84.1z M150.2,71.5
					l-2.4-0.2v-0.9l2.8,0.1h1.6l2.9-0.1v0.9l-2.5,0.2v11.6l2.5,0.2v0.9c-1.1,0-2-0.1-2.9-0.1h-1.6c-0.9,0-1.8,0-2.8,0.1v-0.9
					l2.4-0.2V71.5L150.2,71.5z M144.4,71.5l-4.6,12.8H138l-4.6-12.8l-1.7-0.2v-0.9l3.1,0.1l3.5-0.1v0.9l-2.3,0.2l3.5,10.2l3.4-10.2
					l-2.3-0.2v-0.9l2.9,0.1l2.4-0.1v0.9L144.4,71.5z M80.2,83.1V71.5l-2.5-0.2v-0.9c1.3,0.1,2.3,0.1,2.9,0.1h7l0.2-0.8h1v3.9h-1
					l-0.4-2.1h-4.8v5.3h3.5l0.3-1.6h0.9v4.1h-0.9l-0.3-1.5h-3.5v4.1c0,0.9,0.1,1,0.1,1.1c0.1,0.1,0.2,0.1,1.8,0.1H86
					c1.1,0,1.7-0.1,1.9-0.3c0.3-0.3,0.6-1,0.9-2.5h0.9l-0.4,3.9h-7.9c-1.3,0-2.8,0-3.8,0.1v-0.9L80.2,83.1L80.2,83.1z M115.5,80.6
					c0,2.3-2,3.7-4.6,3.7c-1.3,0-2.6-0.4-3.5-1l-0.2,1.1h-0.9v-4.6h0.9c0.1,0.6,0.2,1.4,0.4,2c0.8,0.8,2.1,1.4,3.3,1.4
					c1.5,0,2.4-0.9,2.4-2.2c0-3.1-6.7-3.1-6.7-7.4c0-2.3,1.9-3.6,4.3-3.6c0.9,0,1.9,0.2,2.6,0.5l0.3-1h0.9v4h-0.9
					c-0.1-0.6-0.2-1.2-0.4-1.8c-0.7-0.4-1.4-0.7-2.2-0.7c-1.4,0-2.4,0.6-2.4,2C108.8,76.2,115.5,76.2,115.5,80.6L115.5,80.6z
					 M95.2,83.1V71.5l-2.5-0.2v-0.9c1.3,0.1,2.3,0.1,2.9,0.1h1.6l2.9-0.1v0.9l-2.5,0.2V82c0,0.7,0,0.9,0.1,1
					c0.1,0.1,0.8,0.1,1.7,0.1h0.7c1.3,0,1.7-0.1,1.9-0.3c0.3-0.3,0.6-1,1-3h0.9l-0.3,4.4h-7.4c-1.4,0-2.6,0-3.7,0.1v-0.9L95.2,83.1z
					 M121,83.1V71.5l-2.5-0.2v-0.9c1.3,0.1,2.3,0.1,3,0.1h6.8l0.2-0.8h1v3.9h-1l-0.4-2.1h-4.8v5.3h3.5l0.3-1.6h0.9v4.1h-0.9
					l-0.3-1.5h-3.5v4.1c0,0.9,0,1,0.1,1.1c0.1,0.1,0.2,0.1,1.8,0.1h1.7c1.1,0,1.7-0.1,1.9-0.3c0.3-0.3,0.6-1,0.9-2.5h1l-0.4,3.9
					h-8.2c-1.3,0-2.7,0-3.8,0.1v-0.9L121,83.1L121,83.1z M160.7,83.1V71.5l-2.5-0.2v-0.9c1.3,0.1,2.3,0.1,3,0.1h6.8l0.2-0.8h1v3.9
					h-0.9l-0.4-2.1h-4.8v5.3h3.5l0.3-1.6h0.9v4.1h-0.9l-0.3-1.5h-3.5v4.1c0,0.9,0.1,1,0.1,1.1c0.1,0.1,0.2,0.1,1.8,0.1h1.4
					c1.1,0,1.7-0.1,1.9-0.3c0.3-0.3,0.6-1,0.9-2.5h0.9l-0.4,3.9H162c-1.3,0-2.8,0-3.8,0.1v-0.9L160.7,83.1L160.7,83.1z"/>
			</g>
		</g>
	</g>
</g>
</svg>
