<?xml version="1.0" encoding="utf-8"?>
<!-- Generator: Adobe Illustrator 26.2.1, SVG Export Plug-In . SVG Version: 6.00 Build 0)  -->
<!DOCTYPE svg PUBLIC "-//W3C//DTD SVG 1.1//EN" "http://www.w3.org/Graphics/SVG/1.1/DTD/svg11.dtd" [
	<!ENTITY ns_extend "http://ns.adobe.com/Extensibility/1.0/">
	<!ENTITY ns_ai "http://ns.adobe.com/AdobeIllustrator/10.0/">
	<!ENTITY ns_graphs "http://ns.adobe.com/Graphs/1.0/">
	<!ENTITY ns_vars "http://ns.adobe.com/Variables/1.0/">
	<!ENTITY ns_imrep "http://ns.adobe.com/ImageReplacement/1.0/">
	<!ENTITY ns_sfw "http://ns.adobe.com/SaveForWeb/1.0/">
	<!ENTITY ns_custom "http://ns.adobe.com/GenericCustomNamespace/1.0/">
	<!ENTITY ns_adobe_xpath "http://ns.adobe.com/XPath/1.0/">
]>
<svg version="1.1" id="Capa_1" xmlns:x="&ns_extend;" xmlns:i="&ns_ai;" xmlns:graph="&ns_graphs;"
	 xmlns="http://www.w3.org/2000/svg" xmlns:xlink="http://www.w3.org/1999/xlink" x="0px" y="0px" viewBox="0 0 200 140"
	 style="enable-background:new 0 0 200 140;" xml:space="preserve">
<style type="text/css">
	.st0{fill-rule:evenodd;clip-rule:evenodd;fill:#FDFDFD;}
	.st1{filter:url(#Adobe_OpacityMaskFilter);}
	.st2{fill-rule:evenodd;clip-rule:evenodd;fill:#FFFFFF;}
	.st3{mask:url(#mask-2_00000153682285272767170100000006261246758724796552_);fill-rule:evenodd;clip-rule:evenodd;fill:#333740;}
	.st4{fill-rule:evenodd;clip-rule:evenodd;fill:#333740;}
</style>
<metadata>
	<sfw  xmlns="&ns_sfw;">
		<slices></slices>
		<sliceSourceBounds  bottomLeftOrigin="true" height="69.9" width="114.9" x="42" y="35.1"></sliceSourceBounds>
	</sfw>
</metadata>
<desc>Created with Sketch.</desc>
<g id="Page-1">
	<g id="_x31_-Home" transform="translate(-1228.000000, -837.000000)">
		<g id="Logos-Editoriales" transform="translate(0.000000, 807.000000)">
			<g id="Marbán" transform="translate(1228.000000, 30.000000)">
				<path id="Fill-1" class="st0" d="M89.1,58.1c0.1-0.1,0.1-0.1,0.2-0.2C89.2,57.9,89.2,58,89.1,58.1"/>
				<g id="Group-5" transform="translate(42.000000, 60.363333)">
					<g id="Clip-4">
					</g>
					<defs>
						<filter id="Adobe_OpacityMaskFilter" filterUnits="userSpaceOnUse" x="0" y="0.1" width="114.9" height="44.5">
							<feColorMatrix  type="matrix" values="1 0 0 0 0  0 1 0 0 0  0 0 1 0 0  0 0 0 1 0"/>
						</filter>
					</defs>
					
						<mask maskUnits="userSpaceOnUse" x="0" y="0.1" width="114.9" height="44.5" id="mask-2_00000153682285272767170100000006261246758724796552_">
						<g class="st1">
							<polygon id="path-1_00000125565333794063283890000003012010690672406688_" class="st2" points="0,0.1 114.9,0.1 114.9,44.6 
								0,44.6 							"/>
						</g>
					</mask>
					<path id="Fill-3" class="st3" d="M114.9,5.6c-0.4,0.3-0.3,0.8-0.5,1.1c-0.5,1.1-1.3,1.9-2.5,2.3c-2.6,0.7-5.1,1.7-7.8,1.7
						c-1.1,0-2.4,0.3-2.9,1.7c0,0.1-0.3,0.3-0.5,0.3c-3,0.8-5.9,1.6-8.9,1.9c-1,0.1-2.1,0.2-3.1,0.6c-1.9,0.9-3.9,1.7-5.9,2.1
						c-1.4,0.3-2.6,1-3.9,1.4c-3.1,1.1-6.6,1.1-9.5,2.8c-0.9,0.5-2.1,0.6-3.2,0.7c-2.7,0.4-5.3,1.1-7.6,2.6
						c-1.4,0.9-3.1,1.1-4.7,1.2c-0.6,0-1.2,0-1.5,0.4c-0.9,1.3-2.4,1.5-3.6,2.3c-0.5,0.4-1.1,0.4-1.7,0.1c-0.9-0.4-1.8-0.2-2.5,0.5
						c-1,0.9-2.2,1.4-3.4,1.9c-0.7,0.3-1.4-0.2-2.1-0.4c-0.6-0.1-1.1-0.2-1.5,0.3c-0.5,0.6-1.2,0.9-2,0.9c-1.1-0.1-1.9,0.3-2.8,0.9
						c-0.8,0.6-1.7,1-2.7,1.4c-0.9,0.3-1.7,0.3-2.7,0.2c-1.8-0.4-3.6-0.4-5.2,1c-1.5,1.3-3.2,2.2-4.9,3.1C17.3,38.8,17.1,39,17,39
						c-1.4-0.7-2,0.6-3,1.1c-1.4,0.8-2.9,1.5-4.5,1.7c-0.7,0.1-1.4,0.4-2.1,0.7C5.2,43.2,3,44,0.7,44.5c-0.2,0-0.4,0-0.7,0
						c2.6-1.5,5.2-3,7.7-4.4c1.7-1,3.3-2,4.4-3.7c0.5-0.8,1.3-1.2,2.2-1.5c1-0.3,1.6-1.2,2.6-1.5c3.8-1.3,7.7-2.7,10.9-5.2
						c0.7-0.6,1.6-0.4,2.5-0.5c0.7-0.1,1.3-0.3,1.9-0.6c2.2-1.1,4.6-1.5,6.8-2.3c2.8-1,5.7-1.7,7.7-4.2c0.4-0.5,0.9-0.7,1.5-0.8
						c2.8-0.4,5.4-1.3,8-2.3c2.3-0.9,4.8-1.6,7.2-2.4c4.1-1.3,8.1-2.7,12.2-3.6c1.1-0.2,2.2-0.6,3.3-0.7c2.9-0.4,5.6-1.4,8-2.9
						c2.6-1.6,5.6-2.1,8.4-2.9c1.9-0.6,3.8-1,5.7-1.5c0.8-0.2,1.5-0.4,2.1-0.9c0.7-0.5,1.5-0.7,2.4-0.9c3.1-0.5,6.2-1.4,9.4-1.7V5.6
						z"/>
				</g>
				<path id="Fill-6" class="st4" d="M89.1,58c0.1-0.1,0.1-0.1,0.2-0.2C89.2,57.9,89.2,58,89.1,58"/>
				<path id="Fill-8" class="st4" d="M89.3,57.8C89.3,57.8,89.3,57.8,89.3,57.8C89.3,57.8,89.3,57.8,89.3,57.8L89.3,57.8z"/>
				<path id="Fill-10" class="st4" d="M156.5,35h-1.4c-0.3,0.3,0,0.9-0.7,0.9c-1.2,0-2.3,0.5-3.4,0.6c-2.9,0.3-5.3,1.9-8,2.5
					c-1.7,0.4-3.2,1.6-5.1,1.7c-0.9,0.1-2,0.2-2.8,0.6c-2,1-4.3,0.9-6.2,2c-0.4,0.2-0.8,0.4-1.2,0.5c-0.3,0-0.6,0-0.8,0.1
					c-1.3,0.2-5.7,2.1-6.8,2.6c-1.7,0.4-3.6,0.3-5.2,1.4c-0.2,0.2-0.6,0.1-0.9,0.1c-0.4,0.6-0.9,1.2-1.5,1.8c0,0,0,0-0.1,0
					c0,0,0,0,0,0l0,0c-0.8,0.7-6.9,2.5-8.1,2.8c-0.7,0.2-2.5,0.9-4,1.4c-0.3,0.1-0.6,0.2-0.9,0.3c-0.7,0.3-1.2,0.4-1.2,0.4l-5,1.8
					c-1.3,0.3-2.4,1.1-3.8,1.1c-0.1,0.1-0.1,0.1-0.2,0.2c-0.1,0-0.2,0.1-0.3,0.1c-2.5,1-5,2-7.4,3.2c-1.1,0.6-2.5,0.7-3.3,1.6
					c-0.9,1-1.9,1.8-3.3,2.2c-1.2,0.3-2.4,0.4-3.5,1.1c0.1,0.2,0.6,0,0.5,0.6c-0.1,0.6-0.5,0.4-0.8,0.4c-3.4-0.1-6.2,1.7-9,3.2
					c-1.1,0.6-2.3,1.3-3.5,1.9c-1.2,0.6-2,1.7-3.2,2.3c-0.8,0.4-1.5,1.2-2.4,1.3c-0.8,0.1-1.4,0.4-1.8,0.9c-0.5-0.2,0-0.8-0.5-1
					c-0.8,0.5-0.9,1.7-1.5,2c-1.7,0.8-3,2.5-5.2,3c0.7,0.2,1,0.1,1.3,0c1.4-0.4,2.7-1.1,4-1.8c0.3-0.1,0.6-0.6,0.7,0.1
					c0.2,0.8,0.2,0.8,0.8,0.4c0.1-0.1,0.3-0.2,0.4-0.2c2-0.2,4-0.7,5.7-1.9c0.9-0.6,1.8-1,2.9-1.3c1-0.3,1.9-1.1,3.1-1.3
					c0.6-0.1,0.8-1,1.6-0.9c1.1,0.2,2.2,0.3,2.9-0.9c0.1-0.1,0.2-0.1,0.3-0.2c1.9-1.4,4.2-1.6,6.3-2.4c0.1-0.1,0.3,0,0.5-0.1
					c1.6-0.4,3.2-1,4.6-1.8c1.1-0.7,2.1-1.4,3.4-1.9c2.6-1,5.6-0.9,8-2.4c0.1,0,0.2,0,0.2,0c1.4,0.4,2.6-0.4,3.9-0.8
					c1.4-0.4,2.4-1.6,3.8-2c3.4-0.9,6.5-2.4,10-3.1c0.2,0,0.5-0.2,0.7-0.4c0,0,2.6-0.9,5.5-2c0.6,0,1.2-0.4,1.8-0.6c0,0,0.1,0,0.1,0
					c0.2-0.1,0.3-0.1,0.5-0.1c0,0,0-0.1,0-0.1c2.2-0.8,4.2-1.4,5-1.7c1.3-0.4,5.3-1.4,9.1-2.4c0.8-0.2,1.7-0.4,2.5-0.6c0,0,0,0,0,0
					c2.1-0.5,4-1,4.8-1.3c2.7-0.8,11.6-3,11.6-3l0,0c0.2-0.1,0.4-0.1,0.6-0.2c1.2-0.5,2.4-1,3.6-1.3c1.6-0.4,2-1.5,2.2-2.8
					C156.9,39.5,156.2,37.3,156.5,35"/>
				<path id="Fill-12" class="st4" d="M154.7,48c-1.8,1.1-3.8,1.4-5.8,1.5c-1.4-0.2-2.1,0.8-3.1,1.4c-1,0.5-5.6,2-7.3,2.3
					c-1.6,0.3-5,1.3-5.8,1.6c0,0-0.1,0-0.1,0c0,0,0,0,0,0c-0.5,0.1-4.3,0.9-4.8,1.2c-0.2,0.1-0.7,0.4-1.2,0.7c0,0,0,0,0,0
					c-0.1,0-0.1,0.1-0.2,0.1c-0.4,0.2-0.7,0.4-0.7,0.4c-1.1,0.5-2.2,0.7-3.5,0.7c-0.7,0-1.4,0.3-1.8,0.9c-0.8,1-1.8,1.1-2.9,1.2
					c-1.1,0-2.1,0.3-3.2,0.7c-1,0.4-1.6,1.3-2.6,1.6c-2.8,1-5.6,2-8.4,3.1c-1.9,0.8-3.8,1.7-5.8,2.4c-1.4,0.5-2.9,0.5-4.3,1.2
					c-0.8,0.4-1.4,1.1-2.3,1.1c-1.6,0.1-2.9,1.1-4.3,1.6c-2.7,0.9-5.1,2.5-7.8,3.4c-0.7,0.2-1.4,0.6-2,1.2c-0.6,0.6-1.4,1-2.2,1.2
					c-3.9,1-7.5,2.8-11.2,4.4c-0.3,0.1-0.6,0.2-0.8,0.5c-0.8,1.2-2.1,1.6-3.4,2c-0.9,0.3-1.9,0.6-2.2,1.7c-0.1,0.4-0.4,0.3-0.8,0.4
					c-1.5,0.2-2.7,1.2-3.9,2c-0.6,0.4-1.1,0.8-1.9,0.8c0.2-0.6,0-0.9-0.4-0.7c-0.7,0.5-1.3,1-2.1,1.3C48,90,48,90,48,90
					c0.5,0.8-0.3,0.9-0.7,1.2c-0.8,0.6-1.6,1-2.4,1.5c1-0.3,2-0.4,3-0.6c0.3-0.1,0.4-0.3,0.6-0.6c0.2-0.3-0.2-0.9,0.4-0.9
					c0.5,0.1,0.3,0.6,0.5,1c0.1,0.2-0.1,0.6,0.4,0.7c0.6-1,1.8-0.7,2.8-0.9c3.5-0.9,6.5-3.2,9.9-4.3c0.5-0.2,1-0.4,1.5-0.4
					c1.2-0.2,2.5-0.3,3-1.6c0.2-0.5,0.6-0.8,1.1-1c1.3-0.4,2.5-0.9,3.8-1c2.7-0.4,5.1-1.4,7.4-2.7c1.5-0.8,3-1.7,4.7-2.1
					c1.9-0.4,3.7-0.6,5.4-1.5c0.2-0.1,0.5-0.1,0.8-0.2c1.3-0.2,2.7-0.2,3.8-1.2c0.2-0.2,0.5-0.2,0.8-0.1c0.9,0,1.6-0.3,2.2-0.9
					c0.3-0.3,0.5-0.5,1-0.6c2.1-0.4,4.1-1.5,6.2-1.9c3-0.6,5.7-2.2,8.6-3c1.6-0.5,3.1-1.3,4.7-1.4c2.1-0.2,3.6-1.9,5.8-1.8
					c0.1,0,0.2-0.1,0.3-0.2c1.6-0.9,3.2-2.1,5.3-1.2c0.1,0.1,0.4,0,0.6-0.1c2.1-1.1,4.5-1.3,6.5-2.7c1.2-0.8,2.9-1.5,4.1-1.2
					c2,0.5,3.7-0.1,5.4-0.5c2-0.5,4-0.8,6-1.6c1.1-0.5,2.1-1.1,3.3-1.3c0.6-0.1,1.2-0.6,1.2-1.4c0-2.2,0.1-4.4,0.1-6.6
					C155.9,47.7,155.7,47.5,154.7,48"/>
				<path id="Fill-14" class="st2" d="M124,51.3l0.2-0.8l0.2,0.8H124z M75,51.3l0.2-0.8l0.2,0.8H75z M90.7,47.1h1
					c0.8,0,1.1,0.1,1.1,0.1c0,0,0.1,0.1,0.1,0.3c0,0.1,0,0.2-0.1,0.2c0,0.1-0.1,0.1-0.1,0.1c-0.8,0.2-1,0.2-1,0.2h-0.9V47.1z
					 M107,52.8h1.3c0.8,0,1,0.2,1,0.2c0.1,0.1,0.1,0.1,0.1,0.3c0,0.2-0.1,0.3-0.1,0.3c0,0-0.2,0.2-1,0.2H107V52.8z M107,47.9v-0.8h1
					c0.6,0,0.8,0.1,0.8,0.1c0,0,0.1,0,0.1,0.2c0,0.1,0,0.2-0.1,0.3c0,0-0.2,0.1-0.8,0.1H107z M148.9,42h-5.5h-0.5v0.5v5.5l-3.9-5.8
					l-0.1-0.2h-0.2h-5.2h-0.5v0.5v13.8l-5.3-14l-0.1-0.3h-0.3h-1.1l3.4-3.2l0.9-0.8h-1.2h-5.4h-0.3l-0.1,0.2l-2.1,3.7H121l-0.1,0.3
					l-4.9,13c0.1-0.5,0.2-1,0.2-1.5c0-1.2-0.3-2.2-1-3c-0.3-0.3-0.6-0.6-0.9-0.8c0,0,0.1-0.1,0.1-0.1c0.7-0.8,1.1-1.8,1.1-3
					c0-1.4-0.5-2.5-1.5-3.4c-1-0.9-2.3-1.4-4.1-1.4h-9.3h-0.5v0.5v14.2l-1.8-3.4c-0.1-0.3-0.4-0.6-0.8-1.1c-0.2-0.2-0.3-0.4-0.4-0.5
					c0.7-0.5,1.2-1,1.7-1.7c0.5-0.8,0.7-1.7,0.7-2.7c0-1.2-0.3-2.2-0.9-3c-0.6-0.9-1.4-1.4-2.4-1.8c-0.9-0.3-2.1-0.4-3.6-0.4h-8.3
					h-0.5v0.5v13.9l-5.3-14.1L78.5,42h-0.3h-5.9H72l-0.1,0.3l-5.2,13.9V42.5V42h-0.5h-3.3h-1h-2.9h-0.4l-0.1,0.4L57.2,48l-1.4-5.6
					L55.6,42h-0.4h-2.9h-1h-3.3h-0.5v0.5v16.2v0.5h0.5h5h0.5v-0.5V55l1,3.8l0.1,0.4H55h4.3h0.4l0.1-0.4l1-3.8v3.7v0.5h0.5h4.3h0.6h0
					h0.4h5.6h0.3l0.1-0.3l0.6-2.1h3.7l0.7,2.1l0.1,0.3h0.3h5.8h0.4h0.1H85h5.3h0.5v-0.5v-5.4c0.1,0.1,0.2,0.3,0.4,0.7l2.7,4.9
					l0.1,0.2h0.3h6.5h0h8.6c0.4,0,1.1-0.1,2.2-0.2c0.9-0.1,1.6-0.3,2.2-0.6c0.8-0.5,1.4-1.1,1.9-1.9c0.1-0.1,0.1-0.3,0.2-0.4
					l-0.9,2.5l-0.2,0.6h0.7h6h0.3l0.1-0.3l0.6-2.1h3.7l0.7,2.1l0.1,0.3h0.3h5.8h0.4h0.1h0.6h4.9h0.5v-0.5v-5.4l3.9,5.7l0.1,0.2h0.2
					h5.3h0.5v-0.5V42.5V42H148.9z"/>
				<polygon id="Fill-16" class="st4" points="48.7,43 54.8,43 57.2,52.2 59.5,43 65.6,43 65.6,58.1 61.8,58.1 61.8,46.6 58.9,58.1 
					55.5,58.1 52.5,46.6 52.5,58.1 48.7,58.1 				"/>
				<path id="Fill-18" class="st4" d="M76.9,52.3l-1.7-5.4l-1.6,5.4H76.9z M77.8,55.6h-5.3l-0.7,2.5h-4.7l5.6-15h5.1l5.6,15h-4.9
					L77.8,55.6z"/>
				<path id="Fill-20" class="st4" d="M89.7,49.1h2c0.2,0,0.6-0.1,1.2-0.2c0.3-0.1,0.6-0.2,0.8-0.5c0.2-0.3,0.3-0.5,0.3-0.9
					c0-0.5-0.2-0.9-0.5-1.1c-0.3-0.3-0.9-0.4-1.7-0.4h-2V49.1z M85,58.1V43h7.7c1.4,0,2.5,0.1,3.3,0.4c0.8,0.2,1.4,0.7,1.8,1.4
					c0.5,0.7,0.7,1.5,0.7,2.4c0,0.8-0.2,1.6-0.5,2.2c-0.4,0.6-0.8,1.1-1.5,1.5c-0.4,0.2-0.9,0.4-1.6,0.6c0.6,0.2,1,0.4,1.2,0.6
					c0.2,0.1,0.4,0.4,0.7,0.8c0.3,0.4,0.5,0.7,0.7,0.9l2.2,4.4h-5.2L92,53.5c-0.3-0.6-0.6-1-0.8-1.2c-0.3-0.2-0.7-0.3-1.1-0.3h-0.4
					v6.1H85z"/>
				<path id="Fill-22" class="st4" d="M106,54.8h2.4c0.8,0,1.4-0.1,1.7-0.4c0.3-0.3,0.5-0.7,0.5-1.1c0-0.4-0.2-0.8-0.5-1.1
					c-0.3-0.3-0.9-0.4-1.7-0.4H106V54.8z M106,48.9h2c0.7,0,1.2-0.1,1.5-0.4c0.3-0.2,0.4-0.6,0.4-1.1c0-0.4-0.1-0.8-0.4-1
					c-0.3-0.2-0.8-0.4-1.5-0.4H106V48.9z M101.3,43h8.7c1.4,0,2.6,0.4,3.3,1.1c0.8,0.7,1.2,1.6,1.2,2.7c0,0.9-0.3,1.7-0.8,2.3
					c-0.4,0.4-0.9,0.8-1.6,1c1.1,0.3,1.9,0.7,2.4,1.3c0.5,0.6,0.8,1.4,0.8,2.4c0,0.8-0.2,1.5-0.5,2.1c-0.4,0.6-0.9,1.1-1.5,1.5
					c-0.4,0.2-1,0.4-1.8,0.5c-1,0.1-1.7,0.2-2.1,0.2h-8V43z"/>
				<path id="Fill-24" class="st4" d="M125.9,52.3l-1.7-5.4l-1.6,5.4H125.9z M124.1,39.1h3.6l-3.3,3.1h-2L124.1,39.1z M126.8,55.6
					h-5.3l-0.7,2.5h-4.7l5.6-15h5.1l5.6,15h-4.9L126.8,55.6z"/>
				<polygon id="Fill-26" class="st4" points="134,43 138.3,43 144,51.4 144,43 148.3,43 148.3,58.1 144,58.1 138.3,49.8 
					138.3,58.1 134,58.1 				"/>
			</g>
		</g>
	</g>
</g>
</svg>
