<?xml version="1.0" encoding="utf-8"?>
<!-- Generator: Adobe Illustrator 27.2.0, SVG Export Plug-In . SVG Version: 6.00 Build 0)  -->
<svg version="1.1" id="Capa_1" xmlns="http://www.w3.org/2000/svg" xmlns:xlink="http://www.w3.org/1999/xlink" x="0px" y="0px"
	 viewBox="0 0 200 140" style="enable-background:new 0 0 200 140;" xml:space="preserve">
<style type="text/css">
	.st0{fill:#333740;}
	.st1{fill:#FFFFFF;}
</style>
<g>
	<rect x="45" y="15" class="st0" width="110" height="110"/>
	<path class="st1" d="M81.3,50.6l-1.7-17.8l-6,17.8h-5.9l-6.3-17.8l-1.3,17.8H54l2.8-26.7h7.6L71,42.3l6.3-18.3H85l3,26.7L81.3,50.6
		L81.3,50.6z"/>
	<path class="st1" d="M101.5,51.2c-6.4,0-10.4-4.6-10.4-10.4c0-6.1,4.7-10.6,10.7-10.6c4.4,0,6.9,2.1,7.1,2.5l-2.5,3.9
		c-1.1-0.7-2.4-1.2-3.7-1.2c-3.1,0-5.2,2.3-5.2,5.3c0,3.2,1.6,5.4,4.8,5.4c2.4,0,4.4-1.4,4.5-1.4l2.4,4
		C109.1,48.6,106.4,51.2,101.5,51.2z"/>
	<path class="st1" d="M69.4,116v-11.2h-8.9V116H54V89.4h6.6v10.2h8.9V89.4H76V116L69.4,116L69.4,116z"/>
	<path class="st1" d="M84.8,95.9c-1.9,0-3.4-1.6-3.4-3.5l0,0c0-1.9,1.6-3.4,3.5-3.3s3.4,1.6,3.3,3.5C88.1,94.4,86.6,95.9,84.8,95.9
		L84.8,95.9z M81.5,116V98.9H88V116H81.5z"/>
	<path class="st1" d="M93.5,116V89.4h6.1V116L93.5,116L93.5,116z"/>
	<path class="st1" d="M105.1,116V89.4h6.1V116L105.1,116L105.1,116z"/>
	<path class="st1" d="M66,83.7c-8.1,0-13.9-5.3-13.9-13.8c0-8.9,6.1-14.2,14.4-14.2c6.1,0,8.8,2.5,9.4,3.1L73,63.1
		c-1.8-1.3-4-2-6.2-1.9c-4.7,0-8.1,3.2-8.1,8.4c0,6,3.8,8.7,8,8.7c1.2,0,2.4-0.2,3.6-0.5V74h-4.8v-4.8H76v11.6
		C75.7,81,72.6,83.7,66,83.7z"/>
	<path class="st1" d="M140.8,82.6h-6.5L131,70.3l-2.9,12.2h-6.3l-5.7-19.8h6.1l3.1,12.8l3.3-12.8h5.4l3.3,12.8l3-12.8h5.8
		L140.8,82.6z"/>
	<path class="st1" d="M93.1,67.4c-2.1,0-4,1-5.1,2.7v12.5h-6.4V62.7h5.3v2.7c0.1-0.2,2.6-3.3,6.6-3.3c0,0,0.3,0,0.4,0
		c0.2,0,0.4,0,0.4,0L93.1,67.4z"/>
	<path class="st1" d="M108.2,82.7V81c-1.6,1.3-3.6,2.1-5.6,2.1c-4,0-6.5-2.7-6.5-6.5c0-6.3,8.9-6.8,11-6.8h0.4
		c0-0.6,0.2-1.8-0.5-2.4c-0.4-0.3-1-0.6-2.4-0.6c-1.4,0-2.8,0.3-4.1,0.8c-0.4,0.1-0.7,0.3-0.9,0.4l0,0l-2-3.9l0,0
		c0.3-0.2,0.7-0.4,1-0.5c2-0.9,4.1-1.3,6.3-1.3c3.1,0,5.3,0.8,6.9,2.3c1.7,1.7,1.6,4.1,1.6,6.5v11.7L108.2,82.7L108.2,82.7z
		 M107.6,73.4c-1.5,0-4.3-0.1-5.5,1.1c-0.4,0.4-0.7,1.1-0.7,1.7c0,1.9,1.5,2.4,2.5,2.4c1.3,0,2.6-0.4,3.7-1.1L107.6,73.4L107.6,73.4
		z"/>
</g>
</svg>
