<?xml version="1.0" encoding="utf-8"?>
<!-- Generator: Adobe Illustrator 27.2.0, SVG Export Plug-In . SVG Version: 6.00 Build 0)  -->
<svg version="1.1" id="Capa_1" xmlns="http://www.w3.org/2000/svg" xmlns:xlink="http://www.w3.org/1999/xlink" x="0px" y="0px"
	 viewBox="0 0 200 140" style="enable-background:new 0 0 200 140;" xml:space="preserve">
<style type="text/css">
	.st0{fill:#333740;}
</style>
<g id="XMLID_1_">
	<path id="XMLID_20_" class="st0" d="M148.2,93.8c-1.3-0.4-1.7-0.6-2.7-1.5c-1-0.9-1.5-2-1.5-3.2c0-1.4,0.5-2.2,2.7-4.1l1-0.8
		l-0.8-0.4c-1-0.6-1.9-1.6-2-2.5c-0.1-0.6,0-0.7,0.8-1.2c0.5-0.3,1.3-0.8,1.7-1.3l0.8-0.7l-0.8-0.5c-2.3-1.5-3.1-4.7-1.9-7.3
		c0.9-2.1,2.8-3.4,5.3-3.9c1.4-0.2,3.2,0,4.4,0.5c0.6,0.3,0.9,0.3,3.1,0.1c2.8-0.3,3.1-0.2,2.4,0.8c-0.9,1.3-1,1.4-2.1,1.3
		c-0.5,0-0.9,0-0.9,0c0,0,0.1,0.4,0.3,0.7c0.4,0.8,0.5,3,0.3,4.1c-0.4,1.8-2.1,3.4-4.1,4.1c-0.5,0.2-1.7,0.3-2.5,0.4
		c-1.7,0.1-2.1,0.2-2.6,1.2c-0.3,0.6-0.1,1,0.5,1.5c0.3,0.2,1,0.3,3.3,0.3c3.2,0,4.6,0.2,5.8,1.1c1,0.7,1.5,1.5,1.7,2.8
		c0.7,3.6-2.3,7.3-6.8,8.6C152.1,94.3,149.5,94.2,148.2,93.8L148.2,93.8z M154.8,91.6c1.9-0.8,3.1-2.9,2.6-4.7
		c-0.3-1.1-1.1-2-2.2-2.2c-1.1-0.2-4.3-0.3-5.1,0c-2.6,0.7-3.5,4-1.7,5.9c0.9,0.9,1.3,1.1,2.6,1.4C152.3,92.2,153.8,92.1,154.8,91.6
		L154.8,91.6z M153.7,76.1c1.7-1.6,1.4-6.4-0.5-7.8c-0.9-0.6-2.2-0.6-3,0c-2.2,1.9-1.9,6.7,0.5,8C151.6,77,152.9,76.8,153.7,76.1z
		 M79.2,92.4c0-0.6,0-0.6,0.8-0.8c0.4,0,1-0.3,1.2-0.5l0.4-0.4V80.1c0-11.9,0.1-11-1.4-11.3c-0.7-0.1-0.8-0.2-0.8-0.6
		c0-0.5,0.1-0.5,0.9-0.7c0.5-0.1,1.7-0.4,2.7-0.8c1-0.3,1.9-0.6,2-0.6c0.1,0,0.2,0.4,0.2,1.1c0,0.6,0,1.1,0.1,1.1
		c0,0,0.9-0.4,1.9-0.9c2.2-1.2,3-1.3,4.8-0.8c4.2,1.3,5.8,6.5,3.5,11.3c-0.6,1.4-2.6,3.4-4.1,4.1c-2.1,1.1-4,1.4-5.7,0.9l-0.4-0.1
		v3.8c0,2.1,0.1,4,0.2,4.2c0.2,0.4,0.9,0.6,2.2,0.8c0.8,0.1,0.8,0.1,0.7,0.7l0,0.6l-4.6,0l-4.6,0L79.2,92.4L79.2,92.4z M90,80.8
		c1-0.4,2-1.6,2.5-2.9c0.5-1.4,0.5-4.8,0-6.1c-1-2.8-3.4-3.8-6.1-2.5l-1.1,0.5v4.9c0,4.9,0,4.9,0.4,5.3C86.7,81.1,88.7,81.4,90,80.8
		z M65.6,83.1c-1.4-0.3-2.1-0.5-2.8-0.9c-0.5-0.3-0.6-0.3-0.8-2.1c-0.3-3.3-0.4-4.4-0.3-4.5c0.1,0,0.4-0.1,0.8-0.1
		c0.6,0,0.6,0,1,1.2c0.5,1.7,1,2.7,1.8,3.5c0.9,1,1.9,1.4,3.5,1.4c1.1,0,1.5,0,2.4-0.4c2.6-1.2,3.1-4.9,1-7.2
		c-0.8-0.8-1.7-1.4-3.9-2.6c-4-2.1-5.1-3.1-5.8-5.1c-0.4-1.4-0.3-3.7,0.3-5c0.9-1.8,2.5-3,4.7-3.6c1.7-0.4,4.9-0.3,6.8,0.3
		c1.6,0.5,1.5,0.2,1.7,3.8l0.1,2.4h-0.7c-0.7,0-0.7,0-1-0.8c-0.9-2.9-2.8-4.5-5.2-4.2c-2,0.2-3.1,1.3-3.3,3.2c0,0.6,0,1.5,0.1,1.9
		c0.4,1.3,2,2.7,5.1,4.2c4,2,5.6,3.7,6.1,6.3c0.2,1.4,0,2.6-0.6,4c-0.9,1.9-2.9,3.5-5.2,4.1C70.2,83.4,67.1,83.4,65.6,83.1
		L65.6,83.1z M167.3,82.9c-4.8-1.6-6.6-7.3-3.8-12.4c1.1-2.2,3.7-4,5.9-4.3c1.2-0.1,2.9,0.3,3.9,1c1.7,1.2,2.4,2.6,2.4,4.6
		c0,1.3,0,1.4-0.5,1.6c-0.2,0.1-2.5,0.3-5.1,0.4l-4.6,0.2l0.1,0.9c0.3,2,1.2,3.6,2.6,4.5c0.6,0.4,1.1,0.5,2.1,0.6
		c1.5,0.1,2.4-0.1,3.5-1l0.8-0.6l0.4,0.5c0.5,0.7,0.5,0.7-1.3,2.3c-1.1,1-2.4,1.5-4.1,1.5C168.7,83.2,167.8,83.1,167.3,82.9z
		 M172.2,72c0.3-0.2,0.3-0.8,0-1.8c-0.9-2.6-3.4-3-5.1-0.9c-0.4,0.5-1.2,2.5-1.2,3C165.8,72.5,171.9,72.2,172.2,72z M16.2,82v-1h1.3
		h1.3l0.1-0.7c0.4-2.4,1.6-4.2,5.2-7.9c2.6-2.5,4.4-4.6,4.4-4.9c0,0-0.8-0.1-1.8-0.1c-2,0-2.2,0-3.4,1.2c-1.3,1.2-3,4.3-3,5.5v0.5
		h-2.4h-2.4v-0.9v-0.9l-0.6,0.6c-0.3,0.3-0.7,0.6-0.8,0.6c-0.2,0-4.6-5-4.6-5.3c0,0,1.5-2.2,3.4-4.7c3.3-4.5,3.7-5.3,4.3-7.4
		c0.2-0.8,0.3-0.9,1.2-1.2c0.9-0.3,1-0.4,1.8-1.6l0.8-1.3l-0.3-2.2c-0.2-1.2-0.3-2.2-0.2-2.3c0,0,0.6-0.1,1.3-0.1
		c0.9,0,1.4,0.1,2.1,0.4c0.4,0.2,0.8,0.4,0.8,0.4c0,0,0-0.6,0-1.3l0-1.3h0.9c1.7,0,3.1,0.9,3.7,2.5c0.3,0.8,0.3,0.8,1.4,0.9
		c0.9,0.1,1.2,0.1,1.4-0.1c0.6-0.6,1.8-0.2,1.8,0.6c0,0.2,0.2,0.4,0.5,0.5c0.3,0,1.1,0.4,1.8,0.8c1,0.5,1.4,0.6,2,0.5
		c0.5-0.1,0.8,0,1,0.2c0.2,0.2,0.3,0.6,0.3,0.8c0,0.3,0.2,0.7,1,1.6c0.6,0.6,1.2,1.3,1.4,1.5c0.1,0.2,0.5,0.4,0.8,0.4
		s0.6,0.1,0.7,0.2c0.2,0.2,0.3,1.1,0,1.4c-0.1,0.1,0,0.7,0.4,1.8c0.3,0.9,0.7,1.7,0.7,1.9c0,0.2,0.2,0.3,0.5,0.3c0.4,0,1,0.6,1,1.1
		c0,0.1-0.1,0.4-0.4,0.6c-0.3,0.3-0.3,0.4-0.1,2.4c0.1,1.1,0.3,2,0.4,2.1c1.1,0.4,1.1,1.7,0,2.1c-0.1,0-0.1,1-0.2,2.2
		c0,1.9,0,2.1,0.2,2.2c0.7,0.2,0.6,1.7-0.1,1.9c-0.4,0.1-0.5,0.3-0.8,2.1c-0.2,1.1-0.4,2.1-0.4,2.1c0,0.1,0.6,0.1,1.3,0.1h1.3v1v1
		H31.9H16.2V82L16.2,82z M42.9,80.4c0.1-0.4,0.4-1.8,0.6-3.1c0.5-3.2,0.6-9.8,0.1-12.3c-1.3-5.9-3.8-9.7-8-12
		c-1.5-0.8-4.4-1.8-5.3-1.8c-0.4,0-0.4,0-0.4,1.5c0,1.6,0,1.6-1.2,1.4L28,54v-0.9c0-2.1-0.8-5-1.3-5c-0.1,0-0.2,0.3-0.2,0.7
		c0,0.7-0.3,3.6-0.4,3.8c0,0-0.4,0-0.9,0c-0.8-0.1-0.8-0.1-0.9-0.9c-0.1-0.5-0.3-1-0.8-1.4c-0.3-0.3-0.7-0.6-0.7-0.5
		c0,0,0,0.8,0.1,1.6c0.2,1.5,0.2,1.5-0.3,2.3c-0.5,0.7-0.5,1.2-0.2,2.1c0.1,0.2-0.1,0.4-1.1,0.7c-2.2,0.7-2.2,0.8-2.7,2.2
		c-0.3,1-0.9,2-2.9,4.8c-1.4,1.9-2.8,3.8-3.1,4.3l-0.6,0.8l1.1,1.3c0.6,0.7,1.1,1.3,1.2,1.3s0.6-0.4,1.3-0.9
		c0.8-0.7,1.2-0.9,1.5-0.8c0.3,0.1,0.4,0.3,0.4,1.8v1.7H18c0.6,0,0.6,0,1.1-1.3c0.5-1.3,2.3-3.8,3.3-4.7l0.6-0.5l-0.5-0.5l-0.5-0.5
		l0.4-0.5c0.8-0.9,1-0.9,1.7,0l0.6,0.8l2.5,0l2.5,0l0.4-1.4c0.2-0.8,0.5-2.1,0.5-2.9l0.1-1.5h1h1l-0.1,0.7c0,0.4-0.1,1.2-0.2,1.9
		c-0.1,1.4-0.8,3.5-1.5,4.8c-0.9,1.6-2.1,3.1-5.5,6.5c-2.3,2.4-3.4,3.6-3.8,4.4c-0.6,1.1-1,2.6-0.8,2.8c0,0,5,0.1,10.9,0.1h10.8
		L42.9,80.4L42.9,80.4z M13.8,69c-0.6-0.2-0.6-0.2-0.3-0.8c0.1-0.3,0.3-0.7,0.3-0.8c0-0.6,0.2-0.9,0.8-0.9c0.5,0,0.5,0,0.5,0.6
		c0,0.8-0.4,2.2-0.6,2.2C14.4,69.2,14,69.1,13.8,69z M19.6,59.4c0-1.3-0.2-1.2,2-1.4l1.1-0.1v0.6c0,0.6-0.1,0.7-1.4,1.3
		c-0.7,0.4-1.4,0.7-1.5,0.7C19.7,60.5,19.6,60,19.6,59.4z M99,82.2c0-0.6,0-0.6,1-0.8c0.8-0.1,1-0.2,1.2-0.6
		c0.2-0.3,0.2-1.9,0.2-5.7c0-5.9,0-5.8-1.3-6.1c-0.7-0.2-0.8-0.2-0.8-0.7c0-0.5,0-0.5,2.8-1.2l2.8-0.7l0,1.8l0,1.8l0.9-1.2
		c1.3-1.7,2.3-2.4,3.5-2.4c1.1,0,1.7,0.5,2.1,1.5c0.2,0.7,0,1.7-0.8,2.3c-0.5,0.5-1.1,0.5-2,0c-0.4-0.2-0.8-0.5-1-0.5
		c-0.5,0-1.6,0.8-2.2,1.8l-0.6,0.9l0,3.4c-0.1,5.3,0,5.5,2.1,5.7c1,0.1,1,0.1,1,0.7v0.6h-4.5h-4.5L99,82.2L99,82.2L99,82.2z
		 M113.4,82.2c0-0.6,0.1-0.6,0.9-0.7c0.5-0.1,0.9-0.3,1.2-0.6c0.3-0.4,0.4-0.7,0.4-5.6c0-2.8,0-5.3-0.1-5.5
		c-0.1-0.4-0.7-0.7-1.6-0.8c-0.4,0-0.5-0.2-0.5-0.6c0-0.5,0-0.6,0.3-0.6c0.4,0,4.4-1,5-1.2c0.3-0.1,0.3,0.3,0.4,7.1
		c0,7.1,0,7.2,0.4,7.6c0.2,0.2,0.7,0.4,1.3,0.5c0.8,0.1,0.9,0.1,0.9,0.7v0.6h-4.3h-4.3L113.4,82.2L113.4,82.2z M123.6,82.2
		c0-0.6,0-0.6,0.8-0.7c0.4,0,1-0.3,1.3-0.5c0.4-0.3,0.4-0.4,0.5-5.6c0-6,0-6.3-1.3-6.5c-0.7-0.1-0.7-0.1-0.7-0.7v-0.6l2.4-0.6
		c1.3-0.3,2.5-0.6,2.7-0.7c0.3-0.1,0.3,0,0.4,1.1l0,1.2l0.8-0.6c0.4-0.3,1.4-0.9,2.1-1.2c3.1-1.5,6.3-0.1,7,3.1
		c0.1,0.5,0.2,3,0.2,5.8c0,4.5,0,4.8,0.4,5.2c0.2,0.2,0.7,0.4,1.1,0.5c0.7,0.1,0.7,0.1,0.7,0.7v0.6h-3.9h-3.9l-0.1-0.6
		c0-0.6,0-0.6,0.4-0.6c0.3,0,0.7-0.2,1-0.4l0.5-0.4V76c0-5.2-0.1-6-1.2-6.8c-1.2-0.9-2.6-0.7-4.6,0.6l-0.9,0.6v4.9
		c0,5.6,0,5.8,1.3,6c0.7,0.1,0.8,0.2,0.8,0.8v0.6h-4.1h-4.1L123.6,82.2L123.6,82.2z M178.1,82.2c0-0.6,0-0.6,0.9-0.7
		c1.6-0.2,1.6-0.1,1.7-5.9c0-5.6,0-6.2-0.9-6.5c-0.3-0.1-0.7-0.2-0.9-0.2c-0.2,0-0.3-0.1-0.3-0.6c0-0.5,0.1-0.6,0.3-0.6
		c0.3,0,4.4-1,5-1.2c0.3-0.1,0.3,0,0.3,1.8v1.9l1-1.4c1.7-2.4,3.7-3,5.1-1.7c0.7,0.7,0.7,2,0,2.8c-0.7,0.8-1.1,0.9-2.3,0.3
		c-0.6-0.3-1.1-0.4-1.4-0.4c-0.7,0.2-1.5,1-2,2c-0.4,0.9-0.4,1-0.4,4.8c0,3.8,0,3.9,0.4,4.3c0.3,0.3,0.7,0.5,1.5,0.6
		c1,0.1,1,0.1,1,0.8v0.6h-4.5h-4.5L178.1,82.2L178.1,82.2z M116,62c-0.5-0.5-0.6-0.7-0.6-1.5c0-1,0.3-1.6,1.2-2.1
		c1.7-0.9,3.7,0.7,3.2,2.6c-0.3,1.1-1,1.6-2.3,1.6C116.7,62.6,116.4,62.5,116,62z"/>
	<polygon id="XMLID_21_" class="st0" points="15.8,90.8 15.8,88.9 31.6,88.9 47.2,88.9 47.2,90.8 47.2,92.8 31.6,92.8 15.8,92.8 	
		"/>
</g>
</svg>
