<?xml version="1.0" encoding="utf-8"?>
<!-- Generator: Adobe Illustrator 27.2.0, SVG Export Plug-In . SVG Version: 6.00 Build 0)  -->
<svg version="1.1" id="Capa_1" xmlns="http://www.w3.org/2000/svg" xmlns:xlink="http://www.w3.org/1999/xlink" x="0px" y="0px"
	 viewBox="0 0 200 140" style="enable-background:new 0 0 200 140;" xml:space="preserve">
<style type="text/css">
	.st0{fill:#333740;}
	.st1{fill:#AAABAB;}
	.st2{fill:#595859;}
	.st3{fill:#9F9FA0;}
	.st4{fill:#878688;}
	.st5{fill:#CAC9C9;}
	.st6{fill:#434344;}
	.st7{fill:#9F9F9F;}
	.st8{fill:#898989;}
	.st9{fill:#9F9E9F;}
	.st10{fill:#818183;}
	.st11{fill:#878687;}
	.st12{fill:#ABAAAB;}
	.st13{fill:#6F706F;}
</style>
<path class="st0" d="M73.4,112.4h-1.5l-3.5-9.8c-0.4-1-0.7-2-1-3h-0.1c-0.3,1.1-0.7,2.1-1,3l-3.6,9.8h-1.5l-6.6-19h2.3l4.2,12.6
	c0.3,1.1,0.7,2,0.9,3h0.1c0.3-0.9,0.6-1.9,1-2.9l3.3-9l-1.3-3.7h2.2l4.3,12.5c0.4,1.1,0.7,2,1,2.9h0.1c0.2-0.9,0.5-1.8,0.8-2.8
	l4.1-12.6h2.2L73.4,112.4L73.4,112.4z M89.8,111c-1.1,1.1-2.6,1.7-4.3,1.7c-1.7,0-3.2-0.6-4.2-1.7c-1.2-1.3-1.9-3.2-1.9-5.4
	c0-2.2,0.7-4.1,1.9-5.4c1.1-1.1,2.5-1.7,4.2-1.7c1.7,0,3.2,0.6,4.3,1.7c1.2,1.3,1.9,3.1,1.9,5.4C91.7,107.9,91,109.8,89.8,111
	 M85.5,100.3c-2.6,0-4,2.1-4,5.3c0,3.2,1.5,5.3,4,5.3s4-2.1,4-5.3C89.6,102.4,88.1,100.3,85.5,100.3 M96.8,112.7
	c-1.7,0-2.4-1.1-2.4-2.5V92.1h2.1v17.1c0,1.3,0.3,1.5,1.1,1.5c0.1,0,0.4,0,0.7-0.1l0.3,1.5C98,112.6,97.5,112.7,96.8,112.7
	 M104.7,112.7c-2,0-2.9-1.1-2.9-2.9v-9.2h-2.2v-1.8h2.2v-3l2.1-0.7v3.7h4.2l-0.7,1.8h-3.4v8.5c0,1.1,0.4,1.7,1.3,1.7
	c1,0,1.9-0.5,2.4-1l0.7,1.5C107.3,112.1,106,112.7,104.7,112.7 M111.4,106c0,2.6,1.5,4.9,4.5,4.9c1.1,0,2.4-0.5,3.2-1l0.6,1.4
	c-1,0.8-2.7,1.4-4.3,1.4c-4.2,0-6.3-3.5-6.3-7.3c0-3.9,2.2-6.9,5.5-6.9c3.5,0,5.4,2.8,5.4,7v0.5L111.4,106L111.4,106z M114.7,100.3
	c-2,0-3.3,1.8-3.3,3.9h6.4C117.8,102.3,116.7,100.3,114.7,100.3 M129.3,100.9c-0.3-0.1-0.7-0.2-1.3-0.2c-0.8,0-2.1,0.7-3,1.6v10.1
	h-2.1V98.9h1.7l0.3,1.5c1.9-1.7,2.9-1.9,3.9-1.9c0.6,0,1.1,0.2,1.4,0.4L129.3,100.9L129.3,100.9z M117.2,131.5
	c0,2.6,1.5,4.9,4.5,4.9c1.1,0,2.4-0.5,3.2-1l0.6,1.4c-1,0.8-2.7,1.4-4.3,1.4c-4.2,0-6.3-3.5-6.3-7.3c0-3.9,2.2-6.9,5.5-6.9
	c3.5,0,5.4,2.8,5.4,7v0.5L117.2,131.5L117.2,131.5z M120.5,125.8c-2,0-3.3,1.8-3.3,3.9h6.4C123.6,127.9,122.5,125.8,120.5,125.8
	 M135.1,126.5c-0.3-0.1-0.7-0.2-1.3-0.2c-0.8,0-2.1,0.7-3,1.6V138h-2.1v-13.5h1.7l0.3,1.5c1.9-1.7,2.9-1.9,3.9-1.9
	c0.6,0,1.1,0.2,1.4,0.4L135.1,126.5L135.1,126.5z M134.6,112.7c-2,0-3.1-0.5-4-1l0.8-1.6c0.6,0.4,1.8,1,3.3,1c1.7,0,2.9-0.8,2.9-2
	c0-3.3-6.2-2.2-6.2-6.9c0-2,1.4-3.6,4.5-3.6c1.4,0,2.5,0.3,3.4,0.7v1.8c-0.9-0.4-1.9-0.8-3.3-0.8c-1.4,0-2.5,0.5-2.5,1.7
	c0,3,6.3,2.3,6.3,6.7C139.7,111.5,137.4,112.7,134.6,112.7 M63.3,138h-2.1v-18.9h2.1v8.7h0l7-8.6h2.6l-7.8,9.3l8.5,9.5h-2.8
	l-7.5-8.5h0 M78,138.3c-1.7,0-2.4-1.1-2.4-2.5v-18.1h2.1v17.2c0,1.3,0.3,1.5,1.1,1.5c0.1,0,0.4,0,0.7-0.1l0.3,1.5
	C79.2,138.1,78.7,138.3,78,138.3 M91,138l-0.5-1.4c-1,0.9-2.6,1.7-4.4,1.7c-1.8,0-4.1-1-4.1-4.8v-9.1H84v8.9c0,2.3,1,3.2,2.6,3.2
	c1.7,0,3-1.1,3.6-1.8v-10.2h2.1v7.9c0,4.3,0.1,5.1,0.3,5.7L91,138L91,138z M104.3,127.1l-3.4,10.9h-1.8l-4.5-13.6h2.1l3.3,10.7h0.1
	l3.4-10.7h1.9l3.4,10.7h0.1l3.3-10.7h2l-4.5,13.6h-1.9L104.3,127.1 M138.1,66.1h1.8c0.4,0,0.7,0.1,0.9,0.2c0.8,0.2,1.1,0.8,1.1,1.5
	c0,1-0.7,1.4-1.4,1.6v0c0.4,0.2,1,1.3,1.7,2.6h-1.3c-0.8-1.4-1.2-2.3-1.5-2.3h-0.2V72H138L138.1,66.1L138.1,66.1z M139.5,68.7
	c0.6,0,1.1-0.2,1.1-0.8c0-0.4-0.2-0.6-0.5-0.7c-0.2-0.1-0.4-0.1-0.6-0.1h-0.3v1.6H139.5L139.5,68.7z"/>
<path class="st1" d="M106.4,2.9c-3.1-0.8-6.4-1.2-9.7-1.2s-6.6,0.4-9.7,1.2v10.9h19.4V2.9L106.4,2.9z"/>
<path class="st2" d="M86.9,33.2h19.4v19.4H86.9V33.2z"/>
<path class="st3" d="M86.9,52.6h19.4v19.4H86.9V52.6z"/>
<path class="st4" d="M86.9,82.9c3.1,0.8,6.4,1.2,9.7,1.2s6.6-0.4,9.7-1.2V72.1H86.9V82.9L86.9,82.9z"/>
<path class="st5" d="M86.9,13.8h19.4v19.4H86.9V13.8z M67.5,33.2h19.4v19.4H67.5V33.2z"/>
<path class="st4" d="M67.5,52.6h19.4v19.4H67.5V52.6z"/>
<path class="st6" d="M67.5,72.1c5.4,5.3,12.1,9.1,19.4,10.9V72.1L67.5,72.1L67.5,72.1z"/>
<path class="st7" d="M67.5,13.8h19.4v19.4H67.5V13.8z"/>
<path class="st8" d="M86.9,2.9c-7.4,1.8-14.1,5.5-19.4,10.9h19.4V2.9z"/>
<path class="st6" d="M67.5,72.1V52.6H56.6C58.4,60,62.2,66.7,67.5,72.1z"/>
<path class="st8" d="M67.5,13.8c-5.3,5.4-9.1,12.1-10.9,19.4h10.9L67.5,13.8L67.5,13.8z"/>
<path class="st9" d="M106.4,33.2h19.4v19.4h-19.4V33.2z"/>
<path class="st10" d="M106.4,52.6h19.4v19.4h-19.4V52.6z"/>
<path class="st6" d="M125.8,72.1h-19.4v10.9C113.8,81.1,120.6,77.4,125.8,72.1L125.8,72.1z"/>
<path class="st11" d="M106.4,13.8h19.4v19.4h-19.4V13.8z"/>
<path class="st6" d="M106.4,2.9v10.9h19.4C120.5,8.4,113.7,4.7,106.4,2.9L106.4,2.9z M125.8,72.1c5.3-5.4,9.1-12.1,10.9-19.4h-10.9
	L125.8,72.1L125.8,72.1z M125.8,13.8v19.4h10.9C134.9,25.7,131.1,19.1,125.8,13.8L125.8,13.8z"/>
<path class="st12" d="M56.6,33.2c-0.8,3.2-1.2,6.4-1.2,9.7c0,3.4,0.4,6.6,1.2,9.7h10.9V33.2H56.6L56.6,33.2z"/>
<path class="st13" d="M136.7,52.6c0.8-3.1,1.2-6.4,1.2-9.7s-0.4-6.6-1.2-9.7h-10.9v19.4L136.7,52.6L136.7,52.6z"/>
<path class="st0" d="M145.4,69.1c0,3.1-2.5,5.6-5.6,5.6c-3.1,0-5.6-2.5-5.6-5.6c0-3.1,2.5-5.6,5.6-5.6
	C142.9,63.5,145.4,66,145.4,69.1z M139.8,64.7c-2.4,0-4.4,2-4.4,4.4s2,4.4,4.4,4.4c2.4,0,4.4-2,4.4-4.4S142.2,64.7,139.8,64.7
	C139.8,64.7,139.8,64.7,139.8,64.7z"/>
</svg>
