<?xml version="1.0" encoding="UTF-8"?>
<svg width="60px" height="61px" viewBox="0 0 60 61" version="1.1" xmlns="http://www.w3.org/2000/svg" xmlns:xlink="http://www.w3.org/1999/xlink">
    <!-- Generator: Sketch 59.1 (86144) - https://sketch.com -->
    <title>location-contact-icon</title>
    <desc>Created with Sketch.</desc>
    <g id="Page-1" stroke="none" stroke-width="1" fill="none" fill-rule="evenodd">
        <g id="4-Contactenos" transform="translate(-363.000000, -1230.000000)" fill="#E9711C">
            <g id="Ubicación" transform="translate(363.000000, 960.000000)">
                <path d="M46.2870528,274.956127 L46.4399446,274.957683 C50.3005703,275.120596 53.5993543,276.555903 56.2469031,279.378479 C58.8447424,282.14884 59.9968314,285.484801 59.985135,289.263135 C59.9688437,294.726576 59.9588183,300.190435 59.9998795,305.653876 C60.00811,306.719496 59.5949787,307.283844 58.6496643,307.715355 C51.8599423,310.814048 45.0936129,313.964122 38.3038909,317.063233 C37.6351112,317.368173 37.3945009,317.71405 37.4049441,318.454261 C37.4270836,320.037443 37.4318874,321.620835 37.431052,323.204226 L37.4233241,327.954191 C37.4233241,328.232814 37.4245772,328.511438 37.4145518,328.789643 C37.3857287,329.572044 36.9730152,330.069556 36.199804,330.071227 C35.4090482,330.072898 35.0464619,329.529019 35.005107,328.769175 C35.000512,328.688275 34.9983769,328.60719 34.9975724,328.526027 L34.9996765,328.038989 C34.9996765,325.220173 34.9771193,322.400938 35.0138792,319.58254 C35.0243224,318.771315 34.8179656,318.808911 34.1312237,319.024457 C32.7719426,319.45012 32.2715066,320.181977 32.3705077,321.65655 C32.5242309,323.942348 32.395989,326.247361 32.4189639,328.54402 C32.4273184,329.391169 32.1645686,329.998543 31.2522546,330.081253 C30.4936638,330.14976 29.9309865,329.508968 29.9197079,328.541514 C29.8942266,326.419465 29.9109357,324.296162 29.9109357,322.173695 L29.9109357,322.173695 L29.9109357,320.994036 C28.9042155,321.45813 28.03075,321.856223 27.1622971,322.264342 C26.8151667,322.427255 26.4734666,322.636118 26.0766267,322.573459 C25.2056675,322.434356 24.9571204,322.770208 25.0064121,323.643674 C25.0891219,325.100703 25.0298048,326.565669 25.0285516,328.027293 C25.0281339,328.270827 25.0398302,328.51645 25.0122603,328.757061 C24.9228669,329.543221 24.5385587,330.102139 23.6909922,330.074569 C22.9027429,330.048252 22.5092448,329.515651 22.496713,328.759567 C22.4674721,327.019737 22.4336363,325.279072 22.4866875,323.540913 C22.5100802,322.765196 22.3041412,322.555079 21.5104614,322.559674 C15.0031223,322.595181 8.49536547,322.580143 1.98802639,322.579307 C0.300412452,322.57889 0.00508001321,322.278127 0.00466228699,320.564196 C0.00382683455,314.230631 -0.00703404722,307.897066 0.00758637054,301.563501 C0.023459967,294.736184 4.34400228,289.378845 10.967887,287.795245 C14.2474555,287.010755 17.3189965,285.577119 20.5029057,284.488106 C22.2101528,283.904543 23.8952604,283.254979 25.5954061,282.648858 C26.5557587,282.305905 27.2942986,282.528971 27.5094276,283.259156 C27.7888865,284.206141 27.2303865,284.664805 26.4237572,284.960137 C23.9470584,285.867021 21.4737015,286.784348 19.0007622,287.701257 C18.6812017,287.819473 18.3691602,287.956487 17.8658001,288.161173 C19.396349,288.780243 20.7464401,289.355035 21.9102254,290.261501 C25.6776982,293.196445 27.49063,297.058742 27.4659841,301.829175 C27.437161,307.327288 27.4743386,312.825818 27.4438446,318.32393 C27.4388319,319.185282 27.5658207,319.313942 28.3904122,318.929633 C37.7980245,314.546432 47.2206749,310.195814 56.6491734,305.856474 C57.228142,305.590382 57.4633218,305.287113 57.4591446,304.620004 C57.4282328,299.330755 57.4633218,294.04067 57.4361696,288.75142 C57.4044224,282.651364 52.783535,277.819525 46.7010234,277.476154 C46.5623383,277.468217 46.4219823,277.47323 46.2841327,277.458192 C45.4846047,277.368381 44.9336238,276.943553 44.9925232,276.121886 C45.0497517,275.31651 45.6069985,274.922594 46.4399446,274.957683 Z M16.4910631,290.357995 C9.12613207,288.664951 2.58746352,293.89739 2.52104505,301.599008 C2.47008245,307.476416 2.52271595,313.355077 2.49469498,319.232485 C2.49180421,319.919227 2.68061646,320.095507 3.35733294,320.089401 C6.83532147,320.054988 10.31331,320.073368 13.7912985,320.073368 L13.7912985,320.073368 L13.7912985,320.041203 C17.2312739,320.041203 20.6712494,320.009873 24.1099716,320.066267 C24.8506002,320.078381 25.0540329,319.935936 25.0503243,319.190295 C25.0227034,313.347558 25.0686533,307.504404 25.0252098,301.660831 C24.9834372,296.038654 21.529259,291.515932 16.4910631,290.357995 Z M12.31543,298.176285 C12.7072572,298.927356 12.3780889,299.536401 11.6754734,299.911937 C10.5137768,300.532261 9.3349534,301.122508 8.15320592,301.706071 C7.75761919,301.900732 7.50489483,302.089962 7.50865436,302.619638 C7.53664202,306.440998 7.52369251,310.263611 7.52369251,314.281719 C8.5479572,313.762068 9.4352077,313.305075 10.3278886,312.860615 C11.2013542,312.425344 11.9570209,312.588675 12.3141768,313.27667 C12.6638137,313.948791 12.3530254,314.686914 11.4879144,315.125944 C10.0037331,315.878269 8.51579228,316.626416 7.01156016,317.336969 C5.84652173,317.88795 5.02652515,317.355766 5.02276562,316.042017 C5.00856293,311.176342 5.0256897,306.310667 5.00687252,301.44541 C5.00438566,300.802947 5.24332506,300.401512 5.80224275,300.123724 C7.38542513,299.337146 8.96317707,298.5372 10.5384226,297.733913 C11.2686081,297.361301 11.9227673,297.423542 12.31543,298.176285 Z M22.2881005,298.138063 C22.7041558,298.874932 22.4125829,299.522407 21.7187397,299.900867 C20.5298908,300.548343 19.3001048,301.121463 18.0882811,301.726331 C17.7774928,301.881307 17.4992871,302.013727 17.5013757,302.470301 C17.5189202,306.354737 17.5114012,310.239591 17.5114012,314.272738 C18.5632358,313.740973 19.4897525,313.287322 20.4016489,312.805684 C21.1594042,312.40592 21.8198294,312.449781 22.2985437,313.208789 C22.7083331,313.858354 22.3925321,314.652869 21.545801,315.081874 C20.0591134,315.834616 18.5649067,316.574409 17.0556618,317.280367 C15.8388254,317.849728 15.0530823,317.365165 15.0489051,316.036796 C15.0334367,311.165273 15.0501583,306.293332 15.0334367,301.421809 C15.0313606,300.77851 15.2907686,300.367885 15.8388254,300.093021 C17.4211723,299.298088 19.0043547,298.506079 20.5837775,297.705716 C21.2855576,297.350649 21.9046278,297.459258 22.2881005,298.138063 Z M40.6774949,270.077972 C41.7978366,269.806032 42.4540845,270.244645 42.4778949,271.405924 C42.5263511,273.771507 42.4987812,276.138762 42.4904267,278.505599 C42.4870849,279.367368 42.0075352,279.80055 41.1841968,280.001059 C38.5521039,280.642686 35.9375554,281.358669 33.2983612,281.968131 C32.5573148,282.139399 32.3910598,282.445592 32.3944016,283.159486 C32.4240602,289.041489 32.4106929,294.923492 32.4115284,300.805078 C32.4115284,301.291311 32.4537187,301.780886 32.0464357,302.164359 C31.3747319,302.795961 30.3103655,302.498957 30.0818693,301.5762 C29.9828681,301.178525 29.9908049,300.748267 29.9903872,300.332629 C29.984539,296.016682 29.9870454,291.701152 29.9870454,287.385623 C29.9870454,283.069675 29.9837036,278.753728 29.9887163,274.438198 C29.9903872,272.896789 30.1817058,272.652001 31.6683934,272.28482 C34.6697563,271.543356 37.6727902,270.807322 40.6774949,270.077972 Z M39.9414613,273.43482 C39.9577526,272.966131 39.8324347,272.83956 39.3399355,272.969891 C37.2960011,273.512099 35.2462185,274.034675 33.1855751,274.508794 C32.6521387,274.632023 32.5305804,274.87514 32.5401881,275.362209 C32.5644162,276.542703 32.5736062,277.724868 32.5376817,278.904945 C32.5193018,279.498534 32.6884809,279.613409 33.2565885,279.454673 C34.6918958,279.054073 36.1439122,278.712373 37.5896626,278.348116 C39.9360308,277.757033 39.9360308,277.757451 39.9360308,275.310411 C39.9360308,274.685075 39.918904,274.059321 39.9414613,273.43482 Z" id="location-contact-icon"></path>
            </g>
        </g>
    </g>
</svg>