<?xml version="1.0" encoding="UTF-8"?>
<svg width="55px" height="35px" viewBox="0 0 55 35" version="1.1" xmlns="http://www.w3.org/2000/svg" xmlns:xlink="http://www.w3.org/1999/xlink">
    <!-- Generator: Sketch 59.1 (86144) - https://sketch.com -->
    <title>bbva</title>
    <desc>Created with Sketch.</desc>
    <g id="Page-1" stroke="none" stroke-width="1" fill="none" fill-rule="evenodd">
        <g id="18-Checkout---Pago" transform="translate(-889.000000, -712.000000)">
            <g id="Método-de-Pago" transform="translate(357.000000, 194.000000)">
                <g id="tarjetas" transform="translate(466.000000, 518.000000)">
                    <g id="bbva" transform="translate(66.000000, 0.000000)">
                        <path d="M51.3333333,35 L3.66666667,35 C1.64236111,35 0,33.4322917 0,31.5 L0,3.5 C0,1.56770833 1.64236111,0 3.66666667,0 L51.3333333,0 C53.3576389,0 55,1.56770833 55,3.5 L55,31.5 C55,33.4322917 53.3576389,35 51.3333333,35 Z" id="Path" fill="#21468B"></path>
                        <path d="M13.9799052,17.8907975 C14.1239557,17.9386503 14.2916008,18.009816 14.4828404,18.1042945 C14.8181305,18.2944785 15.1049898,18.5546012 15.345902,18.8858896 C15.6340032,19.3595092 15.7768119,19.9276074 15.7768119,20.590184 C15.7768119,22.8638037 14.3859788,24 11.6067961,24 L6.21607586,24 C6.07202529,24 6,23.9288344 6,23.7865031 L6,12.8466258 C6,12.7042945 6.07202529,12.6331288 6.21607586,12.6331288 L11.8961391,12.6331288 C12.9032513,12.6331288 13.7166403,12.9067485 14.3400316,13.4503067 C14.9621811,13.995092 15.2751185,14.7177914 15.2751185,15.6171779 C15.2751185,16.1386503 15.1546625,16.6 14.9162339,17.002454 C14.6753217,17.406135 14.3636261,17.7018405 13.9799052,17.8907975 Z M11.5360126,22.3656442 C12.3506435,22.3656442 12.9491985,22.2355828 13.3329194,21.9754601 C13.7153985,21.7153374 13.9078799,21.2650307 13.9078799,20.6257669 C13.9078799,19.9865031 13.7153985,19.5374233 13.3329194,19.2760736 C12.9491985,19.0159509 12.3494017,18.8858896 11.5360126,18.8858896 L8.15703319,18.8858896 C7.96455182,18.8858896 7.86893204,18.9570552 7.86893204,19.0993865 L7.86893204,22.1546012 C7.86893204,22.2969325 7.96455182,22.3680982 8.15703319,22.3680982 L11.5360126,22.3680982 L11.5360126,22.3656442 Z M8.15703319,14.2674847 C8.01298261,14.2674847 7.94095733,14.3386503 7.94095733,14.4809816 L7.94095733,17.0380368 C7.94095733,17.1803681 8.01298261,17.2515337 8.15703319,17.2515337 L11.4639874,17.2515337 C12.7095281,17.2515337 13.3329194,16.7546012 13.3329194,15.7595092 C13.3329194,14.7644172 12.7095281,14.2674847 11.4639874,14.2674847 L8.15703319,14.2674847 L8.15703319,14.2674847 Z M25.6281328,17.8907975 C25.7721833,17.9386503 25.9162339,18.009816 26.0590427,18.1042945 C26.4415218,18.2944785 26.7296229,18.5546012 26.9221043,18.8858896 C27.2573944,19.3595092 27.4250395,19.9276074 27.4250395,20.590184 C27.4250395,22.8638037 26.0342064,24 23.2550237,24 L17.8630616,24 C17.7190111,24 17.6469858,23.9288344 17.6469858,23.7865031 L17.6469858,12.8466258 C17.6469858,12.7042945 17.7190111,12.6331288 17.8630616,12.6331288 L23.5431249,12.6331288 C24.5018063,12.6331288 25.304019,12.9067485 25.9522466,13.4503067 C26.5992323,13.995092 26.9233461,14.7177914 26.9233461,15.6171779 C26.9233461,16.1386503 26.80289,16.6 26.5644615,17.002454 C26.3223075,17.406135 26.0106119,17.7018405 25.6281328,17.8907975 Z M19.7319937,14.2674847 C19.5879431,14.2674847 19.5159178,14.3386503 19.5159178,14.4809816 L19.5159178,17.0380368 C19.5159178,17.1803681 19.5879431,17.2515337 19.7319937,17.2515337 L23.1109731,17.2515337 C24.3565139,17.2515337 24.9799052,16.7546012 24.9799052,15.7595092 C24.9799052,14.7644172 24.3565139,14.2674847 23.1109731,14.2674847 L19.7319937,14.2674847 L19.7319937,14.2674847 Z M23.1829984,22.3656442 C23.9976293,22.3656442 24.5961842,22.2355828 24.9799052,21.9754601 C25.3623843,21.7153374 25.5548657,21.2650307 25.5548657,20.6257669 C25.5548657,19.9865031 25.3623843,19.5374233 24.9799052,19.2760736 C24.5961842,19.0159509 23.9963874,18.8858896 23.1829984,18.8858896 L19.7319937,18.8858896 C19.5879431,18.8858896 19.5159178,18.9570552 19.5159178,19.0993865 L19.5159178,22.1546012 C19.5159178,22.2969325 19.5879431,22.3680982 19.7319937,22.3680982 L23.1829984,22.3680982 L23.1829984,22.3656442 Z M37.7060284,12.7754601 C37.7532174,12.6809816 37.8016482,12.6331288 37.850079,12.6331288 L39.7190111,12.6331288 C39.7662,12.6331288 39.8146308,12.6576687 39.8630616,12.7042945 C39.9102506,12.7521472 39.9102506,12.8 39.8630616,12.8466258 L33.8961391,23.9288344 C33.8477083,23.9766871 33.7881012,24 33.7160759,24 C33.6440506,24 33.5832016,23.9766871 33.5360126,23.9288344 L27.5690901,12.8466258 C27.5206129,12.8 27.5082411,12.7521472 27.5330774,12.7042945 C27.5566719,12.6576687 27.6162791,12.6331288 27.7131407,12.6331288 L29.5100474,12.6331288 C29.6056672,12.6331288 29.6776925,12.6809816 29.7261233,12.7754601 L33.5360126,19.8797546 C33.5360126,19.9276074 33.5832016,19.9509202 33.6800632,19.9509202 C33.775683,19.9509202 33.8477083,19.9276074 33.8961391,19.8797546 L37.7060284,12.7754601 Z M39.8630616,22.2245399 C39.8146308,22.3202454 39.7426056,22.3668712 39.6469858,22.3668712 L37.7780537,22.3668712 C37.7296229,22.3668712 37.6936103,22.3435583 37.6700158,22.2957055 C37.6451795,22.2490798 37.6340032,22.201227 37.6340032,22.1533742 L43.6021675,11.0711656 C43.6493565,11.0245399 43.7213818,11 43.8182434,11 C43.9138632,11 43.9858885,11.0245399 44.0343193,11.0711656 L50,22.1533742 C50,22.201227 49.9875818,22.2490798 49.9639874,22.2957055 C49.939151,22.3435583 49.9031384,22.3668712 49.8559494,22.3668712 L47.9870174,22.3668712 C47.8901558,22.3668712 47.8181305,22.3202454 47.7709415,22.2245399 L44.0318356,15.1202454 C43.9834048,15.0257669 43.9113795,14.9779141 43.8157598,14.9779141 C43.7188982,14.9779141 43.6468729,15.0257669 43.5996839,15.1202454 L39.8630616,22.2245399 Z" id="Shape" fill="#FFFFFF" fill-rule="nonzero"></path>
                    </g>
                </g>
            </g>
        </g>
    </g>
</svg>