<?xml version="1.0" encoding="UTF-8"?>
<svg width="55px" height="35px" viewBox="0 0 55 35" version="1.1" xmlns="http://www.w3.org/2000/svg" xmlns:xlink="http://www.w3.org/1999/xlink">
    <!-- Generator: Sketch 59.1 (86144) - https://sketch.com -->
    <title>bcp</title>
    <desc>Created with Sketch.</desc>
    <g id="Page-1" stroke="none" stroke-width="1" fill="none" fill-rule="evenodd">
        <g id="18-Checkout---Pago" transform="translate(-823.000000, -712.000000)">
            <g id="Método-de-Pago" transform="translate(357.000000, 194.000000)">
                <g id="tarjetas" transform="translate(466.000000, 518.000000)">
                    <g id="bcp">
                        <path d="M51.3333333,35 L3.66666667,35 C1.64236111,35 0,33.4322917 0,31.5 L0,3.5 C0,1.56770833 1.64236111,0 3.66666667,0 L51.3333333,0 C53.3576389,0 55,1.56770833 55,3.5 L55,31.5 C55,33.4322917 53.3576389,35 51.3333333,35 Z" id="Path" fill="#014B8E" fill-rule="nonzero"></path>
                        <g id="Group-36" transform="translate(4.000000, 11.000000)">
                            <path d="M13.4093147,2.0191328 C13.792676,1.97008504 14.1760373,1.95373578 14.5673852,1.95373578 C15.5737086,1.95373578 16.292511,2.32159399 16.2765376,3.16358054 C16.2525775,4.1935835 15.2382675,4.76580737 13.7687159,4.76580737 L13.2016607,4.76580737 C12.7863526,4.76580737 12.906153,4.27532977 12.906153,4.27532977 L13.4093147,2.0191328 Z M18.3211311,8.19097596 C18.400998,6.87486106 17.4266214,5.73041332 16.1407638,5.62414318 C17.3787013,5.41977751 19,4.48787006 19,2.78754771 C19,0.972780579 17.2109807,0 14.5194651,0 C13.3613946,0 12.1953373,0.0899208938 11.0452535,0.286111935 L9.11247375,9.03296252 C9.11247375,9.03296252 8.44957821,11.2973341 10.3424245,11.7632878 C10.8296128,11.8940819 11.3407612,11.9676535 11.8439228,11.9758281 C16.8595662,12.2619401 18.3211311,9.94852071 18.3211311,8.19097596 L18.3211311,8.19097596 Z M11.7480825,9.50709086 L12.4029914,6.60509838 L13.2815276,6.60509838 C14.5194651,6.60509838 15.5497485,6.95660733 15.5257884,8.1419282 C15.4938417,9.46621773 14.1680506,10.0057431 12.7224591,10.0057431 L12.0595636,10.0057431 C11.6602289,9.94034608 11.7480825,9.50709086 11.7480825,9.50709086 L11.7480825,9.50709086 Z" id="Fill-1" fill="#FFFFFF"></path>
                            <path d="M33.8176292,2.059168 C34.1671733,2.01815797 34.5243161,1.99355195 34.881459,2.00175396 C35.8389058,2.00175396 36.6291793,2.3052282 36.6291793,3.5437312 C36.6291793,4.78223419 35.7401216,6.01253518 34.0227964,6.0289392 L33.6960486,6.0289392 C32.9209726,6.0289392 33.1413374,5.33176863 33.1413374,5.33176863 L33.8176292,2.059168 Z M30.5273556,12 C30.9148936,12 31.6443769,11.8359599 31.9027356,10.6302649 C32.100304,9.67063013 32.4346505,8.05483483 32.4346505,8.05483483 C32.6930091,8.05483483 33.0577508,8.12865288 33.4756839,8.12865288 C37.5790274,8.12865288 39,5.28255659 39,3.35508504 C39,1.24716935 37.6398176,0.0332723712 34.6762918,0.016868358 C33.5820669,-0.0405456882 32.4878419,0.0496763844 31.4088146,0.271130563 L29,12 L30.5273556,12 Z" id="Fill-6" fill="#FFFFFF"></path>
                            <path d="M21.9269736,6.85279544 C21.9269736,5.00628146 23.1279873,2.24446959 25.872025,2.24446959 C26.5958147,2.24446959 27.868412,2.42752916 28.6240166,3.09609457 C28.6240166,3.09609457 28.9023972,2.14896024 28.9819345,1.76692287 C29.0614719,1.37692638 28.9183047,0.764074753 27.7331985,0.366119153 C27.0253163,0.11938668 26.2776654,0 25.5300145,0 C21.2349989,0 19,3.53384573 19,6.99605946 C19,10.7129648 21.4974721,11.9943818 24.0347128,11.9943818 C24.7505487,12.0262183 25.4663847,11.9227498 26.142452,11.6839764 C26.5480923,11.5486715 26.8582879,11.2143888 26.9696402,10.800515 L27.391188,8.89032812 C26.6514908,9.49522063 25.7209041,9.82154422 24.7744099,9.805626 C22.9848201,9.805626 21.9428811,8.65155476 21.9428811,6.86075456" id="Fill-11" fill="#FFFFFF"></path>
                            <path d="M4.00244615,1.08953899 C2.94427745,0.67030287 1.76566678,1.85572913 1.6968428,1.92078301 C1.42154688,2.21713957 1.18926595,2.54240897 1,2.889363 L1.60220983,3.14957852 C2.71199652,3.60495568 3.71854723,4.23380986 4.55303799,5 C5.26708679,3.51821718 5.15524782,1.52323152 4.00244615,1.08953899" id="Fill-16" fill="#FFFFFF"></path>
                            <path d="M7.63253587,6.97346513 C6.62927029,8.64252156 3.88186607,10.5351836 3.11012331,10.8146907 C2.184032,11.2219724 1.11130957,10.9424654 0.486197937,10.1279019 C0.293262248,9.90429628 0.138913696,9.6647188 0,9.40118358 C6.15850721,6.51826792 5.11665448,1.55901412 3.95132292,1 C4.69219597,1.3992958 5.37904702,1.88643667 6.00415865,2.4534367 C6.53666116,2.94057758 7.02285909,3.47563394 7.45503504,4.05061989 C8.11101638,4.88115515 8.18047323,6.06307071 7.63253587,6.97346513" id="Fill-21" fill="#F44C0D"></path>
                            <path d="M43.5482726,5 C44.2717069,3.51553467 44.1511345,1.52417874 43.005697,1.08970108 C41.9463826,0.669706012 40.7492712,1.85727828 40.7062096,1.92244992 C40.4306156,2.21934299 40.1894709,2.54520123 40,2.89278336 L40.6028619,3.15346995 C41.7224625,3.6024302 42.7214907,4.2324228 43.5482726,5" id="Fill-26" fill="#FFFFFF"></path>
                            <path d="M42.1153464,10.819684 C41.1876998,11.2191829 40.1209063,10.9395337 39.4870144,10.1325458 C39.3014851,9.90882641 39.139147,9.66912705 39,9.40545774 C45.1688497,6.52107538 44.1175169,1.55929852 42.9502283,1 C43.6923456,1.39949894 44.3803501,1.88688765 45.0065115,2.45417615 C45.5399083,2.94156486 46.0269228,3.47689344 46.4598245,4.05217192 C47.1169075,4.8911197 47.1787506,6.06564659 46.6221626,6.97650418 C45.6404034,8.63841978 42.8961156,10.5400347 42.1153464,10.819684" id="Fill-31" fill="#F44C0D"></path>
                        </g>
                    </g>
                </g>
            </g>
        </g>
    </g>
</svg>