<?xml version="1.0" encoding="UTF-8"?>
<svg width="55px" height="35px" viewBox="0 0 55 35" version="1.1" xmlns="http://www.w3.org/2000/svg" xmlns:xlink="http://www.w3.org/1999/xlink">
    <!-- Generator: Sketch 59.1 (86144) - https://sketch.com -->
    <title>interbank</title>
    <desc>Created with Sketch.</desc>
    <g id="Page-1" stroke="none" stroke-width="1" fill="none" fill-rule="evenodd">
        <g id="18-Checkout---Pago" transform="translate(-958.000000, -712.000000)">
            <g id="Método-de-Pago" transform="translate(357.000000, 194.000000)">
                <g id="tarjetas" transform="translate(466.000000, 518.000000)">
                    <g id="interbank" transform="translate(135.000000, 0.000000)">
                        <g id="Group">
                            <path d="M51.3333333,35 L3.66666667,35 C1.64236111,35 0,33.4322917 0,31.5 L0,3.5 C0,1.56770833 1.64236111,0 3.66666667,0 L51.3333333,0 C53.3576389,0 55,1.56770833 55,3.5 L55,31.5 C55,33.4322917 53.3576389,35 51.3333333,35 Z" id="Path" fill="#02A94F"></path>
                            <g id="interbank-2" transform="translate(3.000000, 13.000000)" fill-rule="nonzero">
                                <path d="M24.7551288,3.18604651 C23.3286774,3.18604651 22.3251855,4.14728682 22.3168922,5.69767442 C22.3168922,7.11627907 23.5277172,7.99224806 24.7634221,7.99224806 C25.5015277,7.99224806 25.9576604,7.88372093 26.2230467,7.68217054 L26.2230467,6.89922481 C25.839524,7.05846157 25.423535,7.13781534 25.0039284,7.13178295 C24.2409428,7.13178295 23.627237,6.74418605 23.5277172,6.12403101 L23.5194238,6.06976744 L24.4068093,6.06976744 C25.2444347,6.06976744 25.8332606,6 26.2064601,5.82945736 C26.5796595,5.65891473 26.7372326,5.39534884 26.7372326,4.97674419 C26.7372326,3.86821705 25.7835007,3.18604651 24.7551288,3.18604651 M25.3356613,5.2248062 C25.1034483,5.30232558 24.7385421,5.33333333 24.1331296,5.33333333 L23.5111305,5.33333333 L23.5111305,5.27906977 L23.5194238,5.12403101 C23.5443038,4.56589147 23.9921432,4.06976744 24.6390223,4.06976744 C24.8971936,4.05831074 25.1526327,4.12342824 25.3688346,4.25581395 C25.5560739,4.39006822 25.6613501,4.60134696 25.6508075,4.82170543 C25.6591008,5.00775194 25.5678743,5.14728682 25.3356613,5.2248062 M27.3509385,4.97674419 L27.3509385,7.91472868 L28.5202968,7.91472868 L28.5202968,5.19379845 C28.5202968,4.82945736 28.5949367,4.56589147 28.7608031,4.3875969 C28.9266696,4.20930233 29.1588826,4.13953488 29.4491488,4.13953488 C29.554724,4.13863098 29.6601795,4.14641293 29.7642951,4.1627907 L29.7642951,3.29457364 C29.5805172,3.21311632 29.3787916,3.17328031 29.1754692,3.17829457 C27.8651244,3.18604651 27.3509385,4.05426357 27.3509385,4.97674419 M13.161065,7.91472868 L13.161065,2 L12,2 L12,7.91472868 L13.161065,7.91472868 Z M16.304234,3.18604651 C14.7450895,3.18604651 14.0733304,4.17829457 14.0650371,5.15503876 L14.0650371,7.91472868 L15.2261021,7.91472868 L15.2261021,5.23255814 C15.213457,4.94098446 15.3070184,4.65402667 15.4914884,4.41860465 C15.6667946,4.2259182 15.9259015,4.11764388 16.1964208,4.12403101 C16.5281536,4.12403101 16.8018333,4.21705426 16.9925797,4.41085271 C17.1833261,4.60465116 17.2745526,4.91472868 17.2745526,5.31782946 L17.2745526,7.91472868 L18.4356176,7.91472868 L18.4356176,5.21705426 C18.4356176,3.90697674 17.4735923,3.18604651 16.304234,3.18604651 M20.4840681,2 L19.3312964,2 L19.3312964,6.27131783 C19.3395897,7.35658915 19.9201222,7.99224806 21.1807071,8 C21.719773,8 22.0349192,7.8372093 22.1676124,7.57364341 L22.1676124,6.89922481 C21.9602794,6.98449612 21.6783064,7.02325581 21.3299869,7.02325581 C21.0646006,7.02325581 20.8489742,6.96124031 20.6996945,6.81395349 C20.5504147,6.66666667 20.4757748,6.44186047 20.4757748,6.12403101 L20.4757748,4.12403101 L21.48756,4.12403101 C21.9851593,4.12403101 22.1924924,3.82945736 22.1924924,3.6124031 L22.1924924,3.17829457 L20.4840681,3.17829457 L20.4840681,2 Z M42.5028372,3.18604651 C40.9436927,3.18604651 40.2719337,4.17829457 40.2636403,5.15503876 L40.2719337,7.91472868 L41.4247054,7.91472868 L41.4247054,5.23255814 C41.4247054,4.88372093 41.5242252,4.6124031 41.6900917,4.41860465 C41.8653979,4.2259182 42.1245048,4.11764388 42.395024,4.12403101 C42.7267569,4.12403101 43.0004365,4.21705426 43.1911829,4.41860465 C43.3819293,4.62015504 43.4731558,4.91472868 43.4731558,5.31782946 L43.4731558,7.91472868 L44.6259275,7.91472868 L44.6259275,5.21705426 C44.6342209,3.90697674 43.6804889,3.18604651 42.5028372,3.18604651 M32.8411174,3.18604651 C32.185945,3.18604651 31.7795722,3.5503876 31.5390659,3.88372093 L31.4478394,4.00775194 L31.4478394,2 L30.2950677,2 L30.2950677,5.66666667 C30.2950677,7.2248062 31.2985596,8 32.6006111,8 C34.0851157,8 35.022261,6.90697674 35.022261,5.51162791 C35.022261,4.13953488 34.0768223,3.18604651 32.8411174,3.18604651 M32.7333042,7.07751938 C32.3518114,7.07751938 32.0117852,6.97674419 31.7878656,6.71317829 C31.5639459,6.4496124 31.4561327,6.04651163 31.4561327,5.49612403 C31.4561327,4.74418605 31.9454387,4.13178295 32.6089044,4.12403101 C32.9986905,4.12403101 33.3138368,4.2248062 33.5294631,4.48062016 C33.7450895,4.73643411 33.8529027,5.12403101 33.8529027,5.70542636 C33.8446093,6.48837209 33.3884766,7.07751938 32.7333042,7.07751938 M37.4024443,3.18604651 C36.697512,3.18604651 36.233086,3.36434109 35.9096464,3.59689922 L35.9096464,4.35658915 C36.3160993,4.1760212 36.7617398,4.08581307 37.2116979,4.09302326 C37.5931907,4.09302326 37.9249236,4.14728682 38.11567,4.28682171 C38.3064164,4.42635659 38.397643,4.66666667 38.397643,5.00775194 L38.397643,5.11627907 L37.9000436,5.11627907 C36.0423396,5.12403101 35.4286338,5.73643411 35.4286338,6.5503876 C35.4286338,7.3875969 36.2247927,8 37.4107377,8 L37.6678306,8 C38.7708424,8 39.533828,7.33333333 39.533828,6.35658915 L39.533828,5.27131783 C39.5421213,3.62015504 38.5220428,3.19379845 37.4024443,3.18604651 M38.4142296,6.36434109 C38.4142296,6.6124031 38.347883,6.80620155 38.1986032,6.94573643 C38.0493234,7.08527132 37.8336971,7.13953488 37.5517241,7.13953488 C37.3126219,7.15100618 37.0754419,7.09423013 36.8716718,6.97674419 C36.7076697,6.86927331 36.6138187,6.69090022 36.6228721,6.50387597 C36.6079355,6.30381783 36.7177386,6.11364093 36.904845,6.01550388 C37.1038848,5.90697674 37.4273243,5.86046512 37.908337,5.86046512 L38.4142296,5.86046512 L38.4142296,6.36434109 Z M47.9432562,5.46511628 L47.9183763,5.43410853 L47.9432562,5.40310078 C48.4491488,4.80620155 49.5521606,3.64341085 49.9585334,3.29457364 L49.3199476,3.29457364 C48.9135749,3.29457364 48.6398952,3.33333333 48.349629,3.58914729 C47.7690965,4.10077519 47.2880838,4.70542636 46.7987778,5.29457364 L46.7075513,5.41085271 L46.7158446,2 L45.5464863,2 L45.5464863,7.90697674 L46.7158446,7.90697674 L46.7158446,5.51162791 L46.8070711,5.62790698 C47.3627237,6.31782946 47.9266696,7.01550388 48.5735487,7.63565891 C48.7898986,7.82588243 49.0728634,7.93608787 49.3697076,7.94573643 C49.6931471,7.94573643 49.8756002,7.86821705 50,7.72868217 C49.6682671,7.36434109 48.3413357,5.91472868 47.9432562,5.46511628" id="Shape" fill="#FFFFFF"></path>
                                <path d="M1.19615032,0 C0.534202583,0.00453815442 0,0.542934016 0,1.20550459 L0,9 L7.79560037,9 C8.46039511,8.99909035 8.99909119,8.45990006 9,7.79449541 L9,0 L1.19615032,0 Z M6.8964253,6.49816514 L2.1035747,7.36513761 L2.1035747,2.5266055 L6.8964253,1.65963303 L6.8964253,6.49816514 Z" id="Shape" fill="#1B4891"></path>
                            </g>
                        </g>
                    </g>
                </g>
            </g>
        </g>
    </g>
</svg>