<?xml version="1.0" encoding="UTF-8"?>
<svg width="53px" height="10px" viewBox="0 0 53 10" version="1.1" xmlns="http://www.w3.org/2000/svg" xmlns:xlink="http://www.w3.org/1999/xlink">
    <!-- Generator: Sketch 59.1 (86144) - https://sketch.com -->
    <title>safety pay</title>
    <desc>Created with Sketch.</desc>
    <defs>
        <polygon id="path-1" points="0 0.0588297468 3.97929903 0.0588297468 3.97929903 5.94775636 0 5.94775636"></polygon>
        <polygon id="path-3" points="0.200575 0.109375 0.450575 0.109375 0.450575 0.25 0.200575 0.25"></polygon>
        <polygon id="path-5" points="0.150575 0.104336735 0.400575 0.104336735 0.400575 0.25 0.150575 0.25"></polygon>
    </defs>
    <g id="Page-1" stroke="none" stroke-width="1" fill="none" fill-rule="evenodd">
        <g id="18-Checkout---Pago" transform="translate(-1029.000000, -752.000000)">
            <g id="Método-de-Pago" transform="translate(357.000000, 194.000000)">
                <g id="tarjetas" transform="translate(466.000000, 518.000000)">
                    <g id="safety-pay" transform="translate(206.000000, 40.000000)">
                        <path d="M20.674221,0 L20.674221,2.03961296 C20.674221,2.12229997 20.6997167,2.14067486 20.7677054,2.14067486 L21.8215297,2.14067486 C21.898017,2.14067486 21.9235127,2.15904975 21.9235127,2.24173676 C21.9150142,2.46223546 21.9150142,2.68273416 21.9235127,2.90323286 C21.9235127,2.99510732 21.898017,3.00429476 21.8215297,3.00429476 L20.7677054,3.00429476 C20.6997167,3.00429476 20.674221,3.02266965 20.674221,3.10535666 L20.674221,5.86159039 C20.674221,5.97183974 20.6827195,6.07290164 20.7082153,6.18315099 C20.7847025,6.67927306 21.184136,7.03758345 21.6430595,7.03758345 C21.7450425,7.04677089 21.8470255,7.04677089 21.9405099,7.03758345 C21.9915014,7.03758345 22,7.03758345 22,7.09270812 L22,7.91039079 C22,7.94714058 22,7.97470291 21.9490085,7.98389036 C21.3541076,8.03901503 20.7847025,7.96551547 20.2832861,7.56126785 C19.9008499,7.23970725 19.7393768,6.78952241 19.6883853,6.28421289 C19.6713881,6.10965143 19.6628895,5.93508996 19.6713881,5.76052849 L19.6713881,3.14210645 C19.6713881,3.04104454 19.6458924,3.02266965 19.5609065,3.02266965 C19.3994334,3.0318571 19.2379603,3.02266965 19.0764873,3.02266965 C19.0169972,3.02266965 19,3.00429476 19,2.93998264 L19,2.23254932 C19,2.1682372 19.0254958,2.14986231 19.0764873,2.15904975 C19.2379603,2.15904975 19.3994334,2.14986231 19.5609065,2.15904975 C19.6713881,2.1682372 19.7053824,2.14067486 19.7053824,2.01205062 C19.6968839,1.39649175 19.7053824,0.771745443 19.7053824,0.156186578 C19.7053824,0.110249349 19.713881,0.073499566 19.713881,0.0275623373 L20.674221,0 Z" id="Fill-1" fill="#3371AB"></path>
                        <path d="M12.8965517,0.0184085834 C12.9827586,0.0368171668 13,0.101247209 13,0.184085834 C12.9913793,0.404988835 12.9913793,0.635096128 13,0.855999129 C13,0.938837754 12.9913793,0.966450629 12.9051724,0.957246337 C12.6896552,0.929633462 12.4741379,0.957246337 12.2758621,1.02167638 C11.862069,1.18735363 11.6034483,1.61995534 11.6465517,2.08937422 C11.6551724,2.16300855 11.6982759,2.14459997 11.7327586,2.14459997 L12.7758621,2.14459997 C12.862069,2.14459997 12.887931,2.17221284 12.887931,2.26425576 C12.8793103,2.47595447 12.8793103,2.68765318 12.887931,2.89935189 C12.887931,2.9913948 12.8706897,3.01900768 12.7844828,3.00980339 C12.4482759,3.0005991 12.1034483,3.00980339 11.7586207,3.00980339 C11.6637931,3.00980339 11.637931,3.02821197 11.637931,3.12945918 L11.637931,7.84205653 C11.637931,8.02614237 11.6637931,7.99852949 11.4913793,7.99852949 C11.25,7.99852949 11.0086207,7.9893252 10.7758621,7.99852949 C10.6637931,7.99852949 10.6551724,7.96171233 10.6551724,7.86046512 L10.6551724,3.15707205 C10.6551724,3.02821197 10.6293103,2.9913948 10.5086207,3.0005991 C10.362069,3.00980339 10.2155172,3.0005991 10.0689655,3.0005991 C10.0172414,3.0005991 10,2.9913948 10,2.92696476 L10,2.20903001 C10,2.15380426 10.0172414,2.13539568 10.0689655,2.13539568 L10.5517241,2.13539568 C10.6293103,2.13539568 10.6551724,2.11698709 10.6551724,2.03414847 C10.6465517,1.69358967 10.7068966,1.36223517 10.8362069,1.04928925 C11.0862069,0.460214585 11.5344828,0.165677251 12.112069,0.0460214585 C12.1810345,0.0460214585 12.2413793,0.0276128751 12.3017241,0 L12.8965517,0.0184085834 Z" id="Fill-3" fill="#3371AB"></path>
                        <path d="M17.5008925,6.38509195 C17.6331775,6.62954028 17.7478245,6.86458674 17.8801095,7.09023135 C17.9153855,7.12783879 17.9153855,7.1936518 17.8801095,7.23125923 C17.8712905,7.24066109 17.8624715,7.25006295 17.8448335,7.25946481 C17.4656165,7.579128 17.0246665,7.80477261 16.5572595,7.90819306 C15.6665405,8.11503395 14.8287355,7.98340793 14.0879395,7.40049269 C13.4265145,6.88339046 13.0913925,6.15944734 13.0208405,5.3038782 C12.9414695,4.60814066 13.0913925,3.8935994 13.4265145,3.29188044 C13.8586455,2.54913361 14.5024325,2.13545182 15.3137805,2.03203138 C15.8164635,1.94741465 16.3279655,2.03203138 16.7777345,2.26707785 C17.4479785,2.63375033 17.7919195,3.24487115 17.9418425,4.0064217 C18.0035755,4.34488862 18.0123945,4.68335553 17.9859375,5.0312243 C17.9771185,5.12524289 17.9506615,5.15344846 17.8536525,5.15344846 L14.2025865,5.15344846 C14.0967585,5.15344846 14.0703015,5.18165404 14.0791205,5.29447634 C14.1320345,6.26286779 14.8728305,7.02441834 15.7811875,7.04322206 C16.3544225,7.06202578 16.9188385,6.86458674 17.3774265,6.4885124 C17.4127025,6.46030682 17.4567975,6.42269938 17.5008925,6.38509195" id="Fill-5" fill="#3371AB"></path>
                        <path d="M7.94918417,6.88077698 C7.88043921,6.98407942 7.81169425,7.09677299 7.73312858,7.1906843 C7.24209315,7.8011078 6.58410567,8.0452772 5.78862827,7.97953929 C5.3663378,7.9513659 4.96368874,7.8011078 4.63960535,7.5569384 C3.8932315,6.97468829 3.7852037,5.91349051 4.39408764,5.19976457 C4.48247402,5.09646213 4.5806811,5.00255082 4.6887089,4.92742178 C5.13064079,4.61751446 5.63149693,4.48603863 6.1618152,4.39212732 C6.68231276,4.30760714 7.21263102,4.27943375 7.74294929,4.28882488 C7.84115638,4.28882488 7.8607978,4.26065149 7.8607978,4.17613131 C7.8607978,4.05404661 7.84115638,3.92257078 7.82151496,3.80048608 C7.70366646,3.27458275 7.33047953,2.9834577 6.74123701,2.94589318 C6.12253236,2.91771978 5.51364843,3.07736901 5.00297157,3.41544972 C4.89494378,3.48118763 4.86548165,3.46240537 4.81637811,3.36849406 C4.70835031,3.16188919 4.59050181,2.96467544 4.4628326,2.76746169 C4.42354976,2.70172378 4.43337047,2.66415925 4.49229472,2.62659473 C4.99315087,2.30729628 5.57257268,2.1006914 6.17163591,2.03495349 C6.68231276,1.95982444 7.20281031,2.0067801 7.68402504,2.16642932 C8.4303989,2.42938098 8.82322724,2.96467544 8.95089646,3.69718364 C8.99017929,3.90378852 9,4.10100227 9,4.30760714 L9,7.86684572 C9,7.97953929 8.97053787,8.00771268 8.86251008,7.99832155 C8.59735094,7.98893042 8.3223711,7.98893042 8.05721197,7.99832155 C7.94918417,7.99832155 7.92954276,7.96075703 7.92954276,7.87623685 C7.94918417,7.54754727 7.93936346,7.21885769 7.94918417,6.88077698" id="Fill-7" fill="#3371AB"></path>
                        <path d="M22,2.00912272 L23.01473,2.00912272 C23.0801964,2.00912272 23.0801964,2.06385903 23.096563,2.10947262 C23.4402619,3.09472617 23.7757774,4.07997973 24.111293,5.06523329 C24.2749591,5.49400104 24.4140753,5.94101423 24.5286416,6.38802741 C24.5368249,6.40627285 24.5450082,6.42451829 24.5531915,6.44276372 C24.7086743,5.73119171 24.9623568,5.08347872 25.1751227,4.40839758 C25.4288052,3.64208926 25.6824877,2.87578094 25.9361702,2.1003499 C25.9607201,2.02736815 25.98527,2 26.0589198,2 C26.3698854,2.00912272 26.6808511,2 27,2 C26.9427169,2.16420893 26.8854337,2.31017242 26.8363339,2.46525862 C26.1080196,4.52699292 25.3715221,6.58872721 24.6350245,8.65958423 C24.4795417,9.10659741 24.2422259,9.48975157 23.8657938,9.73606496 C23.2847791,10.1100964 22.7037643,10.0736055 22.1227496,9.70869681 C22.0572831,9.67220594 22.0572831,9.63571506 22.0900164,9.57185604 C22.1800327,9.36203352 22.2700491,9.16133372 22.3436989,8.94238849 C22.3764321,8.86028402 22.400982,8.85116131 22.4664484,8.8967749 C22.908347,9.19782459 23.3338789,9.10659741 23.6448445,8.67782966 C23.7184943,8.57747976 23.7757774,8.46800714 23.8248773,8.35853453 C23.9148936,8.13958929 23.9967267,7.91152134 24.086743,7.6925761 C24.1031097,7.64696251 24.1031097,7.59222621 24.0785597,7.54661262 C23.5548282,6.1782049 23.0392799,4.80979718 22.5155483,3.44138946 C22.3518822,3.01262171 22.188216,2.57473124 22.0245499,2.14596349 C22.0081833,2.09122718 22,2.05473631 22,2.00912272" id="Fill-9" fill="#3371AB"></path>
                        <g id="Group-13" transform="translate(0.000000, 2.000000)">
                            <mask id="mask-2" fill="white">
                                <use xlink:href="#path-1"></use>
                            </mask>
                            <g id="Clip-12"></g>
                            <path d="M3.43131556,1.48615385 C3.02242667,1.13538462 2.49798222,0.96 1.96464889,1.00615385 C1.80464889,1.01538462 1.64464889,1.06153846 1.50242667,1.15384615 C1.23576,1.30153846 1.12909333,1.65230769 1.28020444,1.92923077 C1.31576,1.99384615 1.36020444,2.05846154 1.42242667,2.10461538 C1.59131556,2.24307692 1.78687111,2.35384615 1.98242667,2.42769231 C2.31131556,2.57538462 2.64020444,2.69538462 2.96020444,2.86153846 C3.20020444,2.98153846 3.42242667,3.13846154 3.60909333,3.33230769 C4.13353778,3.93230769 4.09798222,4.86461538 3.52020444,5.40923077 C3.48464889,5.43692308 3.44909333,5.47384615 3.41353778,5.50153846 C3.08464889,5.76 2.68464889,5.91692308 2.26687111,5.93538462 C1.46687111,6.00923077 0.67576,5.75076923 0.0624266667,5.20615385 C-0.0175733333,5.14153846 -0.0175733333,5.08615385 0.0446488889,5.00307692 C0.177982222,4.80923077 0.302426667,4.62461538 0.426871111,4.43076923 C0.471315556,4.36615385 0.489093333,4.36615385 0.551315556,4.41230769 C0.986871111,4.80923077 1.54687111,5.02153846 2.12464889,4.99384615 C2.31131556,4.98461538 2.48020444,4.92923077 2.64020444,4.82769231 C3.00464889,4.57846154 3.03131556,4.13538462 2.68464889,3.84923077 C2.52464889,3.72 2.34687111,3.62769231 2.16020444,3.54461538 C1.84020444,3.39692308 1.51131556,3.27692308 1.20020444,3.12 C1.00464889,3.01846154 0.817982222,2.89846154 0.649093333,2.75076923 C0.0624266667,2.24307692 -0.0264622222,1.32923077 0.471315556,0.72 C0.542426667,0.636923077 0.622426667,0.553846154 0.711315556,0.489230769 C1.03131556,0.24 1.42242667,0.101538462 1.81353778,0.0738461538 C2.42687111,0.0184615385 3.01353778,0.110769231 3.55576,0.443076923 C3.86687111,0.636923077 3.86687111,0.646153846 3.69798222,0.969230769 L3.43131556,1.48615385 Z" id="Fill-11" fill="#3371AB" mask="url(#mask-2)"></path>
                        </g>
                        <path d="M15.5055549,4 L14.1222714,4 C14.0101133,4 13.9820738,3.98714899 14.0101133,3.90361742 C14.2718156,3.11970574 15.3092782,2.89481305 16.0569989,3.04259968 C16.627136,3.15183327 16.8981848,3.44098102 16.9823034,3.82008585 C17.0196894,3.99357449 17.0196894,3.99357449 16.7579872,3.99357449 L15.5055549,4 Z" id="Fill-14" fill="#FFFFFF"></path>
                        <path d="M7.44724023,5 L7.90245416,5 C7.96748472,5 8,5.00934782 8,5.08413035 C8,5.73847753 7.76155461,6.29934653 7.14376428,6.71999829 C6.73190406,7.00978061 6.15746744,7.08456314 5.65889981,6.89760681 C5.29039329,6.78543301 5.04110948,6.5049985 5.0085942,6.1684771 C4.95440206,5.82260788 5.16033217,5.48608647 5.51800026,5.32717359 C5.88650677,5.14021725 6.28752856,5.08413035 6.69938878,5.03739127 C6.95951102,5.00934782 7.19795641,5 7.44724023,5" id="Fill-16" fill="#FFFFFF"></path>
                        <path d="M33.5819521,4.96951517 C33.5819521,4.64600243 33.5359116,4.33147615 33.4530387,4.02593634 C33.0294659,2.65999365 32.0994475,1.80627947 30.6813996,1.45580734 C30.4696133,1.40188855 30.2578269,1.37492915 30.0460405,1.36594269 C30,1.36594269 30,1.33898329 30,1.3120239 L30,0 L30.0368324,0 C30.0644567,0.00898646505 30.1012891,0.00898646505 30.1289134,0 L30.2025783,0 C30.2854512,0.0179729301 30.3775322,0.00898646505 30.4696133,0.0179729301 C30.9116022,0.0718917204 31.3535912,0.170742836 31.7679558,0.332499207 C32.3020258,0.539187903 32.8084715,0.835741249 33.2412523,1.20418632 C33.7937385,1.6714825 34.2449355,2.24661626 34.5488029,2.90262821 C34.7790055,3.38789732 34.9263352,3.90012583 34.9815838,4.4213408 C34.9907919,4.50221899 34.9815838,4.58309717 35,4.66397536 L35,4.73586708 C34.9907919,4.76282647 34.9907919,4.79877234 35,4.82573173 L35,4.97850164 C34.9723757,4.99647457 34.9447514,5.00546103 34.9171271,4.99647457 L33.6832413,4.99647457 C33.6372007,4.99647457 33.6003683,4.99647457 33.5819521,4.96951517" id="Fill-18" fill="#3371AB"></path>
                        <path d="M33.5885609,5 L35,5 L35,5.13562387 C34.9907749,5.16274864 35,5.18987342 34.9907749,5.2079566 C34.9815498,5.22603978 34.9815498,5.26220615 35,5.28028933 L35,5.3164557 C34.9815498,5.40687161 34.9907749,5.49728752 34.9815498,5.58770344 C34.9446494,5.87703436 34.8800738,6.16636528 34.797048,6.4556962 C34.6586716,6.91681736 34.4464945,7.35081374 34.1697417,7.74864376 C34.0221402,7.97468354 33.8468635,8.18264014 33.6623616,8.38155515 C33.3302583,8.73417722 32.9520295,9.04159132 32.5369004,9.28571429 C31.900369,9.66546112 31.1900369,9.9005425 30.4428044,9.98191682 C30.3690037,9.99095841 30.2859779,9.98191682 30.2121771,10 L30.1845018,10 C30.1568266,9.99095841 30.1291513,10 30.1107011,9.99095841 C30.0830258,9.99095841 30.0553506,9.98191682 30.0369004,10 L30,10 L30,8.67992767 C30,8.63471971 30.0092251,8.62567812 30.0553506,8.62567812 C31.7158672,8.55334539 33.1734317,7.34177215 33.5147601,5.75045208 C33.5608856,5.51537071 33.5885609,5.26220615 33.5885609,5" id="Fill-20" fill="#73B7D9"></path>
                        <path d="M35.0075,5.05 C34.9875,5.02 34.9875,4.98 35.0075,4.95 L35.0075,5.05 Z" id="Fill-22" fill="#6A83B9"></path>
                        <path d="M34.99625,5.03625 C34.99625,5.00625 34.98625,4.97625 35.00625,4.95625 L35.00625,5.03625 C35.00625,5.04625 35.00625,5.04625 34.99625,5.03625" id="Fill-24" fill="#4CB4DC"></path>
                        <path d="M34.995,4.96 L35.005,4.96 L35.005,5.04 C34.985,5.02 35.005,4.99 34.995,4.96" id="Fill-26" fill="#77C5E5"></path>
                        <g id="Group-30" transform="translate(29.871981, 9.871795)">
                            <mask id="mask-4" fill="white">
                                <use xlink:href="#path-3"></use>
                            </mask>
                            <g id="Clip-29"></g>
                            <path d="M0.225575,0.25 C0.300575,0.2 0.375575,0.225 0.425575,0.225 L0.425575,0.25 L0.225575,0.25 Z" id="Fill-28" fill="#B2B2B2" mask="url(#mask-4)"></path>
                        </g>
                        <g id="Group-33" transform="translate(29.871981, 9.871795)">
                            <mask id="mask-6" fill="white">
                                <use xlink:href="#path-5"></use>
                            </mask>
                            <g id="Clip-32"></g>
                            <path d="M0.175575,0.25 L0.175575,0.225 C0.250575,0.225 0.325575,0.175 0.375575,0.25 L0.175575,0.25 Z" id="Fill-31" fill="#B2B2B2" mask="url(#mask-6)"></path>
                        </g>
                        <path d="M28,4.60595642 L28,3.07812761 L28,3 L28.3413793,3.22570198 C29.2103448,3.79863778 30.0896552,4.37157359 30.9586207,4.94450939 C30.9793103,4.95319023 31,4.96187108 31,4.97923277 C30.9689655,4.99659446 30.9275862,5.00527531 30.8862069,4.99659446 L28.1034483,4.99659446 C28.0724138,5.00527531 28.0310345,4.99659446 28,4.97923277 L28,4.60595642 Z" id="Fill-34" fill="#3371AB"></path>
                        <path d="M28.002584,5 L31,5 C30.9069767,5.07079646 30.8139535,5.14159292 30.7105943,5.20353982 C29.8423773,5.78761062 28.9638243,6.37168142 28.0852713,6.95575221 C28.0645995,6.97345133 28.0335917,6.98230088 28.0129199,7 C27.9922481,6.98230088 28.002584,6.97345133 28.002584,6.96460177 L28.002584,5.02654867 L28.002584,5 Z" id="Fill-36" fill="#73B7D9"></path>
                        <path d="M36,10 C36.0611373,9.62559493 36.1222746,9.26032168 36.1921458,8.88591661 C36.436695,7.51614195 36.6812442,6.15549912 36.9345273,4.78572446 C37.0917376,3.89080502 37.2576817,3.0050174 37.4148919,2.11009796 C37.4323597,2.03704331 37.4498275,2.00964782 37.5284326,2.00964782 C37.7729818,2.01877965 38.0262649,2.01877965 38.2708141,2.00964782 C38.366887,2.00964782 38.3756209,2.04617514 38.3581531,2.12836162 C38.3144836,2.42058021 38.2446124,2.71279881 38.1660073,2.99588557 C38.2271446,2.98675374 38.2446124,2.94109459 38.2708141,2.90456726 C38.8734532,2.08270247 39.9302552,1.78135204 40.8560487,2.16488894 C41.44122,2.41144838 41.7731082,2.89543543 41.9128506,3.51639994 C42.1923354,4.74919714 41.8080438,6.39292673 40.6377011,7.27871434 C40.0001264,7.75356956 39.3014144,7.94533801 38.5240972,7.72617406 C38.1136039,7.61659209 37.7642479,7.3243735 37.580836,6.92257293 C37.5721021,6.90430927 37.5546343,6.88604561 37.5459004,6.85865011 L37.5371665,6.85865011 C37.3712224,7.89967885 37.1703427,8.9407076 36.9781969,9.98173634 L36,10 Z" id="Fill-38" fill="#73B7D9"></path>
                        <path d="M46.8488801,10 C46.775384,9.96347558 46.6927008,9.93608227 46.6100177,9.93608227 C46.4170904,9.88129564 46.2241631,9.79911569 46.0496099,9.68954244 C45.9944878,9.65301802 45.9853008,9.6256247 46.0220488,9.57083807 C46.150667,9.36995377 46.2884722,9.16906946 46.4170904,8.95905405 C46.4538385,8.90426742 46.4722125,8.89513632 46.5365216,8.93166074 C46.9407502,9.16906946 47.455223,9.12341394 47.8043295,8.80382527 C47.9788828,8.65772759 48.125875,8.4751055 48.2453062,8.27422119 C48.3555503,8.09159909 48.4749815,7.89984589 48.5944127,7.7172238 C48.6311607,7.66243717 48.6495348,7.58938833 48.6219737,7.51633949 C48.2085581,5.72664295 47.7859555,3.9278153 47.3633528,2.12898765 C47.3449788,2.0285455 47.3449788,2.00115218 47.46441,2.00115218 C47.7583944,2.01028329 48.0523789,2.00115218 48.3371763,2.00115218 C48.4106724,2.00115218 48.4474205,2.01028329 48.4657945,2.10159434 C48.7230309,3.38908011 48.9802673,4.685697 49.2375037,5.98231388 C49.2742517,6.16493598 49.2926257,6.34755807 49.3201868,6.56670459 C49.476366,6.23798482 49.6325453,5.94578946 49.7979115,5.65359411 C50.4501895,4.47568159 51.1024675,3.29776907 51.7547454,2.11985655 C51.7914935,2.0376766 51.8649896,1.99202108 51.9568597,2.00115218 C52.3059663,2.01028329 52.6550728,2.00115218 52.9949923,2.00115218 C53.0133663,2.04680771 52.9766183,2.07420102 52.9582442,2.10159434 C51.6445013,4.3113217 50.3215713,6.53018017 49.0078283,8.73990754 C48.7230309,9.22385609 48.3463633,9.6164936 47.8135165,9.85390232 C47.6665243,9.91782006 47.5011581,9.93608227 47.3541658,10 L46.8488801,10 Z" id="Fill-40" fill="#73B7D9"></path>
                        <path d="M45.491456,6.88429277 C45.4285976,6.96890703 45.374719,7.0441197 45.3208404,7.10993079 C44.8987911,7.61761634 44.3779644,7.95607337 43.7134614,7.99367971 C43.2914121,8.03128605 42.8693629,7.89966387 42.5191518,7.63641951 C42.043224,7.26975773 41.8815881,6.63985158 42.0881228,5.96293752 C42.2407789,5.45525197 42.5640507,5.10739335 42.9950797,4.86295216 C43.453048,4.60910939 43.9559152,4.43988087 44.4677621,4.37406978 C44.8987911,4.30825869 45.3387999,4.28005394 45.7788087,4.28945553 C45.8686064,4.28945553 45.9045255,4.26125077 45.9135053,4.16723493 C45.9404446,3.97920325 45.9404446,3.79117156 45.922485,3.60313988 C45.8686064,3.22707651 45.6081931,2.9920369 45.2130831,2.94502898 C44.5844992,2.86981631 44.0277534,3.07665116 43.4889671,3.38690344 C43.3452908,3.4715177 43.3452908,3.4715177 43.2914121,3.30228918 C43.2285537,3.09545433 43.1567156,2.87921789 43.0938572,2.67238304 C43.0758976,2.61597353 43.0758976,2.58776878 43.1297763,2.55956403 C43.9469354,2.10828799 44.8089934,1.88264996 45.7339099,2.06128006 C46.4253522,2.19290224 46.8474015,2.6347767 46.9731183,3.32109235 C47.0180171,3.67835255 47.0090373,4.04501434 46.9282194,4.39287295 C46.7127049,5.5586694 46.4971904,6.71506426 46.2816759,7.8808607 C46.2637163,7.96547496 46.236777,7.99367971 46.1559591,7.99367971 C45.9045255,7.98427813 45.6441121,7.99367971 45.3926786,7.99367971 C45.3028808,7.99367971 45.2939011,7.97487654 45.3118606,7.8808607 C45.3657392,7.56120684 45.4285976,7.23215139 45.491456,6.88429277" id="Fill-42" fill="#73B7D9"></path>
                        <path d="M38,5.52027375 C38.0251254,4.73022038 38.2680038,4.02381972 38.8123866,3.47542974 C39.1138909,3.15011365 39.5242718,2.98280823 39.9430278,3.00139772 C40.445535,3.02928195 40.8056651,3.3453033 40.9312919,3.8751038 C41.1322948,4.70233615 40.9061665,5.98501103 40.0686546,6.64493796 C39.7755254,6.89589609 39.4153952,7.01672778 39.04689,6.99813829 C38.5108823,6.96095931 38.1340019,6.57987474 38.0335005,5.96642154 C38.0167502,5.81770561 38,5.66898968 38,5.52027375" id="Fill-44" fill="#FFFFFF"></path>
                        <path d="M45.5308416,5 L45.9322606,5 C45.9924734,5 46.0125443,5.01896938 45.9924734,5.07587754 C45.8519768,5.74929068 45.4405224,6.33734159 44.8484295,6.73569866 C44.5473653,6.93487719 44.1760528,7.02972411 43.8047403,6.99178534 C42.991867,6.91590781 42.8513704,6.25197936 43.1323637,5.76826006 C43.2628248,5.56908153 43.4434633,5.41732645 43.6642437,5.32247953 C44.0455917,5.16123977 44.4570461,5.05690815 44.8685004,5.02845408 C45.0993163,5.00948469 45.3200967,5 45.5308416,5" id="Fill-46" fill="#FFFFFF"></path>
                    </g>
                </g>
            </g>
        </g>
    </g>
</svg>