<?xml version="1.0" encoding="UTF-8"?>
<svg width="50px" height="50px" viewBox="0 0 50 50" version="1.1" xmlns="http://www.w3.org/2000/svg" xmlns:xlink="http://www.w3.org/1999/xlink">
    <!-- Generator: Sketch 59.1 (86144) - https://sketch.com -->
    <title>back-normal-slide</title>
    <desc>Created with Sketch.</desc>
    <g id="Page-1" stroke="none" stroke-width="1" fill="none" fill-rule="evenodd">
        <g id="1-Home" transform="translate(-1568.000000, -3798.000000)">
            <g id="Colecciones" transform="translate(0.000000, 3715.000000)">
                <g id="back" transform="translate(1568.000000, 83.000000)">
                    <g id="back-normal-slide">
                        <path d="M0,25 C0,38.807601 11.192399,50 25,50 C38.807601,50 50,38.807601 50,25 C50,11.1934396 38.807601,0 25,0 C11.192399,0 0,11.1934396 0,25 Z" id="Fill-3" fill="#FFFFFF"></path>
                        <path d="M33.4774071,24.3886258 L28.3265558,19.2463507 C27.9980882,18.9178831 27.4457825,18.9178831 27.1173149,19.2463507 C26.9526524,19.4101556 26.866033,19.6194143 26.866033,19.8509711 C26.866033,20.0825278 26.9526524,20.2917865 27.1173149,20.4555915 L30.7990673,24.1373439 L17.8644786,24.1373439 C17.6277761,24.1373439 17.4150869,24.2248209 17.251282,24.3886258 C17.0866194,24.5524308 17,24.7642624 17,25.0018224 C17,25.2325216 17.0866194,25.4426379 17.251282,25.6064429 C17.4150869,25.7702478 17.6277761,25.8577248 17.8644786,25.8577248 L30.7990673,25.8577248 L27.1173149,29.5394772 C26.9526524,29.7032822 26.866033,29.9125409 26.866033,30.1440976 C26.866033,30.3747968 26.9526524,30.5849131 27.0984474,30.7289928 C27.1859244,30.8284765 27.2914113,30.901374 27.4123354,30.9451125 C27.5135343,30.9811324 27.617306,31 27.7219354,31 C27.8265647,31 27.9303364,30.9811324 28.0315353,30.9451125 C28.1524594,30.901374 28.2579464,30.8284765 28.3265558,30.748718 L33.4774071,25.6064429 C33.6420697,25.4426379 33.7286891,25.2308063 33.7286891,24.9975343 C33.7286891,24.7634047 33.6420697,24.5524308 33.4774071,24.3886258" id="Fill-1-Copy" fill="#D1D1D1" transform="translate(25.364345, 25.000000) scale(-1, 1) translate(-25.364345, -25.000000) "></path>
                    </g>
                </g>
            </g>
        </g>
    </g>
</svg>