<?xml version="1.0" encoding="UTF-8"?>
<svg width="27px" height="26px" viewBox="0 0 27 26" version="1.1" xmlns="http://www.w3.org/2000/svg" xmlns:xlink="http://www.w3.org/1999/xlink">
    <!-- Generator: Sketch 59.1 (86144) - https://sketch.com -->
    <title>carrito-icon</title>
    <desc>Created with Sketch.</desc>
    <g id="Page-1" stroke="none" stroke-width="1" fill="none" fill-rule="evenodd">
        <g id="1-Home" transform="translate(-1851.000000, -68.000000)" fill="#243029">
            <g id="Header">
                <path d="M1856.01452,88.8034333 C1857.42877,88.8034333 1858.57507,89.9214333 1858.57507,91.3007667 C1858.57507,92.6801 1857.42877,93.7981 1856.01452,93.7981 C1854.60026,93.7981 1853.45396,92.6801 1853.45396,91.3007667 C1853.45396,89.9214333 1854.60026,88.8034333 1856.01452,88.8034333 Z M1867.41145,88.8034333 C1868.82571,88.8034333 1869.97201,89.9214333 1869.97201,91.3007667 C1869.97201,92.6801 1868.82571,93.7981 1867.41145,93.7981 C1865.99754,93.7981 1864.85124,92.6801 1864.85124,91.3007667 C1864.85124,89.9214333 1865.99754,88.8034333 1867.41145,88.8034333 Z M1876.40803,68.3334333 C1877.163,68.3334333 1877.77511,68.9304333 1877.77511,69.6667667 C1877.77511,70.4031 1877.163,71.0001 1876.40803,71.0001 L1873.50467,71.0001 L1871.64065,85.8807667 C1871.4971,87.0227667 1870.49981,87.8837667 1869.3207,87.8837667 L1852.36709,87.8837667 C1851.61211,87.8837667 1851,87.2867667 1851,86.5504333 C1851,85.8141 1851.61211,85.2171 1852.36709,85.2171 L1868.96935,85.2171 L1870.83338,70.3361 C1870.97692,69.1944333 1871.97422,68.3334333 1873.15333,68.3334333 L1876.40803,68.3334333 Z" id="carrito-icon"></path>
            </g>
        </g>
    </g>
</svg>