<?xml version="1.0" encoding="UTF-8"?>
<svg width="79px" height="74px" viewBox="0 0 79 74" version="1.1" xmlns="http://www.w3.org/2000/svg" xmlns:xlink="http://www.w3.org/1999/xlink">
    <!-- Generator: Sketch 59.1 (86144) - https://sketch.com -->
    <title>envio-gratis-icon</title>
    <desc>Created with Sketch.</desc>
    <g id="Page-1" stroke="none" stroke-width="1" fill="none" fill-rule="evenodd">
        <g id="1-Home" transform="translate(-261.000000, -5511.000000)" fill="#E9711C">
            <g id="Services" transform="translate(228.000000, 5483.000000)">
                <g id="Envio-Gratis">
                    <path d="M84.1880899,58.5014045 C86.8577528,58.5014045 89.0302247,60.6738764 89.0302247,63.3435393 L89.0302247,63.3435393 L89.0302247,68.658427 L100.910562,68.658427 C102.910281,68.658427 104.679944,69.858427 105.418146,71.7174157 L105.418146,71.7174157 L111.408876,86.808427 C112.104944,88.5629213 111.888371,90.541573 110.828258,92.1030899 C109.768146,93.663764 108.008596,94.5957865 106.121798,94.5957865 L106.121798,94.5957865 L104.145674,94.5957865 C104.17264,94.833427 104.188652,95.0744382 104.188652,95.3188202 C104.188652,98.8935393 101.280506,101.801685 97.7057865,101.801685 C94.1319101,101.801685 91.2229213,98.8935393 91.2229213,95.3188202 C91.2229213,95.0744382 91.2397753,94.833427 91.2658989,94.5957865 L91.2658989,94.5957865 L71.3689888,94.5957865 C71.3951124,94.833427 71.4119663,95.0744382 71.4119663,95.3188202 C71.4119663,98.8935393 68.5029775,101.801685 64.9291011,101.801685 C61.354382,101.801685 58.446236,98.8935393 58.446236,95.3188202 C58.446236,95.0744382 58.4622472,94.833427 58.4892135,94.5957865 L58.4892135,94.5957865 L55.587809,94.5957865 C52.9147753,94.5957865 50.7397753,92.4207865 50.7397753,89.7477528 L50.7397753,89.7477528 L50.7397753,70.1331461 C50.7397753,69.3182584 51.4004494,68.658427 52.2144944,68.658427 C53.0285393,68.658427 53.6892135,69.3182584 53.6892135,70.1331461 L53.6892135,70.1331461 L53.6892135,89.7477528 C53.6892135,90.7952247 54.5411798,91.6463483 55.587809,91.6463483 L55.587809,91.6463483 L59.5923034,91.6463483 C60.762809,89.9508427 62.7170225,88.8359551 64.9291011,88.8359551 C67.1403371,88.8359551 69.0945506,89.9508427 70.2650562,91.6463483 L70.2650562,91.6463483 L86.0807865,91.6463483 L86.0807865,63.3435393 C86.0807865,62.3002809 85.2313483,61.4508427 84.1880899,61.4508427 L84.1880899,61.4508427 L71.6344382,61.4508427 C70.8203933,61.4508427 70.1597191,60.7910112 70.1597191,59.9761236 C70.1597191,59.1620787 70.8203933,58.5014045 71.6344382,58.5014045 L71.6344382,58.5014045 Z M97.7057865,91.7853933 C95.7574719,91.7853933 94.1723596,93.3705056 94.1723596,95.3188202 C94.1723596,97.2671348 95.7574719,98.8522472 97.7057865,98.8522472 C99.6541011,98.8522472 101.239213,97.2671348 101.239213,95.3188202 C101.239213,93.3705056 99.6541011,91.7853933 97.7057865,91.7853933 Z M64.9291011,91.7853933 C62.9807865,91.7853933 61.3956742,93.3705056 61.3956742,95.3188202 C61.3956742,97.2671348 62.9807865,98.8522472 64.9291011,98.8522472 C66.8774157,98.8522472 68.4625281,97.2671348 68.4625281,95.3188202 C68.4625281,93.3705056 66.8774157,91.7853933 64.9291011,91.7853933 Z M43.6363483,88.8362921 C44.4503933,88.8362921 45.1110674,89.4969663 45.1110674,90.3110112 C45.1110674,91.1250562 44.4503933,91.7857303 43.6363483,91.7857303 L43.6363483,91.7857303 L41.8860674,91.7857303 C41.0720225,91.7857303 40.4113483,91.1250562 40.4113483,90.3110112 C40.4113483,89.4969663 41.0720225,88.8362921 41.8860674,88.8362921 L41.8860674,88.8362921 Z M106.206067,81.6949438 L89.0302247,81.6949438 L89.0302247,91.6463483 L92.3698315,91.6463483 C93.5403371,89.9508427 95.4945506,88.8359551 97.7057865,88.8359551 C99.9170225,88.8359551 101.872079,89.9508427 103.042584,91.6463483 L103.042584,91.6463483 L106.121798,91.6463483 C107.043708,91.6463483 107.869551,91.2089888 108.387809,90.4463483 C108.906067,89.6828652 109.008034,88.7542135 108.667584,87.8963483 L108.667584,87.8963483 L106.206067,81.6949438 Z M44.7682584,82.2162079 C45.5823034,82.2162079 46.2429775,82.876882 46.2429775,83.690927 C46.2429775,84.5049719 45.5823034,85.1656461 44.7682584,85.1656461 L44.7682584,85.1656461 L39.347191,85.1656461 C38.5331461,85.1656461 37.8724719,84.5049719 37.8724719,83.690927 C37.8724719,82.876882 38.5331461,82.2162079 39.347191,82.2162079 L39.347191,82.2162079 Z M44.7682584,76.1719101 C45.5823034,76.1719101 46.2429775,76.8325843 46.2429775,77.6466292 C46.2429775,78.4606742 45.5823034,79.1213483 44.7682584,79.1213483 L44.7682584,79.1213483 L34.4747191,79.1213483 C33.6606742,79.1213483 33,78.4606742 33,77.6466292 C33,76.8325843 33.6606742,76.1719101 34.4747191,76.1719101 L34.4747191,76.1719101 Z M100.910562,71.6078652 L89.0302247,71.6078652 L89.0302247,78.7455056 L105.034719,78.7455056 L102.676854,72.8053371 C102.386966,72.0780899 101.69427,71.6078652 100.910562,71.6078652 L100.910562,71.6078652 Z M50.9297191,28 C60.8153933,28 68.8589326,36.0426966 68.8589326,45.9292135 C68.8589326,55.8157303 60.8153933,63.858427 50.9297191,63.858427 C41.0432022,63.858427 33.0005056,55.8157303 33.0005056,45.9292135 C33.0005056,36.0426966 41.0432022,28 50.9297191,28 Z M50.9297191,30.9494382 C42.6696067,30.9494382 35.9499438,37.6691011 35.9499438,45.9292135 C35.9499438,54.1893258 42.6696067,60.9089888 50.9297191,60.9089888 C59.1898315,60.9089888 65.9094944,54.1893258 65.9094944,45.9292135 C65.9094944,37.6691011 59.1898315,30.9494382 50.9297191,30.9494382 Z M49.6751124,35.5130618 C50.4891573,35.5130618 51.1498315,36.1728933 51.1498315,36.9877809 L51.1498315,36.9877809 L51.1498315,48.2765449 L57.6352247,48.2765449 C58.4501124,48.2765449 59.1099438,48.9372191 59.1099438,49.751264 C59.1099438,50.565309 58.4501124,51.2259831 57.6352247,51.2259831 L57.6352247,51.2259831 L49.6751124,51.2259831 C48.8610674,51.2259831 48.2003933,50.565309 48.2003933,49.751264 L48.2003933,49.751264 L48.2003933,36.9877809 C48.2003933,36.1728933 48.8610674,35.5130618 49.6751124,35.5130618 Z" id="envio-gratis-icon"></path>
                </g>
            </g>
        </g>
    </g>
</svg>