<?xml version="1.0" encoding="UTF-8"?>
<svg width="23px" height="23px" viewBox="0 0 23 23" version="1.1" xmlns="http://www.w3.org/2000/svg" xmlns:xlink="http://www.w3.org/1999/xlink">
    <!-- Generator: Sketch 59.1 (86144) - https://sketch.com -->
    <title>notificacion-icon</title>
    <desc>Created with Sketch.</desc>
    <g id="Page-1" stroke="none" stroke-width="1" fill="none" fill-rule="evenodd">
        <g id="23-Direcciones" transform="translate(-253.000000, -399.000000)" fill="#E9711C">
            <g id="Note" transform="translate(228.000000, 378.000000)">
                <path d="M42.7179,27.8227 L35.7469,37.4007 C35.4819,37.7657 35.0569,37.9817 34.6059,37.9817 L34.1479,37.9817 C33.7039,37.9817 33.2869,37.7747 33.0209,37.4217 L29.4229,32.6577 C29.2609,32.4437 29.2849,32.1427 29.4799,31.9577 L30.6789,30.8167 C30.8729,30.6327 31.1739,30.6217 31.3809,30.7927 L34.3839,33.2707 L40.7669,26.3217 C40.9469,26.1247 41.2479,26.0947 41.4629,26.2537 L42.6049,27.0927 C42.8369,27.2627 42.8879,27.5897 42.7179,27.8227 M36.0679,21.0007 C29.9549,21.0007 24.9999,25.9547 24.9999,32.0667 C24.9999,38.1787 29.9549,43.1347 36.0679,43.1347 C42.1799,43.1347 47.1349,38.1787 47.1349,32.0667 C47.1349,25.9547 42.1799,21.0007 36.0679,21.0007" id="notificacion-icon"></path>
            </g>
        </g>
    </g>
</svg>