<?xml version="1.0" encoding="UTF-8"?>
<svg width="25px" height="25px" viewBox="0 0 25 25" version="1.1" xmlns="http://www.w3.org/2000/svg" xmlns:xlink="http://www.w3.org/1999/xlink">
    <!-- Generator: Sketch 59.1 (86144) - https://sketch.com -->
    <title>search-icon</title>
    <desc>Created with Sketch.</desc>
    <g id="Page-1" stroke="none" stroke-width="1" fill="none" fill-rule="evenodd">
        <g id="1-Home" transform="translate(-1773.000000, -68.000000)" fill="#FFFFFF">
            <g id="Header">
                <g id="Search" transform="translate(1313.000000, 53.000000)">
                    <path d="M462.487575,24.7883582 C462.487575,20.7629851 465.762575,17.4876119 469.788321,17.4876119 C473.813694,17.4876119 477.088694,20.7629851 477.088694,24.7883582 C477.088694,28.8137313 473.813694,32.0883582 469.788321,32.0883582 C465.762575,32.0883582 462.487575,28.8137313 462.487575,24.7883582 M484.432724,37.6947015 L477.515187,30.773806 C478.801754,29.1170896 479.576381,27.0435821 479.576381,24.7883582 C479.576381,19.3909701 475.185336,15.0002985 469.788321,15.0002985 C464.390933,15.0002985 459.999888,19.3909701 459.999888,24.7883582 C459.999888,30.185 464.390933,34.5756716 469.788321,34.5756716 C472.034216,34.5756716 474.099888,33.8073881 475.753619,32.5305224 L482.673396,39.4536567 C482.916306,39.696194 483.23459,39.8178358 483.553246,39.8178358 C483.87153,39.8178358 484.18944,39.696194 484.432724,39.4536567 C484.918172,38.968209 484.918172,38.1805224 484.432724,37.6947015" id="search-icon"></path>
                </g>
            </g>
        </g>
    </g>
</svg>