<?xml version="1.0" encoding="utf-8"?>
<!-- Generator: Adobe Illustrator 26.2.1, SVG Export Plug-In . SVG Version: 6.00 Build 0)  -->
<!DOCTYPE svg PUBLIC "-//W3C//DTD SVG 1.1//EN" "http://www.w3.org/Graphics/SVG/1.1/DTD/svg11.dtd" [
	<!ENTITY ns_extend "http://ns.adobe.com/Extensibility/1.0/">
	<!ENTITY ns_ai "http://ns.adobe.com/AdobeIllustrator/10.0/">
	<!ENTITY ns_graphs "http://ns.adobe.com/Graphs/1.0/">
	<!ENTITY ns_vars "http://ns.adobe.com/Variables/1.0/">
	<!ENTITY ns_imrep "http://ns.adobe.com/ImageReplacement/1.0/">
	<!ENTITY ns_sfw "http://ns.adobe.com/SaveForWeb/1.0/">
	<!ENTITY ns_custom "http://ns.adobe.com/GenericCustomNamespace/1.0/">
	<!ENTITY ns_adobe_xpath "http://ns.adobe.com/XPath/1.0/">
]>
<svg version="1.1" id="Capa_1" xmlns:x="&ns_extend;" xmlns:i="&ns_ai;" xmlns:graph="&ns_graphs;"
	 xmlns="http://www.w3.org/2000/svg" xmlns:xlink="http://www.w3.org/1999/xlink" x="0px" y="0px" viewBox="0 0 38 24"
	 style="enable-background:new 0 0 38 24;" xml:space="preserve">
<style type="text/css">
	.st0{fill-rule:evenodd;clip-rule:evenodd;fill:#0070CF;}
	.st1{fill:#FFFFFF;}
	.st2{fill:#006FCF;}
</style>
<metadata>
	<sfw  xmlns="&ns_sfw;">
		<slices></slices>
		<sliceSourceBounds  bottomLeftOrigin="true" height="24" width="38" x="0" y="0"></sliceSourceBounds>
	</sfw>
</metadata>
<desc>Created with Sketch.</desc>
<g id="Page-1">
	<g id="_x31_-Home" transform="translate(-1596.000000, -6062.000000)">
		<g id="Footer" transform="translate(0.000000, 5713.000000)">
			<g id="Opciones-de-Pago" transform="translate(1508.000000, 349.000000)">
				<g id="american-express" transform="translate(88.000000, 0.000000)">
					<g id="Group">
						<path id="Path" class="st0" d="M35.5,24H2.5C1.1,24,0,22.9,0,21.6V2.4C0,1.1,1.1,0,2.5,0h32.9C36.9,0,38,1.1,38,2.4v19.2
							C38,22.9,36.9,24,35.5,24z"/>
					</g>
				</g>
			</g>
		</g>
	</g>
</g>
<path id="path7" class="st1" d="M33.3,10.8h2.9V4.1h-3.1V5l-0.6-0.9h-2.7v1.2l-0.5-1.2h-5c-0.2,0-0.3,0.1-0.5,0.1
	c-0.2,0-0.3,0.1-0.4,0.2c-0.2,0.1-0.3,0.1-0.4,0.2V4.1H8.6L8.2,5.2L7.8,4.1H4.4v1.2L3.9,4.1H1.2L0,7v3.8h1.9l0.3-0.9H3l0.3,0.9h14.9
	V9.9l0.6,0.8h4.1v-0.5c0.1,0.1,0.3,0.1,0.3,0.2c0.1,0.1,0.3,0.1,0.3,0.2c0.2,0.1,0.3,0.1,0.5,0.1h3l0.3-0.9h0.7l0.3,0.9h4.1V9.9
	L33.3,10.8z M38,19.2V13H14.7l-0.6,0.8L13.5,13H6.8v6.7h6.8l0.6-0.8l0.6,0.8H19v-1.4h-0.2c0.6,0,1.1-0.1,1.5-0.3v1.8h3v-0.8l0.6,0.8
	h12.6C37.1,19.6,37.6,19.5,38,19.2z"/>
<path id="path9" class="st2" d="M36.6,17.6h-2.3v0.9h2.2c0.9,0,1.5-0.6,1.5-1.4c0-0.8-0.5-1.3-1.4-1.3h-1c-0.3,0-0.4-0.2-0.4-0.4
	c0-0.3,0.2-0.4,0.4-0.4h1.9l0.4-0.9h-2.3c-0.9,0-1.5,0.6-1.5,1.4c0,0.8,0.5,1.3,1.4,1.3h1c0.3,0,0.4,0.2,0.4,0.4
	C37.1,17.5,36.9,17.6,36.6,17.6L36.6,17.6z M32.4,17.6h-2.3v0.9h2.2c0.9,0,1.5-0.6,1.5-1.4c0-0.8-0.5-1.3-1.4-1.3h-1
	c-0.3,0-0.4-0.2-0.4-0.4c0-0.3,0.2-0.4,0.4-0.4h1.9l0.4-0.9h-2.3c-0.9,0-1.5,0.6-1.5,1.4c0,0.8,0.5,1.3,1.4,1.3h1
	c0.3,0,0.4,0.2,0.4,0.4C32.9,17.5,32.7,17.6,32.4,17.6L32.4,17.6z M29.5,14.9V14h-3.6v4.5h3.6v-0.9h-2.5v-0.9h2.5v-0.9h-2.5v-0.8
	L29.5,14.9L29.5,14.9z M23.7,14.9c0.4,0,0.6,0.3,0.6,0.5c0,0.3-0.2,0.5-0.6,0.5h-1.3v-1.1L23.7,14.9z M22.4,16.9h0.5l1.4,1.6h1.3
	L24,16.8c0.8-0.2,1.2-0.7,1.2-1.4c0-0.8-0.6-1.4-1.5-1.4h-2.4v4.5h1L22.4,16.9z M19.7,15.5c0,0.3-0.2,0.6-0.6,0.6h-1.4v-1.2H19
	C19.5,14.9,19.7,15.2,19.7,15.5L19.7,15.5z M16.8,14v4.5h1V17h1.4c0.9,0,1.6-0.6,1.6-1.5c0-0.8-0.6-1.5-1.5-1.5L16.8,14z M15.2,18.5
	h1.3l-1.8-2.3l1.8-2.2h-1.3l-1.1,1.4L13,14h-1.3l1.8,2.2l-1.8,2.2H13l1.1-1.4L15.2,18.5z M11.4,14.9V14H7.9v4.5h3.6v-0.9H8.9v-0.9
	h2.5v-0.9H8.9v-0.8L11.4,14.9L11.4,14.9z M32,7l1.8,2.7H35V5.2h-1v3l-0.3-0.4l-1.6-2.5h-1.4v4.5h1v-3L32,7z M27.6,6.9L27.9,6
	l0.3,0.9l0.4,1h-1.5L27.6,6.9z M29.4,9.7h1.1l-1.9-4.5h-1.4l-1.9,4.5h1.1l0.4-0.9h2.2L29.4,9.7z M24.6,9.7l0.4-0.9h-0.3
	c-0.8,0-1.2-0.5-1.2-1.3V7.4c0-0.8,0.4-1.3,1.2-1.3h1.1V5.2h-1.2c-1.4,0-2.1,0.9-2.1,2.2v0.1C22.6,8.8,23.4,9.7,24.6,9.7L24.6,9.7z
	 M20.8,9.7h1V5.3h-1V9.7z M18.6,6.1c0.4,0,0.6,0.3,0.6,0.5c0,0.3-0.2,0.5-0.6,0.5h-1.3V6L18.6,6.1z M17.3,8.1h0.5l1.4,1.6h1.3L19,8
	c0.8-0.2,1.2-0.7,1.2-1.4c0-0.8-0.6-1.4-1.5-1.4h-2.4v4.5h1L17.3,8.1z M15.5,6.1V5.2h-3.6v4.5h3.6V8.8h-2.5V7.8h2.5V6.9h-2.5V6
	L15.5,6.1L15.5,6.1z M7.8,9.7h0.9L10,6v3.6h1V5.2H9.3l-1,3l-1-3H5.6v4.5h1V6L7.8,9.7z M2.3,6.9L2.6,6L3,6.9l0.4,1H1.9L2.3,6.9z
	 M4.1,9.7h1.1L3.2,5.2H1.9L0,9.7h1.1l0.4-0.9h2.2L4.1,9.7z"/>
</svg>
