<?xml version="1.0" encoding="UTF-8"?>
<svg width="38px" height="24px" viewBox="0 0 38 24" version="1.1" xmlns="http://www.w3.org/2000/svg" xmlns:xlink="http://www.w3.org/1999/xlink">
    <!-- Generator: Sketch 59.1 (86144) - https://sketch.com -->
    <title>dinersclub</title>
    <desc>Created with Sketch.</desc>
    <g id="Page-1" stroke="none" stroke-width="1" fill="none" fill-rule="evenodd">
        <g id="1-Home" transform="translate(-1640.000000, -6062.000000)">
            <g id="Footer" transform="translate(0.000000, 5713.000000)">
                <g id="Opciones-de-Pago" transform="translate(1508.000000, 349.000000)">
                    <g id="dinersclub" transform="translate(132.000000, 0.000000)">
                        <path d="M35.4666667,24 L2.53333333,24 C1.13472222,24 0,22.925 0,21.6 L0,2.4 C0,1.075 1.13472222,0 2.53333333,0 L35.4666667,0 C36.8652778,0 38,1.075 38,2.4 L38,21.6 C38,22.925 36.8652778,24 35.4666667,24 Z" id="Path" fill="#FFFFFF"></path>
                        <g id="diners" transform="translate(8.000000, 5.000000)">
                            <path d="M6.97669808,-3.60600438e-13 C3.12360192,-3.60600438e-13 5.68434189e-14,3.0775 5.68434189e-14,6.87375 C5.68434189e-14,10.67 3.12360192,13.7475 7.00200577,13.7475 L15.1694308,13.7475 C19.0225269,13.7475 22.1454962,10.67 22.1454962,6.87375 C22.1454962,3.0775 19.0225269,-3.60600438e-13 15.1694308,-3.60600438e-13 L6.97669808,-3.60600438e-13 Z" id="Fill-22" fill="#1A5A9C"></path>
                            <path d="M6.96606885,13.117625 C3.47170923,13.117625 0.638513077,10.322 0.638513077,6.873875 C0.638513077,3.425125 3.47170923,0.630125 6.96606885,0.630125 C10.4604285,0.630125 13.2936246,3.425125 13.2936246,6.873875 C13.2936246,10.322 10.4604285,13.117625 6.96606885,13.117625" id="Fill-30" fill="#FFFFFF"></path>
                            <path d="M5.63026558,2.525625 C3.83152135,3.105 2.52690981,4.8325 2.52690981,6.87375 C2.52690981,8.915 3.83152135,10.6425 5.63026558,11.2225 L5.63026558,2.525625 Z" id="Fill-32" fill="#1D5B9E"></path>
                            <path d="M8.22215288,2.5060625 L8.22215288,11.2416875 C10.051899,10.6816875 11.3856144,8.9379375 11.3856144,6.8735625 C11.3856144,4.8098125 10.051899,3.0660625 8.22215288,2.5060625" id="Fill-34" fill="#1D5B9E"></path>
                        </g>
                    </g>
                </g>
            </g>
        </g>
    </g>
</svg>