<?xml version="1.0" encoding="UTF-8"?>
<svg width="46px" height="46px" viewBox="0 0 46 46" version="1.1" xmlns="http://www.w3.org/2000/svg" xmlns:xlink="http://www.w3.org/1999/xlink">
    <!-- Generator: Sketch 59.1 (86144) - https://sketch.com -->
    <title>instagram</title>
    <desc>Created with Sketch.</desc>
    <g id="Page-1" stroke="none" stroke-width="1" fill="none" fill-rule="evenodd">
        <g id="1-Home" transform="translate(-362.000000, -6051.000000)">
            <g id="Footer" transform="translate(0.000000, 5713.000000)">
                <g id="Follow-us" transform="translate(228.000000, 338.000000)">
                    <g id="instagram" transform="translate(134.000000, 0.000000)">
                        <path d="M40.9659443,9.28749673 C40.1593888,7.34605674 38.6142365,5.80453886 36.6708403,5.00245734 L26.0077511,0.599958324 C24.0643549,-0.202402855 21.8821244,-0.199885863 19.9404063,0.606949969 L9.28766459,5.03377991 C7.34622612,5.84061574 5.80470944,7.38576929 5.00234888,9.32916693 L0.599853297,19.9922645 C-0.202507256,21.9356622 -0.199710601,24.1181741 0.606844937,26.0596141 L5.03395109,36.712364 C5.8407863,38.653804 7.38565897,40.1953219 9.3290551,40.9976831 L19.9921444,45.3999024 C21.9355405,46.2022636 24.1180507,46.2000263 26.0594892,45.3931905 L36.7122309,40.9660809 C38.653949,40.159245 40.1954657,38.6140915 40.9978262,36.6709735 L45.4000421,26.0075962 C46.2024027,24.0644783 46.1998857,21.8819663 45.3930505,19.9405264 L40.9659443,9.28749673 Z" id="btn" fill="#FFFFFF"></path>
                        <path d="M23.0002398,17.3526475 C24.0151697,17.3526475 24.9564345,17.6063802 25.8240359,18.1138447 C26.6916373,18.6213093 27.3791703,19.3088423 27.8866348,20.1764437 C28.3940994,21.044045 28.6478321,21.9853099 28.6478321,23.0002398 C28.6478321,24.0151697 28.3940994,24.9564345 27.8866348,25.8240359 C27.3791703,26.6916373 26.6916373,27.3791703 25.8240359,27.8866348 C24.9564345,28.3940994 24.0151697,28.6478321 23.0002398,28.6478321 C21.9853099,28.6478321 21.044045,28.3940994 20.1764437,27.8866348 C19.3088423,27.3791703 18.6213093,26.6916373 18.1138447,25.8240359 C17.6063802,24.9564345 17.3526475,24.0151697 17.3526475,23.0002398 C17.3526475,21.9853099 17.6063802,21.044045 18.1138447,20.1764437 C18.6213093,19.3088423 19.3088423,18.6213093 20.1764437,18.1138447 C21.044045,17.6063802 21.9853099,17.3526475 23.0002398,17.3526475 Z M23.0002398,19.3170274 C21.9853099,19.3170274 21.1177093,19.6771635 20.3974364,20.3974364 C19.6771635,21.1177093 19.3170274,21.9853099 19.3170274,23.0002398 C19.3170274,24.0151697 19.6771635,24.8827703 20.3974364,25.6030432 C21.1177093,26.3233161 21.9853099,26.6834521 23.0002398,26.6834521 C24.0151697,26.6834521 24.8827703,26.3233161 25.6030432,25.6030432 C26.3233161,24.8827703 26.6834521,24.0151697 26.6834521,23.0002398 C26.6834521,21.9853099 26.3233161,21.1177093 25.6030432,20.3974364 C24.8827703,19.6771635 24.0151697,19.3170274 23.0002398,19.3170274 Z M28.8933795,15.7811436 C29.2535156,15.7811436 29.5645429,15.9121025 29.82646,16.1740196 C30.0883771,16.4359366 30.219336,16.746964 30.219336,17.1071 C30.1866026,17.4672361 30.0474527,17.7782634 29.8019053,18.0401805 C29.5563578,18.3020976 29.2535156,18.4330565 28.8933795,18.4330565 C28.5332435,18.4330565 28.2222162,18.3020976 27.9602991,18.0401805 C27.698382,17.7782634 27.5674231,17.4672361 27.5674231,17.1071 C27.5674231,16.746964 27.698382,16.4359366 27.9602991,16.1740196 C28.2222162,15.9121025 28.5332435,15.7811436 28.8933795,15.7811436 Z M22.6082271,12 L24.8202645,12.006906 C26.0265805,12.0174569 26.950485,12.0396137 27.5919778,12.0733765 C28.5250583,12.122486 29.335365,12.2616293 30.022898,12.4908072 C30.8413899,12.7854642 31.5534776,13.2356349 32.1591612,13.8413184 C32.7648447,14.447002 33.2150154,15.1590897 33.5096723,15.9775816 C33.7388503,16.6651146 33.8861787,17.4836064 33.9516578,18.4330565 L33.9683475,19.012587 C33.9866357,19.7989786 33.9971865,20.8716502 34,22.230602 L33.9935736,24.8202645 C33.9830227,26.0265805 33.9608659,26.950485 33.9271031,27.5919778 C33.8779936,28.5250583 33.7388503,29.335365 33.5096723,30.022898 C33.2150154,30.8413899 32.7648447,31.5534776 32.1591612,32.1591612 C31.5534776,32.7648447 30.8413899,33.2150154 30.022898,33.5096723 C29.335365,33.7388503 28.5250583,33.8779936 27.5919778,33.9271031 L27.2140649,33.9443681 C26.33457,33.9792819 25.0606324,33.9979857 23.3922525,34.0004796 L21.180215,33.9935736 C19.9738991,33.9830227 19.0499945,33.9608659 18.4085017,33.9271031 C17.5920563,33.8841323 16.8696096,33.7596958 16.2411615,33.5537941 L15.9775816,33.4605628 C15.1590897,33.1986458 14.447002,32.7648447 13.8413184,32.1591612 C13.2356349,31.5534776 12.7854642,30.8413899 12.4908072,30.022898 C12.2616293,29.335365 12.122486,28.5250583 12.0733765,27.5919778 L12.0561114,27.2140649 C12.0211977,26.33457 12.0024938,25.0606324 12,23.3922525 L12.006906,21.180215 C12.0174569,19.9738991 12.0396137,19.0499945 12.0733765,18.4085017 C12.122486,17.4754213 12.2616293,16.6651146 12.4908072,15.9775816 C12.7854642,15.1590897 13.2356349,14.447002 13.8413184,13.8413184 C14.447002,13.2356349 15.1590897,12.7854642 15.9775816,12.4908072 C16.6651146,12.2616293 17.4754213,12.122486 18.4085017,12.0733765 L18.7864147,12.0561114 C19.6659096,12.0211977 20.9398472,12.0024938 22.6082271,12 Z M24.536385,13.9660565 L21.4640946,13.9660565 C20.9874051,13.9686757 20.5578607,13.973914 20.1754615,13.9817715 L20.1754615,13.9817715 L19.1696989,14.0132017 C17.9583311,14.0786807 17.0743601,14.2096397 16.5177861,14.4060776 C15.5028562,14.7989536 14.7989536,15.5028562 14.4060776,16.5177861 C14.2096397,17.041621 14.0786807,17.9255919 14.0132017,19.1696989 C13.9870097,19.7459173 13.9712948,20.5107156 13.9660565,21.4640946 L13.9660565,21.4640946 L13.9660565,24.536385 C13.9686757,25.0130745 13.973914,25.4426188 13.9817715,25.8250181 L13.9817715,25.8250181 L14.0132017,26.8307806 C14.0786807,28.0421485 14.2096397,28.9261195 14.4060776,29.4826935 C14.8316935,30.4976234 15.5355998,31.2015259 16.5177861,31.5944019 C17.0743601,31.7908399 17.9583311,31.9217988 19.1696989,31.9872779 C19.7459173,32.0134698 20.5107156,32.0291848 21.4640946,32.0344231 L21.4640946,32.0344231 L24.4857005,32.034764 C25.1529403,32.0315171 25.7227729,32.0233999 26.1951982,32.0104122 L26.1951982,32.0104122 L26.8307806,31.9872779 C28.0748877,31.9217988 28.9588586,31.7908399 29.4826935,31.5944019 C30.4976234,31.168786 31.2015259,30.4648835 31.5944019,29.4826935 C31.7908399,28.9261195 31.9217988,28.0421485 31.9872779,26.8307806 C32.0134698,26.2545623 32.0291848,25.489764 32.0344231,24.536385 L32.0344231,24.536385 L32.034764,21.514779 C32.0315171,20.8475393 32.0233999,20.2777067 32.0104122,19.8052814 L32.0104122,19.8052814 L31.9872779,19.1696989 C31.9217988,17.9255919 31.7908399,17.041621 31.5944019,16.5177861 C31.2015259,15.5028562 30.4976234,14.7989536 29.4826935,14.4060776 C28.9588586,14.2096397 28.0748877,14.0786807 26.8307806,14.0132017 C26.2545623,13.9870097 25.489764,13.9712948 24.536385,13.9660565 L24.536385,13.9660565 Z" id="" fill="#53565A" fill-rule="nonzero"></path>
                    </g>
                </g>
            </g>
        </g>
    </g>
</svg>