<?xml version="1.0" encoding="utf-8"?>
<!-- Generator: Adobe Illustrator 26.2.1, SVG Export Plug-In . SVG Version: 6.00 Build 0)  -->
<!DOCTYPE svg PUBLIC "-//W3C//DTD SVG 1.1//EN" "http://www.w3.org/Graphics/SVG/1.1/DTD/svg11.dtd" [
	<!ENTITY ns_extend "http://ns.adobe.com/Extensibility/1.0/">
	<!ENTITY ns_ai "http://ns.adobe.com/AdobeIllustrator/10.0/">
	<!ENTITY ns_graphs "http://ns.adobe.com/Graphs/1.0/">
	<!ENTITY ns_vars "http://ns.adobe.com/Variables/1.0/">
	<!ENTITY ns_imrep "http://ns.adobe.com/ImageReplacement/1.0/">
	<!ENTITY ns_sfw "http://ns.adobe.com/SaveForWeb/1.0/">
	<!ENTITY ns_custom "http://ns.adobe.com/GenericCustomNamespace/1.0/">
	<!ENTITY ns_adobe_xpath "http://ns.adobe.com/XPath/1.0/">
]>
<svg version="1.1" id="Capa_1" xmlns:x="&ns_extend;" xmlns:i="&ns_ai;" xmlns:graph="&ns_graphs;"
	 xmlns="http://www.w3.org/2000/svg" xmlns:xlink="http://www.w3.org/1999/xlink" x="0px" y="0px" viewBox="0 0 59 37"
	 style="enable-background:new 0 0 59 37;" xml:space="preserve">
<style type="text/css">
	.st0{fill-rule:evenodd;clip-rule:evenodd;fill:#0070CF;}
	.st1{fill:#FFFFFF;}
	.st2{fill:#006FCF;}
</style>
<metadata>
	<sfw  xmlns="&ns_sfw;">
		<slices></slices>
		<sliceSourceBounds  bottomLeftOrigin="true" height="37" width="59" x="0" y="0"></sliceSourceBounds>
	</sfw>
</metadata>
<desc>Created with Sketch.</desc>
<g id="Opciones-de-Pago" transform="translate(1286.000000, 827.000000)">
	<g id="american-express-svgrepo-com" transform="translate(135.000000, 36.000000)">
		<g id="Group">
			<path id="Path" class="st0" d="M-1365.9-826h-51.1c-2.2,0-3.9-1.7-3.9-3.7v-29.6c0-2,1.8-3.7,3.9-3.7h51.1c2.2,0,3.9,1.7,3.9,3.7
				v29.6C-1362-827.7-1363.8-826-1365.9-826z"/>
		</g>
	</g>
</g>
<path id="path7" class="st1" d="M51.8,17.1h4.5V6.7h-4.9v1.4l-0.9-1.4h-4.2v1.8l-0.8-1.8h-7.8c-0.3,0-0.5,0.1-0.8,0.1
	c-0.3,0-0.4,0.1-0.7,0.3c-0.3,0.1-0.4,0.1-0.7,0.3V6.7H13.4l-0.7,1.7l-0.7-1.7H6.8v1.8L6,6.7H1.8L0,11.2v5.9h3l0.5-1.4h1.1l0.5,1.4
	h23.1v-1.3l0.9,1.3h6.4v-0.8c0.1,0.1,0.4,0.1,0.5,0.3c0.1,0.1,0.4,0.1,0.5,0.3c0.3,0.1,0.5,0.1,0.8,0.1h4.7l0.5-1.4h1.1l0.5,1.4h6.4
	v-1.3L51.8,17.1z M59,30.2v-9.7H22.9l-0.9,1.3L21,20.5H10.5v10.4H21l0.9-1.3l0.9,1.3h6.6v-2.2h-0.3c0.9,0,1.7-0.1,2.4-0.4V31h4.7
	v-1.3l0.9,1.3h19.6C57.6,30.8,58.3,30.6,59,30.2z"/>
<path id="path9" class="st2" d="M56.8,27.7h-3.5v1.4h3.4c1.4,0,2.4-0.9,2.4-2.2c0-1.3-0.8-2-2.1-2h-1.6c-0.4,0-0.7-0.3-0.7-0.7
	s0.3-0.7,0.7-0.7h3l0.7-1.4h-3.5c-1.4,0-2.4,0.9-2.4,2.1c0,1.3,0.8,2,2.1,2h1.6c0.4,0,0.7,0.3,0.7,0.7
	C57.6,27.5,57.3,27.7,56.8,27.7L56.8,27.7z M50.3,27.7h-3.5v1.4h3.4c1.4,0,2.4-0.9,2.4-2.2c0-1.3-0.8-2-2.1-2h-1.6
	c-0.4,0-0.7-0.3-0.7-0.7s0.3-0.7,0.7-0.7h3l0.7-1.4H49c-1.4,0-2.4,0.9-2.4,2.1c0,1.3,0.8,2,2.1,2h1.6c0.4,0,0.7,0.3,0.7,0.7
	C51.1,27.5,50.7,27.7,50.3,27.7L50.3,27.7z M45.7,23.5v-1.4h-5.5v7h5.5v-1.4h-3.9v-1.4h3.8v-1.4h-3.8v-1.3h3.9V23.5z M36.8,23.5
	c0.7,0,0.9,0.4,0.9,0.8c0,0.4-0.3,0.8-0.9,0.8h-2v-1.7L36.8,23.5z M34.8,26.6h0.8l2.1,2.5h2l-2.4-2.6c1.2-0.3,1.8-1.1,1.8-2.1
	c0-1.3-0.9-2.2-2.4-2.2h-3.7v7h1.6L34.8,26.6z M30.6,24.5c0,0.5-0.3,0.9-0.9,0.9h-2.1v-1.8h2C30.2,23.5,30.6,23.9,30.6,24.5
	L30.6,24.5z M26,22.1v7h1.6v-2.4h2.1c1.4,0,2.5-0.9,2.5-2.4c0-1.3-0.9-2.4-2.4-2.4L26,22.1z M23.7,29.1h2l-2.8-3.5l2.8-3.4h-2
	l-1.7,2.2l-1.7-2.2h-2l2.8,3.4l-2.8,3.4h2l1.7-2.2L23.7,29.1z M17.7,23.5v-1.4h-5.5v7h5.5v-1.4h-3.9v-1.4h3.8v-1.4h-3.8v-1.3h3.9
	V23.5z M49.7,11.2l2.8,4.2h2v-7h-1.6V13l-0.4-0.7l-2.5-3.9h-2.1v7h1.6v-4.7L49.7,11.2z M42.8,11.1l0.5-1.4l0.5,1.4l0.7,1.6h-2.4
	L42.8,11.1z M45.6,15.4h1.7l-3-7h-2.1l-3,7h1.7l0.7-1.4h3.4L45.6,15.4z M38.2,15.4l0.7-1.4h-0.4c-1.2,0-1.8-0.8-1.8-2v-0.1
	c0-1.2,0.7-2,1.8-2h1.7V8.4h-1.8c-2.1,0-3.3,1.4-3.3,3.4V12C35.1,14.1,36.3,15.4,38.2,15.4L38.2,15.4z M32.3,15.4h1.6V8.6h-1.6V15.4
	z M28.9,9.9c0.7,0,0.9,0.4,0.9,0.8c0,0.4-0.3,0.8-0.9,0.8h-2V9.7L28.9,9.9z M26.9,12.9h0.8l2.1,2.5h2l-2.4-2.6
	c1.2-0.3,1.8-1.1,1.8-2.1c0-1.3-0.9-2.2-2.4-2.2h-3.7v7h1.6L26.9,12.9z M24,9.9V8.4h-5.5v7H24v-1.4h-3.9v-1.4h3.8v-1.4h-3.8V9.7H24
	V9.9z M12.1,15.4h1.4l2-5.7v5.7h1.6v-7h-2.6l-1.6,4.7l-1.6-4.7H8.7v7h1.6V9.7L12.1,15.4z M3.5,11.1l0.5-1.4l0.5,1.4l0.7,1.6H2.9
	L3.5,11.1z M6.3,15.4H8l-3-7H3l-3,7h1.7l0.7-1.4h3.4L6.3,15.4z"/>
</svg>
