<?xml version="1.0" encoding="UTF-8"?>
<svg width="18px" height="20px" viewBox="0 0 18 20" version="1.1" xmlns="http://www.w3.org/2000/svg" xmlns:xlink="http://www.w3.org/1999/xlink">
    <!-- Generator: Sketch 59.1 (86144) - https://sketch.com -->
    <title>delete-icon</title>
    <desc>Created with Sketch.</desc>
    <g id="Page-1" stroke="none" stroke-width="1" fill="none" fill-rule="evenodd">
        <g id="15-Tu-Carrito" transform="translate(-1139.000000, -449.000000)" fill="#D03838">
            <g id="3" transform="translate(228.000000, 377.000000)">
                <g id="Products">
                    <g id="2" transform="translate(0.000000, 27.000000)">
                        <path d="M922.210615,44.9999 C922.516314,44.9999 922.803142,45.1508624 922.978007,45.4024664 L922.978007,45.4024664 L924.924164,48.2141408 L927.672937,48.2141408 C928.189984,48.2141408 928.607646,48.6330614 928.607646,49.1488496 C928.607646,49.6646377 928.189984,50.0823003 927.672937,50.0823003 L927.672937,50.0823003 L927.285467,50.0823003 L927.285467,63.0084545 C927.285467,64.1029318 926.388499,64.9999 925.292764,64.9999 L925.292764,64.9999 L914.314024,64.9999 C913.218289,64.9999 912.322579,64.1029318 912.322579,63.0084545 L912.322579,63.0084545 L912.322579,50.0823003 L911.933851,50.0823003 C911.418063,50.0823003 911.0004,49.6646377 911.0004,49.1488496 C911.0004,48.6330614 911.418063,48.2141408 911.933851,48.2141408 L911.933851,48.2141408 L914.836103,48.2141408 L916.609911,45.4314008 C916.781001,45.1621846 917.077894,44.9999 917.397431,44.9999 L917.397431,44.9999 Z M925.417308,50.0936225 L914.190738,50.0936225 L914.190738,63.0084545 C914.190738,63.0726135 914.251123,63.1317405 914.314024,63.1317405 L914.314024,63.1317405 L925.292764,63.1317405 C925.356923,63.1317405 925.417308,63.0726135 925.417308,63.0084545 L925.417308,63.0084545 L925.417308,50.0936225 Z M922.404853,51.9402699 C922.68036,51.9402699 922.904287,52.1641974 922.904287,52.4384457 L922.904287,52.4384457 L922.904287,60.7879237 C922.904287,61.062172 922.68036,61.2860995 922.404853,61.2860995 L922.404853,61.2860995 L921.546884,61.2860995 C921.271377,61.2860995 921.048708,61.062172 921.048708,60.7879237 L921.048708,60.7879237 L921.048708,52.4384457 C921.048708,52.1641974 921.271377,51.9402699 921.546884,51.9402699 L921.546884,51.9402699 Z M918.039273,51.9119644 C918.314779,51.9119644 918.538707,52.1358919 918.538707,52.4101403 L918.538707,52.4101403 L918.538707,60.7596182 C918.538707,61.0338665 918.314779,61.2577941 918.039273,61.2577941 L918.039273,61.2577941 L917.181303,61.2577941 C916.905797,61.2577941 916.683127,61.0338665 916.683127,60.7596182 L916.683127,60.7596182 L916.683127,52.4101403 C916.683127,52.1358919 916.905797,51.9119644 917.181303,51.9119644 L917.181303,51.9119644 Z M921.721245,46.8680595 L917.909445,46.8680595 L917.051476,48.2141408 L922.653438,48.2141408 L921.721245,46.8680595 Z" id="delete-icon"></path>
                    </g>
                </g>
            </g>
        </g>
    </g>
</svg>