<?xml version="1.0" encoding="UTF-8"?>
<svg width="59px" height="37px" viewBox="0 0 59 37" version="1.1" xmlns="http://www.w3.org/2000/svg" xmlns:xlink="http://www.w3.org/1999/xlink">
    <!-- Generator: Sketch 59.1 (86144) - https://sketch.com -->
    <title>dinersclub</title>
    <desc>Created with Sketch.</desc>
    <g id="Page-1" stroke="none" stroke-width="1" fill="none" fill-rule="evenodd">
        <g id="15-Tu-Carrito" transform="translate(-1489.000000, -863.000000)">
            <g id="Opciones-de-Pago" transform="translate(1286.000000, 827.000000)">
                <g id="dinersclub" transform="translate(203.000000, 36.000000)">
                    <path d="M55.0666667,37 L3.93333333,37 C1.76180556,37 0,35.3427083 0,33.3 L0,3.7 C0,1.65729167 1.76180556,0 3.93333333,0 L55.0666667,0 C57.2381944,0 59,1.65729167 59,3.7 L59,33.3 C59,35.3427083 57.2381944,37 55.0666667,37 Z" id="Path" fill="#FFFFFF"></path>
                    <g transform="translate(13.000000, 7.000000)">
                        <path d="M10.7333817,-3.60600438e-13 C4.80554142,-3.60600438e-13 5.68434189e-14,4.83607143 5.68434189e-14,10.8016071 C5.68434189e-14,16.7671429 4.80554142,21.6032143 10.7723166,21.6032143 L23.3375858,21.6032143 C29.265426,21.6032143 34.0699941,16.7671429 34.0699941,10.8016071 C34.0699941,4.83607143 29.265426,-3.60600438e-13 23.3375858,-3.60600438e-13 L10.7333817,-3.60600438e-13 Z" id="Fill-22" fill="#1A5A9C"></path>
                        <path d="M10.717029,20.6134107 C5.34109112,20.6134107 0.982327811,16.2202857 0.982327811,10.8018036 C0.982327811,5.38233929 5.34109112,0.990196429 10.717029,0.990196429 C16.0929669,0.990196429 20.4517302,5.38233929 20.4517302,10.8018036 C20.4517302,16.2202857 16.0929669,20.6134107 10.717029,20.6134107" id="Fill-30" fill="#FFFFFF"></path>
                        <path d="M8.66194704,3.96883929 C5.89464822,4.87928571 3.88755355,7.59392857 3.88755355,10.8016071 C3.88755355,14.0092857 5.89464822,16.7239286 8.66194704,17.6353571 L8.66194704,3.96883929 Z" id="Fill-32" fill="#1D5B9E"></path>
                        <path d="M12.649466,3.93809821 L12.649466,17.6655089 C15.4644601,16.7855089 17.5163299,14.0453304 17.5163299,10.8013125 C17.5163299,7.55827679 15.4644601,4.81809821 12.649466,3.93809821" id="Fill-34" fill="#1D5B9E"></path>
                    </g>
                </g>
            </g>
        </g>
    </g>
</svg>