<?xml version="1.0" encoding="UTF-8"?>
<svg width="15px" height="16px" viewBox="0 0 15 16" version="1.1" xmlns="http://www.w3.org/2000/svg" xmlns:xlink="http://www.w3.org/1999/xlink">
    <!-- Generator: Sketch 59.1 (86144) - https://sketch.com -->
    <title>compartir-icon</title>
    <desc>Created with Sketch.</desc>
    <g id="Page-1" stroke="none" stroke-width="1" fill="none" fill-rule="evenodd">
        <g id="9-Producto" transform="translate(-1075.000000, -734.000000)" fill="#53565A" fill-rule="nonzero">
            <g id="Product_v2" transform="translate(0.000000, 127.000000)">
                <g id="Product" transform="translate(1075.000000, 96.000000)">
                    <path d="M11.9428964,520.962441 C10.9978983,520.962441 10.1519006,521.388047 9.590565,522.055186 L5.93910186,520.008419 C6.05265285,519.692947 6.1150631,519.353744 6.1150631,519.000246 C6.1150631,518.646819 6.05265285,518.307616 5.93910186,517.992144 L9.59027969,515.944885 C10.151544,516.612235 10.9976843,517.037982 11.9427538,517.037982 C13.6284724,517.037982 15,515.683494 15,514.018533 C15,512.354066 13.628615,511 11.9428964,511 C10.2569638,511 8.88536486,512.354066 8.88536486,514.018463 C8.88536486,514.37196 8.94770378,514.711234 9.06132609,515.026776 L5.40993428,517.074106 C4.84867001,516.407108 4.00274367,515.981643 3.05795951,515.981643 C1.37181292,515.981643 0,517.335708 0,519.000176 C0,520.664573 1.37181292,522.018639 3.05795951,522.018639 C4.00274367,522.018639 4.84859868,521.593174 5.40986296,520.926246 L9.06132609,522.973083 C8.94770378,523.288625 8.88529353,523.627969 8.88529353,523.981537 C8.88529353,525.645934 10.2568925,527 11.9428251,527 C13.6285437,527 15,525.645864 15,523.981537 C15,522.316858 13.628615,520.962441 11.9428964,520.962441 Z M11.9428964,512.056268 C13.0386777,512.056268 13.9301814,512.936492 13.9301814,514.018463 C13.9301814,515.100997 13.0386777,515.981643 11.9428964,515.981643 C10.8469011,515.981643 9.95525482,515.100997 9.95525482,514.018463 C9.95525482,512.936492 10.8469011,512.056268 11.9428964,512.056268 Z M3.05803083,520.962441 C1.96182157,520.962441 1.06996129,520.082147 1.06996129,519.000246 C1.06996129,517.918205 1.96182157,517.037982 3.05803083,517.037982 C4.15381214,517.037982 5.04524446,517.918205 5.04524446,519.000246 C5.04524446,520.082147 4.15374081,520.962441 3.05803083,520.962441 Z M11.9428964,525.943802 C10.8469011,525.943802 9.95525482,525.063508 9.95525482,523.981608 C9.95525482,522.899285 10.8469011,522.018709 11.9428964,522.018709 C13.0386777,522.018709 13.9301814,522.899285 13.9301814,523.981608 C13.9301814,525.063508 13.0386777,525.943802 11.9428964,525.943802 Z" id="compartir-icon"></path>
                </g>
            </g>
        </g>
    </g>
</svg>