<?xml version="1.0" encoding="UTF-8"?>
<svg width="72px" height="75px" viewBox="0 0 72 75" version="1.1" xmlns="http://www.w3.org/2000/svg" xmlns:xlink="http://www.w3.org/1999/xlink">
    <!-- Generator: Sketch 59.1 (86144) - https://sketch.com -->
    <title>consulta-icon</title>
    <desc>Created with Sketch.</desc>
    <g id="Page-1" stroke="none" stroke-width="1" fill="none" fill-rule="evenodd">
        <g id="11-Pop-up" transform="translate(-470.000000, -393.000000)" fill="#E9711C" fill-rule="nonzero">
            <g id="Pop-up" transform="translate(420.000000, 291.000000)">
                <path d="M78.8183328,151.498543 C81.8983328,151.248543 84.7383328,151.158543 87.4883328,151.218543 C94.8883328,151.388543 101.248333,152.388543 106.918333,154.278543 C111.458333,155.798543 115.248333,157.738543 118.488333,160.228543 C120.378333,161.688543 121.358333,163.588543 121.388333,165.888543 C121.418333,167.858543 121.418333,169.868543 121.388333,171.828543 C121.388333,173.108543 121.378333,174.388543 121.388333,175.678543 C121.388333,175.878543 121.368333,176.138543 121.178333,176.308543 C120.998333,176.478543 120.738333,176.468543 120.558333,176.448543 C120.398333,176.428543 120.198333,176.448543 120.008333,176.468543 C119.858333,176.478543 119.708333,176.498543 119.558333,176.498543 C119.288333,176.498543 119.028333,176.448543 118.828333,176.248543 C118.518333,175.928543 118.568333,175.438543 118.618333,174.998543 C118.638333,174.838543 118.658333,174.688543 118.658333,174.548543 C118.648333,171.848543 118.648333,169.148543 118.658333,166.448543 C118.668333,164.628543 117.938333,163.208543 116.418333,162.108543 C112.298333,159.118543 107.368333,156.988543 101.338333,155.578543 L101.338333,155.578543 L104.418333,160.968543 C104.878333,161.768543 105.348333,162.568543 105.798333,163.378543 C106.368333,164.398543 106.388333,165.538543 105.868333,166.438543 C105.338333,167.338543 104.328333,167.888543 103.158333,167.888543 C99.1383328,167.908543 95.1183328,167.898543 91.0983328,167.888543 C90.7283328,167.878543 90.6083328,167.958543 90.4383328,168.218543 C89.5883328,169.508543 88.7083328,170.788543 87.8383328,172.068543 L87.8383328,172.068543 L87.0583328,173.208543 C86.5683328,173.938543 86.0683328,174.088543 85.7383328,174.088543 L85.7383328,174.088543 L85.6652278,174.086094 C85.3383328,174.064207 84.8833328,173.887115 84.4283328,173.218543 L84.4283328,173.218543 L83.5783328,171.968543 C82.7183328,170.708543 81.8583328,169.448543 81.0183328,168.178543 C80.8783328,167.958543 80.7383328,167.888543 80.4583328,167.888543 L80.4583328,167.888543 L76.4383328,167.902247 C73.7583328,167.907432 71.0783328,167.90521 68.3983328,167.898543 C67.4283328,167.898543 66.5683328,167.558543 65.9983328,166.948543 C65.4583328,166.368543 65.1883328,165.578543 65.2483328,164.708543 C65.2783328,164.168543 65.5083328,163.708543 65.7183328,163.338543 C66.9883328,161.128543 68.2583328,158.908543 69.5283328,156.688543 L69.5283328,156.688543 L70.1383328,155.628543 L70.1383328,155.628543 L70.1583328,155.588543 C69.8783328,155.628543 69.6083328,155.708543 69.3383328,155.778543 L69.3383328,155.778543 L68.9883328,155.868543 C63.3683328,157.298543 58.7583328,159.388543 54.8683328,162.268543 C53.4983328,163.278543 52.8383328,164.588543 52.8383328,166.258543 L52.8383328,166.258543 L52.8383328,168.578543 C52.8383328,170.898543 52.8383328,173.218543 52.8483328,175.538543 C52.8483328,175.808543 52.8183328,176.108543 52.6083328,176.298543 C52.3983328,176.488543 52.1083328,176.468543 51.9083328,176.448543 C51.7583328,176.428543 51.5583328,176.448543 51.3583328,176.448543 C50.9883328,176.488543 50.5683328,176.538543 50.2783328,176.268543 C49.9283328,175.938543 49.9883328,175.448543 50.0383328,175.008543 C50.0583328,174.868543 50.0783328,174.718543 50.0783328,174.578543 C50.0683328,172.678543 50.0683328,170.778543 50.0683328,168.878543 L50.0683328,168.878543 L50.0683328,166.368543 C50.0683328,163.698543 51.1683328,161.548543 53.3383328,159.958543 C57.4083328,156.998543 62.1183328,154.828543 67.7583328,153.338543 C71.2083328,152.428543 74.8283328,151.828543 78.8183328,151.498543 Z M96.3383328,154.658543 C89.2283328,153.718543 82.2983328,153.718543 75.1683328,154.658543 L75.1683328,154.658543 L85.7583328,170.248543 Z M72.9383328,156.288543 L71.4483328,158.868543 L71.4483328,158.868543 L68.1383328,164.658543 C67.9983328,164.898543 67.9983328,165.028543 68.0183328,165.068543 C68.0383328,165.098543 68.1283328,165.148543 68.3383328,165.148543 L68.3383328,165.148543 L76.4483328,165.148543 L78.9583328,165.158543 L72.9383328,156.288543 Z M98.5783328,156.278543 L92.5583328,165.148543 L103.098333,165.148543 C103.448333,165.148543 103.508333,165.068543 103.508333,165.068543 C103.508333,165.068543 103.548333,164.968543 103.358333,164.638543 C101.768333,161.848543 100.168333,159.058543 98.5783328,156.278543 L98.5783328,156.278543 Z M81.6683328,102.498543 C89.2383328,100.948543 95.7483328,103.018543 100.998333,108.628543 C103.738333,111.578543 105.408333,115.178543 105.958333,119.348543 L105.958333,119.348543 L105.978333,119.498543 C106.018333,119.808543 106.068333,120.128543 106.068333,120.448543 C106.078333,120.678543 106.108333,120.708543 106.368333,120.708543 L106.368333,120.708543 L106.728333,120.708543 C107.768333,120.698543 108.858333,120.688543 109.918333,120.978543 C113.458333,121.958543 115.748333,125.258543 115.478333,129.008543 C115.238333,132.378543 112.448333,135.398543 109.118333,135.878543 C108.288333,135.998543 107.408333,136.028543 106.248333,135.988543 C106.058333,135.988543 106.028333,135.998543 105.968333,136.218543 C105.008333,139.998543 102.128333,142.248543 98.2483328,142.248543 L98.2483328,142.248543 L86.2950528,142.248943 C86.1155328,142.248943 85.9283328,142.242543 85.7283328,142.178543 C85.0483328,141.968543 84.6583328,141.418543 84.7183328,140.728543 C84.7783328,140.048543 85.2983328,139.548543 85.9883328,139.488543 C86.1183328,139.478543 86.2583328,139.478543 86.3883328,139.478543 L86.3883328,139.478543 L98.2383328,139.478543 C101.328333,139.478543 103.408333,137.388543 103.408333,134.278543 L103.408333,134.278543 L103.408333,131.728543 C103.408333,129.098543 103.398333,126.468543 103.418333,123.838543 C103.418333,123.608543 103.388333,123.558543 103.378333,123.548543 C103.368333,123.528543 103.298333,123.508543 103.078333,123.508543 C100.258333,123.588543 97.2483328,123.538543 94.3083328,122.718543 C91.1483328,121.838543 88.4483328,120.278543 86.2983328,118.108543 C86.1583328,117.958543 86.1083328,117.958543 86.0983328,117.958543 C86.0783328,117.958543 86.0283328,117.978543 85.8683328,118.138543 C83.1383328,120.838543 79.6883328,122.548543 75.6083328,123.208543 C73.2783328,123.588543 70.9183328,123.568543 69.1283328,123.518543 C68.8883328,123.518543 68.8283328,123.548543 68.8183328,123.558543 C68.8083328,123.568543 68.7783328,123.628543 68.7783328,123.848543 C68.7883328,124.578543 68.7883328,125.298543 68.7783328,126.028543 C68.7683328,127.158543 68.7583328,128.318543 68.8283328,129.458543 C69.0983328,134.038543 70.9783328,137.968543 74.3983328,141.158543 C77.0283328,143.608543 80.2383328,145.098543 83.9483328,145.598543 C84.5083328,145.668543 85.0983328,145.698543 85.6683328,145.718543 L85.6683328,145.718543 L85.9483328,145.728543 C86.8483328,145.758543 87.4683328,146.338543 87.4683328,147.118543 C87.4683328,147.478543 87.3283328,147.818543 87.0683328,148.068543 C86.7883328,148.338543 86.3983328,148.488543 85.9583328,148.488543 L85.9583328,148.488543 L85.9183328,148.488543 C80.4083328,148.368543 75.6583328,146.348543 71.7983328,142.488543 C69.6983328,140.388543 68.1183328,137.838543 67.0883328,134.898543 C66.6083328,136.338543 66.1383328,137.458543 65.6083328,138.498543 C64.3183328,140.998543 62.8683328,142.758543 61.0283328,144.038543 C60.8083328,144.188543 60.7683328,144.298543 60.7683328,144.328543 C60.7683328,144.368543 60.8483328,144.468543 61.1083328,144.578543 C63.3883328,145.528543 65.8083328,145.778543 68.2883328,145.348543 C68.4583328,145.318543 68.6083328,145.288543 68.7583328,145.278543 C69.5983328,145.198543 70.2083328,145.638543 70.3483328,146.418543 C70.4783328,147.138543 69.9883328,147.808543 69.2083328,147.978543 C67.1683328,148.428543 65.0583328,148.438543 62.9283328,148.008543 C61.8083328,147.778543 60.7583328,147.448543 59.8083328,147.018543 C58.7883328,146.558543 58.1183328,145.638543 58.0183328,144.568543 C57.9283328,143.508543 58.4083328,142.508543 59.3083328,141.878543 C61.3883328,140.428543 62.8583328,138.328543 64.0783328,135.058543 C65.1483328,132.188543 65.7583328,128.968543 65.9483328,125.208543 C65.9883328,124.488543 65.9983328,123.768543 66.0083328,123.048543 C66.0283328,121.468543 66.0583328,119.838543 66.3583328,118.228543 C67.7983328,110.518543 74.0983328,104.048543 81.6683328,102.498543 Z M106.508333,123.458543 L106.438333,123.458543 C106.268333,123.458543 106.218333,123.488543 106.208333,123.498543 C106.198333,123.508543 106.168333,123.558543 106.168333,123.788543 C106.188333,124.878543 106.178333,125.978543 106.178333,127.068543 L106.178333,127.068543 L106.168333,129.288543 C106.168333,130.048543 106.168333,130.798543 106.178333,131.538543 C106.178333,131.748543 106.148333,131.978543 106.128333,132.198543 C106.088333,132.598543 106.038333,133.048543 106.208333,133.178543 C106.458333,133.368543 107.008333,133.318543 107.478333,133.268543 C107.648333,133.248543 107.808333,133.238543 107.968333,133.228543 C110.398333,133.108543 112.388333,131.388543 112.688333,129.138543 C113.028333,126.658543 111.678333,124.478543 109.348333,123.718543 C108.638333,123.488543 107.918333,123.478543 107.148333,123.468543 C106.938333,123.468543 106.718333,123.468543 106.508333,123.458543 L106.508333,123.458543 Z M79.3083328,125.998543 C79.9083328,126.008543 80.4683328,126.248543 80.8783328,126.668543 C81.2983328,127.098543 81.5183328,127.678543 81.5083328,128.298543 C81.4883328,129.578543 80.5383328,130.498543 79.2583328,130.498543 L79.2583328,130.498543 L79.2183328,130.498543 C78.6083328,130.488543 78.0383328,130.248543 77.6283328,129.818543 C77.2083328,129.398543 76.9883328,128.818543 76.9983328,128.208543 C77.0083328,127.608543 77.2483328,127.058543 77.6783328,126.638543 C78.1083328,126.228543 78.6683328,125.998543 79.2683328,125.998543 L79.2683328,125.998543 Z M92.2383328,126.008543 C92.8283328,126.008543 93.3883328,126.238543 93.8183328,126.668543 C94.2583328,127.098543 94.4983328,127.658543 94.4983328,128.248543 C94.4983328,128.848543 94.2683328,129.408543 93.8483328,129.838543 C93.4283328,130.258543 92.8583328,130.498543 92.2583328,130.498543 C90.9983328,130.498543 90.0083328,129.518543 89.9983328,128.278543 C89.9883328,127.028543 90.9983328,126.018543 92.2283328,126.008543 L92.2283328,126.008543 Z M102.168333,115.688543 C99.2683328,108.238543 91.1783328,103.628543 83.3383328,104.958543 C78.4983328,105.788543 74.5983328,108.268543 71.7683328,112.338543 C70.1183328,114.708543 69.1283328,117.468543 68.8183328,120.548543 L68.8183328,120.548543 L68.8083328,120.628543 C68.8083328,120.668543 68.7983328,120.728543 68.7983328,120.758543 L68.7983328,120.758543 L68.8358328,120.763543 L68.8358328,120.763543 L68.8883328,120.768543 L69.1483328,120.768543 C71.1183328,120.798543 73.1383328,120.818543 75.1083328,120.498543 C79.1883328,119.838543 82.3783328,118.088543 84.8683328,115.168543 C85.2683328,114.698543 85.6583328,114.468543 86.0783328,114.468543 L86.0783328,114.468543 L86.2070628,114.476053 C86.5925328,114.521143 86.9723328,114.769543 87.3683328,115.228543 C88.7783328,116.878543 90.4783328,118.178543 92.4083328,119.088543 C94.9383328,120.268543 97.7183328,120.808543 101.208333,120.758543 L101.208333,120.758543 L101.768333,120.758543 C102.208333,120.758543 102.648333,120.748543 103.088333,120.768543 C103.278333,120.778543 103.318333,120.748543 103.328333,120.748543 C103.318333,120.748543 103.348333,120.698543 103.328333,120.508543 C103.168333,118.868543 102.778333,117.248543 102.168333,115.688543 Z" id="consulta-icon"></path>
            </g>
        </g>
    </g>
</svg>