<?xml version="1.0" encoding="UTF-8"?>
<svg width="33px" height="25px" viewBox="0 0 33 25" version="1.1" xmlns="http://www.w3.org/2000/svg" xmlns:xlink="http://www.w3.org/1999/xlink">
    <!-- Generator: Sketch 59.1 (86144) - https://sketch.com -->
    <title>libro-fisico-icon</title>
    <desc>Created with Sketch.</desc>
    <g id="Page-1" stroke="none" stroke-width="1" fill="none" fill-rule="evenodd">
        <g id="9-Producto" transform="translate(-1100.000000, -521.000000)" fill="#0090B2" fill-rule="nonzero">
            <g id="Product_v2" transform="translate(0.000000, 127.000000)">
                <g id="Product" transform="translate(1075.000000, 96.000000)">
                    <g id="Formato" transform="translate(0.000000, 236.000000)">
                        <g id="Libro-Físico" transform="translate(0.000000, 35.000000)">
                            <path d="M56.5522247,31.0494003 C57.1977621,31.0494003 57.7229843,31.5746225 57.7229843,32.2201599 L57.7229843,32.2201599 L57.7229843,50.829354 C57.7229843,51.1873248 57.562564,51.520836 57.2829303,51.743948 C57.0023049,51.9676109 56.6403677,52.0500246 56.2901094,51.9702552 C53.4849579,51.330998 48.5628316,50.5878422 43.8936757,51.7310571 C46.5933861,49.1759012 50.4053511,48.7238377 52.7172322,48.7183288 C54.3637438,48.7142522 55.7031871,47.3737071 55.7031871,45.7297297 L55.7031871,45.7297297 L55.7031871,31.0494003 Z M27.0197972,31.0494003 L27.0197972,45.7297297 C27.0197972,47.3737071 28.3593507,48.7142522 30.005752,48.7182186 C32.3176331,48.7237276 36.1295982,49.1756809 38.8291984,51.7307265 C34.1602629,50.5875116 29.2380264,51.3305572 26.4328749,51.9699246 C26.0820657,52.0499144 25.720459,51.9671702 25.440054,51.7436174 C25.1604203,51.5205054 25,51.1871045 25,50.8290235 L25,50.8290235 L25,32.2201599 C25,31.5746225 25.5253324,31.0494003 26.1707596,31.0494003 L26.1707596,31.0494003 L27.0197972,31.0494003 Z M30.0056418,27.0001102 C32.7374142,27.0065005 37.706036,27.639147 40.2916012,31.8030231 C40.3968219,31.9726984 40.4525724,32.1777411 40.4525724,32.3960052 L40.4525724,32.3960052 L40.4525724,50.7716203 C37.302341,47.4749614 32.7358717,46.9068797 30.0102693,46.9003791 C29.3637403,46.8987264 28.8378571,46.3736144 28.8378571,45.7297297 L28.8378571,45.7297297 L28.8378571,28.1710901 C28.8378571,27.8568603 28.9602657,27.5616914 29.1824963,27.3400117 C29.4023029,27.1207559 29.6933952,27.0001102 30.0028874,27.0001102 L30.0028874,27.0001102 Z M52.7203173,27 C53.0294789,27 53.3207915,27.1206458 53.5405982,27.3399015 C53.7628288,27.5615812 53.8852374,27.8567501 53.8852374,28.17098 L53.8852374,28.17098 L53.8852374,45.7297297 C53.8852374,46.3735042 53.3593541,46.8986163 52.7129353,46.9002689 C49.9873329,46.9067695 45.4208636,47.4748512 42.2706322,50.7715102 L42.2706322,50.7715102 L42.2706322,32.3960052 C42.2706322,32.1777411 42.3262725,31.9726984 42.4314933,31.8030231 C45.0171686,27.639147 49.9857904,27.0065005 52.7174526,27 L52.7174526,27 Z" id="libro-fisico-icon"></path>
                        </g>
                    </g>
                </g>
            </g>
        </g>
    </g>
</svg>