<?xml version="1.0" encoding="UTF-8"?>
<svg width="59px" height="37px" viewBox="0 0 59 37" version="1.1" xmlns="http://www.w3.org/2000/svg" xmlns:xlink="http://www.w3.org/1999/xlink">
    <!-- Generator: Sketch 59.1 (86144) - https://sketch.com -->
    <title>visa</title>
    <desc>Created with Sketch.</desc>
    <defs>
        <path d="M29.1395788,21.705285 L28.6926316,24.4923444 C29.6761644,24.9110227 30.8202995,25.1550452 32.0217035,25.1550452 C32.1175669,25.1550452 32.2121852,25.1538065 32.3068036,25.1500905 L32.2931088,25.1500905 C32.4026669,25.1562839 32.5296547,25.16 32.6591324,25.16 C34.0398133,25.16 35.319651,24.7289348 36.3704127,23.9943898 L36.3492481,24.0080155 C37.3029014,23.3044378 37.9154308,22.1883753 37.9154308,20.9298632 C37.9154308,20.9236697 37.9154308,20.9174763 37.9154308,20.9112828 L37.9154308,20.9125215 C37.9154308,19.5499591 36.9991267,18.4177937 35.1926632,17.5432764 C34.6623025,17.2856282 34.2091304,17.0155931 33.7833478,16.7108746 L33.8119823,16.7306937 C33.5654766,16.5696636 33.4011395,16.3033446 33.3849548,15.9973874 L33.3849548,15.99491 C33.4048744,15.6728498 33.5903762,15.39786 33.8568015,15.2516942 L33.8617814,15.2492168 C34.2128653,15.0460711 34.633668,14.9259179 35.0843501,14.9259179 C35.1366392,14.9259179 35.1889283,14.9271566 35.2412174,14.9308727 L35.2337475,14.9308727 L35.3333458,14.9308727 C35.3619803,14.9308727 35.3955947,14.929634 35.4292091,14.929634 C36.2309751,14.929634 36.9916569,15.1018123 37.6776399,15.4102469 L37.6427805,15.3966213 L37.9341054,15.5514579 L38.3810526,12.8622553 C37.5406923,12.5315242 36.5658743,12.3395268 35.5462371,12.3395268 C35.5263174,12.3395268 35.5051528,12.3395268 35.4852331,12.3395268 L35.4889681,12.3395268 C35.4092895,12.3358107 35.3159161,12.3333333 35.2225427,12.3333333 C33.8580465,12.3333333 32.5931486,12.7631598 31.5585716,13.4939887 L31.5784913,13.4803631 C30.6422676,14.1443026 30.0384531,15.2194882 30.0384531,16.4358848 L30.0384531,16.4420782 C30.0260033,17.7526155 30.9746768,18.8847809 32.8595739,19.8113234 C33.3575652,20.0280946 33.7870827,20.293175 34.171781,20.6115191 L34.1630662,20.6040869 C34.3809374,20.7874135 34.5216199,21.0562099 34.5328247,21.3572123 L34.5328247,21.3596897 L34.5328247,21.3621671 C34.5328247,21.7573102 34.2962789,22.0967121 33.9551548,22.2490713 L33.9489299,22.2515487 C33.5754364,22.4472622 33.1322242,22.561222 32.6616224,22.561222 C32.6429477,22.561222 32.623028,22.561222 32.6043534,22.561222 L32.6068433,22.561222 C32.5794538,22.561222 32.5458394,22.561222 32.51347,22.561222 C31.4465236,22.561222 30.4356012,22.3258703 29.529257,21.9047146 L29.5728312,21.923295 L29.1458037,21.7102398 L29.1395788,21.705285 Z M42.3445766,23.2429016 L46.3762065,23.2429016 C46.4410693,23.5351526 46.5679572,24.1741854 46.7568702,25.16 L49.6842105,25.16 L47.1375339,12.3397237 L44.705178,12.3397237 C44.6626118,12.3358895 44.6127485,12.3333333 44.561669,12.3333333 C43.878177,12.3333333 43.2931954,12.7781002 43.0548245,13.4069085 L43.051176,13.4184111 L38.3810526,25.16 L41.6890567,25.16 L42.3530898,23.2441796 L42.3445766,23.2429016 Z M25.7153768,12.3333333 L23.8484211,25.16 L26.826824,25.16 L28.6926316,12.3333333 L25.7153768,12.3333333 Z M12.9001534,14.9662158 L15.4902245,25.16 L18.8462694,25.16 L23.8484211,12.3474061 L20.477646,12.3474061 L17.3671055,21.1032116 L17.0405847,19.3236492 L15.9309049,13.4271694 C15.8192004,12.8015719 15.2999587,12.3333333 14.67515,12.3333333 C14.6113189,12.3333333 14.5474877,12.3384507 14.4861116,12.3474061 L14.4934768,12.3461267 L9.35384265,12.3461267 L9.31578947,12.6058328 C13.27332,13.6536126 15.8732114,15.9142071 17.0442673,19.3223698 C16.664963,18.3091323 16.1113506,17.4455775 15.4165732,16.7329849 L15.4153457,16.7317056 C14.7193408,15.9871295 13.8833984,15.3896775 12.9517093,14.9815679 L12.9026084,14.9623778 L12.9001534,14.9662158 Z M46.4547368,20.35 L43.2252632,20.35 C43.4435517,19.8561409 43.9578752,18.6599423 44.7682339,16.7614042 L44.8370097,16.5806928 C44.8998051,16.4474021 44.9775517,16.2730989 45.07623,16.0603464 C45.1749084,15.8475939 45.240694,15.6732907 45.2855478,15.54 L45.5666316,16.6409299 L46.4532417,20.3448734 L46.4547368,20.35 Z" id="path-1"></path>
    </defs>
    <g id="Page-1" stroke="none" stroke-width="1" fill="none" fill-rule="evenodd">
        <g id="15-Tu-Carrito" transform="translate(-1286.000000, -863.000000)">
            <g id="Opciones-de-Pago" transform="translate(1286.000000, 827.000000)">
                <g id="visa" transform="translate(0.000000, 36.000000)">
                    <path d="M55.0666667,37 L3.93333333,37 C1.76180556,37 0,35.3427083 0,33.3 L0,3.7 C0,1.65729167 1.76180556,0 3.93333333,0 L55.0666667,0 C57.2381944,0 59,1.65729167 59,3.7 L59,33.3 C59,35.3427083 57.2381944,37 55.0666667,37 Z" id="Path" fill="#FFFFFF" fill-rule="nonzero"></path>
                    <mask id="mask-2" fill="white">
                        <use xlink:href="#path-1"></use>
                    </mask>
                    <use id="Shape" fill="#0C1F84" fill-rule="nonzero" xlink:href="#path-1"></use>
                </g>
            </g>
        </g>
    </g>
</svg>