<?xml version="1.0" encoding="utf-8"?>
<!-- Generator: Adobe Illustrator 26.2.1, SVG Export Plug-In . SVG Version: 6.00 Build 0)  -->
<!DOCTYPE svg PUBLIC "-//W3C//DTD SVG 1.1//EN" "http://www.w3.org/Graphics/SVG/1.1/DTD/svg11.dtd" [
	<!ENTITY ns_extend "http://ns.adobe.com/Extensibility/1.0/">
	<!ENTITY ns_ai "http://ns.adobe.com/AdobeIllustrator/10.0/">
	<!ENTITY ns_graphs "http://ns.adobe.com/Graphs/1.0/">
	<!ENTITY ns_vars "http://ns.adobe.com/Variables/1.0/">
	<!ENTITY ns_imrep "http://ns.adobe.com/ImageReplacement/1.0/">
	<!ENTITY ns_sfw "http://ns.adobe.com/SaveForWeb/1.0/">
	<!ENTITY ns_custom "http://ns.adobe.com/GenericCustomNamespace/1.0/">
	<!ENTITY ns_adobe_xpath "http://ns.adobe.com/XPath/1.0/">
]>
<svg version="1.1" id="Capa_1" xmlns:x="&ns_extend;" xmlns:i="&ns_ai;" xmlns:graph="&ns_graphs;"
	 xmlns="http://www.w3.org/2000/svg" xmlns:xlink="http://www.w3.org/1999/xlink" x="0px" y="0px" viewBox="0 0 200 140"
	 style="enable-background:new 0 0 200 140;" xml:space="preserve">
<style type="text/css">
	.st0{fill:#333740;}
</style>
<metadata>
	<sfw  xmlns="&ns_sfw;">
		<slices></slices>
		<sliceSourceBounds  bottomLeftOrigin="true" height="68.9" width="89.6" x="55.1" y="36"></sliceSourceBounds>
	</sfw>
</metadata>
<desc>Created with Sketch.</desc>
<g id="Page-1">
	<g id="_x31_-Home" transform="translate(-728.000000, -837.000000)">
		<g id="Logos-Editoriales" transform="translate(0.000000, 807.000000)">
			<g id="Amolca" transform="translate(728.000000, 30.000000)">
				<g id="Group" transform="translate(55.000000, 35.000000)">
					<path id="Path" class="st0" d="M60.3,3.1c-6.1,0-11.7,2.7-15.4,7c-3.7-4.3-9.3-7-15.4-7c-11.3,0-20.4,9.1-20.4,20.4
						s9.1,20.4,20.4,20.4c2.7,0,5.2-0.5,7.6-1.5V30.6c-1.9,2-4.6,3.3-7.5,3.3c-5.7,0-10.3-4.6-10.3-10.3s4.6-10.3,10.3-10.3
						s10.3,4.6,10.3,10.3l0,0v20.2h9.8v-2.9c0,0,0,0,0.1,0V23.5l0,0c0-5.7,4.6-10.3,10.3-10.3c5.7,0,10.3,4.6,10.3,10.3
						S65.7,33.9,60,33.9c-3,0-5.7-1.3-7.5-3.3v11.7c2.4,1,5,1.6,7.8,1.6c11.3,0,20.4-9.1,20.4-20.4C80.7,12.2,71.6,3.1,60.3,3.1z"/>
					<path id="Shape" class="st0" d="M29.9,46.8C17,46.8,6.6,36.3,6.6,23.5l0,0C6.6,10.6,17,0.2,29.9,0.2l0,0h30
						c12.9,0,23.3,10.4,23.3,23.3l0,0c0,12.9-10.4,23.3-23.3,23.3l0,0H29.9L29.9,46.8z M14.1,7.6c-4,4-6.5,9.6-6.5,15.8l0,0
						c0,6.2,2.5,11.8,6.5,15.8l0,0c4,4,9.6,6.5,15.8,6.5l0,0h30c6.2,0,11.8-2.5,15.8-6.5l0,0c4.1-4,6.5-9.6,6.5-15.8l0,0
						c0-6.2-2.5-11.8-6.5-15.8l0,0c-4-4-9.6-6.5-15.8-6.5l0,0h-30C23.7,1.1,18.1,3.6,14.1,7.6L14.1,7.6z"/>
					<g transform="translate(0.000000, 47.962049)">
						<path id="Shape_00000008126062093013631520000016833516115141207433_" class="st0" d="M9.1,0.4l5.8,13h-3.5l-1.1-2.6H4.5
							l-1,2.6H0.1l5.3-13H9.1z M9.4,8.6l-2.1-5l-1.9,5H9.4z"/>
						<polygon id="Path_00000166654865377363595100000008883282574790578595_" class="st0" points="23.4,5.2 27.5,0.4 30.3,0.4 
							30.3,13.4 27.1,13.4 27.1,5.3 23.6,9.3 23.1,9.3 19.6,5.3 19.6,13.4 16.4,13.4 16.4,0.4 19.2,0.4 						"/>
						<path id="Shape_00000096757754219036776460000004556073758470934928_" class="st0" d="M40.1,0.2c2.2,0,4,0.7,5.4,2
							c1.4,1.3,2,2.9,2,4.7c0,1.8-0.7,3.4-2.1,4.7c-1.4,1.3-3.2,2-5.4,2c-2.2,0-4-0.6-5.4-2c-1.4-1.3-2.1-2.9-2.1-4.7
							c0-1.8,0.7-3.3,2-4.7C36.1,0.9,37.9,0.2,40.1,0.2z M40.1,10.9c1.2,0,2.2-0.4,3-1.1c0.8-0.7,1.1-1.7,1.1-2.9
							c0-1.2-0.4-2.2-1.1-2.9S41.3,3,40.1,3c-1.2,0-2.2,0.4-3,1.1C36.4,4.8,36,5.7,36,6.9s0.4,2.1,1.1,2.9
							C37.9,10.5,38.9,10.9,40.1,10.9z"/>
						<polygon id="Path_00000159435628950993578230000011810592515332310194_" class="st0" points="59.8,11 59.8,13.4 49.9,13.4 
							49.9,0.4 53.1,0.4 53.1,11 						"/>
						<path id="Path_00000002369058028016633810000011499880869380021891_" class="st0" d="M73.7,9.5v2.8c-1.6,0.9-3.3,1.3-5.1,1.3
							c-2.3,0-4.1-0.6-5.5-1.9c-1.4-1.3-2-2.9-2-4.7s0.7-3.4,2.2-4.7c1.5-1.3,3.3-1.9,5.7-1.9c1.9,0,3.4,0.4,4.7,1.1v2.9
							C72,3.4,70.5,3,69.1,3c-1.4,0-2.5,0.4-3.4,1.1c-0.9,0.8-1.3,1.7-1.3,2.8c0,1.2,0.4,2.1,1.3,2.9s2,1.1,3.3,1.1
							c0.7,0,1.3-0.1,1.9-0.3C71.6,10.5,72.5,10.1,73.7,9.5z"/>
						<path id="Shape_00000124844910673699021120000014438346863551104957_" class="st0" d="M83.9,0.4l5.8,13h-3.5l-1.1-2.6h-5.8
							l-1,2.6h-3.4l5.3-13H83.9z M84.2,8.6l-2.1-5l-1.9,5H84.2z"/>
					</g>
				</g>
				<g id="Group_00000034808392742220949260000001402984486451847057_" transform="translate(59.041746, 98.590133)">
					<path id="Path_00000119829487333707658020000004369139003452116623_" class="st0" d="M3.7,4.9C3.5,5,3,5.1,2.5,5.1
						c-1.3,0-2.3-0.8-2.3-2.4c0-1.5,1-2.5,2.5-2.5c0.6,0,1,0.1,1.1,0.2L3.6,0.9C3.3,0.8,3,0.8,2.6,0.8c-1.1,0-1.9,0.7-1.9,2
						c0,1.2,0.7,1.9,1.8,1.9c0.4,0,0.8-0.1,1-0.2L3.7,4.9z"/>
					<path id="Shape_00000166644115745148966480000008740250895033387415_" class="st0" d="M7.4,3.3c0,1.3-0.9,1.8-1.7,1.8
						c-0.9,0-1.6-0.7-1.6-1.8c0-1.1,0.8-1.8,1.7-1.8C6.8,1.6,7.4,2.3,7.4,3.3z M4.7,3.3c0,0.8,0.4,1.3,1,1.3s1-0.6,1-1.3
						c0-0.6-0.3-1.3-1-1.3C5.1,2,4.7,2.7,4.7,3.3z"/>
					<path id="Path_00000124155068099759156310000015230144370955333260_" class="st0" d="M8.2,2.6c0-0.4,0-0.6,0-0.9h0.5l0,0.6h0
						c0.2-0.3,0.6-0.6,1.1-0.6c0.5,0,1.2,0.3,1.2,1.5v2h-0.6v-2c0-0.5-0.2-1-0.8-1C9.3,2.1,9,2.4,8.9,2.7c0,0.1-0.1,0.2-0.1,0.3v2
						H8.2V2.6z"/>
					<path id="Shape_00000095341170640134454750000016554174683421373832_" class="st0" d="M15.2,3.3c0,1.3-0.9,1.8-1.7,1.8
						c-0.9,0-1.6-0.7-1.6-1.8c0-1.1,0.8-1.8,1.7-1.8C14.6,1.6,15.2,2.3,15.2,3.3z M12.5,3.3c0,0.8,0.4,1.3,1,1.3s1-0.6,1-1.3
						c0-0.6-0.3-1.3-1-1.3C12.8,2,12.5,2.7,12.5,3.3z"/>
					<path id="Path_00000049926588096664147620000013046991243056634553_" class="st0" d="M18.4,4.9c-0.2,0.1-0.5,0.2-1,0.2
						c-1,0-1.7-0.7-1.7-1.7c0-1.1,0.7-1.8,1.8-1.8c0.4,0,0.7,0.1,0.9,0.2l-0.1,0.5c-0.1-0.1-0.4-0.2-0.7-0.2c-0.8,0-1.2,0.6-1.2,1.3
						c0,0.8,0.5,1.3,1.2,1.3c0.4,0,0.6-0.1,0.8-0.2L18.4,4.9z"/>
					<path id="Shape_00000014597468905119532610000009703162860849975693_" class="st0" d="M20.1,0.7c0,0.2-0.2,0.4-0.5,0.4
						c-0.3,0-0.5-0.2-0.5-0.4s0.2-0.4,0.5-0.4C19.8,0.3,20.1,0.5,20.1,0.7z M19.2,5V1.6h0.8V5H19.2z"/>
					<path id="Path_00000032620799396958005730000010828427865000999816_" class="st0" d="M20.8,2.6c0-0.4,0-0.6,0-0.9h0.5l0,0.5h0
						c0.2-0.3,0.5-0.6,1.1-0.6c0.5,0,0.8,0.3,1,0.7h0c0.1-0.2,0.2-0.4,0.4-0.4c0.2-0.2,0.4-0.2,0.8-0.2c0.5,0,1.1,0.3,1.1,1.5v2
						h-0.6V3.1c0-0.6-0.2-1.1-0.7-1.1c-0.4,0-0.6,0.3-0.7,0.6c0,0.1-0.1,0.2-0.1,0.3V5h-0.6V3c0-0.5-0.2-0.9-0.7-0.9
						c-0.4,0-0.7,0.3-0.8,0.6c0,0.1-0.1,0.2-0.1,0.3v2h-0.6L20.8,2.6L20.8,2.6z"/>
					<path id="Shape_00000073711818438409850550000002832160106774823578_" class="st0" d="M27.5,0.7c0,0.2-0.2,0.4-0.5,0.4
						c-0.3,0-0.5-0.2-0.5-0.4s0.2-0.4,0.5-0.4C27.4,0.3,27.5,0.5,27.5,0.7z M26.6,5V1.6h0.8V5H26.6z"/>
					<path id="Shape_00000106123612458100388880000004350933607553390744_" class="st0" d="M28.6,3.4c0,0.8,0.5,1.2,1.2,1.2
						c0.4,0,0.7-0.1,0.9-0.2l0.1,0.4c-0.2,0.1-0.6,0.2-1.1,0.2c-1.1,0-1.7-0.7-1.7-1.7s0.6-1.8,1.6-1.8c1.1,0,1.4,1,1.4,1.6
						c0,0.1,0,0.2,0,0.3L28.6,3.4L28.6,3.4z M30.4,3c0-0.4-0.2-1-0.9-1c-0.6,0-0.9,0.6-0.9,1H30.4z"/>
					<path id="Path_00000162341681090099235430000009072107094626056120_" class="st0" d="M31.8,2.6c0-0.4,0-0.6,0-0.9h0.5l0,0.6h0
						c0.2-0.3,0.6-0.6,1.1-0.6c0.5,0,1.2,0.3,1.2,1.5v2h-0.6v-2c0-0.5-0.2-1-0.8-1c-0.4,0-0.7,0.3-0.8,0.6c0,0.1-0.1,0.2-0.1,0.3v2
						h-0.6V2.6z"/>
					<path id="Path_00000047780003822944393680000004538103310678764457_" class="st0" d="M36.4,0.7v1h0.9v0.5h-0.9v1.8
						c0,0.4,0.1,0.7,0.5,0.7c0.2,0,0.3,0,0.4-0.1l0,0.5c-0.1,0.1-0.3,0.1-0.5,0.1c-0.3,0-0.5-0.1-0.7-0.3c-0.2-0.2-0.2-0.5-0.2-0.9
						V2.1h-0.5V1.6h0.5V0.8L36.4,0.7z"/>
					<path id="Shape_00000044149430809605182700000015464661233397745308_" class="st0" d="M41,3.3c0,1.3-0.9,1.8-1.7,1.8
						c-0.9,0-1.6-0.7-1.6-1.8c0-1.1,0.8-1.8,1.7-1.8C40.4,1.6,41,2.3,41,3.3z M38.3,3.3c0,0.8,0.4,1.3,1,1.3s1-0.6,1-1.3
						c0-0.6-0.3-1.3-1-1.3C38.6,2,38.3,2.7,38.3,3.3z"/>
					<path id="Shape_00000086677460146240027840000008583759615080606875_" class="st0" d="M43.7,3.4c0,0.8,0.5,1.2,1.2,1.2
						c0.4,0,0.7-0.1,0.9-0.2l0.1,0.4c-0.2,0.1-0.6,0.2-1.1,0.2c-1.1,0-1.7-0.7-1.7-1.7s0.6-1.8,1.6-1.8c1.1,0,1.4,1,1.4,1.6
						c0,0.1,0,0.2,0,0.3L43.7,3.4L43.7,3.4z M45.5,3c0-0.4-0.2-1-0.9-1c-0.6,0-0.9,0.6-0.9,1H45.5z"/>
					<path id="Path_00000140700062022805652360000012440922724907969178_" class="st0" d="M46.8,2.6c0-0.4,0-0.6,0-0.9h0.5l0,0.6h0
						c0.2-0.3,0.6-0.6,1.1-0.6c0.5,0,1.2,0.3,1.2,1.5v2h-0.6v-2c0-0.5-0.2-1-0.8-1c-0.4,0-0.7,0.3-0.8,0.6c0,0.1-0.1,0.2-0.1,0.3v2
						h-0.6V2.6L46.8,2.6z"/>
					<path id="Path_00000116213088517572052320000011489667381274530957_" class="st0" d="M52.1,4.4c0.2,0.1,0.5,0.2,0.8,0.2
						c0.5,0,0.7-0.2,0.7-0.5S53.4,3.7,53,3.5c-0.6-0.2-0.9-0.6-0.9-1c0-0.5,0.4-1,1.2-1c0.4,0,0.6,0.1,0.8,0.2l-0.2,0.5
						C53.8,2.2,53.6,2,53.2,2c-0.4,0-0.6,0.2-0.6,0.5c0,0.3,0.2,0.4,0.6,0.6c0.6,0.2,0.9,0.5,0.9,1c0,0.6-0.5,1-1.3,1
						c-0.4,0-0.7-0.1-0.9-0.2L52.1,4.4z"/>
					<path id="Path_00000002351926756678016790000007436534029023011222_" class="st0" d="M57.9,4.1c0,0.4,0,0.7,0,0.9h-0.5l0-0.6h0
						c-0.2,0.3-0.5,0.6-1.1,0.6c-0.5,0-1.2-0.3-1.2-1.5v-2h0.6v1.9c0,0.6,0.2,1.1,0.8,1.1c0.4,0,0.7-0.3,0.8-0.6
						c0-0.1,0.1-0.2,0.1-0.3V1.6h0.6L57.9,4.1L57.9,4.1z"/>
					<path id="Path_00000002357154542011941900000013489164220005579965_" class="st0" d="M58.8,4.4c0.2,0.1,0.5,0.2,0.8,0.2
						c0.5,0,0.7-0.2,0.7-0.5s-0.2-0.5-0.6-0.6c-0.6-0.2-0.9-0.6-0.9-1c0-0.5,0.4-1,1.2-1c0.4,0,0.6,0.1,0.8,0.2l-0.2,0.5
						C60.5,2.2,60.2,2,59.9,2c-0.4,0-0.6,0.2-0.6,0.5c0,0.3,0.2,0.4,0.6,0.6c0.6,0.2,0.9,0.5,0.9,1c0,0.6-0.5,1-1.3,1
						c-0.4,0-0.7-0.1-0.9-0.2L58.8,4.4z"/>
					<path id="Path_00000036239709762389702160000013984005801670359462_" class="st0" d="M63.1,2.6c0-0.4,0-0.6,0-0.9h0.5l0,0.5h0
						c0.2-0.3,0.5-0.6,1.1-0.6c0.5,0,0.8,0.3,1,0.7h0C65.9,2,66,1.9,66.1,1.8c0.2-0.2,0.4-0.2,0.8-0.2C67.4,1.6,68,1.9,68,3v2h-0.6
						V3.1c0-0.6-0.2-1.1-0.7-1.1c-0.4,0-0.6,0.3-0.7,0.6c0,0.1-0.1,0.2-0.1,0.3V5h-0.6V3c0-0.5-0.2-0.9-0.7-0.9
						c-0.4,0-0.7,0.3-0.8,0.6c0,0.1-0.1,0.2-0.1,0.3v2h-0.6L63.1,2.6L63.1,2.6z"/>
					<path id="Shape_00000119076179116474932930000004086240393671927957_" class="st0" d="M70.9,5l-0.1-0.4h0
						c-0.2,0.3-0.6,0.5-1.1,0.5c-0.7,0-1.1-0.5-1.1-1c0-0.8,0.7-1.3,2-1.3V2.8c0-0.3-0.1-0.8-0.8-0.8c-0.3,0-0.6,0.1-0.9,0.2
						l-0.1-0.4c0.3-0.2,0.7-0.3,1.1-0.3c1.1,0,1.3,0.7,1.3,1.4v1.3c0,0.3,0,0.6,0.1,0.8H70.9L70.9,5z M70.8,3.3
						c-0.7,0-1.4,0.1-1.4,0.8c0,0.4,0.3,0.6,0.6,0.6c0.4,0,0.7-0.3,0.8-0.6c0-0.1,0-0.1,0-0.2L70.8,3.3L70.8,3.3z"/>
					<path id="Path_00000130608622055887937760000017609743948568876928_" class="st0" d="M72.4,2.6c0-0.4,0-0.6,0-0.9h0.5l0,0.6h0
						c0.2-0.3,0.6-0.6,1.1-0.6c0.5,0,1.2,0.3,1.2,1.5v2h-0.6v-2c0-0.5-0.2-1-0.8-1c-0.4,0-0.7,0.3-0.8,0.6C73,2.8,73,2.9,73,3v2
						h-0.6V2.6z"/>
					<path id="Shape_00000028321394912198312250000009803084851939425167_" class="st0" d="M79.4,3.3c0,1.3-0.9,1.8-1.7,1.8
						c-0.9,0-1.6-0.7-1.6-1.8c0-1.1,0.8-1.8,1.7-1.8C78.7,1.6,79.4,2.3,79.4,3.3z M76.7,3.3c0,0.8,0.4,1.3,1,1.3s1-0.6,1-1.3
						c0-0.6-0.3-1.3-1-1.3C77,2,76.7,2.7,76.7,3.3z"/>
					<path id="Path_00000037656350407130810040000013212637637741648274_" class="st0" d="M80,4.7c0.2,0.1,0.6,0.3,0.9,0.3
						c0.5,0,0.7-0.2,0.7-0.6c0-0.3-0.2-0.5-0.7-0.7c-0.7-0.2-1-0.6-1-1.1c0-0.6,0.5-1.1,1.3-1.1c0.4,0,0.7,0.1,0.9,0.2L82,2.3
						c-0.1-0.1-0.4-0.2-0.8-0.2c-0.4,0-0.6,0.2-0.6,0.5c0,0.3,0.2,0.4,0.7,0.6c0.6,0.2,1,0.6,1,1.1c0,0.6-0.5,1.1-1.4,1.1
						c-0.4,0-0.8-0.1-1-0.3L80,4.7z"/>
				</g>
			</g>
		</g>
	</g>
</g>
</svg>
