<?xml version="1.0" encoding="utf-8"?>
<!-- Generator: Adobe Illustrator 26.2.1, SVG Export Plug-In . SVG Version: 6.00 Build 0)  -->
<!DOCTYPE svg PUBLIC "-//W3C//DTD SVG 1.1//EN" "http://www.w3.org/Graphics/SVG/1.1/DTD/svg11.dtd" [
	<!ENTITY ns_extend "http://ns.adobe.com/Extensibility/1.0/">
	<!ENTITY ns_ai "http://ns.adobe.com/AdobeIllustrator/10.0/">
	<!ENTITY ns_graphs "http://ns.adobe.com/Graphs/1.0/">
	<!ENTITY ns_vars "http://ns.adobe.com/Variables/1.0/">
	<!ENTITY ns_imrep "http://ns.adobe.com/ImageReplacement/1.0/">
	<!ENTITY ns_sfw "http://ns.adobe.com/SaveForWeb/1.0/">
	<!ENTITY ns_custom "http://ns.adobe.com/GenericCustomNamespace/1.0/">
	<!ENTITY ns_adobe_xpath "http://ns.adobe.com/XPath/1.0/">
]>
<svg version="1.1" id="Capa_1" xmlns:x="&ns_extend;" xmlns:i="&ns_ai;" xmlns:graph="&ns_graphs;"
	 xmlns="http://www.w3.org/2000/svg" xmlns:xlink="http://www.w3.org/1999/xlink" x="0px" y="0px" viewBox="0 0 200 140"
	 style="enable-background:new 0 0 200 140;" xml:space="preserve">
<metadata>
	<sfw  xmlns="&ns_sfw;">
		<slices></slices>
		<sliceSourceBounds  bottomLeftOrigin="true" height="31.4" width="179.8" x="10" y="54.6"></sliceSourceBounds>
	</sfw>
</metadata>
<desc>Created with Sketch.</desc>
<g id="Page-1">
	<g id="_x31_-Home" transform="translate(-478.000000, -837.000000)">
		<g id="Logos-Editoriales" transform="translate(0.000000, 807.000000)">
			<g id="Editorial-Medica-Panamericana" transform="translate(478.000000, 30.000000)">
				<g id="Group" transform="translate(10.000000, 54.000000)">
					<path id="Path" d="M89.9,31.4c56.6,0,89.9-3.7,89.9-13.8c0-10.1-36.7-13.3-39.6-13.6c-0.9,0-1.7,0.8-1.7,1.7
						c0,1,0.8,1.7,1.7,1.7c2.1,0.2,38.5,2.3,38.5,10.1c0,8.2-42.6,10.5-88.8,10.5c-46.2,0-88.8-2.3-88.8-10.5
						c0-7.8,36.4-10,38.5-10.1c1,0,1.7-0.8,1.7-1.7c0-1-0.8-1.7-1.7-1.7C36.7,4.3,0,7.5,0,17.6C0,27.7,33.3,31.4,89.9,31.4"/>
					<polygon id="Path_00000158020475651167513170000013300320292809932197_" points="44.2,1.2 49.2,1.1 49.2,2 45.4,2.1 45.4,3.6 
						49.1,3.5 49.1,4.4 45.5,4.5 45.5,6.1 49.4,6 49.4,6.9 44.3,7 					"/>
					<path id="Shape" d="M50.4,1.1l3.1-0.1c2.3-0.1,2.9,1.2,3,2.8C56.5,5,56,6.6,54.1,6.7l-3.4,0.1L50.4,1.1z M51.8,5.9l1.7-0.1
						c0.9,0,1.8-0.4,1.7-2.1c-0.1-1.9-1.3-1.9-2-1.9l-1.6,0.1L51.8,5.9z"/>
					<polygon id="Path_00000059992445517749338450000006598753526645250967_" points="57.7,0.8 58.9,0.7 59.1,6.5 57.9,6.5 					"/>
					<polygon id="Path_00000068646457286652221850000003804517691249237126_" points="62.3,1.5 60.1,1.6 60,0.7 65.6,0.5 65.6,1.4 
						63.5,1.5 63.7,6.3 62.5,6.4 					"/>
					<path id="Shape_00000047753249604984996610000011834848925677159571_" d="M65.8,3.3c-0.1-1.6,0.9-3.1,3.3-3.2
						c2.5-0.1,3.5,1.3,3.5,2.9c0.1,1.6-0.9,3.1-3.3,3.2C66.9,6.3,65.9,5,65.8,3.3 M71.4,3.1c0-1.3-0.9-2.1-2.2-2.1
						c-1.4,0-2.1,0.9-2.1,2.2c0,1.3,0.8,2.1,2.2,2.1C70.6,5.3,71.4,4.4,71.4,3.1"/>
					<path id="Shape_00000159470281366019694270000017236093132158196668_" d="M73.7,0.2l3.7-0.1c1.5,0,2,0.6,2,1.5
						c0,0.8-0.4,1.2-0.9,1.4v0c0.7,0.1,0.9,0.7,0.9,1.5c0,0.3,0,0.9,0.3,1.2l-1.3,0c-0.1-0.2-0.2-0.5-0.2-0.9c0-0.8-0.1-1.4-1-1.4
						l-2.1,0L75,5.9l-1.2,0L73.7,0.2z M77,2.7c0.7,0,1-0.2,1-0.9C78,1.2,77.6,1,77,1l-2.1,0l0,1.7L77,2.7z"/>
					<polygon id="Path_00000019680152720507168220000008952726995180955536_" points="80.6,0 81.8,0 81.8,5.8 80.6,5.8 					"/>
					<path id="Shape_00000011023073701442917490000017514778060259667622_" d="M85.1,0l1.4,0l2.6,5.8l-1.4,0l-0.6-1.4l-2.7,0
						l-0.6,1.4l-1.3,0L85.1,0z M86.8,3.4l-1-2.4l-1,2.4H86.8z"/>
					<polygon id="Path_00000149380144705292721280000011731277308573567654_" points="90,0 91.2,0 91.1,4.9 94.7,4.9 94.7,5.9 
						89.9,5.8 					"/>
					<polygon id="Path_00000101087209982656808250000006606633989560558214_" points="98.8,0.1 100.6,0.2 102.5,4.7 104.6,0.3 
						106.3,0.4 106.2,6.1 105,6.1 105.2,1.3 105.2,1.3 102.9,6 101.9,6 99.9,1.2 99.9,1.2 99.8,6 98.6,5.9 					"/>
					<polygon id="Path_00000051372092095585932730000014040339993937961132_" points="107.8,0.4 112.8,0.6 112.8,1.5 109,1.4 
						108.9,2.8 112.6,2.9 112.5,3.9 108.9,3.7 108.8,5.3 112.7,5.5 112.7,6.4 107.6,6.2 					"/>
					<path id="Shape_00000015354757674519590230000009117167517726641830_" d="M114,0.6l3.1,0.1c2.3,0.1,2.8,1.4,2.7,3.1
						c0,1.2-0.7,2.8-2.6,2.7l-3.4-0.1L114,0.6z M115.1,5.6l1.7,0.1c0.9,0,1.8-0.2,1.9-1.9c0.1-1.9-1.1-2-1.8-2.1l-1.6-0.1L115.1,5.6
						z"/>
					<polygon id="Path_00000080911720057510221560000001041641956620918663_" points="121.2,0.9 122.4,1 122.2,6.8 120.9,6.7 					
						"/>
					<path id="Path_00000021113262171431167790000004965619320707611563_" d="M128.5,3.4c-0.1-0.9-0.8-1.4-1.8-1.5
						c-1.1-0.1-2,0.6-2.1,2.1c-0.1,1.2,0.7,2.1,1.9,2.1c1.3,0.1,1.7-0.8,1.9-1.4l1.3,0.1c-0.2,1.1-1,2.3-3.4,2.2
						c-2.1-0.1-3-1.6-2.9-3.2c0.1-1.6,1.1-3,3.4-2.9c2,0.1,3,1.2,3,2.5L128.5,3.4z"/>
					<path id="Shape_00000016784848128476075640000004487769117279245189_" d="M133.1,1.6l1.4,0.1l2.2,5.9l-1.3-0.1L134.9,6
						l-2.7-0.2l-0.7,1.4l-1.3-0.1L133.1,1.6z M134.6,5.1l-0.8-2.5L132.6,5L134.6,5.1z"/>
					<path id="Shape_00000103247601226244144080000016561672856477047949_" d="M30,11.7c2.6,0,4.2,2.6,4.2,5c0,2.1-1.4,4.5-3.7,4.5
						c-1.3,0-2.3-0.6-3.1-1.6v0.7c0,0.6,0,1.2,0.1,1.6c0.2,0.6,1.1,0.7,1.1,1.2c0,0.5-0.6,0.6-1,0.6h-3.3c-0.4,0-0.9-0.1-1-0.6
						c0-0.6,0.7-0.6,1-1c0.2-0.3,0.3-1.2,0.3-1.9v-0.8v-4c0-1.7-1.3-1-1.3-1.8c0-0.3,0.3-0.4,0.5-0.5l2.5-1.3
						c0.1-0.1,0.2-0.1,0.4-0.1c0.6,0,0.7,0.7,0.7,1.2v0.3C28,12.4,28.9,11.7,30,11.7 M29.6,13.1c-1.6,0-2.4,1.8-2.4,3.2
						c0,1,0.3,2.6,1.6,2.6c1.7,0,2.8-2,2.8-3.4C31.6,14.4,30.9,13.1,29.6,13.1"/>
					<path id="Shape_00000179614541228467813690000010380590859700446096_" d="M38,21.1c-1.6,0-3.4-0.9-3.4-2.7
						c0-2.2,2.6-3.2,4.4-3.2c0.4,0,0.9,0,1.3,0c-0.4-1-0.8-2-2.1-2c-1.3,0-1.8,0.9-2.4,0.9c-0.2,0-0.4-0.2-0.4-0.4
						c0-1.4,2.6-2.1,3.7-2.1c2.4,0,3.3,1.3,4,3.5l1,3.1c0.1,0.5,0.6,1.3,1.2,1.3c0.2,0,0.4-0.1,0.5-0.2c0.2,0.2,0.3,0.4,0.3,0.7
						c0,0.9-1.3,1.1-2,1.1c-1,0-1.7-0.3-2.3-1.2C40.6,20.6,39.4,21.1,38,21.1 M40.7,17c-0.2-0.5-0.6-0.7-1.2-0.7
						c-0.9,0-1.9,0.5-1.9,1.5c0,1,0.9,1.7,1.9,1.7c0.6,0,1.6-0.2,1.6-1C41.2,18.1,40.9,17.4,40.7,17"/>
					<path id="Path_00000137111191390769874830000012371046037246144649_" d="M53.2,11.9c1.7,0,2.5,1.5,2.9,2.9l0.9,3.3
						c0.3,0.9,0.3,1.2,1.1,1.8c0.2,0.1,0.3,0.3,0.3,0.5c0,0.5-0.4,0.6-0.8,0.6h-3.6c-0.3,0-0.7-0.1-0.7-0.6c0-0.7,1.1-0.7,1.1-1.5
						c0-0.2,0-0.4-0.1-0.6l-0.7-2.7c-0.2-0.7-0.6-1.9-1.5-1.9c-1.1,0-1.3,1.3-1.3,2.1v1.3c0,0.7,0,1.3,0.1,2c0.1,0.6,1,0.7,1,1.3
						c0,0.5-0.6,0.6-0.9,0.6h-3.3c-0.3,0-0.9-0.1-0.9-0.6c0-0.8,1.2-0.3,1.2-2.7c0-0.6,0-1.3,0-1.9c0-1.7-1.2-1-1.2-1.7
						c0-0.2,0.2-0.5,0.4-0.6l2.8-1.5c0.1-0.1,0.2-0.1,0.3-0.1c0.4,0,0.5,0.5,0.5,0.8v0.6C51.4,12.5,52.1,11.9,53.2,11.9"/>
					<path id="Shape_00000034051926963573652010000005758712582475725215_" d="M61.9,21.1c-1.6,0-3.4-0.9-3.4-2.7
						c0-2.2,2.6-3.2,4.4-3.2c0.4,0,0.9,0,1.3,0c-0.4-1-0.8-2-2.1-2c-1.3,0-1.8,0.9-2.4,0.9c-0.2,0-0.4-0.2-0.4-0.4
						c0-1.4,2.6-2.1,3.7-2.1c2.4,0,3.3,1.3,4,3.5l1,3.1c0.1,0.5,0.6,1.3,1.1,1.3c0.2,0,0.4-0.1,0.5-0.2c0.2,0.2,0.3,0.4,0.3,0.7
						c0,0.9-1.3,1.1-2,1.1c-1,0-1.7-0.3-2.3-1.2C64.5,20.6,63.3,21.1,61.9,21.1 M64.2,17c-0.2-0.5-0.6-0.7-1.1-0.7
						c-0.9,0-1.9,0.5-1.9,1.5c0,1,0.9,1.7,1.9,1.7c0.6,0,1.6-0.2,1.6-1C64.6,18.1,64.4,17.4,64.2,17"/>
					<path id="Path_00000005971997885552834620000003915207225374102925_" d="M82.1,11.8c1.3,0,2.2,0.8,2.6,2.1l1.3,4.2
						c0.1,0.4,0.2,0.8,0.5,1.2c0.2,0.3,0.4,0.4,0.7,0.6c0.2,0.1,0.4,0.3,0.4,0.5c0,0.4-0.4,0.5-0.7,0.5H83c-0.4,0-1-0.1-1-0.6
						c0-0.6,1.2-0.7,1.2-1.2c0-0.3-0.1-0.7-0.2-1L82.1,15c-0.2-0.6-0.5-1.2-1.2-1.2c-1,0-1.2,1.1-1.2,1.9V17c0,0.7,0,1.4,0.1,2.1
						c0.2,0.6,1,0.7,1,1.3c0,0.5-0.6,0.6-0.9,0.6h-3.3c-0.4,0-0.9-0.1-0.9-0.6c0-0.8,1.2-0.3,1.2-2.7c0-0.3,0-0.7,0-1
						c0-0.2,0-0.5,0-0.9c0-0.9-0.1-2.1-1.2-2.1c-1,0-1.7,1-1.7,1.9c0,0.5,0,1,0,1.6c0,0.6,0,1.2,0.2,1.8c0.1,0.6,1,0.7,1,1.3
						c0,0.5-0.5,0.6-0.9,0.6h-3.3c-0.4,0-0.9-0.1-0.9-0.6c0-0.8,1.2-0.3,1.2-2.7c0-0.6,0-1.2,0-1.8c0-1.9-1.3-1.1-1.3-2
						c0-0.3,0.3-0.5,0.5-0.6l2.7-1.4c0.1,0,0.3-0.1,0.4-0.1c0.4,0,0.4,0.5,0.4,0.9v0.6c0.8-0.8,1.7-1.5,2.8-1.5
						c1.1,0,2.1,0.4,2.6,1.5C80.2,12.4,80.9,11.8,82.1,11.8"/>
					<path id="Shape_00000165193659821099934500000015575497713391796650_" d="M93.6,19.4c1.7,0,2.7-1.5,3.1-1.5
						c0.2,0,0.5,0.2,0.5,0.5c0,0.5-0.6,1-1,1.4c-1.2,0.9-2.7,1.4-4.2,1.4c-2.8,0-4.9-1.9-4.9-4.7c0-2.6,2.3-4.7,4.9-4.7
						c1.4,0,2.7,0.6,3.6,1.6c0.1,0.2,0.9,1.1,0.9,1.5c0,0.2-0.9,0.6-1.3,0.8l-4.4,2C91.4,18.7,92.4,19.4,93.6,19.4 M92.8,15.5
						c0.2-0.1,0.5-0.2,0.6-0.4c0,0,0-0.1,0-0.1c0-0.9-1.1-2-2-2c-0.9,0-1.4,0.8-1.4,1.6c0,0.3,0.1,1.9,0.6,1.9
						c0.1,0,0.2-0.1,0.3-0.1L92.8,15.5z"/>
					<path id="Path_00000130622387953288852340000008013400656847434145_" d="M104.8,11.7c0.3,0,1.1,0,1.1,0.4c0,0.1,0,0.3-0.1,0.4
						l-0.8,2.3c-0.1,0.2-0.2,0.5-0.5,0.5c-0.5,0-0.7-1.1-1.6-1.1c-1.3,0-1.6,1.3-1.6,2.3v1.1c0,0.5,0,1,0.2,1.4
						c0.2,0.5,1.1,0.5,1.1,1.1c0,0.5-0.5,0.6-0.9,0.6h-3.3c-0.4,0-0.9-0.1-1-0.6c0-0.6,0.7-0.6,1-1c0.2-0.3,0.3-1.2,0.3-1.9v-2.2
						c0-1.3-1.2-0.5-1.2-1.4c0-0.2,0.2-0.3,0.3-0.4l2.7-1.6c0.1-0.1,0.2-0.1,0.4-0.1c0.5,0,0.5,0.4,0.5,0.9c0,0.4,0,0.8,0,1.2
						C102.4,12.7,103.2,11.7,104.8,11.7"/>
					<path id="Shape_00000078015903251927262880000001601719620912070277_" d="M110.1,16.7v0.8c0,0.6,0,1.2,0.1,1.6
						c0.1,0.6,1.1,0.6,1.1,1.2c0,0.5-0.5,0.6-1,0.6h-3.3c-0.4,0-0.9-0.1-1-0.6c0-0.6,0.7-0.6,1-1c0.2-0.3,0.3-1.2,0.3-1.9v-2.3
						c0-1.9-1-0.8-1-1.7c0-0.3,0.3-0.5,0.6-0.6l2.4-1.1c0.1-0.1,0.2-0.1,0.4-0.1c0.3,0,0.4,0.4,0.4,0.7L110.1,16.7L110.1,16.7z
						 M107.7,10.6c-0.5,0-1-0.4-1-0.9c0-1,1.6-1.7,2.4-1.7c0.5,0,1,0.3,1,0.9C110.1,9.9,108.6,10.6,107.7,10.6"/>
					<path id="Path_00000030472899641502091310000014346105831787230618_" d="M119.9,15.2c-0.1,0.2-0.2,0.4-0.5,0.4
						c-0.7,0-0.7-2.9-2.7-2.9c-1.6,0-2,2-2,3.2c0,1.7,0.9,3.7,2.9,3.7c1.8,0,2.7-1.7,3.2-1.8c0.2,0,0.5,0.1,0.5,0.4
						c0,0.6-0.4,1.1-0.9,1.5c-1,0.9-2.3,1.4-3.6,1.4c-2.8,0-5.2-1.6-5.2-4.6c0-3,2.8-4.8,5.5-4.8c1.1,0,2.1,0.2,3.1,0.7
						c0.2,0.1,0.6,0.3,0.6,0.6c0,0.2,0,0.3-0.1,0.4L119.9,15.2z"/>
					<path id="Shape_00000046319080547388696040000015119359557749527680_" d="M125.1,21.1c-1.6,0-3.4-0.9-3.4-2.7
						c0-2.2,2.6-3.2,4.4-3.2c0.4,0,0.9,0,1.3,0c-0.4-1-0.8-2-2.1-2c-1.3,0-1.8,0.9-2.4,0.9c-0.2,0-0.4-0.2-0.5-0.4
						c0-1.4,2.6-2.1,3.7-2.1c2.4,0,3.3,1.3,3.9,3.5l1,3.1c0.1,0.5,0.6,1.3,1.1,1.3c0.2,0,0.4-0.1,0.5-0.2c0.2,0.2,0.3,0.4,0.3,0.7
						c0,0.9-1.3,1.1-2,1.1c-1,0-1.7-0.3-2.3-1.2C127.7,20.6,126.5,21.1,125.1,21.1 M128.2,17c-0.2-0.5-0.6-0.7-1.1-0.7
						c-0.9,0-1.9,0.5-1.9,1.5c0,1,0.9,1.7,1.9,1.7c0.6,0,1.6-0.2,1.6-1C128.7,18.1,128.4,17.4,128.2,17"/>
					<path id="Path_00000041984773882264456730000005394636409808849072_" d="M140.2,11.9c1.7,0,2.5,1.5,2.9,2.9l0.9,3.3
						c0.3,0.9,0.3,1.2,1.1,1.8c0.2,0.1,0.3,0.3,0.3,0.5c0,0.5-0.4,0.6-0.8,0.6h-3.6c-0.3,0-0.7-0.1-0.7-0.6c0-0.7,1.1-0.7,1.1-1.5
						c0-0.2,0-0.4-0.1-0.6l-0.7-2.7c-0.2-0.7-0.5-1.9-1.5-1.9c-1.1,0-1.3,1.3-1.3,2.1v1.3c0,0.7,0,1.3,0.1,2c0.1,0.6,1,0.7,1,1.3
						c0,0.5-0.5,0.6-0.9,0.6h-3.3c-0.3,0-0.9-0.1-0.9-0.6c0-0.8,1.2-0.3,1.2-2.7c0-0.6,0-1.3,0-1.9c0-1.7-1.2-1-1.2-1.7
						c0-0.2,0.2-0.5,0.4-0.6l2.8-1.5c0.1-0.1,0.2-0.1,0.3-0.1c0.4,0,0.5,0.5,0.5,0.8v0.6C138.5,12.5,139.2,11.9,140.2,11.9"/>
					<path id="Shape_00000112609674177750960750000005624230807802626977_" d="M149,21.1c-1.6,0-3.4-0.9-3.4-2.7
						c0-2.2,2.6-3.2,4.4-3.2c0.4,0,0.9,0,1.3,0c-0.4-1-0.8-2-2.1-2c-1.3,0-1.8,0.9-2.4,0.9c-0.2,0-0.4-0.2-0.4-0.4
						c0-1.4,2.6-2.1,3.7-2.1c2.4,0,3.3,1.3,4,3.5l1,3.1c0.1,0.5,0.6,1.3,1.1,1.3c0.2,0,0.4-0.1,0.5-0.2c0.2,0.2,0.3,0.4,0.3,0.7
						c0,0.9-1.3,1.1-2,1.1c-1,0-1.7-0.3-2.3-1.2C151.6,20.6,150.4,21.1,149,21.1 M151.7,17c-0.2-0.5-0.6-0.7-1.1-0.7
						c-0.9,0-1.9,0.5-1.9,1.5c0,1,0.9,1.7,1.9,1.7c0.6,0,1.6-0.2,1.6-1C152.1,18.1,151.9,17.4,151.7,17"/>
				</g>
			</g>
		</g>
	</g>
</g>
</svg>
