<?xml version="1.0" encoding="UTF-8"?>
<svg width="46px" height="46px" viewBox="0 0 46 46" version="1.1" xmlns="http://www.w3.org/2000/svg" xmlns:xlink="http://www.w3.org/1999/xlink">
    <!-- Generator: Sketch 59.1 (86144) - https://sketch.com -->
    <title>facebook</title>
    <desc>Created with Sketch.</desc>
    <g id="Page-1" stroke="none" stroke-width="1" fill="none" fill-rule="evenodd">
        <g id="1-Home" transform="translate(-228.000000, -6051.000000)">
            <g id="Footer" transform="translate(0.000000, 5713.000000)">
                <g id="Follow-us" transform="translate(228.000000, 338.000000)">
                    <g id="facebook">
                        <path d="M40.9659443,9.28749673 C40.1593888,7.34605674 38.6142365,5.80453886 36.6708403,5.00245734 L26.0077511,0.599958324 C24.0643549,-0.202402855 21.8821244,-0.199885863 19.9404063,0.606949969 L9.28766459,5.03377991 C7.34622612,5.84061574 5.80470944,7.38576929 5.00234888,9.32916693 L0.599853297,19.9922645 C-0.202507256,21.9356622 -0.199710601,24.1181741 0.606844937,26.0596141 L5.03395109,36.712364 C5.8407863,38.653804 7.38565897,40.1953219 9.3290551,40.9976831 L19.9921444,45.3999024 C21.9355405,46.2022636 24.1180507,46.2000263 26.0594892,45.3931905 L36.7122309,40.9660809 C38.653949,40.159245 40.1954657,38.6140915 40.9978262,36.6709735 L45.4000421,26.0075962 C46.2024027,24.0644783 46.1998857,21.8819663 45.3930505,19.9405264 L40.9659443,9.28749673 Z" id="btn" fill="#FFFFFF"></path>
                        <path d="M20.2083333,33.3333333 L20.2083333,23.7916667 L17,23.7916667 L17,20 L20.2083333,20 L20.2083333,17 C20.2083333,15.4166667 20.652778,14.1875 21.5416667,13.3125 C22.4305553,12.4375 23.6111113,12 25.0833333,12 C26.277778,12 27.25,12.0555553 28,12.1666667 L28,15.5416667 L26,15.5416667 C25.25,15.5416667 24.7361113,15.7083333 24.4583333,16.0416667 C24.2361113,16.3194447 24.125,16.7638887 24.125,17.375 L24.125,20 L27.6666667,20 L27.1666667,23.7916667 L24.125,23.7916667 L24.125,33.3333333 L20.2083333,33.3333333 Z" id="" fill="#53565A" fill-rule="nonzero"></path>
                    </g>
                </g>
            </g>
        </g>
    </g>
</svg>