<?xml version="1.0" encoding="UTF-8"?>
<svg width="23px" height="22px" viewBox="0 0 23 22" version="1.1" xmlns="http://www.w3.org/2000/svg" xmlns:xlink="http://www.w3.org/1999/xlink">
    <!-- Generator: Sketch 59.1 (86144) - https://sketch.com -->
    <title>phone-footer</title>
    <desc>Created with Sketch.</desc>
    <g id="Page-1" stroke="none" stroke-width="1" fill="none" fill-rule="evenodd">
        <g id="1-Home" transform="translate(-434.000000, -5796.000000)" fill="#53565A">
            <g id="Footer" transform="translate(0.000000, 5713.000000)">
                <g id="Info" transform="translate(434.000000, 82.000000)">
                    <path d="M6.7666,3.3726 L8.7796,7.2096 L7.5606,8.0186 L7.2126,9.4466 C9.1146,12.8746 13.7126,15.6536 13.9076,15.7706 L15.3996,15.3856 L16.2866,13.8616 L20.1746,15.7386 L18.9216,18.6726 L18.9216,18.6726 L18.4926,19.6756 C17.1976,19.4486 15.9706,19.1186 14.8056,18.6966 C10.9316,17.2936 7.7796,14.8216 5.4066,11.3026 C3.6946,8.7626 2.8546,6.3156 2.5036,5.0676 L4.9286,4.1036 L4.9286,4.1036 L6.7666,3.3726 Z M22.5726,15.6396 L22.0476,14.2386 L16.3266,11.4756 L14.9196,11.9056 L14.1016,13.3106 C12.9336,12.5046 10.9166,10.9746 9.6456,9.2336 L10.7906,8.4736 L11.1506,7.0686 L8.2316,1.5036 L6.8726,0.9996 L4.9286,1.7726 L4.3326,2.0096 L0.8266,3.4036 L0.8266,3.4036 L-0.0004,3.7316 L0.1616,4.6066 C0.1906,4.7616 0.8946,8.4496 3.5596,12.4366 C5.1806,14.8606 7.7546,17.6966 11.6766,19.6896 C13.7316,20.7336 16.1556,21.5466 19.0056,21.9486 L19.0056,21.9486 C19.0056,21.9486 19.0056,21.9486 19.0056,21.9486 L19.8266,22.0646 L21.0426,19.2206 L22.5726,15.6396 Z" id="phone-footer"></path>
                </g>
            </g>
        </g>
    </g>
</svg>