<?xml version="1.0" encoding="UTF-8"?>
<svg width="24px" height="30px" viewBox="0 0 24 30" version="1.1" xmlns="http://www.w3.org/2000/svg" xmlns:xlink="http://www.w3.org/1999/xlink">
    <!-- Generator: Sketch 59.1 (86144) - https://sketch.com -->
    <title>ebook-icon</title>
    <desc>Created with Sketch.</desc>
    <g id="Page-1" stroke="none" stroke-width="1" fill="none" fill-rule="evenodd">
        <g id="9-Producto" transform="translate(-1364.000000, -519.000000)" fill="#0090B2" fill-rule="nonzero">
            <g id="Product_v2" transform="translate(0.000000, 127.000000)">
                <g id="Product" transform="translate(1075.000000, 96.000000)">
                    <g id="Formato" transform="translate(0.000000, 236.000000)">
                        <g id="Ebook" transform="translate(259.000000, 35.000000)">
                            <path d="M50.8000195,25 C52.288125,25 53.4988477,26.2107227 53.4988477,27.6989453 L53.4988477,27.6989453 L53.4988477,52.3010547 C53.4988477,53.7892773 52.288125,55 50.7999023,55 L50.7999023,55 L32.6989453,55 C31.2107227,55 30,53.7892773 30,52.3010547 L30,52.3010547 L30,27.6989453 C30,26.2107227 31.2107812,25 32.6989453,25 L32.6989453,25 Z M48.4865625,28.8556445 L35.0123437,28.8556445 C34.3735547,28.8556445 33.8556445,29.3735547 33.8556445,30.0123437 L33.8556445,30.0123437 L33.8556445,48.5896094 C33.8556445,49.2283984 34.3735547,49.7463086 35.0123437,49.7463086 L35.0123437,49.7463086 L48.4866211,49.7463086 C49.1254102,49.7463086 49.6433203,49.2283984 49.6433203,48.589668 L49.6433203,48.589668 L49.6433203,30.0123437 C49.6433203,29.3735547 49.1253516,28.8556445 48.4865625,28.8556445 L48.4865625,28.8556445 Z M45.0652734,43.7927734 C45.7041797,43.7927734 46.2219727,44.3106836 46.2219727,44.9494727 C46.2219727,45.5882617 45.7040625,46.1061719 45.0652734,46.1061719 L45.0652734,46.1061719 L38.4336328,46.1061719 C37.7948437,46.1061719 37.2769336,45.5882617 37.2769336,44.9494727 C37.2769336,44.3106836 37.7948437,43.7927734 38.4336328,43.7927734 L38.4336328,43.7927734 Z M45.0652734,40.361875 C45.7041797,40.361875 46.2219727,40.8797852 46.2219727,41.5185742 C46.2219727,42.1573633 45.7040625,42.6752734 45.0652734,42.6752734 L45.0652734,42.6752734 L38.4336328,42.6752734 C37.7948437,42.6752734 37.2769336,42.1573633 37.2769336,41.5185742 C37.2769336,40.8797852 37.7948437,40.361875 38.4336328,40.361875 L38.4336328,40.361875 Z M45.0652734,36.9308594 C45.7041797,36.9308594 46.2219727,37.4487695 46.2219727,38.0875586 C46.2219727,38.7263477 45.7040625,39.2442578 45.0652734,39.2442578 L45.0652734,39.2442578 L38.4336328,39.2442578 C37.7948437,39.2442578 37.2769336,38.7263477 37.2769336,38.0875586 C37.2769336,37.4487695 37.7948437,36.9308594 38.4336328,36.9308594 L38.4336328,36.9308594 Z M43.6001953,32.4957227 C44.2389844,32.4957227 44.7568945,33.0136328 44.7568945,33.6524219 C44.7568945,34.2912109 44.2389844,34.8091211 43.6001953,34.8091211 L43.6001953,34.8091211 L39.8987695,34.8091211 C39.2599219,34.8091211 38.7420703,34.2913281 38.7420703,33.6524219 C38.7420703,33.0136328 39.2599805,32.4957227 39.8987695,32.4957227 L39.8987695,32.4957227 Z" id="ebook-icon"></path>
                        </g>
                    </g>
                </g>
            </g>
        </g>
    </g>
</svg>